<svg xmlns="http://www.w3.org/2000/svg" viewBox="0.334961 0.540012 51.63 51.74">
  <path d="M22.873 0.953011C22.637 1.13001 22.46 3.54901 22.46 6.20401V11.16L11.427 11.278L0.334961 11.455V26.5V41.545L11.368 41.722L22.401 41.84L22.578 46.973C22.696 50.1 22.991 52.165 23.404 52.283C24.112 52.519 51.96 27.385 51.96 26.5C51.96 25.91 24.348 0.540012 23.699 0.540012C23.463 0.540012 23.05 0.71701 22.873 0.953011ZM31.723 19.184C31.959 19.833 20.336 33.58 19.569 33.58C18.507 33.58 11.663 26.677 12.076 26.028C12.725 24.907 13.315 25.143 16.442 27.975L19.392 30.63L24.82 24.435C29.835 18.653 31.192 17.65 31.723 19.184Z" fill="#25CED1"/>
</svg>