<svg xmlns="http://www.w3.org/2000/svg" viewBox="0.500001 0.206293 56.01 36.42">
  <path d="M27.7286 1.052C26.4349 1.59106 24.2786 3.53169 22.9849 5.25669C21.0443 7.84419 19.7505 8.59888 16.9474 8.59888C14.4677 8.59888 12.4193 9.46138 10.6943 11.2942C7.56771 14.3129 7.24427 17.2239 9.93958 17.2239C11.0177 17.2239 12.8505 17.9786 14.0365 18.9489C16.0849 20.5661 16.0849 20.6739 13.9286 19.8114C8.43021 17.8708 5.95052 18.0864 3.25521 20.7817C-2.45885 26.4958 1.31458 36.6301 9.07708 36.6301C11.7724 36.6301 12.3115 36.1989 12.3115 34.1504C12.3115 29.9458 14.3599 29.0833 23.6318 29.0833C32.9036 29.0833 34.9521 29.9458 34.9521 34.1504C34.9521 36.0911 35.599 36.6301 37.7552 36.6301C41.6365 36.6301 46.8115 31.2395 46.8115 27.0348C46.8115 25.202 47.3505 23.6926 47.9974 23.6926C49.8302 23.6926 48.3208 30.0536 45.7333 33.6114L43.4693 36.6301H46.3802C50.8005 36.6301 56.5146 30.2692 56.5146 25.3098C56.5146 17.7629 52.0943 13.0192 45.0865 12.9114C42.7146 12.9114 39.8036 13.6661 38.6177 14.5286C36.138 16.3614 34.5208 16.577 35.599 14.9598C35.9224 14.3129 37.9708 13.127 39.9115 12.2645C43.9005 10.5395 44.4396 8.70669 41.8521 4.82544C39.2646 0.836376 32.688 -0.996437 27.7286 1.052Z" fill="#F06B07"/>
</svg>