<svg width="57" height="52" viewBox="0 0 57 52" fill="none" xmlns="http://www.w3.org/2000/svg">
<path d="M5.41146 0.65044C4.11771 1.94419 4.76459 4.20825 6.38177 4.20825C7.24427 4.20825 7.99896 3.56138 7.99896 2.69888C7.99896 0.866065 6.48959 -0.319873 5.41146 0.65044Z" fill="#F06B07"/>
<path d="M51.124 1.51311C49.1833 3.77717 50.5849 6.5803 53.4958 6.14905C56.299 5.82561 57.4849 2.2678 55.2208 0.866233C53.2802 -0.427517 52.6333 -0.319705 51.124 1.51311Z" fill="#F06B07"/>
<path d="M27.7286 2.052C26.4349 2.59106 24.2786 4.53169 22.9849 6.25669C21.0443 8.84419 19.7505 9.59888 16.9474 9.59888C14.4677 9.59888 12.4193 10.4614 10.6943 12.2942C7.56771 15.3129 7.24427 18.2239 9.93958 18.2239C11.0177 18.2239 12.8505 18.9786 14.0365 19.9489C16.0849 21.5661 16.0849 21.6739 13.9286 20.8114C8.43021 18.8708 5.95052 19.0864 3.25521 21.7817C-2.45885 27.4958 1.31458 37.6301 9.07708 37.6301C11.7724 37.6301 12.3115 37.1989 12.3115 35.1504C12.3115 30.9458 14.3599 30.0833 23.6318 30.0833C32.9036 30.0833 34.9521 30.9458 34.9521 35.1504C34.9521 37.0911 35.599 37.6301 37.7552 37.6301C41.6365 37.6301 46.8115 32.2395 46.8115 28.0348C46.8115 26.202 47.3505 24.6926 47.9974 24.6926C49.8302 24.6926 48.3208 31.0536 45.7333 34.6114L43.4693 37.6301H46.3802C50.8005 37.6301 56.5146 31.2692 56.5146 26.3098C56.5146 18.7629 52.0943 14.0192 45.0865 13.9114C42.7146 13.9114 39.8036 14.6661 38.6177 15.5286C36.138 17.3614 34.5208 17.577 35.599 15.9598C35.9224 15.3129 37.9708 14.127 39.9115 13.2645C43.9005 11.5395 44.4396 9.70669 41.8521 5.82544C39.2646 1.83638 32.688 0.00356293 27.7286 2.052Z" fill="#F06B07"/>
<path d="M14.0365 32.7787C12.8505 35.9052 13.2818 48.9505 14.6833 50.3521C16.1927 51.8615 30.424 52.0771 32.5802 50.6755C33.5505 50.1365 33.874 47.3333 33.6583 40.7568L33.3349 31.7005L24.063 31.3771C16.3005 31.1615 14.5755 31.3771 14.0365 32.7787ZM26.5427 37.3068C27.6208 38.2771 28.4833 39.5708 28.4833 40.1099C28.4833 40.7568 27.513 40.3255 26.3271 39.2474C24.1708 37.3068 24.1708 37.4146 23.9552 43.1287L23.7396 48.9505L23.4161 43.2365C22.9849 37.9537 22.7693 37.6302 21.1521 38.924C19.7505 39.8943 19.8583 39.6787 21.3677 37.8458C23.8474 35.0427 23.9552 34.9349 26.5427 37.3068Z" fill="#F06B07"/>
</svg>
