<svg width="803" height="767" viewBox="0 0 803 767" fill="none" xmlns="http://www.w3.org/2000/svg">
<g opacity="0.05" filter="url(#filter0_f_1_1080)">
<path d="M684 337C684 489.983 559.983 614 407 614C254.017 614 130 489.983 130 337C130 184.017 254.017 60 407 60C559.983 60 684 184.017 684 337Z" fill="#F06B07"/>
</g>
<path d="M291.014 701.511V704.798L352.829 713.119L430.06 728.17C430.06 728.17 434.221 724.779 426.409 718.892C418.598 713.004 375.359 705.443 353.391 709.624C353.391 709.561 331.059 693.699 291.014 701.511Z" fill="#DDDDDD" stroke="#DDDDDD" stroke-linecap="round" stroke-linejoin="round"/>
<path d="M283.951 702.447C283.951 702.447 332.463 700.107 347.192 711.933C353.433 716.926 358.155 713.14 365.238 712.974C372.322 712.807 410.568 708.532 431.808 729.741L471.125 698.172C471.125 698.172 447.587 672.46 405.877 687.844C405.877 687.844 393.395 672.73 348.253 680.355C347.858 680.916 283.951 702.447 283.951 702.447Z" fill="#F9F9F9" stroke="#DDDDDD" stroke-linecap="round" stroke-linejoin="round"/>
<path d="M405.887 687.875L351.737 709.562" stroke="#DDDDDD" stroke-linecap="round" stroke-linejoin="round"/>
<path d="M741.553 396.613V705.297C688.266 689.788 616.735 679.657 538.724 673.666V396.613H741.553Z" fill="#F9F9F9" stroke="#DDDDDD" stroke-linecap="round" stroke-linejoin="round"/>
<path d="M741.553 480.979H726.731V533.59" stroke="#DDDDDD" stroke-linecap="round" stroke-linejoin="round"/>
<path d="M643.384 530.178V477.703L630.153 478.483V532.466" stroke="#DDDDDD" stroke-linecap="round" stroke-linejoin="round"/>
<path d="M615.789 536.055V482.331L630.153 481.801" stroke="#DDDDDD" stroke-linecap="round" stroke-linejoin="round"/>
<path d="M604.649 536.055L603.889 487.782H615.789V536.055" fill="#DDDDDD"/>
<path d="M604.649 536.055L603.889 487.782H615.789V536.055" stroke="#DDDDDD" stroke-linecap="round" stroke-linejoin="round"/>
<path d="M552.673 536.055L538.693 489.02L549.521 486.502" stroke="#DDDDDD" stroke-width="0.75" stroke-linecap="round" stroke-linejoin="round"/>
<path d="M563.844 535.847C563.719 536.055 547.982 481.135 547.982 481.135L560.723 480.22L577.647 536.055" fill="#DDDDDD"/>
<path d="M563.844 535.847C563.719 536.055 547.982 481.135 547.982 481.135L560.723 480.22L577.647 536.055" stroke="#DDDDDD" stroke-linecap="round" stroke-linejoin="round"/>
<path d="M565.123 494.719L581.339 492.878L599.822 536.055" stroke="#DDDDDD" stroke-width="0.75" stroke-linecap="round" stroke-linejoin="round"/>
<path d="M612.991 457.732C613.136 457.732 626.981 405.413 626.981 405.413L636.342 406.723L623.247 457.69" fill="#DDDDDD"/>
<path d="M612.991 457.732C613.136 457.732 626.981 405.413 626.981 405.413L636.342 406.723L623.247 457.69" stroke="#DDDDDD" stroke-miterlimit="10"/>
<path d="M638.402 456.463L638.017 401.73H654.461L653.723 454.507" fill="#F9F9F9"/>
<path d="M638.402 456.463L638.017 401.73H654.461L653.723 454.507" stroke="#DDDDDD" stroke-width="0.75" stroke-linecap="round" stroke-linejoin="round"/>
<path d="M654.409 405.413H673.413L672.081 455.048" fill="#F9F9F9"/>
<path d="M654.409 405.413H673.413L672.081 455.048" stroke="#DDDDDD" stroke-width="0.75" stroke-linecap="round" stroke-linejoin="round"/>
<path d="M715.528 400.576L729.113 401.73L714.134 457.732L702.963 453.883L715.528 400.576Z" stroke="#DDDDDD" stroke-linecap="round" stroke-linejoin="round"/>
<path d="M728.124 457.201L741.553 408.075L728.124 405.413L714.135 457.732" fill="#DDDDDD"/>
<path d="M728.124 457.201L741.553 408.075L728.124 405.413L714.135 457.732" stroke="#DDDDDD" stroke-linecap="round" stroke-linejoin="round"/>
<path d="M597.929 443.596H605.658V457.732" stroke="#DDDDDD" stroke-linecap="round" stroke-linejoin="round"/>
<path d="M551.196 444.574L551.539 457.732" stroke="#DDDDDD" stroke-linecap="round" stroke-linejoin="round"/>
<path d="M607.748 425.799H551.539V434.776H607.748V425.799Z" stroke="#DDDDDD" stroke-linecap="round" stroke-linejoin="round"/>
<path d="M551.539 434.776H544.414V444.709L597.929 443.596V434.776" fill="#DDDDDD"/>
<path d="M551.539 434.776H544.414V444.709L597.929 443.596V434.776" stroke="#DDDDDD" stroke-linecap="round" stroke-linejoin="round"/>
<path d="M741.553 457.732H538.693V471.483H741.553V457.732Z" stroke="#DDDDDD" stroke-linecap="round" stroke-linejoin="round"/>
<path d="M741.553 536.055H538.693V549.805H741.553V536.055Z" stroke="#DDDDDD" stroke-linecap="round" stroke-linejoin="round"/>
<path d="M756.468 378.504V709.936C751.67 708.334 746.698 706.788 741.553 705.297C688.266 689.788 616.735 679.657 538.724 673.666C533.787 673.278 528.815 672.914 523.809 672.574V378.504H756.468Z" stroke="#DDDDDD" stroke-width="2" stroke-linecap="round" stroke-linejoin="round"/>
<path d="M1.00006 690.277C19.1506 686.023 45.2687 682.081 77.1283 678.69C89.6101 677.359 103.038 676.11 117.205 674.956C122.753 674.512 128.404 674.075 134.16 673.645C138.23 673.354 142.356 673.07 146.537 672.792C158.381 671.995 170.613 671.263 183.234 670.598C241.18 667.571 306.387 666.094 372.603 666.801C376.722 666.843 380.848 666.898 384.98 666.967C393.302 667.078 401.595 667.234 409.861 667.436C418.425 667.644 426.981 667.883 435.531 668.153C465.342 669.121 494.955 670.566 523.777 672.574C528.777 672.914 533.749 673.278 538.693 673.666L542.146 673.936C569.107 676.017 595.194 678.659 620.095 681.831C661.056 687.032 698.512 693.751 730.35 702.176C734.178 703.196 737.926 704.236 741.594 705.297C746.74 706.795 751.712 708.341 756.51 709.936C774.193 715.833 789.462 722.418 801.725 729.771" stroke="#DDDDDD" stroke-width="2" stroke-linecap="round" stroke-linejoin="round"/>
<path d="M372.603 319.028V666.801C292.002 665.948 212.867 668.33 146.537 672.792V319.028H372.603Z" fill="#F9F9F9" stroke="#DDDDDD" stroke-linecap="round" stroke-linejoin="round"/>
<path d="M300.396 645.541L317.589 593.128L327.523 594.106L312.42 645.447" stroke="#DDDDDD" stroke-linecap="round" stroke-linejoin="round"/>
<path d="M325.994 645.447L343.447 581.603H331.298L327.523 594.105" stroke="#DDDDDD" stroke-linecap="round" stroke-linejoin="round"/>
<path d="M337.955 645.447L350.749 591.724L340.847 591.11L325.994 645.447" fill="#DDDDDD"/>
<path d="M337.955 645.447L350.749 591.724L340.847 591.11L325.994 645.447" stroke="#DDDDDD" stroke-linecap="round" stroke-linejoin="round"/>
<path d="M372.603 579.938C372.603 580.188 353.069 579.938 353.069 579.938L353.786 644.927" stroke="#DDDDDD" stroke-linecap="round" stroke-linejoin="round"/>
<path d="M293.541 507.732H308.384L320.273 557.919H306.938" fill="#DDDDDD"/>
<path d="M293.541 507.732H308.384L320.273 557.919H306.938" stroke="#DDDDDD" stroke-linecap="round" stroke-linejoin="round"/>
<path d="M332.162 502.521H320.273C320.273 502.521 321.251 557.971 322.291 557.971H333.732" fill="#F9F9F9"/>
<path d="M332.162 502.521H320.273C320.273 502.521 321.251 557.971 322.291 557.971H333.732" stroke="#DDDDDD" stroke-linecap="round" stroke-linejoin="round"/>
<path d="M333.732 557.97C333.015 557.097 332.141 493.211 332.141 493.211H346.443V557.97" fill="#F9F9F9"/>
<path d="M333.732 557.97C333.015 557.097 332.141 493.211 332.141 493.211H346.443V557.97" stroke="#DDDDDD" stroke-linecap="round" stroke-linejoin="round"/>
<path d="M356.616 557.971L371.178 503.686L360.776 500.107C360.776 500.107 346.412 549.41 346.412 549.816V557.971" fill="#DDDDDD"/>
<path d="M356.616 557.971L371.178 503.686L360.776 500.107C360.776 500.107 346.412 549.41 346.412 549.816V557.971" stroke="#DDDDDD" stroke-linecap="round" stroke-linejoin="round"/>
<path d="M295.663 557.919L280.134 500.95L291.658 499.078L306.938 557.919" fill="#F9F9F9"/>
<path d="M295.663 557.919L280.134 500.95L291.658 499.078L306.938 557.919" stroke="#DDDDDD" stroke-linecap="round" stroke-linejoin="round"/>
<path d="M230.259 530.76L225.536 530.407V535.753" stroke="#DDDDDD" stroke-linecap="round" stroke-linejoin="round"/>
<path d="M278.625 533.08L278.199 541.547" stroke="#DDDDDD" stroke-linecap="round" stroke-linejoin="round"/>
<path d="M232.942 519.953L231.736 510.228H279.156V519.953" stroke="#DDDDDD" stroke-linecap="round" stroke-linejoin="round"/>
<path d="M230.259 530.761L229.479 519.954H282.713L283.327 533.184L230.259 530.761Z" fill="#DDDDDD" stroke="#DDDDDD" stroke-miterlimit="10"/>
<path d="M229.479 540.226L281.122 541.547V557.918" stroke="#DDDDDD" stroke-linecap="round" stroke-linejoin="round"/>
<path d="M243.375 437.23H180.457V447.309H243.375V437.23Z" stroke="#DDDDDD" stroke-width="0.75" stroke-linecap="round" stroke-linejoin="round"/>
<path d="M240.462 470.172C240.983 471.129 240.462 456.151 240.462 456.151L189.266 455.454V470.38" stroke="#DDDDDD" stroke-width="0.75" stroke-linecap="round" stroke-linejoin="round"/>
<path d="M237.384 447.31V456.109" stroke="#DDDDDD" stroke-width="0.75" stroke-linecap="round" stroke-linejoin="round"/>
<path d="M249.158 470.464L251.332 401.231L267.527 402.168L266.133 470.391" fill="#DDDDDD"/>
<path d="M249.158 470.464L251.332 401.231L267.527 402.168L266.133 470.391" stroke="#DDDDDD" stroke-linecap="round" stroke-linejoin="round"/>
<path d="M267.444 406.172H280.945L279.718 470.39" stroke="#DDDDDD" stroke-width="0.75" stroke-linecap="round" stroke-linejoin="round"/>
<path d="M192.824 447.996L193.344 455.506" stroke="#DDDDDD" stroke-width="0.75" stroke-linecap="round" stroke-linejoin="round"/>
<path d="M146.537 412.777H161.12L163.689 470.463" stroke="#DDDDDD" stroke-linecap="round" stroke-linejoin="round"/>
<path d="M175.828 470.172L174.132 417.395L161.297 416.708" stroke="#DDDDDD" stroke-linecap="round" stroke-linejoin="round"/>
<path d="M280.945 470.39L295.309 411.04L310.391 414.493" stroke="#DDDDDD" stroke-linecap="round" stroke-linejoin="round"/>
<path d="M295.029 470.39L312.451 406.172L327.367 412.017L312.045 470.39" stroke="#DDDDDD" stroke-linecap="round" stroke-linejoin="round"/>
<path d="M348.43 470.463L347.535 401.231L327.45 400.472V470.463" stroke="#DDDDDD" stroke-linecap="round" stroke-linejoin="round"/>
<path d="M365.634 470.463L364.583 406.858H347.535L349.002 470.463" fill="#DDDDDD"/>
<path d="M365.634 470.463L364.583 406.858H347.535L349.002 470.463" stroke="#DDDDDD" stroke-linecap="round" stroke-linejoin="round"/>
<path d="M372.603 470.38H146.527V484.141H372.603V470.38Z" stroke="#DDDDDD" stroke-linecap="round" stroke-linejoin="round"/>
<path d="M372.603 557.919H146.527V571.67H372.603V557.919Z" stroke="#DDDDDD" stroke-linecap="round" stroke-linejoin="round"/>
<path d="M372.603 645.447H146.527V659.208H372.603V645.447Z" stroke="#DDDDDD" stroke-width="2" stroke-linecap="round" stroke-linejoin="round"/>
<path d="M384.98 301.492V666.968C380.82 666.898 376.694 666.843 372.603 666.801C292.002 665.948 212.867 668.33 146.537 672.793C142.377 673.063 138.251 673.347 134.16 673.646V301.492H384.98Z" stroke="#DDDDDD" stroke-width="2" stroke-linecap="round" stroke-linejoin="round"/>
<path d="M286.739 326.164L284.429 333.403L268.65 382.862H258.998L277.835 323.771L286.739 326.164Z" stroke="#DDDDDD" stroke-width="0.75" stroke-linecap="round" stroke-linejoin="round"/>
<path d="M284.44 333.403L297.92 336.981L283.951 382.862" stroke="#DDDDDD" stroke-width="0.75" stroke-linecap="round" stroke-linejoin="round"/>
<path d="M298.243 319.039L297.098 382.852" stroke="#DDDDDD" stroke-width="0.75" stroke-linecap="round" stroke-linejoin="round"/>
<path d="M303.215 324.156H316.872" stroke="#DDDDDD" stroke-width="0.75" stroke-linecap="round" stroke-linejoin="round"/>
<path d="M320.918 319.039V382.852" stroke="#DDDDDD" stroke-width="0.75" stroke-linecap="round" stroke-linejoin="round"/>
<path d="M320.918 352.823L330.071 382.852" stroke="#DDDDDD" stroke-width="0.75" stroke-linecap="round" stroke-linejoin="round"/>
<path d="M338.371 382.852L347.535 379.014L328.927 331.042L320.918 333.403" stroke="#DDDDDD" stroke-width="0.75" stroke-linecap="round" stroke-linejoin="round"/>
<path d="M345.84 379.721L346.973 382.852H350.916L357.666 379.44L345.673 338.104L332.931 341.371" stroke="#DDDDDD" stroke-width="0.75" stroke-linecap="round" stroke-linejoin="round"/>
<path d="M372.603 382.852H146.527V396.603H372.603V382.852Z" stroke="#DDDDDD" stroke-linecap="round" stroke-linejoin="round"/>
<path d="M171.272 382.862H160.766L146.537 337.002L157.864 333.403L171.376 376.798" stroke="#DDDDDD" stroke-linecap="round" stroke-linejoin="round"/>
<path d="M185.751 382.862H171.272L171.376 376.798L172.281 325.134H184.7L185.002 341.142L185.792 382.862" stroke="#DDDDDD" stroke-linecap="round" stroke-linejoin="round"/>
<path d="M215.385 382.862H198.888L198.149 337.564L197.931 324.229L212.441 323.771C212.441 323.771 212.576 326.465 212.784 330.772C213.408 343.701 214.75 371.005 215.385 382.862Z" stroke="#DDDDDD" stroke-linecap="round" stroke-linejoin="round"/>
<path d="M185.751 382.862L185.002 341.142L184.887 334.443L198.149 337.564H198.16L198.888 382.862H185.792" fill="#DDDDDD"/>
<path d="M185.751 382.862L185.002 341.142L184.887 334.443L198.149 337.564H198.16L198.888 382.862H185.792" stroke="#DDDDDD" stroke-linecap="round" stroke-linejoin="round"/>
<path d="M215.385 382.862H229.791L228.522 333.404L228.459 330.772H212.784L215.385 382.862Z" fill="#DDDDDD" stroke="#DDDDDD" stroke-linecap="round" stroke-linejoin="round"/>
<path d="M228.522 333.403H244.363L244.852 382.862H229.791" stroke="#DDDDDD" stroke-linecap="round" stroke-linejoin="round"/>
<path d="M537.32 741.577L612.398 712.953L686.904 721.274C686.904 721.274 692.011 723.063 689.598 729.356L615.893 766L537.32 741.577Z" fill="#F9F9F9" stroke="#DDDDDD" stroke-linecap="round" stroke-linejoin="round"/>
<path d="M616.777 756.275C616.777 756.275 665.466 733.589 686.904 721.315Z" fill="#F9F9F9"/>
<path d="M616.777 756.275C616.777 756.275 665.466 733.589 686.904 721.315" stroke="#DDDDDD" stroke-linecap="round" stroke-linejoin="round"/>
<path d="M537.32 741.577C537.32 741.577 612.398 752.624 616.777 756.274C618.774 757.939 618.951 766.509 614.582 765.948C610.214 765.386 537.32 754.413 537.32 754.413C537.32 754.413 548.002 749.545 537.32 741.577Z" fill="#DDDDDD" stroke="#DDDDDD" stroke-linecap="round" stroke-linejoin="round"/>
<path d="M636.585 351.5C656.482 347.441 669.322 328.02 665.263 308.123C661.204 288.226 641.783 275.386 621.886 279.445C601.989 283.504 589.149 302.925 593.208 322.822C597.267 342.719 616.688 355.559 636.585 351.5Z" stroke="#DDDDDD" stroke-width="2" stroke-linecap="round" stroke-linejoin="round"/>
<path d="M647.035 325.779L633.575 316.106C633.611 315.889 633.632 315.67 633.638 315.45C633.635 314.654 633.416 313.873 633.004 313.191C632.592 312.51 632.002 311.953 631.297 311.581C631.058 306.557 630.621 297.373 630.205 288.76C630.122 286.982 628.416 286.992 628.343 288.76L627.303 311.477C626.42 311.915 625.71 312.638 625.288 313.529C624.866 314.42 624.755 315.427 624.975 316.388C625.195 317.349 625.732 318.208 626.5 318.827C627.267 319.445 628.221 319.788 629.207 319.798C630.131 319.798 631.031 319.503 631.776 318.956L645.984 327.277C647.555 328.265 648.491 326.819 647.035 325.779Z" fill="#DDDDDD" stroke="#DDDDDD" stroke-miterlimit="10"/>
<path d="M259.112 706.899L360.776 726.058C360.776 726.058 353.807 737.406 362.856 740.745L289.474 760.799C289.474 760.799 195.747 739.279 192.366 737.802C188.986 736.325 185.335 729.262 193.781 726.516C202.227 723.77 259.112 706.899 259.112 706.899Z" fill="#F9F9F9" stroke="#DDDDDD" stroke-linecap="round" stroke-linejoin="round"/>
<path d="M289.474 760.799C285.678 760.352 283.161 752.156 290.785 749.358C298.128 746.653 360.735 726.1 360.735 726.1" fill="#F9F9F9"/>
<path d="M289.474 760.799C285.678 760.352 283.161 752.156 290.785 749.358C298.128 746.653 360.735 726.1 360.735 726.1" stroke="#DDDDDD" stroke-linecap="round" stroke-linejoin="round"/>
<path d="M206.231 732.008L274.6 748.307" stroke="#DDDDDD" stroke-linecap="round" stroke-linejoin="round"/>
<path d="M61.1414 736.522C71.9589 734.015 70.0138 730.583 67.1846 723.947C64.3554 717.311 55.743 710.799 42.3147 713.629C28.8864 716.458 28.8864 729.314 39.3711 732.986C49.8558 736.657 55.6598 737.791 61.1414 736.522Z" fill="#F9F9F9" stroke="#DDDDDD" stroke-linecap="round" stroke-linejoin="round"/>
<path d="M63.5961 726.963C64.8754 729.404 65.9202 731.96 66.7165 734.598Z" fill="#F9F9F9"/>
<path d="M63.5961 726.963C64.8754 729.404 65.9202 731.96 66.7165 734.598" stroke="#DDDDDD" stroke-linecap="round" stroke-linejoin="round"/>
<path d="M58.801 723.219C59.7524 724.674 60.8352 726.039 62.0358 727.296C63.4088 728.659 64.8754 728.118 64.605 726.672C64.0973 724.394 63.0242 722.28 61.4846 720.525C61.1161 720.234 60.6534 720.088 60.1846 720.116C59.7158 720.144 59.2737 720.343 58.9423 720.676C58.6108 721.009 58.4133 721.452 58.3873 721.92C58.3612 722.389 58.5085 722.851 58.801 723.219V723.219Z" fill="#F9F9F9" stroke="#DDDDDD" stroke-linecap="round" stroke-linejoin="round"/>
<path d="M531.547 196V322.991C531.015 323.375 530.581 323.88 530.281 324.464C529.981 325.048 529.823 325.695 529.821 326.351V329.815C529.823 330.471 529.981 331.118 530.281 331.702C530.581 332.286 531.015 332.79 531.547 333.174V338.105H536.426V333.174C536.956 332.789 537.388 332.284 537.686 331.7C537.985 331.116 538.141 330.47 538.142 329.815V326.351C538.141 325.695 537.985 325.049 537.686 324.466C537.388 323.882 536.956 323.377 536.426 322.991V196" fill="#DDDDDD"/>
<path d="M531.547 196V322.991C531.015 323.375 530.581 323.88 530.281 324.464C529.981 325.048 529.823 325.695 529.821 326.351V329.815C529.823 330.471 529.981 331.118 530.281 331.702C530.581 332.286 531.015 332.79 531.547 333.174V338.105H536.426V333.174C536.956 332.789 537.388 332.284 537.686 331.7C537.985 331.116 538.141 330.47 538.142 329.815V326.351C538.141 325.695 537.985 325.049 537.686 324.466C537.388 323.882 536.956 323.377 536.426 322.991V196" stroke="#DDDDDD" stroke-width="2" stroke-linecap="round" stroke-linejoin="round"/>
<path d="M320.627 196V322.991C320.096 323.377 319.664 323.882 319.366 324.466C319.067 325.049 318.911 325.695 318.91 326.351V329.815C318.911 330.47 319.067 331.116 319.366 331.7C319.664 332.284 320.096 332.789 320.627 333.174V338.105H325.505V333.174C326.037 332.79 326.471 332.286 326.771 331.702C327.071 331.118 327.229 330.471 327.231 329.815V326.351C327.229 325.695 327.071 325.048 326.771 324.464C326.471 323.88 326.037 323.375 325.505 322.991V196" fill="#DDDDDD"/>
<path d="M320.627 196V322.991C320.096 323.377 319.664 323.882 319.366 324.466C319.067 325.049 318.911 325.695 318.91 326.351V329.815C318.911 330.47 319.067 331.116 319.366 331.7C319.664 332.284 320.096 332.789 320.627 333.174V338.105H325.505V333.174C326.037 332.79 326.471 332.286 326.771 331.702C327.071 331.118 327.229 330.471 327.231 329.815V326.351C327.229 325.695 327.071 325.048 326.771 324.464C326.471 323.88 326.037 323.375 325.505 322.991V196" stroke="#DDDDDD" stroke-width="2" stroke-linecap="round" stroke-linejoin="round"/>
<path d="M546.661 327.641H310.392V342.369H546.661V327.641Z" fill="#DDDDDD" stroke="#DDDDDD" stroke-width="2" stroke-linecap="round" stroke-linejoin="round"/>
<path d="M549.864 331.438H546.661V338.583H549.864V331.438Z" fill="#F9F9F9" stroke="#DDDDDD" stroke-linecap="round" stroke-linejoin="round"/>
<path d="M536.519 342.369H320.523C318.656 342.369 317.142 343.883 317.142 345.75V345.958C317.142 347.825 318.656 349.338 320.523 349.338H536.519C538.386 349.338 539.9 347.825 539.9 345.958V345.75C539.9 343.883 538.386 342.369 536.519 342.369Z" fill="#F9F9F9" stroke="#DDDDDD" stroke-linecap="round" stroke-linejoin="round"/>
<path d="M520.168 728.94L594.091 699.587L667.453 707.149C667.453 707.149 672.425 712.932 669.044 719.506L597.534 752.541L520.168 728.94Z" fill="#F9F9F9" stroke="#DDDDDD" stroke-linecap="round" stroke-linejoin="round"/>
<path d="M598.408 742.825C598.408 742.825 658.05 715.563 667.453 707.148Z" fill="#F9F9F9"/>
<path d="M598.408 742.825C598.408 742.825 658.05 715.563 667.453 707.148" stroke="#DDDDDD" stroke-linecap="round" stroke-linejoin="round"/>
<path d="M520.168 728.939C520.168 728.939 594.091 739.216 598.408 742.825C600.363 744.469 600.551 753.04 596.234 752.52C591.917 751.999 520.168 741.775 520.168 741.775C520.168 741.775 530.642 736.803 520.168 728.939Z" fill="#F9F9F9" stroke="#DDDDDD" stroke-linecap="round" stroke-linejoin="round"/>
<path d="M260.246 608.938C269.14 620.12 291.056 665.106 273.966 678.285C250.334 696.508 222.999 646.144 217.985 631.478L260.246 608.938Z" fill="#F4A789"/>
<path d="M262.722 607.076C262.722 607.076 259.393 609.645 254.11 613.192C244.519 619.631 228.491 629.262 214.282 632.424C214.282 632.424 212.816 629.491 210.579 625.071L205.587 615.179C202.581 609.198 199.242 602.562 196.392 596.872L193.074 590.215C192.46 588.988 191.909 587.875 191.441 586.908C183.12 570.047 173.81 530.324 201.145 527.682C203.481 527.439 205.833 527.39 208.177 527.536H208.291C208.936 527.588 209.56 527.65 210.174 527.734L210.694 527.806L211.609 527.973C211.973 528.035 212.337 528.119 212.649 528.202C212.961 528.285 213.211 528.337 213.481 528.42L213.866 528.514L214.657 528.774C214.908 528.85 215.155 528.94 215.395 529.044C215.648 529.12 215.895 529.213 216.134 529.325C216.421 529.435 216.702 529.56 216.976 529.7C217.228 529.805 217.475 529.923 217.715 530.053V530.053C218.041 530.206 218.353 530.372 218.651 530.552C218.921 530.698 219.181 530.854 219.431 531.01L220.076 531.437C220.834 531.94 221.563 532.485 222.26 533.07C222.562 533.319 222.853 533.558 223.134 533.829C224.081 534.688 224.98 535.597 225.828 536.554C226.109 536.877 226.4 537.209 226.681 537.594C226.962 537.979 227.118 538.125 227.336 538.395C227.69 538.832 228.043 539.29 228.376 539.768C228.616 540.07 228.844 540.392 229.073 540.715C229.427 541.204 229.78 541.755 230.113 542.233C230.446 542.712 230.665 543.034 230.935 543.471L231.788 544.823C232.079 545.281 232.36 545.749 232.651 546.238C233.317 547.33 233.972 548.485 234.638 549.681C234.846 550.076 235.075 550.482 235.293 550.887C235.512 551.293 235.886 551.99 236.188 552.562C236.489 553.134 236.77 553.602 237.051 554.205C237.332 554.809 237.706 555.464 238.039 556.119C238.726 557.471 239.412 558.834 240.12 560.207C247.962 575.882 255.971 592.836 259.976 601.418C261.744 604.954 262.722 607.076 262.722 607.076Z" fill="#F06B07"/>
<path d="M240.224 560.197C232.567 560.466 225.321 563.722 220.034 569.267C219.3 570.035 218.606 570.841 217.954 571.68C211.343 579.843 202.788 586.217 193.074 590.215C192.46 588.988 191.909 587.875 191.441 586.908C183.12 570.047 173.81 530.324 201.145 527.682C203.481 527.439 205.833 527.39 208.177 527.536H208.291C208.936 527.588 209.56 527.65 210.174 527.734L210.694 527.806L211.609 527.973C211.973 528.035 212.337 528.119 212.649 528.202C212.961 528.285 213.211 528.337 213.481 528.42L213.866 528.514L214.657 528.774C214.908 528.85 215.155 528.94 215.395 529.044C215.648 529.12 215.895 529.213 216.134 529.325C216.421 529.435 216.702 529.56 216.976 529.7C217.228 529.805 217.475 529.923 217.715 530.053V530.053C218.041 530.206 218.353 530.372 218.651 530.552C218.921 530.698 219.181 530.854 219.431 531.01L220.076 531.437C220.834 531.94 221.563 532.485 222.26 533.07C222.562 533.319 222.853 533.558 223.134 533.829C224.081 534.688 224.98 535.597 225.828 536.554C226.109 536.877 226.4 537.209 226.681 537.594C226.962 537.979 227.118 538.125 227.336 538.395C227.69 538.832 228.043 539.29 228.376 539.768C228.616 540.07 228.844 540.392 229.073 540.715C229.427 541.204 229.78 541.755 230.113 542.233C230.446 542.712 230.665 543.034 230.935 543.471L231.788 544.823C232.079 545.281 232.36 545.749 232.651 546.238C233.317 547.33 233.972 548.485 234.638 549.681C234.846 550.076 235.075 550.482 235.293 550.887C235.512 551.293 235.886 551.99 236.188 552.562C236.489 553.134 236.77 553.602 237.051 554.205C237.332 554.809 237.706 555.464 238.039 556.119C238.861 557.461 239.547 558.824 240.224 560.197Z" fill="#F06B07"/>
<path d="M254.11 613.192C244.519 619.631 228.491 629.263 214.282 632.425C214.282 632.425 212.816 629.491 210.579 625.071L205.587 615.179C202.581 609.198 199.242 602.562 196.392 596.872L212.639 581.073C213.273 580.833 225.703 581.468 221.865 591.89C218.027 602.312 211.256 609.292 216.779 613.525C222.302 617.759 238.258 583.621 252.331 608.907C253.098 610.257 253.695 611.696 254.11 613.192V613.192Z" fill="#DE660C"/>
<path d="M221.792 553.217C221.792 553.768 221.792 554.33 221.709 554.913C221.532 557.815 221.21 561.07 220.773 564.732C220.617 566.115 220.367 567.623 220.034 569.267C219.649 571.253 219.15 573.427 218.578 575.705C216.758 582.861 214.064 591.401 210.891 600.513C210.517 601.553 210.132 602.697 209.737 603.789C209.04 605.776 208.312 607.773 207.584 609.78C206.932 611.569 206.266 613.369 205.587 615.179C197.806 635.982 188.851 657.45 183.234 670.598C170.627 671.256 158.395 671.988 146.538 672.792C142.377 673.063 138.251 673.347 134.16 673.645C128.397 674.075 122.746 674.512 117.205 674.956C103.039 676.11 89.6416 677.359 77.1286 678.69C79.4066 667.488 85.5746 637.812 92.8244 606.816C96.8186 589.757 101.146 572.293 105.306 557.295C108.25 546.737 111.131 537.407 113.763 530.251C116.509 522.876 118.963 517.852 121.044 516.261C128.262 510.748 134.482 508.98 142.273 509.937C143.126 510.051 143.989 510.186 144.884 510.353C145.778 510.519 146.683 510.727 147.619 510.956C147.963 511.029 148.306 511.122 148.659 511.216C149.013 511.31 149.398 511.424 149.772 511.528L150.948 511.861C152.799 512.416 154.765 513.064 156.845 513.806L158.135 514.264C159.175 514.638 160.215 515.033 161.339 515.46C163.419 516.24 165.624 517.114 167.975 518.039C173.852 520.38 181.59 523.521 197.994 526.974C199.086 527.193 200.136 527.432 201.114 527.661L201.988 527.858L202.83 528.066C203.246 528.16 203.673 528.274 204.068 528.378C204.463 528.482 204.869 528.587 205.254 528.691C206.034 528.899 206.783 529.107 207.501 529.335C208.655 529.699 209.737 530.074 210.746 530.48L211.692 530.875C212.296 531.156 212.868 531.436 213.398 531.728L214.105 532.123C215.2 532.764 216.213 533.536 217.122 534.422L217.299 534.599L217.548 534.869L217.881 535.243C218.21 535.633 218.519 536.039 218.807 536.46C218.963 536.7 219.109 536.928 219.254 537.189C219.4 537.449 219.483 537.584 219.587 537.802L219.733 538.093C220.577 539.904 221.138 541.833 221.397 543.814C221.397 544.074 221.47 544.334 221.511 544.615C221.553 544.896 221.511 544.958 221.574 545.146C221.636 545.333 221.636 545.739 221.657 546.04C221.678 546.342 221.709 546.706 221.719 547.08V547.528C221.719 547.892 221.719 548.266 221.719 548.651C221.886 550.055 221.865 551.574 221.792 553.217Z" fill="#F06B07"/>
<path d="M183.234 670.598C188.851 657.45 197.796 636.013 205.587 615.179C206.28 613.369 206.946 611.569 207.584 609.78C208.312 607.773 209.04 605.776 209.737 603.789C210.132 602.697 210.517 601.594 210.891 600.513C214.012 591.401 216.758 582.83 218.578 575.705" stroke="#DE660C" stroke-width="0.75" stroke-linecap="round" stroke-linejoin="round"/>
<path d="M220.773 564.732C220.617 566.115 220.367 567.623 220.034 569.267C219.3 570.035 218.606 570.841 217.954 571.68C211.343 579.844 202.788 586.217 193.074 590.215C178.012 596.175 160.403 594.698 149.023 571.389C147.016 567.228 145.05 563.504 143.147 560.082C132.912 541.807 123.81 533.039 113.783 530.272C116.529 522.897 118.984 517.873 121.064 516.282C128.283 510.769 134.503 509.001 142.294 509.958C143.147 510.072 144.01 510.207 144.905 510.374C145.799 510.54 146.704 510.748 147.64 510.977C147.983 511.05 148.327 511.143 148.68 511.237C149.034 511.331 149.419 511.445 149.793 511.549L150.969 511.882C152.82 512.437 154.786 513.085 156.866 513.827L158.156 514.285C159.196 514.659 160.236 515.054 161.36 515.481C162.223 515.814 163.128 516.147 164.043 516.521C164.657 516.75 165.26 516.989 165.895 517.249L167.975 518.071C173.852 520.411 181.59 523.552 197.994 527.006C199.086 527.224 200.136 527.463 201.114 527.692C220.357 532.061 224.132 536.866 220.773 564.732Z" fill="#F06B07"/>
<path d="M208.208 527.536C204.869 537.833 196.527 548.495 183.785 546.56C169.878 544.48 161.308 530.115 161.37 515.48C163.45 516.261 165.655 517.134 168.006 518.06C173.883 520.4 181.622 523.542 198.025 526.995C199.117 527.213 200.168 527.453 201.145 527.681C203.491 527.437 205.854 527.388 208.208 527.536V527.536Z" fill="white"/>
<path d="M155.108 660.643C149.627 665.012 134.753 671.045 117.205 674.956C103.039 676.11 89.6416 677.358 77.1286 678.69C79.4066 667.487 85.5746 637.812 92.8244 606.816C96.8186 589.757 101.146 572.293 105.306 557.294C135.928 561.601 144.093 594.022 130.186 604.985C114.584 617.321 112.868 627.567 132.62 627.296C152.373 627.026 170.544 648.359 155.108 660.643Z" fill="#DE660C"/>
<path d="M203.933 488.073C203.787 489.55 203.631 490.954 203.496 492.296C202.269 504.299 201.717 511.674 201.634 518.445C201.634 522.023 201.634 525.435 201.884 529.273C201.884 529.273 197.016 545.25 179.677 538.634C167.444 533.954 168.006 518.092 168.006 518.092C171.584 506.746 173.965 495.057 175.11 483.215C175.526 477.276 206.18 466.583 203.933 488.073Z" fill="#F4A789"/>
<path d="M203.496 492.296C202.269 504.299 201.717 511.674 201.634 518.445C191.69 521.462 181.33 509.843 187.072 497.091C191.233 488.052 198.68 489.841 203.496 492.296Z" fill="#F4A789"/>
<path d="M262.722 607.076C262.722 607.076 236.302 627.515 214.282 632.424C214.282 632.424 212.816 629.491 210.579 625.071C228.678 618.83 247.629 609.728 260.08 601.407C261.744 604.954 262.722 607.076 262.722 607.076Z" fill="white"/>
<path d="M210.725 504.018C204.9 511.601 194.551 509.832 178.418 493.46C172.312 487.219 165.271 477.161 165.458 469.204C165.645 461.247 175.277 444.49 193.542 454.112C200.594 457.835 205.639 465.012 208.842 472.834C210.054 475.826 211.017 478.911 211.724 482.06C213.856 491.598 213.429 500.492 210.725 504.018Z" fill="#F4A789"/>
<path d="M207.573 475.05C211.606 475.05 214.875 471.781 214.875 467.748C214.875 463.715 211.606 460.446 207.573 460.446C203.541 460.446 200.272 463.715 200.272 467.748C200.272 471.781 203.541 475.05 207.573 475.05Z" stroke="#333333" stroke-miterlimit="10"/>
<path d="M191.306 471.638C191.303 471.939 191.391 472.234 191.556 472.485C191.722 472.736 191.958 472.932 192.236 473.049C192.513 473.165 192.819 473.197 193.114 473.139C193.409 473.082 193.681 472.938 193.894 472.726C194.108 472.514 194.253 472.243 194.313 471.949C194.372 471.654 194.343 471.348 194.228 471.07C194.113 470.792 193.919 470.554 193.669 470.387C193.419 470.219 193.125 470.13 192.824 470.13C192.423 470.13 192.038 470.288 191.754 470.571C191.469 470.854 191.308 471.237 191.306 471.638Z" fill="#333333"/>
<path d="M201.884 469.267C201.884 469.567 201.973 469.861 202.14 470.11C202.307 470.36 202.544 470.555 202.821 470.67C203.099 470.785 203.404 470.815 203.699 470.756C203.993 470.697 204.264 470.553 204.476 470.34C204.689 470.128 204.833 469.857 204.892 469.563C204.95 469.268 204.92 468.963 204.805 468.686C204.69 468.408 204.496 468.171 204.246 468.004C203.996 467.837 203.703 467.748 203.402 467.748C203 467.748 202.613 467.908 202.329 468.193C202.044 468.478 201.884 468.864 201.884 469.267Z" fill="#333333"/>
<path d="M179.937 492.379C176.213 494.522 170.43 494.522 168.433 488.593C166.436 482.664 172.125 479.689 175.35 480.272C179.323 481 181.528 486.825 179.937 492.379Z" fill="#F4A789"/>
<path d="M177.95 486.949C176.14 483.517 172.052 482.788 170.315 487.438" stroke="#333333" stroke-width="0.75" stroke-linecap="round" stroke-linejoin="round"/>
<path d="M176.941 485.535C172.52 483.548 171.636 491.089 176.733 489.186" stroke="#333333" stroke-width="0.75" stroke-linecap="round" stroke-linejoin="round"/>
<path d="M206.523 467.967C204.713 464.514 202.387 461.358 199.627 458.605C195.144 461.122 192.138 458.824 192.138 458.824C192.138 458.824 187.769 463.494 183.692 462.36C179.614 461.226 179.916 458.387 177.347 457.742C174.778 457.097 172.302 459.822 172.302 460.602C172.302 461.383 173.633 461.871 176.078 467.665C178.522 473.459 177.794 481.582 172.801 482.497C171.21 482.789 163.253 481.697 159.279 475.695C159.2 475.596 159.127 475.492 159.061 475.383C155.181 469.09 157.449 464.565 158.77 462.901C160.091 461.237 162.161 461.975 162.452 460.394C164.137 451.397 172.427 443.658 181.31 442.826C190.193 441.994 189.912 445.229 189.912 445.229C189.912 445.229 198.784 444.553 203.6 450.679C203.891 451.043 204.162 451.408 204.401 451.772C206.011 454.111 207.043 456.798 207.412 459.614C207.78 462.429 207.476 465.292 206.523 467.967V467.967Z" fill="#333333"/>
<path d="M206.523 467.967C204.713 464.514 202.387 461.358 199.627 458.605C195.144 461.122 192.138 458.824 192.138 458.824C192.138 458.824 187.769 463.494 183.692 462.36C179.614 461.226 179.916 458.387 177.347 457.742C174.778 457.097 172.302 459.822 172.302 460.602C172.302 461.383 173.633 461.871 176.078 467.665C178.522 473.459 177.794 481.582 172.801 482.497C171.21 482.789 163.253 481.697 159.279 475.695C169.681 473.76 170.024 468.227 167.798 459.323C166.342 453.457 177.16 447.965 183.203 451.699C186.968 454.039 197.307 453.301 204.401 451.772C206.011 454.111 207.043 456.798 207.412 459.614C207.78 462.429 207.476 465.292 206.523 467.967V467.967Z" fill="#333333"/>
<path d="M189.933 445.239C186.341 445.229 182.783 445.936 179.469 447.32" stroke="#333333" stroke-width="0.75" stroke-linecap="round" stroke-linejoin="round"/>
<path d="M191.056 451.563C192.699 451.855 197.879 456.317 199.627 458.616C199.627 458.616 202.529 460.696 203.933 457.742" stroke="#333333" stroke-width="0.75" stroke-linecap="round" stroke-linejoin="round"/>
<path d="M181.559 454.205C183.005 452.936 185.824 453.29 187.8 455.453C189.064 456.779 190.51 457.918 192.096 458.834" stroke="#333333" stroke-width="0.75" stroke-linecap="round" stroke-linejoin="round"/>
<path d="M195.893 464.357C195.425 469.558 197.058 472.003 199.294 472.138C201.53 472.273 204.495 473.022 203.933 476.527" stroke="#333333" stroke-width="0.75" stroke-linecap="round" stroke-linejoin="round"/>
<path d="M193.313 483.184C196.404 483.718 199.538 483.958 202.674 483.902C202.674 483.902 201.634 487.896 197.775 487.438C196.675 487.298 195.649 486.809 194.846 486.044C194.043 485.278 193.506 484.276 193.313 483.184V483.184Z" fill="white" stroke="#333333" stroke-width="0.75" stroke-linecap="round" stroke-linejoin="round"/>
<path d="M183.068 473.199C183.068 474.639 183.495 476.046 184.295 477.244C185.095 478.441 186.232 479.374 187.562 479.925C188.893 480.476 190.357 480.621 191.769 480.34C193.181 480.059 194.479 479.365 195.497 478.347C196.515 477.329 197.209 476.031 197.49 474.619C197.771 473.207 197.626 471.743 197.075 470.412C196.524 469.082 195.591 467.945 194.394 467.145C193.196 466.345 191.789 465.917 190.349 465.917C188.418 465.917 186.566 466.685 185.2 468.05C183.835 469.416 183.068 471.267 183.068 473.199V473.199Z" stroke="#333333" stroke-miterlimit="10"/>
<path d="M197.016 461.32C196.881 463.921 204.172 463.401 204.235 462.277C204.297 461.154 197.151 458.845 197.016 461.32Z" fill="#333333"/>
<path d="M184.825 467.415C185.574 468.913 192.731 465.044 191.066 462.339C189.402 459.635 183.796 465.397 184.825 467.415Z" fill="#333333"/>
<path d="M179.937 492.379C178.085 493.469 175.913 493.885 173.789 493.554" stroke="#333333" stroke-width="0.75" stroke-linecap="round" stroke-linejoin="round"/>
<path d="M135.731 573.458C126.546 586.804 119.026 600.273 112.254 612.672C95.5393 643.263 85.9803 665.522 65.375 665.251C46.5796 664.991 44.5721 637.375 66.488 592.441L60.9544 587.292C60.9544 587.292 77.0663 563.806 92.5645 540.215C106.565 518.924 118.818 503.488 142.304 509.937C156.169 513.775 152.04 549.65 135.731 573.458Z" fill="#F4A789"/>
<path d="M143.147 560.051C141.076 564.721 138.594 569.197 135.73 573.427C128.449 583.974 122.261 594.594 116.633 604.704C115.125 607.388 113.669 610.04 112.254 612.641C105.679 611.061 99.1933 609.131 92.8245 606.857C83.0575 603.227 73.2489 598.536 66.4152 592.451L60.8816 587.303C60.8816 587.303 62.6498 584.734 65.5622 580.459C71.4599 571.773 82.111 556.026 92.4916 540.226C94.884 536.575 97.2347 533.101 99.5958 529.876C111.037 514.274 122.77 504.601 142.242 509.947C153.787 513.172 152.924 538.114 143.147 560.051Z" fill="#F06B07"/>
<path d="M116.633 604.777C115.125 607.461 113.669 610.113 112.254 612.713C97.8588 609.156 77.9296 602.728 66.488 592.493L60.9544 587.344C60.9544 587.344 62.7226 584.775 65.635 580.5C74.1746 589.768 85.6162 595.665 116.633 604.777Z" fill="white"/>
<path d="M143.147 560.051C132.912 541.776 123.81 533.007 113.783 530.24C109.157 529.052 104.323 528.917 99.6374 529.845C111.079 514.243 122.812 504.569 142.283 509.916C153.787 513.171 152.924 538.114 143.147 560.051Z" fill="#F06B07"/>
<path d="M143.209 559.926C141.132 564.651 138.628 569.177 135.73 573.448C126.546 586.793 119.026 600.263 112.254 612.662" stroke="#DE660C" stroke-width="0.75" stroke-linecap="round" stroke-linejoin="round"/>
<path d="M141.94 541.578C144.021 549.015 147.318 552.468 140.536 565.501" stroke="#DE660C" stroke-width="0.75" stroke-linecap="round" stroke-linejoin="round"/>
<path d="M52.9452 644.906C60.9231 625.673 90.1408 625.039 125.423 637.906C160.704 650.772 199.491 663.66 205.368 665.251C211.245 666.842 210.142 686.865 195.352 685.752C180.561 684.639 124.622 689.486 91.8882 683.402C59.1548 677.317 47.6924 657.481 52.9452 644.906Z" fill="#F4A789"/>
<path d="M69.4003 631.041C78.7616 628.274 91.0562 628.68 105.109 631.852" stroke="#333333" stroke-width="0.75" stroke-linecap="round" stroke-linejoin="round"/>
<path d="M289.558 665.844C305.16 643.418 313.211 554.881 313.211 554.881C313.211 554.881 328.865 547.6 331.465 545.842C334.066 544.084 339.121 535.285 339.994 532.653C339.994 532.653 344.384 529.97 344.249 528.493C344.113 527.016 342.501 527.016 342.501 527.016C342.501 527.016 343.541 523.656 337.873 524.602C337.605 524.251 337.243 523.982 336.829 523.827C336.414 523.673 335.965 523.638 335.532 523.729C333.847 523.926 313.793 529.897 313.793 529.897C313.793 529.897 321.979 524.197 322.114 521.919C322.249 519.641 319.483 520.525 317.6 521.659C313.786 523.905 309.685 525.623 305.41 526.766C303.402 527.348 297.088 532.404 291.388 543.335C285.688 554.267 252.237 626.246 248.586 635.981C236.645 667.997 263.585 703.05 289.558 665.844Z" fill="#F4A789"/>
<path d="M260.59 608.865C254.682 621.929 249.845 632.663 248.586 635.981" stroke="#333333" stroke-width="0.75" stroke-linecap="round" stroke-linejoin="round"/>
<path d="M331.465 545.842C334.076 544.095 339.121 535.285 339.994 532.653C339.994 532.653 344.384 529.97 344.249 528.493C344.113 527.016 342.501 527.016 342.501 527.016C342.501 527.016 343.541 523.656 337.873 524.602C337.605 524.251 337.243 523.982 336.829 523.827C336.414 523.673 335.965 523.638 335.532 523.729C333.847 523.926 313.793 529.897 313.793 529.897C313.793 529.897 321.979 524.197 322.114 521.919C322.25 519.641 319.483 520.525 317.6 521.659C313.786 523.905 309.686 525.623 305.41 526.766" stroke="#333333" stroke-width="0.75" stroke-linecap="round" stroke-linejoin="round"/>
<path d="M313.793 529.887L310.673 532.029C310.673 532.029 313.231 537.719 306.939 542.431" stroke="#333333" stroke-width="0.75" stroke-linecap="round" stroke-linejoin="round"/>
<path d="M319.243 533.184L337.872 524.603" stroke="#333333" stroke-width="0.75" stroke-linecap="round" stroke-linejoin="round"/>
<path d="M326.348 539.477C326.504 539.373 331.996 536.783 331.996 536.783C331.996 536.783 337.644 527.983 339.142 527.536C340.639 527.088 342.356 527.817 339.994 532.653" stroke="#333333" stroke-width="0.75" stroke-linecap="round" stroke-linejoin="round"/>
<path d="M322.291 536.169L338.486 527.983" stroke="#333333" stroke-width="0.75" stroke-linecap="round" stroke-linejoin="round"/>
<path d="M342.501 527.016L340.41 527.525" stroke="#333333" stroke-width="0.75" stroke-linecap="round" stroke-linejoin="round"/>
<path d="M279.042 637.708C269.847 665.334 253.797 704.85 253.797 704.85L146.569 729.179L72.2816 711.579V706.16L157.209 688.249C163.326 672.751 171.127 643.242 174.986 642.482C181.299 641.234 269.587 627.484 276.254 627.307C282.557 627.13 281.039 631.707 279.042 637.708Z" fill="#F9F9F9" stroke="#DDDDDD" stroke-linecap="round" stroke-linejoin="round"/>
<path d="M157.21 688.249L145.602 718.892" stroke="#DDDDDD" stroke-linecap="round" stroke-linejoin="round"/>
<path d="M146.735 723.219L146.569 729.179L72.2816 711.579V706.16L146.735 723.219Z" fill="#DDDDDD" stroke="#DDDDDD" stroke-linecap="round" stroke-linejoin="round"/>
<path d="M549.75 618.372C549.667 619.319 549.594 620.255 549.521 621.17C546.837 651.334 543.873 666.822 542.146 673.937L538.693 673.666C533.756 673.278 528.784 672.914 523.777 672.574C494.955 670.567 465.342 669.121 435.531 668.153C426.995 667.876 418.438 667.637 409.861 667.436C416.101 654.455 423.882 630.531 430.31 609.187C431.173 606.254 432.036 603.383 432.848 600.585C433.541 598.256 434.2 595.995 434.824 593.804C434.907 593.492 435.001 593.18 435.095 592.868C435.188 592.556 435.313 592.077 435.438 591.682C435.719 590.704 435.989 589.716 436.27 588.728C436.415 588.27 436.54 587.813 436.665 587.355C436.873 586.637 437.071 585.919 437.268 585.212C437.466 584.505 437.622 583.985 437.788 583.392C438.049 582.466 438.298 581.551 438.548 580.677C438.693 580.115 438.86 579.564 438.995 579.034L440.035 575.424C440.16 575.008 440.254 574.623 440.347 574.27C440.555 573.552 440.711 572.959 440.847 572.522C440.847 572.418 440.899 572.314 440.919 572.231C440.94 572.148 440.971 572.044 440.992 571.961C440.995 571.916 440.995 571.87 440.992 571.825V571.69C441.086 571.326 441.179 570.993 441.263 570.65L441.637 569.267C442.199 567.186 442.5 566.073 442.5 566.073C440.66 566.808 438.663 567.066 436.696 566.822C427.689 566.146 414.468 559.271 412.887 550.18C412.853 550.001 412.829 549.821 412.815 549.639C412.765 549.295 412.737 548.947 412.731 548.599C412.732 545.75 413.721 542.989 415.529 540.788C426.243 526.548 433.274 521.534 440.295 519.059C441.138 518.778 441.959 518.518 442.802 518.279C450.717 516.105 474.984 514.43 474.984 514.43C477.907 510.27 483.638 496.352 486.561 482.654C489.921 466.875 502.496 464.482 509.174 473.292C511.68 476.59 513.334 481.447 513.428 487.75C513.501 495.593 513.626 505.152 513.698 510.883C513.75 514.004 513.782 515.949 513.782 515.949C513.782 515.949 525.587 511.507 544.487 511.237C548.491 511.185 552.413 512.131 555.315 514.794C559.6 518.726 563.636 526.621 567.276 536.19C575.951 559.011 582.327 591.318 584.407 603.009C587.164 619.162 549.75 618.372 549.75 618.372Z" fill="#25CED1"/>
<path d="M557.572 596.955C548.275 599.064 538.585 598.673 529.488 595.822C519.773 600.18 484.075 606.889 460.183 604.6C436.291 602.312 435.271 593.908 435.271 593.908L434.782 593.793C437.643 583.86 441.023 571.68 441.023 571.68C441.023 571.68 442.5 571.982 445.184 572.408C468.271 575.759 491.771 574.949 514.572 570.016C514.572 570.016 533.295 575.3 551.955 571.389L557.572 596.955Z" fill="#22B5B8"/>
<path d="M559.59 606.16C559.59 606.16 527.251 610.737 499.261 615.168C471.271 619.599 442.053 617.248 430.331 609.177L432.879 600.564C443.364 609.666 458.186 611.933 485.126 610.789C512.065 609.645 529.103 601.563 529.103 601.563C543.062 605.276 553.578 603.643 558.768 602.229L559.59 606.16Z" fill="#22B5B8"/>
<path d="M567.328 536.221C552.693 535.108 535.011 542.088 520.303 555.204C507.572 566.541 482.993 580.916 464.458 562.485C460.703 558.799 456.326 555.806 451.529 553.644C440.451 548.609 426.825 547.111 412.783 548.609C412.784 545.76 413.773 543 415.581 540.798C426.295 526.558 433.326 521.545 440.347 519.069C441.19 518.788 442.011 518.528 442.854 518.289C450.77 516.115 475.036 514.44 475.036 514.44C477.959 510.28 483.69 496.363 486.613 482.664C489.973 466.885 502.548 464.493 509.226 473.303C511.732 476.6 513.386 481.457 513.48 487.761C513.553 495.603 513.678 505.162 513.75 510.894C513.802 514.014 513.834 515.959 513.834 515.959C513.834 515.959 525.639 511.518 544.539 511.247C548.543 511.195 552.465 512.142 555.367 514.804C559.652 518.757 563.688 526.652 567.328 536.221Z" fill="#25CED1"/>
<path d="M549.521 621.17C546.837 651.334 543.873 666.822 542.146 673.937L538.693 673.666C533.756 673.278 528.784 672.914 523.777 672.574C494.955 670.566 465.342 669.121 435.531 668.153C446.318 656.816 465.956 652.27 478.625 658.678C492.843 665.865 516.07 659.115 509.954 641.869C506.324 631.644 508.602 619.433 529.061 610.841L549.521 621.17Z" fill="#25CED1"/>
<path d="M555.367 514.825C549.282 515.793 541.221 519.142 531.35 522.834C527.876 524.134 524.193 525.476 520.303 526.766C507.703 531.117 494.571 533.742 481.267 534.567C476.277 534.864 471.273 534.825 466.288 534.453C462.466 534.197 458.686 533.498 455.024 532.372C447.191 529.835 442.823 525.351 440.337 519.111C441.179 518.83 442.011 518.57 442.854 518.33C446.422 517.353 453.339 516.479 459.829 515.803C463.938 515.366 467.901 515.033 470.74 514.815C473.361 514.596 475.036 514.482 475.036 514.482C477.959 510.321 483.69 496.404 486.613 482.705C489.973 466.926 502.548 464.534 509.226 473.344C511.732 476.641 513.386 481.499 513.48 487.802C513.553 495.645 513.678 505.204 513.75 510.935C513.802 514.055 513.834 516.001 513.834 516.001C516.652 515.031 519.533 514.252 522.456 513.671C525.286 513.067 528.76 512.474 532.785 512.017C536.688 511.578 540.611 511.335 544.539 511.289C548.436 511.262 552.236 512.504 555.367 514.825V514.825Z" fill="#B25E47"/>
<path d="M513.75 510.914C503.755 510.321 495.236 502.219 497.347 491.9C499.708 480.365 504.202 474.883 509.226 473.323C511.732 476.621 513.386 481.478 513.48 487.781C513.553 495.624 513.678 505.183 513.75 510.914Z" fill="#914839"/>
<path d="M532.785 511.996C531.987 515.559 531.511 519.186 531.36 522.834C527.886 524.135 524.204 525.476 520.314 526.766C520.483 522.322 521.206 517.915 522.467 513.65C525.286 513.047 528.76 512.454 532.785 511.996Z" fill="#4F4F4F"/>
<path d="M470.74 514.805C468.584 521.184 467.093 527.768 466.288 534.453C462.466 534.197 458.686 533.499 455.024 532.373C456.099 526.71 457.708 521.162 459.829 515.803C463.938 515.325 467.911 515.023 470.74 514.805Z" fill="#4F4F4F"/>
<path d="M564.749 640.215C563.646 650.887 561.628 661.496 558.123 668.913C555.959 673.479 553.224 676.818 549.75 678.212C542.77 681.03 536.769 680.292 531.984 677.64C523.413 672.907 518.774 662.141 519.502 655.162C519.502 654.829 519.565 654.455 519.606 654.122C519.69 653.082 519.762 651.969 519.835 650.721C519.835 650.315 519.835 649.888 519.918 649.452C519.918 649.368 519.918 649.285 519.918 649.192C519.918 648.879 519.918 648.557 519.918 648.235C519.918 647.663 519.981 647.059 520.002 646.466C520.022 645.873 520.002 645.53 520.064 645.041C520.064 644.875 520.064 644.709 520.064 644.542C520.064 644.057 520.085 643.557 520.126 643.044C520.126 642.524 520.126 642.004 520.199 641.453C520.199 640.267 520.282 639.071 520.324 637.823C520.366 636.575 520.397 635.607 520.438 634.473C520.438 633.985 520.438 633.496 520.438 633.017C520.532 630.386 520.605 627.65 520.688 624.873C520.74 623.125 520.792 621.357 520.855 619.579L520.917 617.384L521.011 614.378L521.073 612.298C521.073 611.091 521.167 609.905 521.198 608.719C521.26 607.003 521.323 605.297 521.385 603.623C521.385 602.52 521.479 601.428 521.52 600.346C521.603 598.318 521.697 596.373 521.791 594.49L565.789 600.617C566.324 613.825 565.976 627.053 564.749 640.215V640.215Z" fill="#25CED1"/>
<path d="M521.863 594.376C520.823 614.368 520.501 644.303 519.44 655.141" stroke="#22B5B8" stroke-width="0.75" stroke-linecap="round" stroke-linejoin="round"/>
<path d="M564.749 640.215C563.646 650.887 561.628 661.496 558.123 668.912C555.959 673.479 553.224 676.818 549.75 678.211C542.77 681.03 536.769 680.292 531.984 677.639C534.455 676.536 537.06 675.763 539.733 675.341C551.414 673.354 547.732 658.989 552.808 649.014C554.857 645.031 558.321 641.733 564.749 640.215Z" fill="#25CED1"/>
<path d="M456.574 699.587C453.599 702.187 451.633 713.109 458.799 721.825C465.966 730.541 472.977 724.945 472.977 724.945C472.977 724.945 483.253 716.094 476.097 702.926C468.941 689.757 456.574 699.587 456.574 699.587Z" fill="#22B5B8"/>
<path d="M472.155 697.485C464.624 701.116 459.268 703.56 457.915 703.466C456.563 703.373 443.946 704.923 440.316 706.015C436.686 707.107 428.438 715.802 429.249 717.071C430.06 718.34 433.243 718.112 433.243 718.112C433.243 718.112 420.761 727.275 419.544 730.593C418.327 733.911 422.093 733.131 422.093 733.131C420.148 734.171 417.474 739.726 424.267 737.666C422.634 738.706 421.645 741.775 426.264 740.662C432.973 739.029 443.946 734.494 443.946 734.494C443.946 734.494 436.322 740.204 433.243 741.66C430.164 743.117 429.977 746.466 436.603 744.562C443.228 742.659 456.095 733.683 460.526 730.5C464.957 727.317 469.232 724.612 470.231 723.978C471.229 723.343 480.757 718.985 480.757 718.985C480.757 718.985 490.014 695.676 472.155 697.485Z" fill="#B25E47"/>
<path d="M433.243 718.153C437.872 714.887 444.31 710.123 445.673 709.967" stroke="#333333" stroke-width="0.75" stroke-linecap="round" stroke-linejoin="round"/>
<path d="M422.145 733.214C422.332 732.705 440.805 720.847 440.805 720.847" stroke="#333333" stroke-width="0.75" stroke-linecap="round" stroke-linejoin="round"/>
<path d="M424.225 737.749C424.319 737.167 443.156 727.681 443.156 727.681" stroke="#333333" stroke-width="0.75" stroke-linecap="round" stroke-linejoin="round"/>
<path d="M440.316 706.015C436.686 707.055 428.438 715.802 429.249 717.071C430.06 718.34 433.243 718.112 433.243 718.112C433.243 718.112 420.761 727.275 419.544 730.593C418.327 733.911 422.093 733.131 422.093 733.131C420.148 734.171 417.474 739.726 424.267 737.666C422.634 738.706 421.645 741.775 426.264 740.662C432.973 739.029 443.946 734.494 443.946 734.494C443.946 734.494 436.322 740.204 433.243 741.66C430.164 743.117 429.977 746.466 436.603 744.562C438.216 744.054 439.782 743.407 441.283 742.628" stroke="#333333" stroke-width="0.75" stroke-linecap="round" stroke-linejoin="round"/>
<path d="M558.123 668.913C556.407 676.797 537.06 689.861 517.245 701.396C495.714 713.878 473.632 724.644 472.977 724.956C477.678 717.456 476.69 697.173 456.584 699.555C456.584 699.555 509.434 662.11 519.367 653.997C519.429 653.943 519.495 653.894 519.565 653.851C530.882 644.74 544.955 643.075 552.849 649.015C557.686 652.718 560.172 659.333 558.123 668.913Z" fill="#25CED1"/>
<path d="M558.123 668.913C556.407 676.797 537.06 689.861 517.245 701.396C519.71 689.955 522.966 681.758 531.963 677.639C534.434 676.536 537.04 675.763 539.712 675.341C551.393 673.354 547.711 658.99 552.787 649.015C557.686 652.718 560.172 659.333 558.123 668.913Z" fill="#25CED1"/>
<path d="M501.945 667.051C509.839 661.299 516.455 656.389 519.378 654.018C523.575 650.556 528.456 648.018 533.7 646.57" stroke="#22B5B8" stroke-width="0.75" stroke-linecap="round" stroke-linejoin="round"/>
<path d="M451.529 553.633C449.782 560.007 447.67 566.276 445.205 572.408C442.276 579.737 438.978 586.913 435.323 593.908V593.908C434.457 595.593 433.559 597.274 432.629 598.952C432.494 599.212 432.348 599.483 432.192 599.743C431.017 601.886 429.779 604.028 428.521 606.15C425.109 611.892 421.84 617.172 418.712 621.992C413.972 629.466 408.714 636.598 402.975 643.335C392.428 655.412 383.212 660.643 374.194 658.938C372.46 658.603 370.776 658.051 369.18 657.294C367.434 656.49 365.87 655.337 364.586 653.906C363.301 652.475 362.324 650.796 361.712 648.973V648.973C361.121 647.293 360.744 645.546 360.589 643.772C360.589 643.772 360.589 643.772 360.589 643.772C359.913 636.751 361.827 627.702 365.956 617.353C368.313 611.558 371.015 605.911 374.048 600.44C374.922 598.859 375.827 597.319 376.753 595.676C379.748 590.558 383.129 585.274 386.842 579.907C387.227 579.366 387.591 578.867 387.955 578.295C389.182 576.527 390.375 574.793 391.533 573.094L395.08 567.894C395.35 567.498 395.611 567.103 395.881 566.718C400.125 560.477 403.973 554.725 407.572 549.566L407.739 549.317L409.819 546.394C421.812 529.543 431.121 519.579 442.875 518.31C455.627 516.978 457.239 532.331 451.529 553.633Z" fill="#25CED1"/>
<path d="M451.529 553.633C439.13 547.954 423.538 546.82 407.718 549.317L409.798 546.394C421.791 529.543 431.1 519.579 442.854 518.31C455.627 516.978 457.239 532.331 451.529 553.633Z" fill="#25CED1"/>
<path d="M442.542 566.094C445.87 553.019 446.474 548.11 446.474 548.11" stroke="#22B5B8" stroke-width="0.75" stroke-linecap="round" stroke-linejoin="round"/>
<path d="M445.205 572.408C442.276 579.737 438.978 586.913 435.323 593.908V593.908C435.323 593.908 409.663 590.694 395.87 566.718C400.114 560.478 403.963 554.726 407.562 549.566C411.639 556.109 421.895 567.592 445.205 572.408Z" fill="#22B5B8"/>
<path d="M434.824 593.793C437.684 583.86 440.025 575.518 441.304 570.671L441.679 569.287C442.24 567.207 442.542 566.094 442.542 566.094" stroke="#22B5B8" stroke-width="0.75" stroke-linecap="round" stroke-linejoin="round"/>
<path d="M432.619 598.953L432.182 599.722L428.51 606.13C428.51 606.13 397.66 600.035 387.945 578.295C389.172 576.527 390.365 574.794 391.523 573.095C405.554 595.343 432.619 598.953 432.619 598.953Z" fill="#22B5B8"/>
<path d="M412.305 607.014C412.305 607.014 410.713 619.902 404.192 639.945C403.817 641.11 403.412 642.233 402.964 643.346C397.764 656.546 388.486 666.386 379.311 669.745C376.103 671.019 372.59 671.319 369.212 670.609C356.813 667.759 351.248 657.586 354.598 639.945C356.095 632.04 360.214 624.426 365.935 617.384C369.203 613.406 372.785 609.698 376.649 606.296C381.556 601.965 386.77 597.995 392.251 594.418L412.305 607.014Z" fill="#25CED1"/>
<path d="M379.311 669.745C376.103 671.018 372.59 671.318 369.212 670.608C356.813 667.758 351.248 657.586 354.598 639.945C356.095 632.04 360.214 624.426 365.935 617.384C369.203 613.406 372.785 609.698 376.649 606.296C377.667 609.463 377.83 612.843 377.119 616.093C376.408 619.343 374.85 622.347 372.603 624.8C367.038 631.041 361.265 638.02 360.568 643.804C360.289 645.616 360.689 647.468 361.691 649.004V649.004C362.691 650.427 364.042 651.567 365.613 652.312C368.851 653.991 371.752 656.251 374.173 658.979C377.127 662.329 379.031 666.146 379.311 669.745Z" fill="#25CED1"/>
<path d="M404.192 639.956C405.731 635.212 407 630.885 408.03 627.016" stroke="#22B5B8" stroke-width="0.75" stroke-linecap="round" stroke-linejoin="round"/>
<path d="M381.662 602.083C368.213 612.797 357.25 625.892 354.618 639.955" stroke="#22B5B8" stroke-width="0.75" stroke-linecap="round" stroke-linejoin="round"/>
<path d="M388.205 604.986C385.084 610.405 380.643 619.548 384.387 625.487C388.132 631.426 396.266 632.768 402.476 627.027C408.685 621.285 411.837 615.585 412.305 609.427L388.205 604.986Z" fill="#22B5B8"/>
<path d="M397.628 592.993C396.287 591.36 399.709 589.165 402.195 590.705C404.689 592.311 407.395 593.561 410.235 594.418C412.315 594.876 413.626 600.201 412.669 601.179C412.669 601.179 399.261 594.928 397.628 592.993Z" fill="#B25E47"/>
<path d="M410.235 594.376C412.315 594.834 413.626 600.159 412.669 601.137" stroke="#333333" stroke-width="0.75" stroke-linecap="round" stroke-linejoin="round"/>
<path d="M369.316 580.854C366.507 579.096 369.43 574 372.249 575.175C375.068 576.35 417.131 603.737 417.131 603.737L420.252 608.938L414.011 608.106C414.011 608.106 371.656 582.362 369.316 580.854Z" fill="#683F1D"/>
<path d="M388.069 597.278C387.404 593.284 392.646 592.223 395.236 594.085C397.826 595.947 406.969 600.191 409.954 601.179C412.939 602.167 414.812 605.891 412.95 607.191C412.95 607.191 414.812 609.843 412.627 611.06C411.662 611.671 410.61 612.134 409.507 612.433C409.507 612.433 410.401 615.294 403.609 618.279C403.609 618.279 402.569 622.439 398.918 623.48C395.267 624.52 388.517 623.719 386.946 622.439C385.376 621.16 384.595 617.239 386.135 615.803C386.135 615.803 382.234 613.973 382.931 611.102C383.867 607.232 386.53 608.356 385.729 606.827C384.928 605.298 383.649 602.417 385.646 601.22C387.643 600.024 388.434 599.421 388.069 597.278Z" fill="#B25E47"/>
<path d="M409.954 601.179C412.95 602.167 414.812 605.891 412.95 607.191C412.95 607.191 414.812 609.843 412.627 611.06C411.662 611.671 410.61 612.134 409.507 612.433C409.507 612.433 410.401 615.293 403.609 618.279C403.609 618.279 402.569 622.439 398.918 623.479" stroke="#333333" stroke-width="0.75" stroke-linecap="round" stroke-linejoin="round"/>
<path d="M389.224 608.865C394.386 610.795 399.755 612.121 405.222 612.818C406.672 612.812 408.12 612.683 409.549 612.433" stroke="#333333" stroke-width="0.75" stroke-linecap="round" stroke-linejoin="round"/>
<path d="M412.95 607.191C412.95 607.191 405.357 607.409 403.745 607.191C402.32 606.993 391.45 602.697 391.45 602.697" stroke="#333333" stroke-width="0.75" stroke-linecap="round" stroke-linejoin="round"/>
<path d="M391.242 617.384C391.242 617.384 399.261 618.996 403.651 618.278" stroke="#333333" stroke-width="0.75" stroke-linecap="round" stroke-linejoin="round"/>
<path d="M488.392 452.282C485.953 456.641 482.436 460.301 478.177 462.912C470.948 467.426 464.843 464.035 462.242 460.582C461.285 459.292 461.306 455.787 462.045 451.834C463.303 445.146 466.611 437.137 470.678 436.232C473.034 435.67 475.486 435.641 477.854 436.149C480.223 436.656 482.448 437.687 484.366 439.165C485.025 439.673 485.616 440.264 486.124 440.923C488.86 444.418 488.943 444.595 488.392 452.282Z" fill="#828282"/>
<path d="M488.392 452.281C485.953 456.641 482.436 460.301 478.177 462.912C470.948 467.426 464.843 464.035 462.242 460.582C461.285 459.292 461.306 455.787 462.045 451.834C465.571 458.075 471.781 460.561 474.225 458.564C477.699 455.703 472.415 441.776 484.366 439.124C485.025 439.632 485.616 440.222 486.124 440.881C488.86 444.418 488.943 444.595 488.392 452.281Z" fill="#4F4F4F"/>
<path d="M479.353 453.956C481.35 453.436 481.797 448.922 479.873 448.631C477.949 448.339 476.451 451.512 476.919 453.956C477.21 455.506 478.385 456.577 482.016 455.703" stroke="#333333" stroke-width="0.75" stroke-linecap="round" stroke-linejoin="round"/>
<path d="M477.272 458.834C469.128 458.647 466.101 457.108 465.488 453.467C464.874 449.827 464.51 443.69 464.51 443.69" stroke="#333333" stroke-width="0.75" stroke-linecap="round" stroke-linejoin="round"/>
<path d="M472.997 458.554C470.871 456.756 469.407 454.3 468.837 451.574C468.171 447.414 471.489 441.859 473.736 441.599C477.616 441.162 486.218 444.491 485.531 451.22" stroke="#333333" stroke-width="0.75" stroke-linecap="round" stroke-linejoin="round"/>
<path d="M519.294 497.278C511.514 500.939 497.368 497.278 489.286 488.499C479.176 477.505 487.851 453.134 499.396 449.681C510.942 446.228 516.923 458.449 520.303 468.258L520.366 468.466C521.241 471.044 521.971 473.669 522.55 476.329C524.37 484.63 524.974 494.605 519.294 497.278Z" fill="#B25E47"/>
<path d="M488.953 472.159C488.34 474.301 491.45 477.079 495.912 478.4C500.374 479.721 504.472 478.961 505.086 476.808C505.7 474.655 502.59 471.878 498.138 470.567C493.686 469.257 489.567 470.006 488.953 472.159Z" fill="#914839"/>
<path d="M522.55 476.329C520.314 477.276 518.327 477.307 517.401 476.215C516.08 474.634 517.401 471.316 520.366 468.466C521.241 471.044 521.971 473.669 522.55 476.329V476.329Z" fill="#914839"/>
<path d="M512.783 466.126C512.781 466.427 512.869 466.722 513.035 466.973C513.201 467.225 513.438 467.421 513.716 467.537C513.994 467.654 514.3 467.684 514.595 467.626C514.891 467.568 515.162 467.423 515.375 467.21C515.589 466.997 515.733 466.726 515.792 466.43C515.85 466.134 515.819 465.828 515.703 465.55C515.586 465.272 515.39 465.035 515.139 464.869C514.888 464.703 514.593 464.616 514.291 464.618C513.892 464.62 513.51 464.78 513.228 465.062C512.946 465.345 512.786 465.727 512.783 466.126V466.126Z" fill="#333333"/>
<path d="M504.316 468.269C504.316 468.569 504.406 468.863 504.573 469.113C504.74 469.363 504.978 469.558 505.256 469.673C505.534 469.787 505.84 469.817 506.135 469.757C506.43 469.698 506.7 469.552 506.912 469.339C507.124 469.125 507.268 468.854 507.326 468.559C507.383 468.263 507.351 467.958 507.235 467.68C507.118 467.403 506.922 467.167 506.671 467.001C506.42 466.835 506.125 466.748 505.825 466.75C505.626 466.75 505.429 466.789 505.245 466.866C505.061 466.942 504.895 467.054 504.754 467.195C504.614 467.337 504.503 467.504 504.428 467.688C504.353 467.872 504.315 468.07 504.316 468.269Z" fill="#333333"/>
<path d="M500.509 474.759C500.509 474.901 500.551 475.04 500.63 475.158C500.709 475.276 500.821 475.368 500.952 475.422C501.084 475.477 501.228 475.491 501.367 475.463C501.506 475.435 501.634 475.367 501.734 475.267C501.835 475.166 501.903 475.038 501.931 474.899C501.959 474.76 501.944 474.616 501.89 474.485C501.836 474.353 501.744 474.241 501.626 474.162C501.508 474.084 501.369 474.042 501.227 474.042C501.037 474.042 500.854 474.117 500.719 474.252C500.585 474.386 500.509 474.569 500.509 474.759V474.759Z" fill="#333333"/>
<path d="M503.609 472.575C504.005 472.575 504.327 472.253 504.327 471.857C504.327 471.46 504.005 471.139 503.609 471.139C503.213 471.139 502.891 471.46 502.891 471.857C502.891 472.253 503.213 472.575 503.609 472.575Z" fill="#333333"/>
<path d="M504.327 475.175C504.723 475.175 505.044 474.853 505.044 474.457C505.044 474.061 504.723 473.739 504.327 473.739C503.93 473.739 503.609 474.061 503.609 474.457C503.609 474.853 503.93 475.175 504.327 475.175Z" fill="#333333"/>
<path d="M506.251 472.575C506.251 472.717 506.293 472.855 506.372 472.973C506.451 473.091 506.563 473.183 506.694 473.238C506.825 473.292 506.969 473.306 507.109 473.279C507.248 473.251 507.376 473.183 507.476 473.082C507.576 472.982 507.645 472.854 507.673 472.715C507.7 472.575 507.686 472.431 507.632 472.3C507.577 472.169 507.485 472.057 507.367 471.978C507.249 471.899 507.111 471.857 506.969 471.857C506.778 471.857 506.596 471.933 506.461 472.067C506.327 472.202 506.251 472.384 506.251 472.575V472.575Z" fill="#333333"/>
<path d="M518.005 469.891C518.005 470.033 518.047 470.172 518.126 470.29C518.204 470.408 518.317 470.5 518.448 470.554C518.579 470.608 518.723 470.623 518.862 470.595C519.002 470.567 519.129 470.499 519.23 470.399C519.33 470.298 519.399 470.17 519.426 470.031C519.454 469.892 519.44 469.748 519.385 469.616C519.331 469.485 519.239 469.373 519.121 469.294C519.003 469.215 518.864 469.173 518.722 469.173C518.532 469.173 518.349 469.249 518.215 469.384C518.08 469.518 518.005 469.701 518.005 469.891Z" fill="#333333"/>
<path d="M516.143 469.537C516.539 469.537 516.86 469.216 516.86 468.82C516.86 468.423 516.539 468.102 516.143 468.102C515.746 468.102 515.425 468.423 515.425 468.82C515.425 469.216 515.746 469.537 516.143 469.537Z" fill="#333333"/>
<path d="M527.137 467.853C526.263 468.893 525.202 469.413 524.734 468.893C523.819 467.915 526.451 466.376 524.734 464.607C523.018 462.839 518.66 463.89 518.66 463.89C512.325 447.331 502.725 447.851 497.025 450.701C491.325 453.551 490.784 458.533 490.701 461.518C490.618 464.503 490.597 465.523 494.861 467.915C499.126 470.307 495.153 474.052 494.466 477.016C493.78 479.981 496.921 479.097 498.627 482.051C500.333 485.005 496.91 486.45 497.056 485.171C497.202 483.892 496.016 482.248 494.799 482.529C493.582 482.81 491.138 481.905 491.023 480.449C490.909 478.993 489.983 475.591 488.444 475.092C483.066 473.324 480.268 478.514 481.007 482.571C481.248 483.779 481.763 484.916 482.513 485.894C483.264 486.871 484.229 487.663 485.334 488.208C485.334 488.208 482.213 489.748 476.96 483.32C475.833 481.93 475.04 480.3 474.641 478.556C473.112 472.169 476.232 464.358 479.207 459.698C482.983 453.748 484.47 453.457 484.47 453.457C486.225 449.439 488.854 445.864 492.167 442.993C497.857 437.907 502.891 442.192 502.891 442.192C508.373 438.365 514.905 439.904 516.777 443.461C518.649 447.019 517.932 452.604 518.223 454.435C518.514 456.265 519.939 459.355 523.424 459.355C526.908 459.355 528.24 460.676 528.458 463.869C528.538 465.316 528.066 466.74 527.137 467.853V467.853Z" fill="#828282"/>
<path d="M527.137 467.852C526.263 468.892 525.202 469.412 524.734 468.892C523.819 467.915 526.451 466.375 524.734 464.607C523.018 462.839 518.66 463.889 518.66 463.889C512.325 447.33 502.725 447.85 497.025 450.7C491.325 453.55 490.784 458.532 490.701 461.518C490.618 464.503 490.597 465.522 494.861 467.915C499.126 470.307 495.153 474.051 494.466 477.016C493.78 479.98 496.921 479.096 498.627 482.05C500.333 485.004 496.91 486.45 497.056 485.171C497.202 483.891 496.016 482.248 494.799 482.529C493.582 482.809 491.138 481.905 491.023 480.448C490.909 478.992 490.201 476.153 488.423 475.424C482.941 473.167 480.528 478.545 481.267 482.57C481.54 483.8 482.104 484.947 482.911 485.915C483.718 486.883 484.745 487.644 485.906 488.135C485.906 488.135 483.181 491.047 476.96 483.319C475.839 481.926 475.046 480.297 474.641 478.555C480.008 473.656 479.738 468.715 483.326 467.644C487.716 466.334 487.143 457.607 492.199 449.078C497.254 440.548 505.793 446.592 507.905 448.609C507.905 448.609 514.01 445.489 515.831 453.457C517.651 461.424 521.749 462.641 524.516 462.371C526.159 462.204 527.522 465.054 527.137 467.852Z" fill="#4F4F4F"/>
<path d="M488.392 469.725C490.399 470.037 491.398 473.022 490.306 477.536" stroke="#333333" stroke-width="0.75" stroke-linecap="round" stroke-linejoin="round"/>
<path d="M491.2 456.099C494.081 447.892 495.423 447.268 496.286 446.738C497.857 445.791 501.373 446.831 501.373 446.831" stroke="#333333" stroke-width="0.75" stroke-linecap="round" stroke-linejoin="round"/>
<path d="M502.891 442.192C504.655 443.703 506.319 445.325 507.874 447.05" stroke="#333333" stroke-width="0.75" stroke-linecap="round" stroke-linejoin="round"/>
<path d="M481.079 478.92C478.198 474.676 475.317 465.304 480.507 457.701" stroke="#333333" stroke-width="0.75" stroke-linecap="round" stroke-linejoin="round"/>
<path d="M483.95 475.341C481.87 471.045 480.247 462.787 484.47 453.498" stroke="#333333" stroke-width="0.75" stroke-linecap="round" stroke-linejoin="round"/>
<path d="M510.38 462.371C509.08 467.218 510.994 469.184 513.272 469.777C515.55 470.37 517.37 471.535 517.11 473.553" stroke="#333333" stroke-width="0.75" stroke-linecap="round" stroke-linejoin="round"/>
<path d="M497.41 464.358C498.45 465.398 504.691 461.32 503.089 458.918C501.487 456.515 495.891 462.901 497.41 464.358Z" fill="#333333"/>
<path d="M508.778 457.451C508.778 459.896 515.019 458.575 514.905 457.774C514.718 456.328 508.768 455.215 508.778 457.451Z" fill="#333333"/>
<path d="M508.602 477.203C509.538 478.109 510.71 478.736 511.983 479.011C513.257 479.287 514.582 479.201 515.81 478.763" stroke="#333333" stroke-width="0.75" stroke-linecap="round" stroke-linejoin="round"/>
<path d="M492.167 482.04V488.073C490.147 488.751 487.964 488.78 485.926 488.156H485.822C484.405 487.665 483.17 486.754 482.282 485.545C481.394 484.336 480.895 482.885 480.851 481.385C480.782 480.41 480.941 479.433 481.314 478.531C481.688 477.628 482.266 476.825 483.004 476.184V476.184C483.494 475.765 484.054 475.435 484.657 475.206C485.907 474.878 487.233 475 488.402 475.55C490.17 476.278 490.878 479.065 491.002 480.574C491.068 480.892 491.208 481.191 491.41 481.445C491.613 481.7 491.872 481.904 492.167 482.04Z" fill="#B25E47"/>
<path d="M483.295 480.677C483.909 479.107 487.986 477.359 489.91 481.645" stroke="#333333" stroke-width="0.75" stroke-linecap="round" stroke-linejoin="round"/>
<path d="M489.598 481C485.136 478.41 483.295 485.046 489.078 484.641" stroke="#333333" stroke-width="0.75" stroke-linecap="round" stroke-linejoin="round"/>
<path d="M492.167 488.052C489.877 488.848 487.375 488.774 485.136 487.844" stroke="#333333" stroke-width="0.75" stroke-linecap="round" stroke-linejoin="round"/>
<path d="M712.647 514.639C711.888 519.475 708.56 523.74 704.118 526.746C695.62 532.54 683.003 533.788 676.419 525.976C668.191 516.23 647.524 470.38 640.316 454.133C638.745 450.566 637.809 448.413 637.809 448.413C638.412 426.934 654.337 417.635 670.293 418.373C686.248 419.112 697.128 430.46 697.971 447.56C698.813 464.66 691.928 489.821 696.671 495.032C701.414 500.243 714.873 500.513 712.647 514.639Z" fill="#333333"/>
<path d="M706.906 519.601C706.383 522.122 705.441 524.537 704.118 526.746C695.62 532.54 683.003 533.788 676.419 525.977C668.191 516.231 647.524 470.381 640.315 454.134C645.329 430.783 657.624 423.522 671.343 425.79C685.25 428.099 691.21 446.853 686.789 455.049C682.369 463.245 671.104 479.389 676.845 489.561C682.587 499.734 681.588 501.658 688.287 503.26C694.986 504.862 708.965 508.19 706.906 519.601Z" fill="#333333"/>
<path d="M643.082 444.71C645.797 429.888 659.725 427.183 665.841 428.629" stroke="#4F4F4F" stroke-width="0.75" stroke-linecap="round" stroke-linejoin="round"/>
<path d="M653.286 442.817C661.066 436.254 672.352 438.469 672.279 444.107C672.206 449.744 671.78 453.957 675.025 456.245C678.27 458.534 683.107 463.391 680.361 470.225" stroke="#4F4F4F" stroke-width="0.75" stroke-linecap="round" stroke-linejoin="round"/>
<path d="M687.091 477.703C685.011 489.946 683.721 495.947 689.244 497.632C694.767 499.317 696.608 501.158 695.412 503.8C694.216 506.442 692.687 507.555 696.296 508.918C699.906 510.281 700.218 514.847 700.218 514.847" stroke="#4F4F4F" stroke-width="0.75" stroke-linecap="round" stroke-linejoin="round"/>
<path d="M649.157 591.64C642.76 623.438 631.693 656.577 620.594 672.262C617.401 676.766 614.229 679.834 611.15 681.02C584.314 691.422 573.372 678.877 576.44 641.058C578.208 619.215 589.848 579.19 605.564 550.097C616.829 529.294 630.174 514.108 643.519 515.252C657.79 516.5 656.906 553.093 649.157 591.64Z" fill="#F06B07"/>
<path d="M649.157 591.641C646.043 590.58 643.198 588.854 640.818 586.584C638.439 584.314 636.581 581.553 635.375 578.493C633.831 574.478 631.858 570.642 629.488 567.052C623.715 558.398 615.685 551.897 605.564 550.045C616.829 529.242 630.174 514.056 643.519 515.2C657.79 516.5 656.906 553.093 649.157 591.641Z" fill="#F06B07"/>
<path d="M629.508 570.016C616.559 571.514 613.781 575.508 615.321 584.526C616.86 593.544 598.221 583.767 593.197 594.418C588.173 605.069 612.856 644.844 613.303 645.073L620.844 648.922L635.136 632.279L644.642 608.938L644.799 587.584L629.508 570.016Z" fill="#DE660C"/>
<path d="M743.831 577.297C743.623 581.957 741.969 598.038 739.889 617.26C736.3 650.263 731.422 692.514 730.309 702.177L726.492 701.189C711.004 697.195 694.247 693.617 676.398 690.392C658.549 687.168 639.754 684.328 620.095 681.832C620.251 679.034 620.417 675.789 620.594 672.263C621.489 654.018 622.529 628.223 621.697 617.707C620.355 600.805 619.554 588.728 625.181 577.994C626.961 574.508 628.41 570.861 629.508 567.104C632.41 557.566 633.96 546.686 633.773 539.55C633.544 531.136 628.718 518.175 643.55 515.253C647.402 514.607 651.323 514.47 655.21 514.847C683.856 516.927 689.712 514.847 689.712 514.847C708.206 511.55 723.548 515.617 727.833 517.114L728.229 517.26C734.47 519.569 740.336 528.202 742.791 546.467C744.04 556.694 744.388 567.01 743.831 577.297V577.297Z" fill="#F06B07"/>
<path d="M705.501 593.201C685.021 583.59 670.875 605.683 671.936 623.178C673.299 645.427 647.316 618.237 636.29 642.389C627.532 661.58 670.917 678.794 693.737 660.072C716.558 641.349 733.149 606.161 705.501 593.201Z" fill="#DE660C"/>
<path d="M742.832 546.467C728.853 544.21 711.212 550.857 700.519 560.509C696.047 564.566 692.791 569.153 691.532 573.833C687.268 589.789 664.832 597.424 649.157 591.641C646.043 590.58 643.198 588.854 640.818 586.584C638.439 584.314 636.581 581.553 635.375 578.493C633.831 574.478 631.858 570.642 629.488 567.052C632.39 557.513 633.939 546.634 633.752 539.498C633.523 531.083 628.697 518.123 643.53 515.2C647.382 514.554 651.302 514.418 655.19 514.795C683.835 516.875 689.691 514.795 689.691 514.795C708.185 511.497 723.527 515.564 727.813 517.062L728.208 517.208C734.47 519.569 740.346 528.202 742.832 546.467Z" fill="#F06B07"/>
<path d="M620.095 681.832C620.251 679.034 620.417 675.789 620.594 672.263C621.489 654.018 622.529 628.223 621.697 617.707C620.355 600.804 619.554 588.728 625.181 577.994C626.961 574.507 628.41 570.861 629.508 567.104C631.454 560.619 632.774 553.963 633.451 547.227" stroke="#DE660C" stroke-width="0.75" stroke-linecap="round" stroke-linejoin="round"/>
<path d="M684.626 514.847C685.073 518.134 664.697 541.568 656.178 539.415C647.659 537.262 652.017 515.148 652.017 515.148C652.017 515.148 651.497 513.651 650.696 511.446C648.73 505.974 645.131 496.072 643.821 493.368C642.317 490.309 641.115 487.111 640.232 483.819C633.742 459.095 654.566 449.557 665.82 474.614C677.199 499.879 684.168 511.55 684.626 514.847Z" fill="#B25E47"/>
<path d="M650.717 511.446C648.751 505.975 645.152 496.072 643.842 493.368C642.338 490.309 641.136 487.111 640.253 483.819C647.669 478.993 658.05 483.32 662.096 491.797C666.007 500.035 660.858 509.73 650.717 511.446Z" fill="#914839"/>
<path d="M651.299 513.048C653.13 516.782 652.839 517.51 652.839 519.549C652.839 521.587 653.307 531.885 652.381 535.848C652.381 535.848 647.836 531.001 645.381 531.801C642.926 532.602 639.015 535.848 639.015 535.848L645.995 518.165C647.461 514.358 649.469 512.975 651.299 513.048Z" fill="#333333"/>
<path d="M689.722 514.847C689.806 512.767 684.002 508.866 683.138 510.811C678.395 521.546 666.09 535.359 661.826 538.323C663.677 538.779 665.436 539.55 667.026 540.601C669.408 542.317 673.819 550.077 673.819 550.077C673.819 550.077 688.859 535.848 689.722 514.847Z" fill="#333333"/>
<path d="M651.289 548.714C651.289 549.389 651.489 550.048 651.864 550.609C652.239 551.17 652.772 551.608 653.395 551.866C654.019 552.124 654.705 552.192 655.366 552.06C656.028 551.928 656.636 551.603 657.113 551.126C657.59 550.649 657.915 550.041 658.047 549.38C658.179 548.718 658.111 548.032 657.853 547.408C657.595 546.785 657.157 546.252 656.596 545.877C656.035 545.502 655.376 545.302 654.701 545.302C653.796 545.302 652.928 545.662 652.288 546.302C651.648 546.941 651.289 547.809 651.289 548.714V548.714Z" fill="white"/>
<path d="M649.542 561.29C649.54 561.967 649.738 562.63 650.113 563.194C650.488 563.758 651.022 564.198 651.647 564.459C652.272 564.719 652.96 564.788 653.625 564.658C654.289 564.527 654.9 564.202 655.38 563.723C655.859 563.245 656.186 562.636 656.319 561.971C656.452 561.307 656.385 560.619 656.126 559.993C655.868 559.367 655.429 558.832 654.866 558.455C654.303 558.079 653.641 557.878 652.964 557.878C652.515 557.877 652.07 557.964 651.655 558.135C651.24 558.305 650.862 558.557 650.545 558.874C650.227 559.19 649.974 559.567 649.802 559.982C649.63 560.396 649.542 560.841 649.542 561.29Z" fill="white"/>
<path d="M726.492 701.189C711.004 697.195 694.247 693.617 676.398 690.392C676.809 689.156 677.409 687.991 678.177 686.939C688.339 672.273 695.984 656.036 719.939 663.14C729.674 666.032 724.703 682.383 719.939 688.104C714.977 693.991 728.624 694.147 726.492 701.189Z" fill="#DE660C"/>
<path d="M590.773 684.005C568.93 680.531 562.565 647.808 559.215 631.051C556.729 618.57 551.726 586.835 549.334 571.378C548.502 566.053 547.982 562.662 547.982 562.662C547.982 562.662 559.028 564.628 570.262 554.185C570.948 555.901 572.061 558.283 573.476 561.185C583.721 582.3 610.411 630.739 615.321 647.215C620.896 665.959 612.346 687.448 590.773 684.005Z" fill="#F06B07"/>
<path d="M559.215 631.052C558.061 625.237 556.355 615.231 554.618 604.642C552.631 592.514 550.613 579.627 549.334 571.358C548.502 566.032 547.982 562.641 547.982 562.641" stroke="#DE660C" stroke-width="0.75" stroke-linecap="round" stroke-linejoin="round"/>
<path d="M570.262 554.185C567.672 548.984 561.254 539.092 555.159 534.526C551.893 532.092 547.878 532.113 546.494 533.091C546.494 533.091 535.365 531.437 526.908 533.496C518.452 535.556 517.11 540.205 520.615 540.611C524.121 541.016 530.102 538.967 534.439 538.863C534.439 538.863 530.06 539.903 530.154 543.939C529.114 543.326 526.669 544.927 527.189 548.225C527.189 548.225 525.442 546.394 524.745 549.785C524.048 553.176 527.002 558.168 530.393 558.356C533.784 558.543 533.409 556.099 533.409 556.099C533.409 556.099 536.176 561.174 547.971 562.662C547.971 562.662 550.052 566.271 550.052 566.084C550.052 565.897 570.615 567.998 570.262 554.185Z" fill="#B25E47"/>
<path d="M555.159 534.526C551.893 532.092 547.878 532.113 546.494 533.091C546.494 533.091 535.365 531.437 526.908 533.496C518.452 535.556 517.11 540.205 520.615 540.611C524.121 541.016 530.102 538.967 534.439 538.863C534.439 538.863 530.06 539.903 530.154 543.939C529.114 543.326 526.669 544.927 527.189 548.225C527.189 548.225 525.442 546.394 524.745 549.785C524.048 553.176 527.002 558.168 530.393 558.356C533.784 558.543 533.409 556.099 533.409 556.099" stroke="#914839" stroke-width="0.75" stroke-linecap="round" stroke-linejoin="round"/>
<path d="M534.481 538.863C536.555 538.639 538.647 538.639 540.721 538.863" stroke="#914839" stroke-width="0.75" stroke-linecap="round" stroke-linejoin="round"/>
<path d="M527.2 548.225C528.677 552.042 530.632 554.653 533.44 556.099C536.249 557.545 539.931 553.332 539.744 552.157C541.158 551.179 542.074 548.974 539.234 547.247" stroke="#914839" stroke-width="0.75" stroke-linecap="round" stroke-linejoin="round"/>
<path d="M530.154 543.939C530.934 548.027 533.597 553.166 539.713 552.157" stroke="#914839" stroke-width="0.75" stroke-linecap="round" stroke-linejoin="round"/>
<path d="M556.511 552.77C549.542 549.65 548.325 545.375 547.982 542.14C547.982 542.14 538.204 549.276 535.947 547.455C533.139 545.177 544.268 534.391 546.494 533.091" stroke="#914839" stroke-width="0.75" stroke-linecap="round" stroke-linejoin="round"/>
<path d="M573.476 561.185C567.328 566.874 559.787 571.701 549.334 571.378C548.502 566.053 547.982 562.662 547.982 562.662C547.982 562.662 559.028 564.628 570.262 554.185C570.948 555.89 572.061 558.283 573.476 561.185Z" fill="#333333"/>
<path d="M567.328 559.781C567.328 560.162 567.442 560.534 567.654 560.851C567.865 561.168 568.167 561.414 568.519 561.559C568.871 561.705 569.258 561.742 569.632 561.667C570.006 561.592 570.348 561.408 570.617 561.138C570.886 560.868 571.068 560.524 571.141 560.15C571.214 559.776 571.175 559.389 571.028 559.037C570.88 558.686 570.632 558.386 570.314 558.176C569.996 557.965 569.623 557.854 569.242 557.856C568.99 557.856 568.74 557.906 568.508 558.003C568.275 558.1 568.063 558.242 567.885 558.421C567.707 558.6 567.567 558.812 567.471 559.045C567.376 559.279 567.327 559.529 567.328 559.781V559.781Z" fill="white"/>
<path d="M739.889 617.26C734.199 636.95 727.615 656.244 724.037 666.781C715.216 692.847 682.587 708.387 678.842 684.526C674.391 656.151 693.405 604.955 700.218 562.683C700.332 562.007 700.426 561.279 700.519 560.509C702.371 545.583 702.152 514.899 721.801 516.012C723.853 516.125 725.884 516.495 727.844 517.114L728.239 517.26C739.535 521.15 745.651 533.455 748.47 547.955C749.436 553.058 750.041 558.223 750.28 563.411C750.883 575.3 745.89 596.509 739.889 617.26Z" fill="#F06B07"/>
<path d="M748.47 547.955C746.646 547.27 744.757 546.771 742.832 546.467C728.853 544.21 711.212 550.857 700.519 560.509C702.371 545.583 702.152 514.899 721.801 516.012C723.853 516.125 725.884 516.495 727.844 517.114L728.239 517.26C739.535 521.15 745.63 533.455 748.47 547.955Z" fill="#F06B07"/>
<path d="M680.756 650.544C684.917 627.12 693.134 599.411 698.21 573.833" stroke="#DE660C" stroke-width="0.75" stroke-linecap="round" stroke-linejoin="round"/>
<path d="M735.437 632.092C731.037 646.207 726.7 658.928 723.995 666.781C721.323 674.498 716.773 681.429 710.754 686.95" stroke="#DE660C" stroke-width="0.75" stroke-linecap="round" stroke-linejoin="round"/>
<path d="M698.2 573.834C700.28 565.637 704.919 560.312 707.79 559.885" stroke="#DE660C" stroke-width="0.75" stroke-linecap="round" stroke-linejoin="round"/>
<path d="M504.753 565.502C509.59 562.121 518.275 563.494 528.677 574.863C535.094 582.01 540.308 590.153 544.112 598.974C551.51 593.626 560.061 590.091 569.076 588.655C583.784 586.461 602.038 593.034 602.038 593.034L604.878 600.991L544.539 608.938L504.753 565.502Z" fill="#F9F9F9" stroke="#DDDDDD" stroke-linecap="round" stroke-linejoin="round"/>
<path d="M547.982 601.751L608.508 596.914L632.504 662.578L574.547 667.259L547.982 601.751Z" fill="#F9F9F9" stroke="#DDDDDD" stroke-linecap="round" stroke-linejoin="round"/>
<path d="M502.101 561.289L541.054 601.033L567.484 663.255L529.758 627.578L502.101 561.289Z" fill="#F9F9F9" stroke="#DDDDDD" stroke-linecap="round" stroke-linejoin="round"/>
<path d="M541.054 601.033L547.982 601.751L574.547 667.259L567.484 663.255L541.054 601.033Z" fill="#F9F9F9" stroke="#DDDDDD" stroke-linecap="round" stroke-linejoin="round"/>
<path d="M529.061 581.322C534.751 587.074 540.503 596.997 540.503 596.997" stroke="#DDDDDD" stroke-linecap="round" stroke-linejoin="round"/>
<path d="M548.003 598.953C553.027 596.055 558.469 593.95 564.135 592.712" stroke="#DDDDDD" stroke-linecap="round" stroke-linejoin="round"/>
<path d="M548.71 600.097C553.911 597.819 564.499 595.822 564.499 595.822" stroke="#DDDDDD" stroke-linecap="round" stroke-linejoin="round"/>
<path d="M537.726 599.129C539.276 596.071 548.034 593.929 549.75 603.29C547.789 604.394 545.522 604.832 543.291 604.538C541.429 604.185 537.726 599.129 537.726 599.129Z" fill="#F9F9F9" stroke="#DDDDDD" stroke-linecap="round" stroke-linejoin="round"/>
<path d="M605.72 633.579C600.116 630.463 594.977 626.576 590.451 622.033C586.186 617.873 575.088 612.35 574.048 612.995C573.008 613.639 572.196 616.489 578.052 621.649C579.846 623.085 581.35 624.85 582.483 626.849C580.391 627.611 578.139 627.826 575.941 627.473C572.196 626.901 556.397 625.861 554.493 625.664C552.59 625.466 552.205 628.045 555.055 629.19C550.478 628.503 549.22 631.218 553.349 633.735C553.349 633.735 549.771 634.692 553.952 637.802C557.504 640.252 561.239 642.426 565.123 644.303C565.123 644.303 556.615 641.838 555.512 641.994C554.41 642.15 553.796 643.908 556.719 645.468C559.642 647.028 580.091 654.933 583.628 655.973C587.965 657.232 596.702 658.73 596.702 658.73C596.702 658.73 607.229 643.544 605.72 633.579Z" fill="#B25E47"/>
<path d="M690.679 696.311C670.844 697.663 621.125 674.124 601.695 664.857C597.722 662.974 595.017 661.736 594.091 661.32C594.091 661.32 594.487 637.677 607.104 632.945C608.742 633.855 610.49 634.554 612.304 635.025C614.66 635.71 617.072 636.18 619.513 636.429C627.834 637.355 653.775 641.204 667.9 642.348C682.025 643.492 699.885 653.155 706.271 664.638C710.65 672.512 710.265 695 690.679 696.311Z" fill="#F06B07"/>
<path d="M690.679 696.31C670.844 697.663 621.125 674.124 601.695 664.856C597.722 662.974 595.017 661.736 594.091 661.32" stroke="#DE660C" stroke-width="0.75" stroke-linecap="round" stroke-linejoin="round"/>
<path d="M607.104 632.965C608.742 633.876 610.49 634.575 612.304 635.046C614.66 635.731 617.072 636.201 619.513 636.45C627.834 637.376 653.775 641.224 667.9 642.368C677.262 643.128 688.173 647.569 696.379 653.81" stroke="#DE660C" stroke-width="0.75" stroke-linecap="round" stroke-linejoin="round"/>
<path d="M584.512 617.696C579.883 614.878 574.734 612.568 574.048 612.995C573.008 613.64 572.196 616.49 578.052 621.649C579.846 623.086 581.35 624.851 582.483 626.85C580.391 627.611 578.139 627.826 575.941 627.474C572.196 626.902 556.397 625.861 554.493 625.664C552.59 625.466 552.205 628.046 555.055 629.19C550.478 628.503 549.22 631.218 553.349 633.735C553.349 633.735 549.771 634.692 553.952 637.802C557.504 640.253 561.239 642.426 565.123 644.303C565.123 644.303 556.615 641.838 555.512 641.994C554.41 642.15 553.796 643.908 556.719 645.468C557.582 645.926 560.016 646.956 563.095 648.204" stroke="#914839" stroke-width="0.75" stroke-linecap="round" stroke-linejoin="round"/>
<path d="M612.346 635.098C606.261 639.695 602.017 653.134 601.695 664.877C597.722 662.994 595.017 661.757 594.091 661.341C594.091 661.341 594.487 637.698 607.104 632.965C608.753 633.897 610.515 634.614 612.346 635.098V635.098Z" fill="#333333"/>
<path d="M596.234 657.347C596.232 657.777 596.358 658.198 596.595 658.557C596.833 658.916 597.172 659.196 597.569 659.362C597.966 659.529 598.403 659.573 598.826 659.49C599.248 659.408 599.636 659.202 599.942 658.898C600.247 658.594 600.455 658.207 600.539 657.785C600.624 657.363 600.582 656.925 600.417 656.528C600.253 656.13 599.975 655.79 599.617 655.55C599.259 655.311 598.839 655.183 598.408 655.183C597.833 655.183 597.282 655.411 596.875 655.816C596.467 656.222 596.237 656.772 596.234 657.347V657.347Z" fill="white"/>
<path d="M565.123 644.303C567.817 645.135 569.835 645.936 569.835 645.936" stroke="#914839" stroke-width="0.75" stroke-linecap="round" stroke-linejoin="round"/>
<path d="M553.349 633.693L571.333 639.955" stroke="#914839" stroke-width="0.75" stroke-linecap="round" stroke-linejoin="round"/>
<path d="M555.055 629.148L571.926 633.693" stroke="#914839" stroke-width="0.75" stroke-linecap="round" stroke-linejoin="round"/>
<path d="M666.964 479.96C662.512 490.819 651.081 509.552 637.382 500.378C634.522 498.427 632.053 495.957 630.101 493.097C627.542 489.37 625.675 485.212 624.589 480.823C623 474.632 622.769 468.171 623.912 461.882C624.31 459.716 624.92 457.595 625.733 455.548C631.36 441.704 649.573 442.806 656.282 449.525C656.469 449.713 656.677 449.921 656.885 450.15C660.259 454.17 662.909 458.745 664.717 463.671C664.988 464.365 665.237 465.058 665.466 465.752C667.432 471.296 668.243 476.84 666.964 479.96Z" fill="#B25E47"/>
<path d="M627.948 477.266C627.948 477.567 628.037 477.861 628.205 478.111C628.372 478.361 628.61 478.556 628.888 478.67C629.166 478.785 629.472 478.814 629.767 478.755C630.062 478.695 630.332 478.55 630.544 478.336C630.756 478.123 630.9 477.851 630.957 477.556C631.015 477.261 630.983 476.955 630.867 476.678C630.75 476.401 630.554 476.164 630.303 475.998C630.052 475.833 629.757 475.746 629.456 475.748C629.257 475.748 629.06 475.787 628.877 475.863C628.693 475.94 628.526 476.052 628.386 476.193C628.246 476.334 628.135 476.502 628.06 476.686C627.985 476.87 627.947 477.067 627.948 477.266V477.266Z" fill="#333333"/>
<path d="M636.29 474.614C636.29 474.914 636.379 475.208 636.546 475.458C636.713 475.707 636.95 475.902 637.228 476.017C637.505 476.132 637.81 476.162 638.105 476.103C638.4 476.045 638.67 475.9 638.883 475.688C639.095 475.475 639.24 475.205 639.298 474.91C639.357 474.616 639.327 474.31 639.212 474.033C639.097 473.755 638.902 473.518 638.652 473.351C638.403 473.184 638.109 473.095 637.809 473.095C637.609 473.094 637.411 473.132 637.226 473.208C637.041 473.284 636.873 473.396 636.732 473.537C636.591 473.678 636.479 473.846 636.403 474.031C636.327 474.216 636.289 474.414 636.29 474.614Z" fill="#333333"/>
<path d="M663.677 479.388C670.043 481.084 677.376 473.147 673.673 466.574C669.97 460 662.71 464.161 661.826 468.831L663.677 479.388Z" fill="#B25E47"/>
<path d="M663.677 479.388C664.818 479.674 666.011 479.674 667.151 479.388" stroke="#914839" stroke-width="0.75" stroke-linecap="round" stroke-linejoin="round"/>
<path d="M664.717 472.607C665.3 467.271 670.116 467.011 671.353 469.413" stroke="#914839" stroke-width="0.75" stroke-linecap="round" stroke-linejoin="round"/>
<path d="M664.873 471.639C668.972 467.187 674.12 474.635 666.028 475.29" stroke="#914839" stroke-width="0.75" stroke-linecap="round" stroke-linejoin="round"/>
<path d="M665.466 465.679C665.437 465.872 665.395 466.063 665.341 466.251C664.416 469.528 660.962 467.894 659.558 464.784C657.936 461.102 648.439 447.851 639.879 456.931C633.534 463.651 628.312 464.556 623.912 461.882C624.286 459.831 624.857 457.821 625.618 455.881C625.65 455.768 625.688 455.657 625.733 455.548C631.36 441.704 649.573 442.806 656.282 449.525C656.469 449.713 656.677 449.921 656.885 450.15C660.259 454.17 662.909 458.745 664.717 463.671C664.988 464.323 665.237 464.992 665.466 465.679Z" fill="#333333"/>
<path d="M665.341 466.251C664.416 469.528 660.962 467.895 659.558 464.784C657.936 461.102 648.439 447.851 639.879 456.931C633.534 463.651 628.312 464.556 623.912 461.882C624.286 459.831 624.857 457.822 625.618 455.881C631.017 458.128 636.02 454.934 639.317 452.23C643.478 448.891 648.533 449.161 653.744 452.802C658.341 456.037 662.242 466.813 665.341 466.251Z" fill="#333333"/>
<path d="M629.352 463.183C628.51 453.821 632.41 447.788 635.593 445.979" stroke="#4F4F4F" stroke-width="0.75" stroke-linecap="round" stroke-linejoin="round"/>
<path d="M631.849 462.715C632.244 458.908 639.067 445.032 646.785 445.032" stroke="#4F4F4F" stroke-width="0.75" stroke-linecap="round" stroke-linejoin="round"/>
<path d="M640.576 456.287C642.999 450.399 645.984 446.634 649.542 445.688" stroke="#4F4F4F" stroke-width="0.75" stroke-linecap="round" stroke-linejoin="round"/>
<path d="M655.013 448.423C655.585 453.239 655.127 456.422 653.723 457.202" stroke="#4F4F4F" stroke-width="0.75" stroke-linecap="round" stroke-linejoin="round"/>
<path d="M657.946 451.398C659.537 457.587 658.206 460.374 657.28 461.092" stroke="#4F4F4F" stroke-width="0.75" stroke-linecap="round" stroke-linejoin="round"/>
<path d="M630.174 472.024C633.014 473.168 634.335 475.144 633.627 476.954C632.754 479.201 631.318 483.195 634.064 484.943" stroke="#914839" stroke-width="0.75" stroke-linecap="round" stroke-linejoin="round"/>
<path d="M633.659 466.771C633.95 469.049 642.073 466.771 642.385 465.429C642.801 463.609 633.149 462.756 633.659 466.771Z" fill="#333333"/>
<path d="M629.134 468.82C630.174 470.682 622.893 473.324 621.853 472.45C620.646 471.306 627.428 465.533 629.134 468.82Z" fill="#333333"/>
<path d="M638.412 487.688C639.742 487.157 640.95 486.361 641.964 485.349C642.977 484.337 643.775 483.13 644.31 481.801C644.31 481.801 647.014 486.524 643.821 488.968C641.376 490.83 638.412 487.688 638.412 487.688Z" fill="white" stroke="#914839" stroke-width="0.75" stroke-linecap="round" stroke-linejoin="round"/>
<defs>
<filter id="filter0_f_1_1080" x="70" y="0" width="674" height="674" filterUnits="userSpaceOnUse" color-interpolation-filters="sRGB">
<feFlood flood-opacity="0" result="BackgroundImageFix"/>
<feBlend mode="normal" in="SourceGraphic" in2="BackgroundImageFix" result="shape"/>
<feGaussianBlur stdDeviation="30" result="effect1_foregroundBlur_1_1080"/>
</filter>
</defs>
</svg>
