<svg width="785" height="443" viewBox="0 0 785 443" fill="none" xmlns="http://www.w3.org/2000/svg">
<path d="M665.305 19.6787H135.063V409.28H665.305V19.6787Z" stroke="#DDDDDD" stroke-linecap="round" stroke-linejoin="round"/>
<path d="M681.825 409.279H118.542V427.958H681.825V409.279Z" stroke="#DDDDDD" stroke-width="2" stroke-miterlimit="10"/>
<path d="M540.753 226.679H504.492V313.321H540.753V226.679Z" fill="#DDDDDD"/>
<path d="M635.993 132.157H599.731V313.309H635.993V132.157Z" fill="#DDDDDD"/>
<path d="M651.694 313.31H461.48V69.9268" stroke="#DDDDDD" stroke-width="2" stroke-miterlimit="10"/>
<path d="M588.378 203.618H552.117V313.309H588.378V203.618Z" stroke="#DDDDDD" stroke-linecap="round" stroke-linejoin="round"/>
<path d="M222.678 106.707C222.446 108.533 222.269 110.392 222.158 112.24M260.898 112.24C260.788 110.37 260.611 108.511 260.367 106.707L260.898 112.24Z" stroke="#DDDDDD" stroke-width="2" stroke-linecap="round" stroke-linejoin="round"/>
<path d="M289.381 102.613C279.823 104.685 270.126 106.046 260.367 106.685C258.154 89.1687 250.475 74.0977 241.556 74.0977C232.637 74.0977 224.958 89.1687 222.745 106.685C212.99 106.045 203.296 104.684 193.743 102.613L192.282 227.829C203.347 231.071 212.908 234.855 228.798 236.25V236.438C233.445 236.703 237.65 236.814 241.611 236.803C245.573 236.792 249.778 236.703 254.436 236.438V236.25C270.304 234.855 279.886 231.071 290.952 227.829L289.381 102.613ZM241.523 81.1574C247.753 81.1574 252.975 92.7318 253.695 105.18H229.329C230.07 92.7318 235.304 81.1574 241.523 81.1574V81.1574Z" stroke="#DDDDDD" stroke-width="2" stroke-linecap="round" stroke-linejoin="round"/>
<path d="M681.825 1H118.542V19.6784H681.825V1Z" stroke="#DDDDDD" stroke-width="2" stroke-miterlimit="10"/>
<path d="M497.719 207.358L524.807 176.619L547.945 172.082L567.453 136.949L596.566 125.497L626.045 97.9219" stroke="#DDDDDD" stroke-linecap="round" stroke-linejoin="round"/>
<path d="M634.753 90.8398L612.567 97.0365L626.244 112.24L634.753 90.8398Z" fill="#DDDDDD"/>
<path d="M346.057 121.579L335.933 107.637C335.728 107.349 335.458 107.114 335.144 106.952C334.83 106.791 334.482 106.706 334.129 106.706C333.776 106.706 333.428 106.791 333.114 106.952C332.8 107.114 332.53 107.349 332.325 107.637L322.2 121.579C321.952 121.91 321.802 122.304 321.766 122.717C321.73 123.129 321.811 123.543 321.999 123.912C322.187 124.28 322.474 124.589 322.829 124.803C323.183 125.016 323.59 125.126 324.004 125.12H326.217C326.804 125.12 327.367 125.353 327.782 125.768C328.197 126.183 328.43 126.746 328.43 127.333V139.837C328.43 140.424 328.663 140.987 329.078 141.402C329.494 141.817 330.056 142.05 330.643 142.05H337.504C338.091 142.05 338.654 141.817 339.069 141.402C339.484 140.987 339.717 140.424 339.717 139.837V127.355C339.717 126.768 339.95 126.205 340.365 125.79C340.78 125.375 341.343 125.142 341.93 125.142H344.143C344.57 125.174 344.997 125.082 345.372 124.876C345.748 124.67 346.055 124.36 346.258 123.983C346.461 123.606 346.55 123.178 346.514 122.751C346.478 122.325 346.32 121.917 346.057 121.579Z" fill="#DDDDDD" stroke="#DDDDDD" stroke-miterlimit="10"/>
<path d="M360.254 197.388L343.867 181.033C343.264 180.431 342.79 179.713 342.472 178.923C342.154 178.132 341.999 177.286 342.016 176.434C342.034 175.582 342.224 174.743 342.574 173.966C342.924 173.19 343.428 172.492 344.055 171.915L375.038 143.477C376.174 142.44 377.649 141.85 379.187 141.817L393.251 141.53C394.101 141.512 394.946 141.666 395.734 141.982C396.523 142.299 397.24 142.771 397.841 143.372C398.443 143.972 398.917 144.688 399.235 145.476C399.553 146.265 399.708 147.109 399.691 147.959L399.426 162.034C399.393 163.575 398.79 165.05 397.733 166.172L369.35 197.155C368.777 197.782 368.083 198.286 367.31 198.638C366.537 198.99 365.701 199.183 364.852 199.205C364.003 199.226 363.158 199.077 362.368 198.764C361.578 198.452 360.859 197.984 360.254 197.388V197.388Z" stroke="#DDDDDD" stroke-width="2" stroke-linecap="round" stroke-linejoin="round"/>
<path d="M374.274 176.74C373.424 177.673 372.308 178.322 371.076 178.599C369.846 178.763 368.597 178.501 367.535 177.858L364.835 180.558C364.798 180.596 364.753 180.627 364.704 180.648C364.655 180.669 364.601 180.679 364.548 180.679C364.496 180.679 364.444 180.668 364.397 180.647C364.349 180.627 364.306 180.596 364.271 180.558L360.686 176.972C360.648 176.937 360.617 176.894 360.596 176.847C360.575 176.799 360.565 176.748 360.565 176.696C360.565 176.644 360.575 176.592 360.596 176.545C360.617 176.497 360.648 176.454 360.686 176.419L363.098 173.996C362.456 173.299 361.892 172.646 361.416 172.037C361.361 171.952 361.337 171.85 361.35 171.75C361.359 171.644 361.406 171.546 361.483 171.473L364.647 168.862C364.69 168.823 364.742 168.795 364.797 168.78C364.853 168.764 364.912 168.762 364.968 168.773C365.085 168.796 365.188 168.863 365.256 168.961C365.422 169.238 365.599 169.503 365.787 169.769C365.975 170.034 366.241 170.389 366.573 170.798C366.865 171.191 367.187 171.56 367.535 171.904C367.817 172.221 368.159 172.477 368.542 172.657C368.807 172.797 369.109 172.851 369.405 172.812C369.612 172.781 369.813 172.722 370.003 172.635C370.132 172.571 370.251 172.489 370.357 172.391C370.468 172.279 370.558 172.148 370.623 172.004C370.723 171.789 370.797 171.562 370.844 171.329C370.902 170.959 370.876 170.581 370.766 170.223C370.633 169.716 370.42 169.235 370.136 168.795C369.776 168.214 369.511 167.579 369.35 166.914C369.18 166.212 369.105 165.49 369.129 164.767C369.154 163.963 369.342 163.173 369.682 162.444C370.054 161.617 370.575 160.867 371.22 160.231C372.049 159.347 373.146 158.76 374.341 158.56C375.555 158.413 376.785 158.636 377.87 159.201L380.648 156.413C380.685 156.374 380.73 156.344 380.779 156.323C380.829 156.302 380.882 156.291 380.936 156.291C380.989 156.287 381.042 156.294 381.092 156.314C381.142 156.333 381.187 156.363 381.223 156.402L384.808 159.976C384.886 160.056 384.929 160.163 384.929 160.275C384.929 160.386 384.886 160.493 384.808 160.574L382.407 162.986C383.016 163.661 383.602 164.336 384.156 165.033C384.212 165.118 384.239 165.219 384.233 165.321C384.23 165.373 384.216 165.424 384.191 165.47C384.166 165.515 384.131 165.555 384.089 165.586L380.924 168.198C380.88 168.233 380.828 168.258 380.772 168.271C380.717 168.284 380.659 168.286 380.604 168.275C380.549 168.272 380.496 168.256 380.449 168.227C380.403 168.198 380.364 168.157 380.338 168.109C379.651 167.016 378.854 165.997 377.959 165.066C377.684 164.755 377.349 164.503 376.974 164.325C376.702 164.184 376.393 164.13 376.089 164.17C375.884 164.2 375.683 164.256 375.491 164.336C375.356 164.399 375.233 164.486 375.126 164.59C375.02 164.7 374.934 164.827 374.872 164.967C374.771 165.181 374.7 165.408 374.661 165.642C374.609 166.012 374.639 166.39 374.75 166.748C374.884 167.254 375.096 167.736 375.381 168.175C375.72 168.765 375.977 169.398 376.144 170.057C376.324 170.761 376.403 171.488 376.377 172.214C376.343 173.015 376.152 173.801 375.812 174.527C375.436 175.351 374.915 176.1 374.274 176.74Z" fill="#DDDDDD"/>
<path d="M414.884 211.397V220.04C414.884 221.854 420.107 223.359 426.558 223.359C433.009 223.359 438.243 221.887 438.243 220.04V211.397H414.884Z" fill="#F9F9F9" stroke="#DDDDDD" stroke-linecap="round" stroke-linejoin="round"/>
<path d="M414.884 202.977V211.619C414.884 213.433 420.107 214.938 426.558 214.938C433.009 214.938 438.243 213.467 438.243 211.619V202.977H414.884Z" fill="#F9F9F9" stroke="#DDDDDD" stroke-linecap="round" stroke-linejoin="round"/>
<path d="M414.884 194.556V203.198C414.884 205.012 420.107 206.517 426.558 206.517C433.009 206.517 438.243 205.046 438.243 203.198V194.556H414.884Z" fill="#F9F9F9" stroke="#DDDDDD" stroke-linecap="round" stroke-linejoin="round"/>
<path d="M414.884 186.091V194.733C414.884 196.548 420.107 198.052 426.558 198.052C433.009 198.052 438.243 196.581 438.243 194.733V186.091H414.884Z" fill="#F9F9F9" stroke="#DDDDDD" stroke-linecap="round" stroke-linejoin="round"/>
<path d="M414.884 177.725V186.367C414.884 188.181 420.107 189.686 426.558 189.686C433.009 189.686 438.243 188.215 438.243 186.367V177.725H414.884Z" fill="#F9F9F9" stroke="#DDDDDD" stroke-linecap="round" stroke-linejoin="round"/>
<path d="M414.884 169.305V177.947C414.884 179.761 420.107 181.266 426.558 181.266C433.009 181.266 438.243 179.795 438.243 177.947V169.305H414.884Z" fill="#F9F9F9" stroke="#DDDDDD" stroke-linecap="round" stroke-linejoin="round"/>
<path d="M438.243 169.305C438.243 171.12 433.009 172.625 426.558 172.625C420.107 172.625 414.884 171.153 414.884 169.305C414.884 167.457 420.107 165.985 426.558 165.985C433.009 165.985 438.243 167.49 438.243 169.305Z" fill="#F9F9F9" stroke="#DDDDDD" stroke-linecap="round" stroke-linejoin="round"/>
<path d="M391.182 216.078V224.72C391.182 226.535 396.416 228.04 402.856 228.04C409.296 228.04 414.541 226.568 414.541 224.72V216.078H391.182Z" fill="#F9F9F9" stroke="#DDDDDD" stroke-linecap="round" stroke-linejoin="round"/>
<path d="M391.182 207.657V216.299C391.182 218.114 396.416 219.619 402.856 219.619C409.296 219.619 414.541 218.147 414.541 216.299V207.657H391.182Z" fill="#F9F9F9" stroke="#DDDDDD" stroke-linecap="round" stroke-linejoin="round"/>
<path d="M391.182 199.236V207.878C391.182 209.693 396.416 211.198 402.856 211.198C409.296 211.198 414.541 209.726 414.541 207.878V199.236H391.182Z" fill="#F9F9F9" stroke="#DDDDDD" stroke-linecap="round" stroke-linejoin="round"/>
<path d="M391.182 190.815V199.457C391.182 201.272 396.416 202.777 402.856 202.777C409.296 202.777 414.541 201.305 414.541 199.457V190.815H391.182Z" fill="#F9F9F9" stroke="#DDDDDD" stroke-linecap="round" stroke-linejoin="round"/>
<path d="M414.541 190.816C414.541 192.641 409.307 194.135 402.856 194.135C396.405 194.135 391.182 192.664 391.182 190.816C391.182 188.968 396.416 187.496 402.856 187.496C409.296 187.496 414.541 189.001 414.541 190.816Z" fill="#F9F9F9" stroke="#DDDDDD" stroke-linecap="round" stroke-linejoin="round"/>
<path d="M143.516 271.759C143.516 278.498 136.877 288.623 126.066 286.996C115.255 285.37 102.165 277.159 103.769 257.972C104.234 252.373 110.63 217.362 111.659 209.616C113.263 197.654 143.273 187.629 141.956 218.314C141.956 219.243 141.878 220.15 141.845 221.058C141.624 227.608 141.613 233.617 141.734 239.061C142.122 255.194 143.516 266.359 143.516 271.759Z" fill="#B25E47"/>
<path d="M141.734 239.061C132.373 238.995 125.136 232.599 126.143 221.987L141.845 221.058C141.624 227.608 141.613 233.672 141.734 239.061Z" fill="#914839"/>
<path d="M201.498 362.65L206.854 442H156.252L165.425 352.868L153.253 320.358L131.543 278.609C133.075 273.751 134.284 268.798 135.162 263.781V263.781L144.822 246.552C146.402 245.818 148.02 245.168 149.668 244.605L149.878 244.538H150.078C155.953 242.547 165.979 240.112 176.103 241.938C184.568 243.476 191.595 246.729 197.249 255.659C203.59 265.695 208.16 282.902 210.993 312.9C213.98 344.027 206.113 357.859 201.498 362.65Z" fill="#F06B07"/>
<path d="M197.283 255.56C188.995 259.178 181.559 266.271 177.852 279.373C175.943 286.162 173.313 292.728 170.007 298.958C165.814 307.089 160.136 314.363 153.265 320.403L131.554 278.653C133.086 273.796 134.295 268.843 135.173 263.826C135.571 262.952 141.945 248.965 143.494 246.199C146.371 245.512 148.54 244.97 149.679 244.66L149.89 244.594H150.089C155.965 242.602 165.99 240.168 176.115 241.994C184.602 243.377 191.639 246.63 197.283 255.56Z" fill="#F06B07"/>
<path d="M180.707 442H98.0263V413.152H178.958L180.707 442Z" fill="#683F1D"/>
<path d="M174.067 413.153H101.434C101.434 413.153 87.3591 343.552 89.9484 295.373C90.6787 281.652 92.759 269.669 96.9086 261.524C98.0701 259.144 99.5972 256.96 101.434 255.051C103.183 254.741 105.108 254.387 107.155 253.945C110.475 257.696 116.937 262.919 126.066 268.219C126.066 268.219 129.319 277.425 131.599 278.565C133.878 279.705 135.217 263.737 135.217 263.737C135.615 262.863 141.989 248.877 143.538 246.11C146.603 245.38 148.872 244.816 149.934 244.506H150.133C150.133 244.506 151.24 248.301 153.043 253.856C155.92 262.708 160.534 276.042 165.215 285.581C167.26 289.866 168.866 294.349 170.006 298.959C173.326 311.96 173.636 327.629 170.538 348.078C170.316 349.55 170.128 351.043 169.973 352.504C167.107 379.802 174.067 413.153 174.067 413.153Z" fill="white"/>
<path d="M170.007 298.958C165.814 307.09 160.136 314.363 153.265 320.403C139.256 332.243 122.558 333.792 109.413 316.364C106.093 311.938 102.917 308.043 99.7856 304.624C96.7891 301.266 93.4968 298.185 89.9485 295.417C90.6788 281.696 92.7591 269.712 96.9086 261.568C98.0702 259.188 99.5973 257.004 101.434 255.095C103.183 254.785 105.108 254.431 107.155 253.989C110.475 257.74 116.937 262.963 126.066 268.263C126.066 268.263 129.319 277.469 131.599 278.609C133.13 273.752 134.339 268.798 135.217 263.781V263.781C135.615 262.907 141.989 248.921 143.538 246.154C146.603 245.424 148.872 244.86 149.934 244.55H150.133C150.133 244.55 151.24 248.345 153.043 253.9C155.92 262.752 160.535 276.086 165.215 285.625C167.258 289.896 168.863 294.364 170.007 298.958V298.958Z" fill="#F9F9F9"/>
<path d="M159.594 272.489C161.364 277.092 163.257 281.618 165.127 285.513C167.207 289.817 168.842 294.322 170.007 298.958C172.153 307.833 173.04 316.967 172.64 326.09" stroke="#DE660C" stroke-width="0.75" stroke-linecap="round" stroke-linejoin="round"/>
<path d="M112.334 442H57.7593C57.5822 422.204 57.2171 407.034 56.1216 394.054C55.0531 379.1 52.1011 364.34 47.3357 350.125C39.103 325.416 39.7006 303.44 44.5915 287.506C47.391 278.343 51.618 271.184 56.4093 266.625C57.4957 265.642 58.7089 264.808 60.0166 264.147V264.147C72.4209 257.618 101.412 255.051 101.412 255.051C97.827 262.542 98.1922 282.714 99.7634 304.579C101.523 328.923 104.765 355.48 105.672 368.858C106.325 378.551 107.885 395.67 109.512 413.12C110.486 423.09 111.46 433.137 112.334 442Z" fill="#F06B07"/>
<path d="M99.7856 304.579C96.7891 301.222 93.4968 298.141 89.9485 295.373C89.1739 294.775 88.3883 294.2 87.6026 293.68C76.1832 285.857 63.5465 284.053 44.5915 287.506C42.4559 287.882 40.2428 288.347 37.9523 288.867C45.5984 275.489 53.3553 265.629 60.083 264.147C72.4873 257.618 101.479 255.051 101.479 255.051C97.8602 262.542 98.2143 282.703 99.7856 304.579Z" fill="#F06B07"/>
<path d="M126.066 268.262C114.768 265.098 105.883 280.833 105.883 280.833C101.378 275.214 98.2986 268.59 96.9086 261.524C96.4575 259.577 96.3193 257.571 96.4992 255.581C97.2074 250.923 103.138 247.282 104.798 250.724C105.435 251.912 106.227 253.01 107.155 253.988C110.508 257.739 116.937 262.962 126.066 268.262Z" fill="#683F1D"/>
<path d="M153.021 253.789C152.833 260.683 152.213 268.429 152.213 268.429C143.881 261.933 139.256 261.79 135.173 263.781L141.956 245.844C144.534 241.252 152.534 240.854 152.955 246.298C153.099 248.201 153.099 250.923 153.021 253.789Z" fill="#683F1D"/>
<path d="M126.066 268.263C126.066 268.263 129.319 277.469 131.599 278.609C132.329 276.174 135.217 263.781 135.217 263.781" stroke="#DDDDDD" stroke-linecap="round" stroke-linejoin="round"/>
<path d="M131.554 278.608C131.554 278.608 140.661 300.463 144.833 314.991C149.004 329.52 151.87 343.297 150.952 361.953C150.034 380.609 148.042 397.594 148.506 399.575C148.971 401.556 155.234 406.823 146.061 413.141" stroke="#DDDDDD" stroke-linecap="round" stroke-linejoin="round"/>
<path d="M189.703 371.304C180.696 370.85 171.257 360.294 163.544 348.664C157.19 338.839 151.621 328.527 146.891 317.825L159.716 299.589C176.635 310.057 202.373 326.666 209.388 337.742C209.901 338.527 210.335 339.361 210.683 340.232C215.795 353.533 212.94 372.465 189.703 371.304Z" fill="#F06B07"/>
<path d="M189.703 371.304C180.696 370.85 171.257 360.294 163.544 348.664C170.726 347.06 180.231 351.154 182.123 357.616C185.553 369.334 212.752 363.79 209.388 337.698C209.901 338.483 210.335 339.317 210.683 340.188C215.795 353.533 212.94 372.466 189.703 371.304Z" fill="#F06B07"/>
<path d="M210.65 340.232C210.302 339.361 209.868 338.527 209.355 337.742C202.34 326.677 176.602 310.079 159.683 299.589L146.858 317.825C151.588 328.527 157.156 338.839 163.511 348.664C171.257 360.294 180.663 370.85 189.67 371.304" stroke="#DE660C" stroke-width="0.75" stroke-linecap="round" stroke-linejoin="round"/>
<path d="M134.796 306.328L129.95 314.45L135.626 313.941C135.626 313.941 177.188 278.421 177.83 277.204C178.472 275.986 174.986 272.147 173.835 272.567C172.684 272.988 134.796 306.328 134.796 306.328Z" fill="#683F1D"/>
<path d="M134.797 306.328C135.593 301.691 135.505 300.087 136.224 299.113C136.943 298.139 144.324 292.607 146.105 291.987C147.887 291.367 152.435 293.591 152.435 293.591C152.435 293.591 155.909 294.034 158.045 294.388C160.181 294.742 160.026 299.799 161.42 300.662C162.814 301.525 164.551 301.061 165.625 303.296C166.698 305.531 164.817 307.036 165.625 308.463C166.432 309.891 168.468 310.776 167.838 313.277C167.207 315.778 165.968 315.766 166.322 317.194C166.676 318.621 168.103 322.538 163.378 324.054C158.653 325.57 155.201 326.666 152.601 325.659C150 324.652 146.913 322.893 146.471 321.233C146.471 321.233 140.938 320.414 138.614 315.955C138.614 315.955 132.65 314.173 137.01 311.152C137.01 311.152 134.874 309.005 136.213 307.224L134.797 306.328Z" fill="#B25E47"/>
<path d="M152.612 325.659C150.011 324.641 146.924 322.892 146.482 321.233C146.482 321.233 140.949 320.414 138.625 315.954C138.625 315.954 132.661 314.173 137.021 311.152C137.021 311.152 134.885 309.005 136.224 307.224L134.797 306.339C135.593 301.702 135.505 300.098 136.224 299.124" stroke="#914839" stroke-width="0.75" stroke-linecap="round" stroke-linejoin="round"/>
<path d="M136.224 307.212C142.177 301.79 152.822 293.934 156.695 294.177" stroke="#914839" stroke-width="0.75" stroke-linecap="round" stroke-linejoin="round"/>
<path d="M137.021 311.13C146.017 310.72 153.552 306.803 158.797 303.041" stroke="#914839" stroke-width="0.75" stroke-linecap="round" stroke-linejoin="round"/>
<path d="M138.625 315.944C142.741 317.659 158.2 313.244 162.017 309.504" stroke="#914839" stroke-width="0.75" stroke-linecap="round" stroke-linejoin="round"/>
<path d="M146.481 321.221C148.584 321.63 156.761 320.922 160.966 318.101" stroke="#914839" stroke-width="0.75" stroke-linecap="round" stroke-linejoin="round"/>
<path d="M87.6027 293.68C87.3473 299.291 86.4753 304.858 85.0023 310.278L83.9511 314.273C83.7851 314.926 83.6081 315.59 83.42 316.276C82.9257 318.135 82.4019 320.078 81.8487 322.107L81.5167 323.313C80.8528 325.714 80.1446 328.237 79.4032 330.827C79.1598 331.701 78.9053 332.575 78.6508 333.449C76.8582 339.624 74.8554 346.196 72.6644 352.858C72.3546 353.809 72.0337 354.772 71.7128 355.724C70.1636 360.305 68.537 364.919 66.8219 369.467C66.4567 370.441 66.0916 371.403 65.7154 372.355L64.6088 375.21C64.31 375.962 64.0113 376.704 63.7015 377.423C61.3224 383.243 58.7884 388.842 56.1438 394.021L55.8672 394.552C47.0923 411.416 36.9564 423.245 25.9906 422.005C16.8396 420.987 10.7315 417.369 6.73688 412.5C0.783709 405.186 -0.389223 395.061 0.186176 386.651C0.368794 383.819 0.764579 381.004 1.37017 378.231C3.41727 368.969 20.4469 319.584 38.0408 288.878C45.687 275.5 53.4439 265.64 60.1716 264.158C75.8623 260.65 88.3994 271.295 87.6027 293.68Z" fill="#F06B07"/>
<path d="M87.6026 293.68C76.1832 285.856 63.5465 284.053 44.5915 287.505C42.4559 287.881 40.2428 288.346 37.9523 288.866C45.5984 275.488 53.3553 265.629 60.083 264.146C75.8623 260.65 88.3993 271.294 87.6026 293.68Z" fill="#F06B07"/>
<path d="M87.6025 293.68C87.3472 299.291 86.4751 304.857 85.0022 310.278C79.7018 330.55 69.5106 368.05 56.1215 393.998" stroke="#DE660C" stroke-width="0.75" stroke-linecap="round" stroke-linejoin="round"/>
<path d="M55.8118 394.585C47.0369 411.449 36.901 423.278 25.9353 422.038C16.7842 421.02 10.6761 417.402 6.68149 412.533C0.728316 405.219 -0.444612 395.094 0.130787 386.685C1.52323 386.949 2.86436 387.435 4.10326 388.123C9.86832 391.299 13.6527 398.381 18.0899 403.537C28.1483 415.145 40.8293 395.78 55.8118 394.585Z" fill="#F06B07"/>
<path d="M113.263 165.31L98.4798 181.455C80.5428 179.142 75.4528 167.07 78.4072 156.757C78.5179 156.392 78.6396 156.015 78.7834 155.65C82.9661 145.625 103.658 139.705 110.995 156.513C112.183 159.317 112.947 162.282 113.263 165.31V165.31Z" fill="#7F542D"/>
<path d="M113.263 165.31L98.4798 181.455C80.5428 179.142 75.4527 167.07 78.4072 156.757C78.5178 156.392 78.6396 156.016 78.7834 155.65C81.7821 167.878 89.8488 172.901 93.954 164.912C97.6499 157.775 105.163 155.042 110.995 156.513C112.183 159.317 112.947 162.282 113.263 165.31V165.31Z" fill="#683F1D"/>
<path d="M139.909 168.088C139.909 168.088 119.814 208.145 105.418 202.391C102.247 201.141 99.5148 198.986 97.5613 196.194C91.6856 187.829 93.3344 174.904 100.062 168.774C105.658 163.713 112.556 160.317 119.98 158.97C126.365 150.771 139.366 148.049 144.324 153.581C144.434 153.692 144.534 153.814 144.633 153.935C149.281 159.889 144.833 165.189 139.909 168.088Z" fill="#7F542D"/>
<path d="M139.909 168.088C139.909 168.088 119.814 208.144 105.418 202.39C102.247 201.141 99.5148 198.986 97.5613 196.194C104.201 196.57 108.627 194.955 109.423 189.621C110.53 182.185 112.157 166.572 112.157 166.572C112.157 166.572 136.268 167.324 144.246 153.581C144.357 153.692 144.456 153.813 144.556 153.935C149.281 159.888 144.833 165.189 139.909 168.088Z" fill="#683F1D"/>
<path d="M144.335 227.221C133.723 229.921 121.297 223.171 113.296 215.79C108.87 218.003 100.914 213.157 101.49 206.695C102.131 199.679 107.343 198.506 111.039 200.941C112.168 200.136 113.127 199.117 113.861 197.942C115.273 195.609 116.107 192.972 116.295 190.252C117.335 179.673 112.179 166.527 112.179 166.527C116.241 169.239 120.955 170.814 125.831 171.089C130.707 171.363 135.568 170.327 139.909 168.088C140.152 168.088 147.654 180.027 151.715 192.431C152.18 193.859 152.601 195.286 152.955 196.714C153.429 198.629 153.798 200.568 154.061 202.523C155.776 214.208 153.43 224.897 144.335 227.221Z" fill="#B25E47"/>
<path d="M131.565 189.577C131.565 189.885 131.657 190.187 131.828 190.444C132 190.7 132.243 190.9 132.529 191.018C132.814 191.136 133.127 191.167 133.43 191.107C133.733 191.047 134.011 190.898 134.229 190.68C134.447 190.462 134.596 190.184 134.656 189.881C134.716 189.579 134.685 189.265 134.567 188.98C134.449 188.695 134.249 188.451 133.992 188.28C133.736 188.108 133.434 188.017 133.126 188.017C132.712 188.017 132.315 188.181 132.022 188.474C131.73 188.766 131.565 189.163 131.565 189.577V189.577Z" fill="#683F1D"/>
<path d="M141.956 186.655C141.956 186.964 142.047 187.265 142.219 187.522C142.39 187.778 142.634 187.978 142.919 188.096C143.204 188.214 143.518 188.245 143.82 188.185C144.123 188.125 144.401 187.976 144.619 187.758C144.837 187.54 144.986 187.262 145.046 186.959C145.106 186.657 145.075 186.343 144.957 186.058C144.839 185.773 144.639 185.529 144.383 185.358C144.126 185.186 143.824 185.095 143.516 185.095C143.102 185.095 142.705 185.259 142.413 185.552C142.12 185.844 141.956 186.241 141.956 186.655V186.655Z" fill="#683F1D"/>
<path d="M114.768 218.325C116.95 218.325 118.718 216.556 118.718 214.374C118.718 212.192 116.95 210.424 114.768 210.424C112.586 210.424 110.818 212.192 110.818 214.374C110.818 216.556 112.586 218.325 114.768 218.325Z" fill="#4F4F4F"/>
<path d="M120.445 183.137C121.319 185.04 130.691 181.1 128.5 177.482C126.719 174.561 119.139 180.348 120.445 183.137Z" fill="#7F542D"/>
<path d="M135.991 175.911C135.659 178.544 143.106 178.068 143.051 176.176C142.996 174.284 136.423 172.458 135.991 175.911Z" fill="#7F542D"/>
<path d="M113.828 207.204C109.755 203.796 106.602 205.643 105.694 208.52" stroke="#914839" stroke-width="0.75" stroke-linecap="round" stroke-linejoin="round"/>
<path d="M111.139 211.542C107.996 210.169 109.446 205.555 113.274 206.728" stroke="#914839" stroke-width="0.75" stroke-linecap="round" stroke-linejoin="round"/>
<path d="M131.123 201.482C132.412 202.677 133.976 203.536 135.677 203.981C137.377 204.427 139.161 204.447 140.871 204.039" stroke="#914839" stroke-width="0.75" stroke-linecap="round" stroke-linejoin="round"/>
<path d="M138.326 185.095C138.326 190.185 141.535 192.464 144.313 193.062C144.727 193.178 145.112 193.384 145.439 193.664C145.766 193.944 146.028 194.292 146.207 194.684C146.386 195.076 146.478 195.502 146.475 195.933C146.473 196.363 146.377 196.788 146.194 197.178" stroke="#914839" stroke-width="0.75" stroke-linecap="round" stroke-linejoin="round"/>
<path d="M128.179 199.369C127.073 202.124 122.591 202.899 118.22 201.095C116.523 200.413 115.007 199.345 113.794 197.975C115.206 195.642 116.041 193.005 116.229 190.285C118.318 189.985 120.449 190.276 122.381 191.125C126.741 192.896 129.319 196.581 128.179 199.369Z" fill="#914839"/>
<path d="M154.083 202.512C151.815 202.888 149.812 202.346 148.805 200.885C147.278 198.672 148.573 195.053 151.704 192.42C152.169 193.847 152.59 195.275 152.944 196.702C153.429 198.617 153.809 200.556 154.083 202.512V202.512Z" fill="#914839"/>
<path d="M137.408 403.492H67.3308L48.5417 303.052H118.63L137.408 403.492Z" fill="#F9F9F9" stroke="#DDDDDD" stroke-linecap="round" stroke-linejoin="round"/>
<path d="M96.5324 298.006H89.0079C89.0016 297.687 88.9683 297.368 88.9084 297.055C88.535 295.284 87.581 293.689 86.1978 292.522C84.8146 291.355 83.0814 290.684 81.2733 290.615C80.4695 290.586 79.6702 290.745 78.938 291.077C78.2058 291.41 77.5607 291.908 77.0535 292.532C76.5463 293.156 76.1907 293.889 76.0147 294.674C75.8388 295.459 75.8472 296.274 76.0393 297.055C76.1058 297.378 76.1945 297.696 76.3049 298.006H68.7583L70.8054 308.961H98.5795L96.5324 298.006Z" fill="#DDDDDD"/>
<path d="M85.397 299.721C86.6193 298.379 86.2989 296.097 84.6815 294.624C83.0641 293.151 80.7621 293.044 79.5399 294.386C78.3176 295.728 78.638 298.01 80.2554 299.483C81.8728 300.956 84.1748 301.063 85.397 299.721Z" fill="#F9F9F9" stroke="#DDDDDD" stroke-linecap="round" stroke-linejoin="round"/>
<path d="M85.5445 346.993C92.1837 343.618 96.1783 342.766 97.141 341.316C98.1037 339.867 110.796 330.185 114.182 328.801C117.568 327.418 123.388 330.86 123.388 330.86C123.388 330.86 128.921 328.071 131.554 328.801C134.188 329.532 136.224 334.788 131.853 339.258C128.843 342.345 134.929 343.563 132.55 347.004C131.444 348.575 134.122 349.306 133.756 352.813C133.391 356.321 131.643 356.675 131.853 358.125C132.063 359.574 132.96 363.325 129.408 364.764C125.856 366.202 109.103 369.478 106.447 369.832C103.791 370.186 90.7342 379.381 90.7342 379.381L85.5445 346.993Z" fill="#B25E47"/>
<path d="M123.388 330.859L113.695 335.474" stroke="#914839" stroke-width="0.75" stroke-linecap="round" stroke-linejoin="round"/>
<path d="M114.182 328.835C117.568 327.451 123.388 330.893 123.388 330.893C123.388 330.893 128.921 328.104 131.554 328.835C134.188 329.565 136.224 334.821 131.853 339.291C128.843 342.379 134.929 343.596 132.55 347.037C131.444 348.608 134.122 349.339 133.756 352.847C133.391 356.354 131.643 356.708 131.853 358.158C132.063 359.607 132.96 363.359 129.408 364.797" stroke="#914839" stroke-width="0.75" stroke-linecap="round" stroke-linejoin="round"/>
<path d="M100.638 382.977C90.1144 391.099 80.7199 397.783 72.4098 403.194C31.9327 429.529 15.4784 425.9 6.6704 412.533C6.64451 412.502 6.62223 412.469 6.604 412.433C0.584436 403.194 0.374193 395.182 4.09216 388.09C13.1436 370.861 45.532 359.253 73.9368 349.128C79.3921 347.181 84.6924 345.289 89.6607 343.43L100.638 382.977Z" fill="#F06B07"/>
<path d="M72.4098 403.193C31.9327 429.529 15.4784 425.899 6.6704 412.532C6.64451 412.502 6.62223 412.468 6.604 412.433C0.584436 403.193 0.374193 395.182 4.09216 388.089C9.85722 391.265 13.6416 398.346 18.0788 403.503C28.1483 415.144 40.8292 395.779 55.8117 394.584C60.2379 394.219 64.8522 395.436 69.6545 399.486C70.8807 400.46 71.8305 401.738 72.4098 403.193V403.193Z" fill="#F06B07"/>
<path d="M45.2111 418.088C54.707 413.952 63.8102 408.967 72.4098 403.194C80.7531 397.783 90.1144 391.1 100.638 382.978L89.6275 343.419" stroke="#DE660C" stroke-width="0.75" stroke-linecap="round" stroke-linejoin="round"/>
<path d="M89.6276 343.419C65.162 352.614 32.4196 362.418 14.5601 376.327" stroke="#DE660C" stroke-width="0.75" stroke-linecap="round" stroke-linejoin="round"/>
<path d="M782.132 258.014C781.143 257.483 780.127 257.003 779.089 256.576C776.533 255.49 773.859 254.703 771.122 254.23C761.34 252.493 751.271 254.783 740.715 259.375C731.132 263.536 721.151 269.6 710.628 276.272C710.424 274.624 710.32 272.965 710.318 271.304C710.318 250.202 726.916 233.084 747.376 233.084C755.031 233.156 762.477 235.589 768.698 240.051C774.919 244.513 779.61 250.786 782.132 258.014V258.014Z" fill="#25CED1"/>
<path d="M771.598 266.867C771.011 272.942 768.5 287.039 765.025 304.921C764.461 307.853 763.919 310.885 763.244 313.994C754.679 357.282 741.943 416.604 736.476 441.954H586.95L598.082 377.842C598.082 377.842 560.78 369.454 553.223 355.335C543.474 337.121 548.796 323.167 560.083 304.069C568.272 290.17 584.626 258.579 597.362 238.65C602.143 231.159 606.414 225.372 609.534 222.683C626.033 208.796 643.063 214.207 658.698 218.257C658.698 218.257 658.698 221.576 658.875 226.965C658.975 231.336 659.118 237.079 659.318 243.563C659.661 254.972 660.181 268.704 660.922 281.362C661.055 283.576 661.188 285.789 661.331 288.002C662.438 304.013 663.854 317.148 665.824 319.737C666.322 320.39 667.074 320.213 668.037 319.35C670.837 316.783 675.407 308.218 680.497 297.274C682.035 293.955 683.606 290.491 685.199 286.884C693.853 267.232 702.904 244.161 707.076 233.483C708.392 230.097 709.211 227.95 709.355 227.563C709.353 227.54 709.353 227.518 709.355 227.496L712.387 227.906L718.916 228.802C724.592 229.576 732.36 230.661 741.046 231.933C743.26 232.254 745.329 232.631 747.387 233.117C757.18 235.397 765.545 239.757 769.462 248.874C770.205 250.608 770.765 252.414 771.133 254.263C771.918 258.418 772.075 262.666 771.598 266.867Z" fill="#25CED1"/>
<path d="M771.122 254.275C761.34 252.538 751.271 254.828 740.715 259.42C731.132 263.581 721.151 269.645 710.628 276.317L707.308 278.431C699.308 283.532 691.916 286.121 685.177 286.896C696.575 261.025 708.669 229.245 709.344 227.574C709.342 227.552 709.342 227.53 709.344 227.508L718.905 228.814C724.581 229.588 732.349 230.673 741.035 231.945C743.249 232.266 745.318 232.642 747.376 233.129C757.169 235.409 765.534 239.768 769.451 248.886C770.194 250.62 770.754 252.426 771.122 254.275V254.275Z" fill="#25CED1"/>
<path d="M598.082 377.886C612.765 381.803 642.908 388.896 642.908 388.896" stroke="#22B5B8" stroke-width="0.75" stroke-linecap="round" stroke-linejoin="round"/>
<path d="M615.355 275.11L607.974 325.513C597.528 320.489 592.903 319.084 588.366 319.715C587.647 309.811 609.922 318.94 605.418 298.956C602.674 286.784 608.184 277.932 615.355 275.11Z" fill="#22B5B8"/>
<path d="M607.974 325.513L615.355 275.11L616.561 266.855" stroke="#22B5B8" stroke-width="0.75" stroke-linecap="round" stroke-linejoin="round"/>
<path d="M582.9 321.22C592.958 317.546 595.47 319.007 629.618 336.435" stroke="#22B5B8" stroke-width="0.75" stroke-linecap="round" stroke-linejoin="round"/>
<path d="M658.698 218.301C658.698 218.301 659.24 252.603 660.911 281.373C649.303 274.369 641.646 262.562 638.459 255.27C633.745 244.526 624.805 231.302 597.34 238.672C602.121 231.181 606.392 225.394 609.512 222.705C626.033 208.84 643.062 214.251 658.698 218.301Z" fill="#25CED1"/>
<path d="M718.219 260.67C717.311 261.932 697.692 273.628 698.057 275.254C698.423 276.881 701.654 283.531 701.654 284.793C701.654 285.589 689.592 300.605 679.833 310.641C674.201 316.462 669.332 320.6 668.026 319.361C665.027 316.506 691.629 247.779 700.193 225.925L709.366 227.507L718.927 228.813C718.108 244.592 719.015 259.564 718.219 260.67Z" fill="#22B5B8"/>
<path d="M709.366 227.507C709.364 227.529 709.364 227.551 709.366 227.573C708.802 229.786 694.86 284.084 679.855 310.641C675.163 318.962 670.372 324.561 665.846 325.026C646.581 326.852 658.72 218.345 658.72 218.345C665.868 219.949 687.667 223.789 700.215 225.969L709.366 227.507Z" fill="white"/>
<path d="M705.748 222.727C703.634 229.023 684.513 242.777 672.784 236.149C666.023 232.32 664.784 225.283 666.554 213.653C667.406 207.954 669 201.149 670.98 193.083C671.987 189.044 673.105 184.695 674.3 180.014C677.144 168.75 683.772 161.712 695.833 163.804C707.895 165.895 707.242 177.657 706.899 190.36C706.556 203.064 707.861 216.442 705.748 222.727Z" fill="#B25E47"/>
<path d="M690.356 191.069C689.449 202.876 684.248 215.712 666.554 213.654C667.406 207.955 669 201.15 670.98 193.083L690.356 191.069Z" fill="#914839"/>
<path d="M668.026 233.781C668.524 245.289 668.646 248.885 669.763 249.494C670.881 250.103 675.949 251.475 677.31 250.601C678.671 249.726 686.45 236.902 686.45 236.902C686.45 236.902 677.188 230.561 668.026 233.781Z" fill="#333333"/>
<path d="M676.58 245.146C678.184 265.119 681.57 312.644 682.057 316.34C682.544 320.036 667.395 335.672 665.868 333.735C664.341 331.799 656.607 317.535 656.607 313.308C656.607 309.081 670.615 244.338 670.615 244.338L676.58 245.146Z" fill="#333333"/>
<path d="M676.303 231.513C684.779 230.639 704.243 218.5 706.777 216.863C709.311 215.225 712.686 226.445 712.398 228.658C712.11 230.872 687.435 247.204 687.435 247.204C687.435 247.204 681.304 234.8 675.871 234.656C670.438 234.512 662.305 247.204 662.305 247.204C651.992 237.92 658.853 221.942 665.912 219.375C665.912 219.375 672.873 231.867 676.303 231.513Z" fill="#E0E0E0"/>
<path d="M654.825 398.622L647.256 441.998" stroke="#22B5B8" stroke-width="0.75" stroke-linecap="round" stroke-linejoin="round"/>
<path d="M717.234 146.089C715.859 148.142 713.985 149.814 711.789 150.948C709.593 152.082 707.145 152.641 704.674 152.573C695.822 152.429 687.324 145.414 687.324 145.414C687.324 145.414 679.578 137.557 680.419 130.586C680.677 128.586 681.667 126.753 683.197 125.441C689.836 119.465 700.193 125.031 704.011 131.427C707.828 137.823 708.979 137.778 713.361 137.834C717.167 137.878 718.838 142.216 717.234 146.089Z" fill="#683F1D"/>
<path d="M704.674 152.573C695.822 152.429 687.324 145.414 687.324 145.414C687.324 145.414 679.578 137.557 680.419 130.586C689.105 128.528 699.673 130.962 706.323 137.734C711.624 143.134 708.271 148.833 704.674 152.573Z" fill="#683F1D"/>
<path d="M692.314 140.047C687.025 133.242 687.955 125.474 693.565 123.449" stroke="#7F542D" stroke-width="0.75" stroke-linecap="round" stroke-linejoin="round"/>
<path d="M699.363 144.041C694.074 137.247 695.003 129.468 700.613 127.443" stroke="#7F542D" stroke-width="0.75" stroke-linecap="round" stroke-linejoin="round"/>
<path d="M711.391 160.562C710.02 163.603 708.468 166.559 706.744 169.414C704.401 173.408 701.713 177.188 698.71 180.712C693.178 187.108 685.963 192.718 677.564 193.437C657.403 195.164 658.344 180.922 658.985 176.607C658.985 176.507 658.985 176.419 658.985 176.33C658.985 176.242 663.356 167.334 668.214 158.471C670.648 153.902 673.33 149.469 676.248 145.192C682.721 136.163 691.65 134.304 700.481 138.033C709.311 141.762 710.307 147.118 711.391 160.562Z" fill="#B25E47"/>
<path d="M706.744 169.492C704.397 173.458 701.709 177.213 698.71 180.712H698.135C696.461 180.715 694.821 180.249 693.399 179.367C691.976 178.486 690.829 177.224 690.087 175.724C689.345 174.224 689.038 172.547 689.2 170.881C689.362 169.216 689.987 167.629 691.004 166.3C692.021 164.972 693.39 163.954 694.956 163.363C696.521 162.773 698.221 162.632 699.862 162.957C701.504 163.282 703.021 164.061 704.243 165.204C705.465 166.347 706.343 167.809 706.777 169.425L706.744 169.492Z" fill="#914839"/>
<path d="M671.334 166.017C671.334 168.859 670.206 171.585 668.198 173.595C666.189 175.606 663.465 176.737 660.623 176.74C660.064 176.74 659.505 176.696 658.952 176.607C658.952 176.507 658.952 176.419 658.952 176.33C658.952 176.242 663.323 167.334 668.181 158.471C670.191 160.469 671.325 163.183 671.334 166.017V166.017Z" fill="#914839"/>
<path d="M714.014 170.034L710.993 172.811C706.058 177.459 704.995 178.61 704.995 178.61C702.24 171.705 701.598 160.108 706.81 151.555C712.022 143.001 718.219 142.702 721.483 145.347C721.806 145.607 722.067 145.936 722.246 146.31C724.603 150.681 721.405 163.173 714.014 170.034Z" fill="#683F1D"/>
<path d="M722.246 146.343C716.16 148.025 711.026 157.995 710.993 172.844C706.058 177.492 704.995 178.643 704.995 178.643C702.24 171.738 701.598 160.141 706.81 151.588C712.022 143.034 718.219 142.736 721.483 145.38C721.806 145.64 722.067 145.969 722.246 146.343V146.343Z" fill="#683F1D"/>
<path d="M701.089 181.664C704.741 186.743 716.393 183.877 717.145 176.43C717.898 168.983 711.292 164.955 705.438 168.308C699.585 171.661 699.994 180.148 701.089 181.664Z" fill="#B25E47"/>
<path d="M712.962 145.147C714.069 151.112 718.905 155.925 721.948 156.744" stroke="#7F542D" stroke-width="0.75" stroke-linecap="round" stroke-linejoin="round"/>
<path d="M707.861 150.006C708.968 155.317 712.796 162.344 720.199 161.846" stroke="#7F542D" stroke-width="0.75" stroke-linecap="round" stroke-linejoin="round"/>
<path d="M676.469 153.325C676.469 153.633 676.56 153.935 676.732 154.192C676.903 154.448 677.147 154.648 677.432 154.766C677.717 154.884 678.031 154.915 678.333 154.855C678.636 154.795 678.914 154.646 679.132 154.428C679.35 154.21 679.499 153.932 679.559 153.629C679.62 153.327 679.589 153.013 679.471 152.728C679.352 152.443 679.152 152.199 678.896 152.028C678.639 151.856 678.338 151.765 678.029 151.765C677.615 151.765 677.218 151.929 676.926 152.222C676.633 152.514 676.469 152.911 676.469 153.325V153.325Z" fill="#683F1D"/>
<path d="M688.408 159.057C689.27 159.057 689.969 158.358 689.969 157.497C689.969 156.635 689.27 155.937 688.408 155.937C687.547 155.937 686.848 156.635 686.848 157.497C686.848 158.358 687.547 159.057 688.408 159.057Z" fill="#683F1D"/>
<path d="M706.323 170.986C706.434 172.69 701.665 178.909 701.255 180.845C699.828 187.684 699.75 191.092 692.137 196.149C683.794 201.681 667.794 206.65 659.716 200.254C656.584 197.786 654.847 193.028 654.847 187.462C654.931 183.148 655.873 178.894 657.619 174.948C659.365 171.002 661.88 167.443 665.016 164.479C664.028 168.103 662.816 171.662 661.387 175.135C662.999 172.957 664.739 170.877 666.599 168.906C668.795 167.876 671.215 167.416 673.636 167.567C675.019 167.943 683.13 171.307 683.451 172.845C683.772 174.383 682.488 179.672 684.193 180.048C685.897 180.425 693.366 179.617 695.258 178.4C697.15 177.183 702.251 169.171 702.727 167.943C703.026 167.179 704.287 167.877 705.228 168.928C705.797 169.484 706.18 170.203 706.323 170.986V170.986Z" fill="#683F1D"/>
<path d="M712.575 175.677C710.683 171.251 705.836 171.384 703.192 174.925" stroke="#914839" stroke-width="0.75" stroke-linecap="round" stroke-linejoin="round"/>
<path d="M704.464 173.608C709.687 172.314 711.989 180.037 705.018 180.026" stroke="#914839" stroke-width="0.75" stroke-linecap="round" stroke-linejoin="round"/>
<path d="M675.052 144.882C674.665 147.096 684.878 148.988 685.011 145.679C685.144 142.371 675.473 142.526 675.052 144.882Z" fill="#683F1D"/>
<path d="M700.215 149.463C700.138 151.676 689.758 151.499 690.256 148.224C690.754 144.949 700.304 147.084 700.215 149.463Z" fill="#683F1D"/>
<path d="M674.842 173.464C681.172 174.482 683.971 173.464 685.62 170.786" stroke="#914839" stroke-width="0.75" stroke-linecap="round" stroke-linejoin="round"/>
<path d="M673.371 163.815C675.473 159.533 678.261 157.984 681.017 157.674C682.322 157.493 683.536 156.902 684.484 155.988C685.432 155.073 686.066 153.882 686.295 152.584" stroke="#914839" stroke-width="0.75" stroke-linecap="round" stroke-linejoin="round"/>
<path d="M706.323 170.986C706.434 172.69 701.665 178.909 701.255 180.845C699.828 187.684 699.75 191.092 692.137 196.149C683.794 201.681 667.794 206.65 659.716 200.254C656.584 197.786 654.847 193.028 654.847 187.462C663.699 195.053 676.679 195.861 684.646 193.581C695.889 190.35 702.76 175.401 705.25 168.928C705.811 169.487 706.186 170.206 706.323 170.986V170.986Z" fill="#683F1D"/>
<path d="M656.241 178.643C667.937 188.601 684.049 180.723 685.011 180.026" stroke="#7F542D" stroke-width="0.75" stroke-linecap="round" stroke-linejoin="round"/>
<path d="M654.914 189.233C664.651 194.345 680.043 195.761 691.562 179.528" stroke="#7F542D" stroke-width="0.75" stroke-linecap="round" stroke-linejoin="round"/>
<path d="M667.019 203.098C669.42 199.645 675.727 198.14 682.345 196.303C695.225 192.707 697.205 187.374 698.456 174.748" stroke="#7F542D" stroke-width="0.75" stroke-linecap="round" stroke-linejoin="round"/>
<path d="M705.98 380.144C705.976 382.507 705.455 384.842 704.453 386.982C703.18 389.668 701.36 392.057 699.109 393.998C693.156 399.287 683.883 402.684 673.459 402.684C667.607 402.73 661.805 401.601 656.396 399.364C651.305 397.355 646.918 393.892 643.782 389.406C641.945 386.668 640.953 383.451 640.927 380.155C640.927 379.208 641.016 378.263 641.193 377.333C642.532 369.842 649.182 363.49 658.466 360.149C663.28 358.444 668.352 357.583 673.459 357.604C680.131 357.554 686.722 359.07 692.702 362.03C695.273 363.31 697.644 364.957 699.74 366.921C703.668 370.594 705.98 375.176 705.98 380.144Z" fill="#25CED1"/>
<path d="M704.453 386.981C703.18 389.667 701.36 392.056 699.109 393.997C693.156 399.286 683.883 402.683 673.459 402.683C667.607 402.729 661.805 401.6 656.396 399.364C651.305 397.355 646.918 393.891 643.782 389.405C666.997 395.458 692.071 390.356 704.453 386.981Z" fill="#22B5B8"/>
<path d="M777.983 293.103C772.981 301.291 756.018 323.998 739.32 345.675C725.234 363.944 711.336 381.471 704.962 388.918C703.266 390.884 701.294 392.595 699.109 393.997C695.181 396.485 690.794 398.159 686.207 398.919C681.621 399.679 676.928 399.511 672.408 398.423C665.946 396.797 660.347 393.09 657.293 387.214C655.969 384.637 655.165 381.825 654.925 378.937C654.438 373.67 655.755 367.263 658.466 360.126C663.589 346.693 673.647 330.748 685.742 315.145C687.225 313.231 688.752 311.317 690.29 309.413C692.658 306.463 695.085 303.571 697.571 300.738C698.434 299.731 699.297 298.746 700.182 297.751C700.868 296.976 701.554 296.201 702.251 295.438L704.63 292.815L704.763 292.672L707.186 290.071C708.835 288.312 710.506 286.575 712.155 284.881L714.368 282.668C715.176 281.85 715.995 281.031 716.813 280.234C716.847 280.194 716.884 280.157 716.924 280.123C718.65 278.419 720.373 276.767 722.092 275.166L722.324 274.956C728.147 269.459 734.268 264.288 740.659 259.464V259.464C747.409 254.463 753.506 250.844 758.441 249.107C766.762 246.186 774.375 249.727 779.034 256.665C785.02 265.417 786.182 279.692 777.983 293.103Z" fill="#25CED1"/>
<path d="M757.711 321.497C751.979 329.143 745.639 337.487 739.32 345.675C725.234 363.944 711.336 381.471 704.962 388.918C703.266 390.884 701.294 392.595 699.109 393.997" stroke="#22B5B8" stroke-width="0.75" stroke-linecap="round" stroke-linejoin="round"/>
<path d="M658.466 360.137C663.589 346.704 673.647 330.759 685.742 315.157C696.827 300.894 708.998 287.509 722.147 275.122" stroke="#22B5B8" stroke-width="0.75" stroke-linecap="round" stroke-linejoin="round"/>
<path d="M738.767 271.36C732.947 268.041 727.215 269.28 716.824 280.212" stroke="#22B5B8" stroke-width="0.75" stroke-linecap="round" stroke-linejoin="round"/>
<path d="M779.089 256.621C776.533 255.535 773.859 254.748 771.122 254.275C761.34 252.538 751.271 254.828 740.715 259.42C747.464 254.419 753.561 250.8 758.497 249.063C766.818 246.142 774.431 249.683 779.089 256.621Z" fill="#25CED1"/>
<path d="M739.32 345.675C725.234 363.944 711.336 381.471 704.962 388.918C703.266 390.884 701.294 392.595 699.109 393.997C695.181 396.485 690.794 398.159 686.207 398.919C681.621 399.679 676.928 399.511 672.408 398.423C665.946 396.797 660.347 393.09 657.293 387.214C667.672 391.253 677.985 391.264 685.355 387.546C689.458 385.558 692.685 382.126 694.417 377.908C695.954 374.11 697.732 370.414 699.74 366.843C711.734 345.73 728.133 338.029 739.32 345.675Z" fill="#22B5B8"/>
<path d="M620.766 255.072C620.235 252.095 630.227 248.919 637.994 248.034L639.455 261.169C639.455 261.169 622.603 265.407 620.766 255.072Z" fill="#22B5B8"/>
<path d="M636.379 247.204C632.34 232.122 632.24 207.712 633.624 204.26C635.007 200.807 637.795 202.102 639.455 202.201C641.115 202.301 641.889 197.864 647.5 197.864C647.5 197.864 647.809 192.265 651.693 191.623C651.693 191.623 650.211 183.468 656.75 184.773C658.233 185.072 656.75 194.124 660.512 206.904C660.723 207.623 668.645 201.947 670.471 200.652C673.404 198.539 679.08 197.842 675.384 204.049C673.171 207.823 669.486 213.787 666.919 217.527C661.819 225.17 659.175 234.189 659.34 243.376L636.379 247.204Z" fill="#B25E47"/>
<path d="M632.86 211.673C632.805 209.18 633.061 206.689 633.624 204.26C634.996 200.818 637.795 202.102 639.455 202.201C641.115 202.301 641.889 197.864 647.5 197.864C647.5 197.864 647.809 192.265 651.693 191.623C651.693 191.623 650.211 183.468 656.75 184.773C658.233 185.072 656.75 194.124 660.512 206.904C660.723 207.623 668.646 201.947 670.471 200.652C673.404 198.539 679.08 197.842 675.384 204.049C674.278 205.93 672.784 208.365 671.268 210.799" stroke="#914839" stroke-width="0.75" stroke-linecap="round" stroke-linejoin="round"/>
<path d="M647.5 197.863C647.477 198.903 647.54 199.943 647.688 200.973" stroke="#914839" stroke-width="0.75" stroke-linecap="round" stroke-linejoin="round"/>
<path d="M651.693 191.623C652.169 194.356 652.866 196.89 652.866 196.89" stroke="#914839" stroke-width="0.75" stroke-linecap="round" stroke-linejoin="round"/>
<path d="M629.275 240.975L631.034 265.762C631.034 265.762 663.268 260.229 662.781 259.51C662.294 258.79 661.453 238.485 661.453 238.485L629.275 240.975Z" fill="white"/>
<path d="M692.525 362.03C692.525 362.672 692.492 363.313 692.425 363.955C692.425 364.442 692.359 364.929 692.315 365.416C692.32 365.512 692.32 365.608 692.315 365.704C692.315 366.257 692.204 366.81 692.137 367.341C691.994 368.581 691.806 369.809 691.573 371.015C690.566 376.915 688.4 382.556 685.199 387.613C682.149 392.522 677.614 396.332 672.253 398.49C667.179 400.352 661.671 400.69 656.407 399.464H656.241C645.641 397.174 639.311 385.367 635.416 371.867C631.864 359.529 630.337 345.775 629.463 336.557C627.604 317.193 620.611 255.183 620.611 255.183C625.557 257.661 669.819 247.326 669.819 247.326C669.819 247.326 678.914 283.399 685.598 315.279C689.183 332.375 692.082 348.276 692.503 356.752C692.558 358.423 692.58 360.204 692.525 362.03Z" fill="#25CED1"/>
<path d="M635.394 371.745C631.842 359.407 630.315 345.653 629.441 336.435C627.582 317.071 620.589 255.061 620.589 255.061" stroke="#22B5B8" stroke-width="0.75" stroke-linecap="round" stroke-linejoin="round"/>
<path d="M669.785 247.204C669.785 247.204 678.881 283.277 685.565 315.157C689.15 332.253 692.049 348.154 692.469 356.63C692.558 358.422 692.58 360.204 692.469 361.974C692.362 365.208 691.992 368.427 691.363 371.601" stroke="#22B5B8" stroke-width="0.75" stroke-linecap="round" stroke-linejoin="round"/>
<path d="M685.177 387.479C682.127 392.388 677.592 396.198 672.231 398.357C667.157 400.218 661.649 400.556 656.385 399.33H656.219C645.619 397.04 639.289 385.233 635.394 371.733C637.14 373.703 639.018 375.551 641.015 377.266C645.773 381.459 651.22 384.799 657.115 387.136C667.495 391.231 677.808 391.242 685.177 387.479Z" fill="#22B5B8"/>
<path d="M376.089 389.571C371.519 386.861 367.364 383.507 363.751 379.613C351.69 367.164 340.104 347.932 331.539 331.666C325.653 320.49 321.204 310.708 319.002 305.475C318.881 305.198 318.759 304.899 318.637 304.589C318.327 303.826 317.984 302.974 317.641 302.055C310.261 282.779 295.057 230.252 327.158 221.986C340.049 218.667 346.81 224.199 360.719 245.854C363.43 250.07 366.418 254.895 369.77 260.383C390.385 294.144 417.197 349.814 419.708 365.062C422.22 380.31 396.715 401.046 376.089 389.571Z" fill="#4F4F4F"/>
<path d="M360.73 245.843C354.843 245.71 347.927 248.222 341.742 255.005C336.552 260.704 331.883 269.39 328.773 282.071C327.063 289.662 323.197 296.597 317.641 302.044C310.261 282.768 295.057 230.241 327.158 221.975C340.06 218.678 346.832 224.244 360.73 245.843Z" fill="#4F4F4F"/>
<path opacity="0.2" d="M363.751 379.623C351.69 367.175 340.104 347.943 331.54 331.677C325.653 320.501 321.205 310.719 319.003 305.485C318.881 305.209 318.759 304.91 318.637 304.6L335.767 289.739C345.88 290.049 354.733 318.819 346.356 326.045C339.197 332.208 339.717 344.734 353.261 347.069C363.231 348.751 363.817 372.176 363.751 379.623Z" fill="#333333"/>
<path d="M283.162 251.277C263.244 249.694 260.788 231.647 262.049 226.014C263.31 220.382 266.929 194.633 268.157 182.561C271.156 152.983 302.072 163.462 301.873 190.583C301.873 192.42 301.741 196.691 301.652 201.859C301.563 207.026 301.519 213.345 301.707 218.778C301.707 219.054 301.707 219.331 301.707 219.608C302.128 230.485 303.113 252.859 283.162 251.277Z" fill="#B25E47"/>
<path d="M301.707 218.777C282.232 219.242 281.911 206.074 283.106 196.713L301.652 201.858C301.563 207.114 301.519 213.344 301.707 218.777Z" fill="#914839"/>
<path d="M341.742 255.027C340.79 262.552 339.462 270.253 338.234 276.804C337.128 282.879 336.087 287.958 335.589 291.023C335.523 291.443 335.457 291.831 335.412 292.129C334.948 295.449 333.443 311.051 331.54 331.633C328.375 365.935 324.093 413.926 321.581 441.955H193.09C194.196 433.423 195.524 423.332 196.841 413.107C200.16 387.148 203.546 360.414 203.679 356.84C203.945 349.846 200.625 305.662 197.317 282.082C197.217 281.385 197.117 280.699 197.018 280.035C193.897 258.933 200.758 248.952 210.861 245.212C211.758 244.875 212.674 244.591 213.605 244.36C223.187 241.948 238.701 237.046 256.251 231.79C259.858 230.683 263.554 229.577 267.316 228.47C268.788 228.05 270.425 227.629 272.218 227.22C272.926 227.729 273.679 228.238 274.431 228.747L275.693 229.521C275.936 229.676 276.179 229.82 276.423 229.953C277.861 230.805 279.411 231.624 281.048 232.387C281.646 232.675 282.265 232.952 282.896 233.217C283.505 233.483 284.124 233.737 284.766 233.981H284.822C285.331 234.18 285.862 234.368 286.393 234.556H286.481L287.256 234.822L288.86 235.342C290.122 235.74 291.417 236.094 292.755 236.448C294.161 234.866 295.345 233.383 296.352 232.022L297.237 230.772L297.79 229.942C298.122 229.422 298.432 228.935 298.709 228.459C298.985 227.983 299.317 227.353 299.572 226.888C300.076 225.921 300.52 224.923 300.9 223.9L301.143 223.181C303.146 223.015 305.204 222.86 307.317 222.727C309.951 222.55 312.662 222.406 315.451 222.274C319.198 222.097 323.078 221.971 327.091 221.897C329.998 221.831 332.971 221.798 336.01 221.798C343.999 221.875 343.877 238.009 341.742 255.027Z" fill="#4F4F4F"/>
<path d="M338.245 276.827C336.962 283.732 335.811 289.364 335.412 292.186C334.948 295.506 333.443 311.108 331.54 331.689" stroke="#333333" stroke-width="0.75" stroke-linecap="round" stroke-linejoin="round"/>
<path d="M341.742 255.028C336.552 260.727 331.883 269.413 328.773 282.094C327.619 286.905 325.654 291.485 322.964 295.638C321.439 297.962 319.653 300.104 317.641 302.023C313.278 306.183 307.834 309.036 301.929 310.255C299.302 310.802 296.621 311.036 293.939 310.952C286.481 310.731 278.448 308.186 270.259 302.93C266.033 300.168 262.1 296.984 258.519 293.425C251.946 286.94 245.75 282.138 239.708 278.984C226.098 271.914 213.007 273.075 197.361 282.116C197.261 281.419 197.162 280.733 197.062 280.069C193.942 258.967 200.802 248.986 210.905 245.246C211.802 244.909 212.719 244.625 213.649 244.394C223.232 241.982 238.745 237.08 256.295 231.824C259.902 230.717 263.598 229.611 267.36 228.504C268.832 228.084 270.47 227.663 272.262 227.254C272.982 227.763 273.723 228.272 274.475 228.781C278.968 231.641 283.83 233.875 288.927 235.42C290.188 235.818 291.483 236.172 292.822 236.527C294.227 234.944 295.411 233.461 296.418 232.1C298.311 229.622 299.842 226.887 300.966 223.978C301.054 223.724 301.143 223.48 301.209 223.259C303.212 223.093 305.27 222.938 307.384 222.805C310.017 222.628 312.739 222.485 315.528 222.352C319.275 222.175 323.156 222.049 327.169 221.976C330.075 221.909 333.048 221.876 336.087 221.876C343.999 221.876 343.877 238.009 341.742 255.028Z" fill="#4F4F4F"/>
<path opacity="0.3" d="M225.744 306.028C225.744 306.028 250.32 311.007 240.815 330.859C232.836 347.512 241.744 354.981 250.552 349.338C260.168 343.175 278.614 350.533 278.614 364.575C278.614 391.132 220.089 408.538 212.83 373.527C205.571 338.516 200.935 302.277 225.744 306.028Z" fill="#333333"/>
<path d="M322.964 295.637L324.148 296.987L303.92 330.239L303.024 340.02L269.374 306.072L270.315 302.974L272.993 294.121L247.985 269.224C248.184 267.011 253.816 242.889 256.494 232.078L261.927 231.082L274.509 228.791C279.001 231.651 283.863 233.885 288.96 235.431C290.221 235.829 291.516 236.183 292.855 236.537C294.26 234.955 295.444 233.472 296.451 232.111C298.344 229.633 299.875 226.898 300.999 223.989L307.417 222.816C310.051 222.639 312.773 222.495 315.561 222.362L328.84 268.051L316.568 288.367L322.964 295.637Z" fill="#828282"/>
<path d="M310.703 229.876C310.006 242.18 308.103 260.195 306.1 277.136C304.617 289.706 303.068 301.679 301.929 310.332C300.822 318.343 300.158 323.455 300.158 323.455C297.845 319.438 295.768 315.289 293.939 311.029C291.726 305.972 289.093 299.831 286.194 292.705C280.24 278.32 272.838 259.829 263.742 238.152L261.916 231.17L274.498 228.88C278.99 231.74 283.852 233.974 288.949 235.519C290.21 235.917 291.505 236.271 292.844 236.625C294.249 235.043 295.433 233.56 296.44 232.199C298.333 229.721 299.864 226.986 300.988 224.077L307.406 222.904L310.703 229.876Z" fill="white"/>
<path d="M302.57 237.611C302.57 237.611 302.183 239.669 301.53 242.236C300.424 246.53 298.587 252.262 296.485 252.262C294.382 252.262 290.653 249.042 287.831 246.419C285.884 244.604 284.434 243.1 284.434 243.1L288.927 235.52C290.188 235.918 291.483 236.272 292.822 236.626C294.227 235.044 295.411 233.561 296.418 232.2L302.57 237.611Z" fill="#25CED1"/>
<path d="M306.1 277.137C303.234 301.381 300.158 323.423 300.158 323.423C296.839 317.968 292.246 307.434 286.149 292.672C287.787 284.395 291.129 264.81 293.475 248.223L298.487 247.116C300.634 254.021 304.02 268.207 306.1 277.137Z" fill="#25CED1"/>
<path d="M292.8 236.56L287.809 246.419L284.866 252.262C284.866 252.262 267.161 243.841 256.45 232.123C256.376 232.035 256.313 231.938 256.262 231.835C254.956 228.881 260.079 213.876 263.344 218.778C265.786 222.106 268.78 224.992 272.196 227.309C277.285 230.919 282.924 233.684 288.894 235.498C290.166 235.885 291.505 236.25 292.8 236.56Z" fill="#F9F9F9"/>
<path d="M304.85 244.405L301.53 242.192L292.822 236.515C294.227 234.933 295.411 233.45 296.418 232.089C298.48 229.415 300.098 226.426 301.209 223.237C301.549 222.299 301.74 221.313 301.774 220.315C303.899 220.366 305.919 221.253 307.395 222.783V222.783C308.387 223.921 309.045 225.311 309.298 226.8C310.56 233.417 304.85 244.405 304.85 244.405Z" fill="#F9F9F9"/>
<path d="M293.63 441.999L303.024 340.065L303.92 330.283L300.158 323.423" stroke="#333333" stroke-width="0.75" stroke-linecap="round" stroke-linejoin="round"/>
<path d="M486.499 219.121C483.179 214.695 480.125 212.968 477.337 212.736C477.603 212.139 477.857 211.519 478.112 210.877C480.325 205.278 478.222 203.131 476.319 203.696C474.416 204.26 464.855 214.861 463.76 216.974C460.827 222.684 452.694 245.39 451.964 247.504C453.624 260.992 471.428 265.319 471.428 265.319C473.298 259.698 476.905 256.234 480.878 253.49C484.85 250.746 486.72 246.286 490.837 237.545C493.791 231.392 493.415 228.493 486.499 219.121Z" fill="#B25E47"/>
<path d="M486.499 219.121C483.179 214.695 480.125 212.968 477.337 212.736C477.603 212.139 477.857 211.519 478.112 210.877C480.325 205.278 478.222 203.131 476.319 203.696C474.416 204.26 464.855 214.861 463.76 216.974" stroke="#333333" stroke-width="0.75" stroke-linecap="round" stroke-linejoin="round"/>
<path d="M481.509 276.307C483.523 271.682 473.409 266.669 473.409 266.669L467.876 276.871C467.876 276.871 477.26 282.858 481.509 276.307Z" fill="#333333"/>
<path d="M445.734 254.862C449.663 248.876 452.816 243.974 452.816 243.974C459.588 253.083 467.834 260.997 477.215 267.388L472.203 276.827C466.19 275.974 460.533 273.469 455.859 269.591C451.186 265.713 447.681 260.614 445.734 254.862V254.862Z" fill="#F9F9F9"/>
<path d="M376.1 389.572C387.165 400.637 413.202 402.972 437.391 356.375C461.58 309.779 481.475 276.505 481.475 276.505C481.475 276.505 469.392 279.283 447.715 249.805C447.715 249.805 425.407 279.681 402.878 307.013C376.919 338.494 356.359 369.776 376.1 389.572Z" fill="#4F4F4F"/>
<path d="M447.715 249.794C447.715 249.794 425.407 279.67 402.878 307.002C394.982 316.352 387.672 326.182 380.991 336.436" stroke="#333333" stroke-width="0.75" stroke-linecap="round" stroke-linejoin="round"/>
<path d="M473.519 240.609C473.519 240.609 478.377 229.333 471.893 221.112C471.893 221.112 476.551 214.605 477.337 212.735" stroke="#333333" stroke-width="0.75" stroke-linecap="round" stroke-linejoin="round"/>
<path d="M473.519 221.732L524.807 103.896" stroke="#DDDDDD" stroke-width="3" stroke-linecap="round" stroke-linejoin="round"/>
<path d="M496.436 226.423C500.729 228.637 493.205 239.702 489.321 238.927C484.352 237.865 491.877 224.122 496.436 226.423Z" fill="#B25E47" stroke="#333333" stroke-width="0.75" stroke-linecap="round" stroke-linejoin="round"/>
<path d="M492.895 218.036C498.206 220.814 488.779 235.354 483.976 234.269C479.174 233.185 487.252 215.082 492.895 218.036Z" fill="#B25E47" stroke="#333333" stroke-width="0.75" stroke-linecap="round" stroke-linejoin="round"/>
<path d="M489.575 212.88C494.621 216.255 483.799 231.691 479.096 230.164C474.394 228.637 484.198 209.328 489.575 212.88Z" fill="#B25E47" stroke="#333333" stroke-width="0.75" stroke-linecap="round" stroke-linejoin="round"/>
<path d="M486.256 201.758C491.866 204.071 484.297 221.3 479.395 220.78C474.493 220.26 480.258 199.291 486.256 201.758Z" fill="#B25E47" stroke="#333333" stroke-width="0.75" stroke-linecap="round" stroke-linejoin="round"/>
<path d="M239.276 293.303C239.155 294.332 239.011 295.383 238.834 296.434C238.734 297.01 238.646 297.541 238.535 298.183C238.424 298.825 238.314 299.367 238.181 299.964C237.982 300.982 237.76 302.011 237.506 303.041C237.119 304.645 236.72 306.36 236.322 308.075C236.178 308.662 236.045 309.259 235.913 309.857C235.499 311.649 235.079 313.494 234.651 315.389C234.507 316.02 234.363 316.673 234.22 317.326C234.131 317.702 234.054 318.089 233.965 318.432C233.766 319.284 233.578 320.137 233.39 321.011C232.183 326.455 230.9 332.22 229.539 338.107C229.207 339.556 228.864 341.017 228.521 342.477C228.421 342.92 228.311 343.374 228.2 343.816L227.47 346.882C227.47 347.114 227.359 347.357 227.293 347.601C227.027 348.707 226.761 349.814 226.485 350.92C226.275 351.795 226.053 352.658 225.832 353.532C225.611 354.406 225.467 354.992 225.268 355.745C224.725 357.836 224.161 359.939 223.608 362.008L222.944 364.431C221.439 369.798 219.868 375.01 218.197 379.923C217.976 380.576 217.743 381.228 217.522 381.859C216.958 383.464 216.415 385.035 215.796 386.562C215.563 387.171 215.331 387.779 215.087 388.377C214.232 390.523 213.358 392.57 212.465 394.518C211.989 395.536 211.513 396.532 211.026 397.484C210.905 397.738 210.772 397.993 210.639 398.236C210.174 399.121 209.71 399.973 209.234 400.792C208.758 401.611 208.327 402.341 207.873 403.072V403.149C207.386 403.89 206.91 404.61 206.412 405.296C205.418 406.682 204.307 407.981 203.093 409.18C202.927 409.357 202.75 409.523 202.573 409.678C201.573 410.635 200.457 411.463 199.253 412.145L198.611 412.466H198.534C198.268 412.591 198.002 412.702 197.737 412.798C197.46 412.909 197.184 412.997 196.896 413.086C176.469 419.017 164.906 407.453 163.014 390.191C162.853 388.6 162.779 387 162.792 385.4V385.4C162.792 372.354 166.643 349.493 171.412 328.679C174.123 316.85 177.133 305.685 179.9 297.353L181.227 293.325C188.973 269.756 195.491 247.625 210.916 245.202C225.976 242.845 238.059 257.208 239.686 278.94C240.027 283.729 239.89 288.541 239.276 293.303V293.303Z" fill="#4F4F4F"/>
<path d="M196.841 413.153C197.126 413.072 197.407 412.976 197.682 412.865C197.947 412.769 198.213 412.658 198.478 412.533H198.556C198.776 412.439 198.991 412.332 199.198 412.212C200.402 411.53 201.517 410.702 202.517 409.745C202.694 409.59 202.86 409.424 203.037 409.247C204.252 408.048 205.362 406.749 206.357 405.363C206.855 404.688 207.342 403.968 207.818 403.216V403.139C208.282 402.408 208.736 401.656 209.179 400.859C209.658 400.04 210.123 399.188 210.573 398.303C210.706 398.06 210.838 397.805 210.96 397.551C211.447 396.599 211.923 395.603 212.399 394.585C213.299 392.637 214.173 390.59 215.021 388.444C215.265 387.846 215.497 387.238 215.729 386.629C216.316 385.102 216.836 383.531 217.456 381.926C217.677 381.284 217.909 380.643 218.131 379.99C219.801 375.077 221.373 369.865 222.878 364.498C223.099 363.702 223.32 362.894 223.541 362.075C224.106 360.006 224.648 357.903 225.201 355.812C225.4 355.071 225.578 354.34 225.766 353.599C225.954 352.857 226.208 351.862 226.418 350.987C226.695 349.881 226.961 348.774 227.226 347.668C227.293 347.424 227.348 347.181 227.403 346.949C227.647 345.919 227.901 344.901 228.134 343.883C228.244 343.441 228.355 342.987 228.455 342.545C228.798 341.084 229.141 339.623 229.473 338.174C230.834 332.287 232.117 326.522 233.323 321.078C233.522 320.215 233.711 319.351 233.899 318.499C233.987 318.112 234.065 317.725 234.153 317.393L234.585 315.456C235.013 313.538 235.433 311.694 235.846 309.924C235.979 309.326 236.112 308.729 236.256 308.142C236.654 306.394 237.052 304.712 237.44 303.107C237.694 302.078 237.915 301.049 238.115 300.031C238.247 299.434 238.369 298.836 238.469 298.25C238.568 297.663 238.679 297.077 238.767 296.501C238.944 295.395 239.088 294.399 239.21 293.37C239.21 293.127 239.276 292.883 239.299 292.64" stroke="#333333" stroke-width="0.75" stroke-linecap="round" stroke-linejoin="round"/>
<path d="M239.664 279.04C226.053 271.969 212.963 273.131 197.316 282.171C191.659 285.51 186.262 289.272 181.172 293.425C188.918 269.856 195.435 247.725 210.86 245.302C225.92 242.9 238.004 257.263 239.664 279.04Z" fill="#4F4F4F"/>
<path opacity="0.3" d="M209.234 400.815C208.791 401.612 208.338 402.364 207.873 403.095V403.172C207.397 403.925 206.91 404.644 206.412 405.319C205.418 406.705 204.307 408.004 203.093 409.203C202.927 409.38 202.75 409.546 202.573 409.701C201.573 410.658 200.457 411.487 199.253 412.168L198.611 412.489H198.534C198.268 412.615 198.002 412.725 197.737 412.821C197.46 412.932 197.184 413.02 196.896 413.109C176.469 419.04 164.906 407.477 163.014 390.215C162.853 388.623 162.779 387.023 162.792 385.423V385.423C162.792 372.377 166.643 349.516 171.412 328.702C182.622 335.275 185.687 349.527 180.099 365.041C178.859 368.457 177.303 371.751 175.451 374.878C163.147 395.836 188.398 410.896 209.234 400.815Z" fill="#333333"/>
<path d="M294.659 147.019C299.627 143.965 305.901 143.489 305.658 164.889L294.659 147.019Z" fill="#333333"/>
<path d="M299.527 145.437C298.057 148.722 296.131 151.784 293.807 154.532L295.157 179.02L268.6 179.905L264.461 180.049C262.038 171.473 261.673 165.664 259.438 164.192C258.875 163.724 258.483 163.082 258.323 162.368C258.163 161.653 258.244 160.906 258.552 160.242C259.382 157.896 256.638 159.213 254.868 156.27C253.883 154.632 253.595 147.827 260.998 148.657C258.574 143.921 262.326 140.125 271.078 140.457C269.076 139.494 268.522 136.197 273.38 135.965C279.254 135.616 285.144 135.616 291.018 135.965C293.302 136.154 295.491 136.966 297.348 138.31C298.485 139.057 299.326 140.178 299.724 141.48C300.122 142.781 300.053 144.181 299.527 145.437Z" fill="#333333"/>
<path d="M299.527 145.436C298.057 148.722 296.131 151.784 293.807 154.532L295.157 179.02L268.6 179.905C269.463 165.786 267.493 161.039 266.553 156.668C265.612 152.297 267.383 146.532 272.948 147.815C278.514 149.099 287.699 145.835 286.16 142.792C285.054 140.579 289.668 135.765 297.348 138.288C298.49 139.036 299.335 140.161 299.733 141.467C300.131 142.773 300.059 144.178 299.527 145.436V145.436Z" fill="#333333"/>
<path d="M271.067 140.468L281.391 141.021" stroke="#4F4F4F" stroke-width="0.75" stroke-linecap="round" stroke-linejoin="round"/>
<path d="M260.987 148.656L272.174 149.763" stroke="#4F4F4F" stroke-width="0.75" stroke-linecap="round" stroke-linejoin="round"/>
<path d="M301.11 206.23C284.213 209.55 270.215 185.538 270.215 185.538C262.348 187.131 259.438 179.562 261.772 174.472C262.021 173.923 262.325 173.4 262.68 172.912C263.32 171.929 264.24 171.161 265.32 170.705C266.401 170.25 267.593 170.128 268.744 170.356C270.945 170.917 272.91 172.165 274.354 173.919C275.947 175.667 277.795 173.687 276.489 170.599C275.184 167.512 273.867 156.878 275.471 154.698C277.076 152.519 291.66 149.52 296.031 149.299C296.315 149.281 296.599 149.281 296.883 149.299C297.085 149.331 297.277 149.406 297.447 149.52C298.366 150.211 299.156 151.057 299.782 152.021C300.313 152.729 300.888 153.57 301.431 154.499C302.985 157.057 304.396 159.698 305.658 162.411C306.111 163.374 306.565 164.358 306.997 165.354C307.428 166.35 307.782 167.18 308.103 168.099C308.734 169.637 309.298 171.164 309.796 172.658C310.194 173.842 310.549 175.003 310.847 176.11C310.847 176.176 310.847 176.243 310.903 176.309C313.813 187.197 315.417 203.397 301.11 206.23Z" fill="#B25E47"/>
<path d="M290.841 177.891C294.316 178.5 299.55 178.135 301.674 176.065C301.674 176.065 302.471 183.568 297.978 184.187C292.778 184.907 290.841 177.891 290.841 177.891Z" fill="white" stroke="#914839" stroke-width="0.75" stroke-linecap="round" stroke-linejoin="round"/>
<path d="M305.337 197.156C305.904 198.962 305.733 200.92 304.861 202.6" stroke="#914839" stroke-width="0.75" stroke-linecap="round" stroke-linejoin="round"/>
<path d="M270.226 185.538C271.644 185.158 272.972 184.5 274.132 183.602" stroke="#914839" stroke-width="0.75" stroke-linecap="round" stroke-linejoin="round"/>
<path d="M264.948 177.117C267.46 173.797 272.284 175.888 273.612 179.263" stroke="#914839" stroke-width="0.75" stroke-linecap="round" stroke-linejoin="round"/>
<path d="M272.937 177.98C267.725 174.062 265.9 182.904 271.986 181.642" stroke="#914839" stroke-width="0.75" stroke-linecap="round" stroke-linejoin="round"/>
<path d="M294.061 159.091C293.906 161.403 297.082 165.144 300.003 166.04C302.925 166.936 303.832 167.744 303.068 170.145" stroke="#914839" stroke-width="0.75" stroke-linecap="round" stroke-linejoin="round"/>
<path d="M279.975 159.191C280.418 161.028 290.421 158.881 289.071 155.462C287.721 152.043 279.234 156.215 279.975 159.191Z" fill="#333333"/>
<path d="M293.453 153.271C293.32 155.484 302.117 155.418 302.084 153.769C302.05 152.12 293.718 149.254 293.453 153.271Z" fill="#333333"/>
<path d="M288.086 164.171C288.086 164.479 288.177 164.781 288.349 165.037C288.52 165.294 288.764 165.494 289.049 165.612C289.334 165.73 289.648 165.761 289.95 165.701C290.253 165.641 290.531 165.492 290.749 165.274C290.967 165.056 291.116 164.778 291.176 164.475C291.236 164.172 291.206 163.859 291.087 163.574C290.969 163.288 290.769 163.045 290.513 162.873C290.256 162.702 289.955 162.61 289.646 162.61C289.232 162.61 288.835 162.775 288.543 163.067C288.25 163.36 288.086 163.757 288.086 164.171V164.171Z" fill="#683F1D"/>
<path d="M300.158 163.462C301.02 163.462 301.718 162.764 301.718 161.902C301.718 161.04 301.02 160.342 300.158 160.342C299.296 160.342 298.598 161.04 298.598 161.902C298.598 162.764 299.296 163.462 300.158 163.462Z" fill="#683F1D"/>
<path d="M288.739 176.276C287.776 178.434 284.656 179.153 281.756 177.869C278.857 176.586 277.33 173.786 278.238 171.628C279.145 169.471 282.321 168.763 285.22 170.046C288.119 171.33 289.69 174.118 288.739 176.276Z" fill="#914839"/>
<path d="M310.936 176.264C308.59 177.304 306.089 176.95 304.961 175.268C303.644 173.31 304.706 170.289 307.34 168.518C307.595 168.347 307.861 168.192 308.136 168.054C308.767 169.592 309.331 171.119 309.829 172.613C310.228 173.797 310.582 174.959 310.881 176.065C310.903 176.131 310.914 176.198 310.936 176.264Z" fill="#914839"/>
<path d="M341.709 354.15C353.56 352.623 357.687 349.946 362.279 348.186C366.871 346.427 370.313 346.659 370.844 349.293C370.844 349.293 375.425 347.246 376.963 348.065C379.254 349.293 377.815 353.597 370.855 356.585C363.895 359.573 343.313 368.026 339.496 366.876C335.678 365.725 332.779 358.377 341.709 354.15Z" fill="#B25E47" stroke="#333333" stroke-width="0.75" stroke-linecap="round" stroke-linejoin="round"/>
<path d="M311.533 390.169C311.533 390.169 338.71 377.864 345.382 374.124C352.055 370.384 372.636 360.923 374.628 357.604C376.62 354.284 373.378 353.963 369.394 355.391C365.411 356.818 349.698 362.096 348.193 362.03C346.688 361.963 338.234 362.03 338.234 362.03C338.92 355.391 349.919 350.843 351.513 347.645C353.283 344.203 348.27 344.325 345.106 345.266C341.941 346.206 329.138 350.666 325.974 352.425C322.809 354.184 319.987 358.212 313.392 359.197L311.533 390.169Z" fill="#B25E47"/>
<path d="M364.116 364.453C369.361 361.664 373.754 359.053 374.628 357.614C376.62 354.295 373.378 353.974 369.394 355.401C365.411 356.829 349.698 362.107 348.193 362.041C346.688 361.974 338.234 362.041 338.234 362.041C338.92 355.401 349.919 350.853 351.513 347.656C353.283 344.214 348.27 344.336 345.106 345.276C343.258 345.83 338.09 347.578 333.498 349.293" stroke="#333333" stroke-width="0.75" stroke-linecap="round" stroke-linejoin="round"/>
<path d="M349.355 357.603C356.547 355.29 368.686 350.388 370.844 349.326" stroke="#333333" stroke-width="0.75" stroke-linecap="round" stroke-linejoin="round"/>
<path d="M338.234 362.029C338.087 362.86 338.087 363.71 338.234 364.541" stroke="#333333" stroke-width="0.75" stroke-linecap="round" stroke-linejoin="round"/>
<path d="M301.254 359.241H313.437V394.164L302.515 396.266L301.254 359.241Z" fill="#F9F9F9"/>
<path d="M306.1 398.988C306.399 399.275 284.556 404.443 258.995 409.566C230.988 415.176 198.523 420.742 185.842 419.78C168.137 418.441 159.927 400.338 162.737 385.477C163.635 380.062 166.314 375.101 170.35 371.38C173.263 368.831 176.528 366.714 180.043 365.094C183.937 363.301 188.02 361.95 192.215 361.067H192.326L193.72 360.779L195.568 360.436C196.343 360.303 197.117 360.181 197.903 360.071L198.401 360.004C198.877 359.927 199.341 359.872 199.817 359.816L201.344 359.639H201.411L202.882 359.495C203.391 359.44 203.911 359.396 204.42 359.363L205.947 359.252C206.977 359.174 207.995 359.119 209.013 359.086H210.119H210.761L213.682 359.02H215.043C216.216 359.02 217.378 359.02 218.518 359.02H220.521H220.631L224.438 359.108C226.651 359.108 228.797 359.219 230.811 359.274H233.024H237.583C254.502 359.075 303.887 357.647 303.887 357.647C303.887 357.647 305.481 398.379 306.1 398.988Z" fill="#4F4F4F"/>
<path d="M303.92 357.604C303.92 357.604 254.536 359.031 237.617 359.241C226.352 359.374 208.382 357.504 192.249 361.045" stroke="#333333" stroke-width="0.75" stroke-linecap="round" stroke-linejoin="round"/>
<path opacity="0.3" d="M258.995 409.61C230.988 415.221 198.523 420.786 185.842 419.824C168.137 418.485 159.927 400.382 162.737 385.521C163.635 380.106 166.314 375.145 170.35 371.424C173.263 368.875 176.528 366.758 180.043 365.139C178.804 368.555 177.248 371.849 175.396 374.976C163.124 395.9 188.398 410.96 209.234 400.88C210.07 400.49 210.887 400.058 211.679 399.585C228.875 389.339 251.161 403.735 258.995 409.61Z" fill="#333333"/>
<path d="M304.595 399.497C299.24 400.947 280.429 405.273 258.995 409.567C230.988 415.177 198.523 420.743 185.842 419.78" stroke="#333333" stroke-width="0.75" stroke-linecap="round" stroke-linejoin="round"/>
</svg>
