<svg width="530" height="385" viewBox="0 0 530 385" fill="none" xmlns="http://www.w3.org/2000/svg">
<path d="M71.9725 325.663H27.9396C25.6143 325.661 23.385 324.735 21.7415 323.091C20.0981 321.446 19.1749 319.215 19.1749 316.89V316.89C19.1749 314.566 20.0983 312.336 21.742 310.693C23.3857 309.049 25.615 308.125 27.9396 308.125H71.9725C74.2978 308.125 76.528 309.049 78.1729 310.692C79.8179 312.336 80.7431 314.565 80.7452 316.89V316.89C80.7452 318.042 80.5183 319.183 80.0775 320.247C79.6366 321.312 78.9904 322.279 78.1758 323.093C77.3612 323.908 76.3941 324.554 75.3297 324.995C74.2654 325.436 73.1246 325.663 71.9725 325.663V325.663Z" stroke="#DDDDDD" stroke-miterlimit="10"/>
<path d="M185.429 134.584H161.467C155.151 134.584 150.031 139.704 150.031 146.02V146.028C150.031 152.344 155.151 157.464 161.467 157.464H185.429C191.744 157.464 196.865 152.344 196.865 146.028V146.02C196.865 139.704 191.744 134.584 185.429 134.584Z" stroke="#DDDDDD" stroke-miterlimit="10"/>
<path d="M275.109 41.6195H231.076C228.751 41.6195 226.522 40.6961 224.878 39.0524C223.234 37.4087 222.311 35.1794 222.311 32.8549V32.8549C222.31 31.7032 222.536 30.5626 222.976 29.4983C223.416 28.434 224.061 27.4668 224.875 26.6521C225.689 25.8374 226.656 25.1911 227.72 24.7501C228.784 24.3091 229.924 24.0822 231.076 24.0822H275.109C276.261 24.0811 277.403 24.3072 278.468 24.7476C279.533 25.188 280.502 25.834 281.317 26.6488C282.132 27.4635 282.779 28.4309 283.221 29.4958C283.662 30.5607 283.889 31.7021 283.889 32.8549V32.8549C283.888 34.0069 283.66 35.1475 283.218 36.2114C282.777 37.2754 282.13 38.2419 281.314 39.0557C280.499 39.8696 279.531 40.5149 278.466 40.9548C277.402 41.3947 276.261 41.6206 275.109 41.6195V41.6195Z" stroke="#DDDDDD" stroke-miterlimit="10"/>
<path d="M411.598 280.492H376.087C375.032 280.492 374.02 280.073 373.274 279.327C372.528 278.58 372.109 277.568 372.109 276.513V276.513C372.109 275.458 372.528 274.446 373.274 273.7C374.02 272.954 375.032 272.534 376.087 272.534H411.598C412.653 272.534 413.665 272.954 414.411 273.7C415.157 274.446 415.577 275.458 415.577 276.513V276.513C415.577 277.568 415.157 278.58 414.411 279.327C413.665 280.073 412.653 280.492 411.598 280.492V280.492Z" stroke="#DDDDDD" stroke-miterlimit="10"/>
<path d="M118.604 73.9178H83.0938C82.0385 73.9178 81.0265 73.4986 80.2804 72.7524C79.5342 72.0063 79.115 70.9942 79.115 69.939V69.939C79.115 69.4165 79.2179 68.8991 79.4179 68.4164C79.6178 67.9337 79.9109 67.495 80.2804 67.1256C80.6498 66.7561 81.0884 66.463 81.5712 66.2631C82.0539 66.0631 82.5713 65.9602 83.0938 65.9602H118.604C119.127 65.9602 119.644 66.0631 120.127 66.2631C120.61 66.463 121.048 66.7561 121.418 67.1256C121.787 67.495 122.08 67.9337 122.28 68.4164C122.48 68.8991 122.583 69.4165 122.583 69.939V69.939C122.583 70.9942 122.164 72.0063 121.418 72.7524C120.672 73.4986 119.659 73.9178 118.604 73.9178V73.9178Z" stroke="#DDDDDD" stroke-miterlimit="10"/>
<path d="M469.383 10.7334C480.166 15.8905 487.276 9.92638 493.522 6.94028C496.15 5.67347 499.136 5.35915 501.97 6.05107C504.804 6.743 507.31 8.39818 509.058 10.7334L508.574 33.9605C508.574 33.9605 499.753 30.8291 494.733 33.9605C489.713 37.0919 483.708 44.8074 469.367 34.3883L469.383 10.7334Z" fill="#DDDDDD" stroke="#DDDDDD" stroke-width="2" stroke-linecap="round" stroke-linejoin="round"/>
<path d="M510.89 107.104C510.294 107.104 509.723 106.868 509.301 106.447C508.879 106.027 508.641 105.456 508.638 104.86V6.56907C508.638 6.27375 508.697 5.98134 508.81 5.7086C508.923 5.43587 509.089 5.18818 509.298 4.97973C509.508 4.77129 509.756 4.6062 510.029 4.49392C510.302 4.38164 510.595 4.32439 510.89 4.32545V4.32545C511.185 4.32439 511.478 4.38164 511.751 4.49392C512.024 4.6062 512.273 4.77129 512.482 4.97973C512.691 5.18818 512.857 5.43587 512.97 5.7086C513.083 5.98134 513.142 6.27375 513.142 6.56907V104.86C513.14 105.456 512.901 106.027 512.479 106.447C512.057 106.868 511.486 107.104 510.89 107.104V107.104Z" fill="#F9F9F9" stroke="#DDDDDD" stroke-width="2" stroke-linecap="round" stroke-linejoin="round"/>
<path d="M493.918 107.847H528.04" stroke="#DDDDDD" stroke-width="2" stroke-linecap="round" stroke-linejoin="round"/>
<path d="M467.414 146.02H453.702V175.171H418.805V208.809" stroke="#DDDDDD" stroke-width="2" stroke-linecap="round" stroke-linejoin="round"/>
<path d="M194.016 335.477H159.11V364.402H107.225V383.376H1" stroke="#DDDDDD" stroke-width="2" stroke-linecap="round" stroke-linejoin="round"/>
<path d="M331.861 237.089V261.163H288.07V287.102H244.384V313.105H200.811V335.477" stroke="#DDDDDD" stroke-width="2" stroke-linecap="round" stroke-linejoin="round"/>
<path d="M408.935 209.318H372.399V237.088H344.798" stroke="#DDDDDD" stroke-width="2" stroke-linecap="round" stroke-linejoin="round"/>
<path d="M71.9725 325.663H27.9396C25.6143 325.661 23.385 324.735 21.7415 323.091C20.0981 321.446 19.1749 319.215 19.1749 316.89V316.89C19.1749 314.566 20.0983 312.336 21.742 310.693C23.3857 309.049 25.615 308.125 27.9396 308.125H71.9725C74.2978 308.125 76.528 309.049 78.1729 310.692C79.8179 312.336 80.7431 314.565 80.7452 316.89V316.89C80.7452 318.042 80.5183 319.183 80.0775 320.247C79.6366 321.312 78.9904 322.279 78.1758 323.093C77.3612 323.908 76.3941 324.554 75.3297 324.995C74.2654 325.436 73.1246 325.663 71.9725 325.663V325.663Z" stroke="#DDDDDD" stroke-miterlimit="10"/>
<path d="M185.429 134.584H161.467C155.151 134.584 150.031 139.704 150.031 146.02V146.028C150.031 152.344 155.151 157.464 161.467 157.464H185.429C191.744 157.464 196.865 152.344 196.865 146.028V146.02C196.865 139.704 191.744 134.584 185.429 134.584Z" stroke="#DDDDDD" stroke-miterlimit="10"/>
<path d="M275.109 41.6195H231.076C228.751 41.6195 226.522 40.6961 224.878 39.0524C223.234 37.4087 222.311 35.1794 222.311 32.8549V32.8549C222.31 31.7032 222.536 30.5626 222.976 29.4983C223.416 28.434 224.061 27.4668 224.875 26.6521C225.689 25.8374 226.656 25.1911 227.72 24.7501C228.784 24.3091 229.924 24.0822 231.076 24.0822H275.109C276.261 24.0811 277.403 24.3072 278.468 24.7476C279.533 25.188 280.502 25.834 281.317 26.6488C282.132 27.4635 282.779 28.4309 283.221 29.4958C283.662 30.5607 283.889 31.7021 283.889 32.8549V32.8549C283.888 34.0069 283.66 35.1475 283.218 36.2114C282.777 37.2754 282.13 38.2419 281.314 39.0557C280.499 39.8696 279.531 40.5149 278.466 40.9548C277.402 41.3947 276.261 41.6206 275.109 41.6195V41.6195Z" stroke="#DDDDDD" stroke-miterlimit="10"/>
<path d="M411.598 280.492H376.087C375.032 280.492 374.02 280.073 373.274 279.327C372.528 278.58 372.109 277.568 372.109 276.513V276.513C372.109 275.458 372.528 274.446 373.274 273.7C374.02 272.954 375.032 272.534 376.087 272.534H411.598C412.653 272.534 413.665 272.954 414.411 273.7C415.157 274.446 415.577 275.458 415.577 276.513V276.513C415.577 277.568 415.157 278.58 414.411 279.327C413.665 280.073 412.653 280.492 411.598 280.492V280.492Z" stroke="#DDDDDD" stroke-miterlimit="10"/>
<path d="M118.604 73.9178H83.0938C82.0385 73.9178 81.0265 73.4986 80.2804 72.7524C79.5342 72.0063 79.115 70.9942 79.115 69.939V69.939C79.115 69.4165 79.2179 68.8991 79.4179 68.4164C79.6178 67.9337 79.9109 67.495 80.2804 67.1256C80.6498 66.7561 81.0884 66.463 81.5712 66.2631C82.0539 66.0631 82.5713 65.9602 83.0938 65.9602H118.604C119.127 65.9602 119.644 66.0631 120.127 66.2631C120.61 66.463 121.048 66.7561 121.418 67.1256C121.787 67.495 122.08 67.9337 122.28 68.4164C122.48 68.8991 122.583 69.4165 122.583 69.939V69.939C122.583 70.9942 122.164 72.0063 121.418 72.7524C120.672 73.4986 119.659 73.9178 118.604 73.9178V73.9178Z" stroke="#DDDDDD" stroke-miterlimit="10"/>
<path d="M469.383 10.7334C480.166 15.8905 487.276 9.92638 493.522 6.94028C496.15 5.67347 499.136 5.35915 501.97 6.05107C504.804 6.743 507.31 8.39818 509.058 10.7334L508.574 33.9605C508.574 33.9605 499.753 30.8291 494.733 33.9605C489.713 37.0919 483.708 44.8074 469.367 34.3883L469.383 10.7334Z" fill="#DDDDDD" stroke="#DDDDDD" stroke-width="2" stroke-linecap="round" stroke-linejoin="round"/>
<path d="M510.89 107.104C510.294 107.104 509.723 106.868 509.301 106.447C508.879 106.027 508.641 105.456 508.638 104.86V6.56907C508.638 6.27375 508.697 5.98134 508.81 5.7086C508.923 5.43587 509.089 5.18818 509.298 4.97973C509.508 4.77129 509.756 4.6062 510.029 4.49392C510.302 4.38164 510.595 4.32439 510.89 4.32545V4.32545C511.185 4.32439 511.478 4.38164 511.751 4.49392C512.024 4.6062 512.273 4.77129 512.482 4.97973C512.691 5.18818 512.857 5.43587 512.97 5.7086C513.083 5.98134 513.142 6.27375 513.142 6.56907V104.86C513.14 105.456 512.901 106.027 512.479 106.447C512.057 106.868 511.486 107.104 510.89 107.104V107.104Z" fill="#F9F9F9" stroke="#DDDDDD" stroke-width="2" stroke-linecap="round" stroke-linejoin="round"/>
<path d="M493.918 107.847H528.04" stroke="#DDDDDD" stroke-width="2" stroke-linecap="round" stroke-linejoin="round"/>
<path d="M467.414 146.02H453.702V175.171H418.805V208.809" stroke="#DDDDDD" stroke-width="2" stroke-linecap="round" stroke-linejoin="round"/>
<path d="M194.016 335.477H159.11V364.402H107.225V383.376H1" stroke="#DDDDDD" stroke-width="2" stroke-linecap="round" stroke-linejoin="round"/>
<path d="M331.861 237.089V261.163H288.07V287.102H244.384V313.105H200.811V335.477" stroke="#DDDDDD" stroke-width="2" stroke-linecap="round" stroke-linejoin="round"/>
<path d="M408.935 209.318H372.399V237.088H344.798" stroke="#DDDDDD" stroke-width="2" stroke-linecap="round" stroke-linejoin="round"/>
<path d="M381.527 12.7208C376.685 13.6892 374.936 18.5047 374.667 20.7913H378.299C383.276 23.7505 393.794 28.8619 396.054 25.6337C398.879 21.5984 394.44 14.7384 390.405 12.7208C386.369 10.7031 387.58 11.5102 381.527 12.7208Z" fill="#333333"/>
<path d="M391.736 25.2202C391.736 25.2202 391.575 25.5914 391.284 26.2209C390.994 26.8504 390.711 27.4073 390.292 28.1982C390.009 28.747 389.694 29.3361 389.339 29.9576C389.13 30.3369 388.904 30.7646 388.661 31.1278L388.427 31.5071C387.895 32.3868 387.306 33.2988 386.66 34.1946C386.208 34.8241 385.732 35.4536 385.231 36.0589C381.309 40.8125 378.016 38.819 378.016 38.819C377.097 39.6189 376.333 40.5821 375.765 41.6599C374.968 43.1363 374.391 44.7215 374.054 46.365C364.797 53.112 358.921 44.2183 361.673 36.3091C365.418 32.7821 368.758 28.849 371.633 24.5826C368.646 20.6119 373.618 17.1496 375.902 19.4255L380.849 17.1334C391.276 14.3733 391.736 25.2202 391.736 25.2202Z" fill="#B25E47"/>
<path d="M376.281 24.0013C376.604 22.3872 375.609 19.8315 375.071 18.7554L378.702 16.7378L383.545 15.1237C380.989 18.7554 375.958 25.6154 376.281 24.0013Z" fill="#333333"/>
<path d="M372.964 20.4263C374.272 20.4263 375.385 20.9589 375.135 22.9685" stroke="#914839" stroke-width="0.75" stroke-linecap="round" stroke-linejoin="round"/>
<path d="M374.28 23.9209C372.383 22.7426 374.046 21.193 375.087 22.1696" stroke="#914839" stroke-width="0.75" stroke-linecap="round" stroke-linejoin="round"/>
<path d="M383.561 33.9606C382.197 33.5329 381.608 31.8058 381.947 30.3127C378.315 32.8469 381.027 35.8492 383.561 33.9606Z" fill="white" stroke="#914839" stroke-width="0.75" stroke-linecap="round" stroke-linejoin="round"/>
<path d="M384.497 31.8543C385.724 31.8543 386.797 32.0641 387.088 29.7479C387.16 29.0883 387.39 28.4561 387.76 27.9051C388.13 27.3542 388.627 26.901 389.21 26.5842" stroke="#914839" stroke-width="0.75" stroke-linecap="round" stroke-linejoin="round"/>
<path d="M371.633 24.5826C372.078 25.2062 372.703 25.6792 373.424 25.9385" stroke="#914839" stroke-width="0.75" stroke-linecap="round" stroke-linejoin="round"/>
<path d="M384.4 27.5525C384.4 27.7122 384.448 27.8682 384.536 28.0009C384.625 28.1336 384.751 28.2371 384.898 28.2982C385.046 28.3592 385.208 28.3752 385.365 28.3441C385.521 28.3129 385.665 28.2361 385.778 28.1232C385.891 28.0103 385.968 27.8665 385.999 27.71C386.03 27.5534 386.014 27.3912 385.953 27.2437C385.892 27.0962 385.788 26.9702 385.656 26.8815C385.523 26.7928 385.367 26.7455 385.207 26.7455C384.993 26.7455 384.788 26.8305 384.637 26.9819C384.485 27.1332 384.4 27.3385 384.4 27.5525Z" fill="#333333"/>
<path d="M389.339 29.9738C389.13 30.3531 388.904 30.7808 388.661 31.144H388.605C388.391 31.144 388.186 31.059 388.034 30.9076C387.883 30.7563 387.798 30.551 387.798 30.337C387.798 30.1229 387.883 29.9176 388.034 29.7663C388.186 29.6149 388.391 29.5299 388.605 29.5299C388.757 29.5273 388.906 29.5676 389.036 29.6461C389.166 29.7247 389.271 29.8382 389.339 29.9738Z" fill="#333333"/>
<path d="M384.093 23.5173C383.706 24.6875 387.322 25.9385 387.862 24.7279C388.403 23.5173 384.586 21.992 384.093 23.5173Z" fill="#333333"/>
<path d="M391.284 26.2209C391.042 26.7293 390.711 27.4073 390.292 28.1982C389.573 27.3911 388.912 26.3258 389.146 25.9142C389.517 25.2605 390.526 25.7205 391.284 26.2209Z" fill="#333333"/>
<path d="M378.016 38.8514C377.097 39.6512 376.333 40.6144 375.765 41.6922C371.084 38.1654 374.062 34.1462 374.062 34.1462C374.878 36.0758 376.256 37.7152 378.016 38.8514V38.8514Z" fill="#914839"/>
<path d="M396.522 24.4535C396.458 25.769 395.247 27.0845 393.205 27.1168C391.309 27.1168 389.912 24.9781 390.227 22.8717C390.227 22.8717 386.999 23.6222 386.458 19.4175C386.458 19.4175 383.827 21.5642 382.423 18.0777C380.833 19.4821 379.38 21.0332 378.081 22.7102C376.467 24.97 375.66 24.6552 375.611 23.6949C375.563 22.7345 376.572 21.1446 376.693 20.9509C377.74 20.3101 378.616 19.4236 379.243 18.3683C381.293 15.3095 383.399 13.421 385.215 15.6808C387.031 17.9405 389.13 15.6808 389.929 18.4167C390.687 21.0396 392.398 25.083 396.522 24.4535Z" fill="#333333"/>
<path d="M384.772 11.8876C384.876 14.2522 382.786 17.0931 382.786 17.0931" stroke="#333333" stroke-width="0.75" stroke-linecap="round" stroke-linejoin="round"/>
<path d="M387.112 18.5055C387.541 17.7215 388.137 17.0412 388.858 16.5127C389.579 15.9842 390.407 15.6203 391.284 15.4468" stroke="#333333" stroke-width="0.75" stroke-linecap="round" stroke-linejoin="round"/>
<path d="M390.631 22.1615C391.798 21.4487 393.155 21.1081 394.521 21.185" stroke="#333333" stroke-width="0.75" stroke-linecap="round" stroke-linejoin="round"/>
<path d="M377.871 17.8679C378.306 18.0569 378.687 18.3502 378.981 18.7219C379.276 19.0935 379.474 19.5321 379.558 19.9985" stroke="#333333" stroke-width="0.75" stroke-linecap="round" stroke-linejoin="round"/>
<path d="M403.81 134.528C402.623 145.415 394.537 140.177 383.246 138.676L376.983 138.426L335.331 136.812L331.853 136.674L343.958 102.536C370.728 110.477 405.311 120.662 403.81 134.528Z" fill="#F06B07"/>
<path d="M376.983 138.426L335.331 136.812L336.574 127.708L342.264 113.1C342.264 113.1 351.868 112.519 348.946 120.921C346.025 129.322 347.195 135.278 362.367 131.316C371.536 128.902 375.377 134.011 376.983 138.426Z" fill="#DE660C"/>
<path d="M354.515 89.6957C347.421 98.9365 343.579 118.96 342.691 130.977C342.054 139.628 340.754 161.911 337.502 180.546C326.276 204.621 310.805 193.249 311.676 176.285V176.196C313.185 163.767 312.483 153.13 311.103 148.683C309.231 142.776 304.606 123.084 303.84 115.005C302.113 97.2498 306.108 82.1094 311.91 73.4658L354.515 89.6957Z" fill="#F06B07"/>
<path d="M342.264 137.062C342.433 134.641 342.578 132.599 342.691 131.009C343.258 124.058 344.375 117.163 346.033 110.389" stroke="#DE660C" stroke-width="0.75" stroke-linecap="round" stroke-linejoin="round"/>
<path d="M316.171 86.3142C309.634 130.283 322.208 146.843 320.296 171.475C319.606 178.264 318.362 184.985 316.575 191.57" stroke="#DE660C" stroke-width="0.75" stroke-linecap="round" stroke-linejoin="round"/>
<path d="M314.323 107.104C319.109 102.027 321.888 95.3848 322.144 88.4125" stroke="#DE660C" stroke-width="0.75" stroke-linecap="round" stroke-linejoin="round"/>
<path d="M342.893 96.3376C342.893 96.3376 340.843 105.78 340.02 108.443C340.02 108.443 342.893 108.904 343.918 107.096C344.943 105.288 346.864 97.411 346.864 97.411" stroke="#DE660C" stroke-width="0.75" stroke-linecap="round" stroke-linejoin="round"/>
<path d="M390.639 77.8078L386.523 95.3209C385.393 101.108 385.086 105.813 384.448 109.235C383.569 114.012 382.027 116.434 376.854 116.159L376.644 116.103L375.902 115.901L375.41 115.756L374.764 115.538C374.481 115.433 374.207 115.328 373.957 115.215C373.489 115.027 373.031 114.814 372.585 114.577L372.101 114.311C371.384 113.909 370.706 113.442 370.075 112.915C369.951 112.819 369.832 112.717 369.72 112.608C368.786 111.791 367.983 110.836 367.339 109.775C367.16 109.488 366.995 109.192 366.847 108.888C366.454 108.116 366.146 107.304 365.927 106.466C365.886 106.321 365.854 106.184 365.822 106.047C365.789 105.909 365.749 105.724 365.725 105.571C365.701 105.417 365.676 105.296 365.652 105.159C365.54 104.452 365.51 103.734 365.563 103.02C365.838 100.066 369.494 69.592 369.494 69.592L370.833 66.283L372.625 61.8523L390.639 77.8078Z" fill="#25CED1"/>
<path d="M384.448 109.235C383.569 114.012 382.027 116.434 376.854 116.159L376.628 116.103L375.886 115.901L375.393 115.756L374.748 115.538C374.465 115.433 374.191 115.328 373.941 115.215C373.472 115.027 373.014 114.814 372.569 114.577L372.084 114.311C371.368 113.909 370.69 113.442 370.059 112.915C369.935 112.819 369.816 112.717 369.704 112.608C368.77 111.791 367.967 110.836 367.323 109.775C367.143 109.488 366.979 109.192 366.83 108.888C366.438 108.116 366.13 107.304 365.91 106.466C365.87 106.321 365.838 106.184 365.806 106.047C365.773 105.91 365.733 105.724 365.709 105.571C365.684 105.417 365.66 105.296 365.636 105.159C365.524 104.452 365.494 103.734 365.547 103.02C365.822 100.066 369.478 69.592 369.478 69.592L370.817 66.2831C373.715 71.8276 377.145 80.8101 373.15 86.9195C367 96.3298 367.904 111.599 380.098 109.614C381.537 109.376 382.991 109.249 384.448 109.235Z" fill="#25CED1"/>
<path d="M378.686 63.9346C377.61 64.7739 376.534 65.6778 375.458 66.6463C365.16 76 355.806 90.8579 353.167 92.4721C349.366 94.748 340.456 93.4405 331.909 91.2695C325.478 89.6708 319.176 87.5908 313.056 85.0471C307.883 82.626 306.6 81.1329 307.463 79.2121C308.327 77.2913 313.468 65.2904 313.468 65.2904L312.201 64.0395L298.182 50.2227C306.487 43.9599 317.358 36.9627 327.341 33.0727C334.112 30.4417 340.464 29.2473 345.33 30.6515L378.686 63.9346Z" fill="#25CED1"/>
<path d="M378.686 63.9346C377.61 64.7739 376.534 65.6778 375.458 66.6463C364.627 66.8239 354.297 74.2004 345.169 66.2751C333.87 56.4693 344.096 49.2058 337.099 39.6422C334.632 36.47 331.225 34.1592 327.365 33.0405C334.137 30.4095 340.488 29.215 345.355 30.6193L378.686 63.9346Z" fill="#25CED1"/>
<path d="M331.917 91.2535C325.486 89.6547 319.184 87.5747 313.064 85.0311C307.891 82.6099 306.608 81.1168 307.471 79.196C308.335 77.2753 313.476 65.2743 313.476 65.2743L312.209 64.0234C316.244 59.7783 321.837 53.8868 322.144 53.5317C322.636 52.9506 334.443 56.889 334.443 56.889C334.443 56.889 334.048 70.1005 323.241 71.3595C312.435 72.6185 314.364 81.2218 323.943 82.392C330.101 83.1264 331.619 87.9042 331.917 91.2535Z" fill="#25CED1"/>
<path d="M298.957 49.6336C281.839 59.5685 296.358 93.5052 334.088 59.6169C338.067 40.5461 316.632 38.1492 298.957 49.6336Z" fill="#25CED1"/>
<path d="M378.686 63.9346C375.554 66.4253 372.643 69.1823 369.986 72.1746" stroke="#22B5B8" stroke-width="0.75" stroke-linecap="round" stroke-linejoin="round"/>
<path d="M295.995 243.989C295.995 243.989 288.732 253.472 289.765 261.163H324.355C324.355 261.163 308.973 252.172 308.174 245.587L295.995 243.989Z" fill="#683F1D"/>
<path d="M337.849 178.512C337.736 179.206 337.623 179.892 337.502 180.57C336.243 187.834 334.685 194.5 332.757 199.625C325.856 217.945 314.194 246.604 314.194 246.604L291.96 244.755C293.574 240.422 301.645 222.013 309.384 189.012C310.373 184.802 311.125 180.539 311.636 176.244C311.676 175.938 311.709 175.623 311.741 175.316C313.411 165.317 334.58 155.689 337.849 178.512Z" fill="#F06B07"/>
<path d="M320.497 165.64C320.497 167.544 320.457 169.481 320.304 171.475C318.383 196.122 298.917 244.376 298.763 245.328" stroke="#DE660C" stroke-width="0.75" stroke-linecap="round" stroke-linejoin="round"/>
<path d="M380.575 192.135C380.575 192.135 377.282 201.626 378.274 209.318H408.943C408.943 209.318 393.568 200.327 392.801 193.733L380.575 192.135Z" fill="#683F1D"/>
<path d="M404.068 141C401.542 159.902 396.708 194.815 396.708 194.815H376.62L383.246 138.676C383.335 128.903 389.969 118.5 396.748 123.052C406.086 129.363 404.56 137.312 404.068 141Z" fill="#F06B07"/>
<path d="M419.685 117.313C419.685 117.313 411.614 117.604 402.147 117.604C394.343 117.604 385.603 117.41 379.735 116.684C379.283 116.627 378.848 116.563 378.42 116.482C378.226 116.482 378.032 116.417 377.847 116.377C377.661 116.337 377.524 116.321 377.363 116.28C377.08 116.224 376.806 116.151 376.556 116.087L375.748 115.853L375.563 115.796L374.877 115.562L374.756 115.522L373.949 115.215C373.919 115.208 373.891 115.194 373.868 115.175C364.716 109.348 364.442 102.948 369.437 99.0335C372.948 96.2411 379.074 94.6754 386.555 95.3614L418.288 101.713L419.685 117.313Z" fill="#25CED1"/>
<path d="M402.147 117.604C394.343 117.604 385.603 117.41 379.735 116.684C379.283 116.627 378.848 116.563 378.42 116.482C378.226 116.482 378.032 116.417 377.847 116.377C377.661 116.337 377.524 116.321 377.363 116.28C377.08 116.224 376.806 116.151 376.556 116.087L375.748 115.852L375.563 115.796L374.877 115.562L374.756 115.522L373.949 115.215C373.919 115.208 373.891 115.194 373.868 115.175C364.716 109.348 364.442 102.948 369.437 99.0334C369.357 105.49 372.577 110.873 380.107 109.646C390.421 107.919 399.339 112.019 402.147 117.604Z" fill="#25CED1"/>
<path d="M386.531 95.3452C384.393 94.9861 382.238 94.7356 380.074 94.5946" stroke="#22B5B8" stroke-width="0.75" stroke-linecap="round" stroke-linejoin="round"/>
<path d="M467.414 146.02L458.141 142.38L444.114 136.86C444.114 136.86 373.012 66.4768 338.955 32.6692C329.585 23.3638 323.015 16.8347 321.506 15.3013C316.486 10.1846 328.374 -3.26095 334.726 2.34002C335.218 2.7839 341.812 9.17579 351.722 18.8201C385.772 51.9094 459.061 123.382 459.061 123.382L463.968 136.65L467.414 146.02Z" fill="#F9F9F9" stroke="#DDDDDD" stroke-width="2" stroke-linecap="round" stroke-linejoin="round"/>
<path d="M357.573 33.4359L448.981 121.865" stroke="#DDDDDD" stroke-linecap="round" stroke-linejoin="round"/>
<path d="M353.675 39.4161L444.276 127.071" stroke="#DDDDDD" stroke-linecap="round" stroke-linejoin="round"/>
<path d="M463.943 136.65C461.405 137.832 459.354 139.857 458.141 142.38L444.114 136.86C444.114 136.86 444.502 132.187 449.683 132.906C448.569 129.879 450.805 126.449 454.63 128.919C454.63 128.919 453.823 123.988 459.037 123.382L463.943 136.65Z" fill="#F9F9F9" stroke="#DDDDDD" stroke-width="2" stroke-linecap="round" stroke-linejoin="round"/>
<path d="M467.414 146.02L458.141 142.38C459.354 139.857 461.405 137.832 463.944 136.65L467.414 146.02Z" fill="#DDDDDD" stroke="#DDDDDD" stroke-width="2" stroke-linecap="round" stroke-linejoin="round"/>
<path d="M351.722 18.8201C347.469 23.4284 342.804 28.5048 338.955 32.6692C329.585 23.3638 323.015 16.8347 321.506 15.3013C316.486 10.1846 328.374 -3.26095 334.726 2.34002C335.218 2.7839 341.812 9.17579 351.722 18.8201Z" stroke="#DDDDDD" stroke-width="2" stroke-linecap="round" stroke-linejoin="round"/>
<path d="M347.058 14.2844L333.991 27.7461" stroke="#DDDDDD" stroke-width="2" stroke-linecap="round" stroke-linejoin="round"/>
<path d="M412.445 107.104C419.491 101.196 421.089 101.269 421.743 102.044C422.396 102.819 419.475 106.208 418.514 107.104C418.514 107.104 424.479 102.633 426.206 103.706C427.933 104.78 425.665 107.104 425.665 107.104C425.665 107.104 428.99 107.047 426.851 110.623C426.851 110.623 428.578 110.623 427.57 112.406C426.561 114.19 420.363 118.443 418.103 117.362C415.843 116.28 409.039 109.969 412.445 107.104Z" fill="#B25E47"/>
<path d="M415.504 104.651C419.991 101.237 421.153 101.422 421.742 102.044C422.332 102.665 419.475 106.208 418.514 107.104C418.514 107.104 424.478 102.633 426.206 103.706C427.933 104.78 425.665 107.104 425.665 107.104C425.665 107.104 428.99 107.048 426.851 110.623C426.851 110.623 428.578 110.623 427.569 112.406" stroke="#914839" stroke-width="0.75" stroke-linecap="round" stroke-linejoin="round"/>
<path d="M425.673 107.104L419.378 111.172" stroke="#914839" stroke-width="0.75" stroke-linecap="round" stroke-linejoin="round"/>
<path d="M421.049 114.238L426.859 110.623" stroke="#914839" stroke-width="0.75" stroke-linecap="round" stroke-linejoin="round"/>
<path d="M418.522 107.104L416.698 108.597" stroke="#914839" stroke-width="0.75" stroke-linecap="round" stroke-linejoin="round"/>
<path d="M344.677 56.8405C345.439 53.5665 345.35 50.1516 344.418 46.9218L337.308 50.3114C337.308 50.3114 339.899 57.4135 344.677 56.8405Z" fill="#25CED1"/>
<path d="M337.212 37.8908C339.208 37.6903 341.189 37.3615 343.143 36.9062C343.571 36.6641 346.638 34.2106 347.986 33.3229C349.334 32.4351 354.813 28.8921 355.33 29.223C355.846 29.5539 356.032 31.16 355.047 32.3383C355.047 32.3383 361.028 29.796 363.61 29.4894C365.717 29.2392 365.305 31.2245 363.893 32.1365C366.153 31.1358 368.84 32.1365 365.781 34.3156C367.847 33.9604 368.921 35.5503 365.684 37.8908C367.476 36.9062 368.695 38.2459 367.048 39.9165C364.369 42.6444 358.857 44.7589 357.114 45.4206C355.37 46.0824 344.322 48.5359 340.036 50.9571C340.036 50.9571 336.348 44.3311 337.212 37.8908Z" fill="#B25E47"/>
<path d="M347.994 33.3229C349.358 32.4351 354.821 28.8921 355.338 29.223C355.854 29.5539 356.04 31.16 355.055 32.3383C355.055 32.3383 361.036 29.796 363.618 29.4894C365.725 29.2392 365.313 31.2245 363.901 32.1365C366.161 31.1358 368.848 32.1365 365.789 34.3156C367.855 33.9604 368.929 35.5503 365.692 37.8908C367.484 36.9062 368.703 38.2459 367.056 39.9165" stroke="#914839" stroke-width="0.75" stroke-linecap="round" stroke-linejoin="round"/>
<path d="M355.056 32.3384L351.964 33.8556" stroke="#914839" stroke-width="0.75" stroke-linecap="round" stroke-linejoin="round"/>
<path d="M363.901 32.1366L357.574 35.0743" stroke="#914839" stroke-width="0.75" stroke-linecap="round" stroke-linejoin="round"/>
<path d="M365.789 34.3156L358.921 37.8908" stroke="#914839" stroke-width="0.75" stroke-linecap="round" stroke-linejoin="round"/>
<path d="M365.692 37.8909L360.309 40.9496" stroke="#914839" stroke-width="0.75" stroke-linecap="round" stroke-linejoin="round"/>
<path d="M340.383 35.6876C329.335 36.8094 309.4 40.1184 294.454 50.9329C288.667 55.1135 288.756 72.7234 304.55 71.2627C320.344 69.8019 344.701 56.8406 344.701 56.8406C344.701 56.8406 338.438 55.4605 340.383 35.6876Z" fill="#25CED1"/>
<path d="M314.323 69.3257C328.762 65.2904 344.677 56.8406 344.677 56.8406C344.677 56.8406 338.438 55.4605 340.359 35.6876C331.908 36.5054 323.563 38.1847 315.453 40.6994" stroke="#22B5B8" stroke-width="0.75" stroke-linecap="round" stroke-linejoin="round"/>
<path d="M234.401 210.125C234.401 210.125 211.505 261.672 200.149 282.97C181.232 296.302 178.286 282.582 181.296 271.542C182.604 268.814 186.445 256.628 190.465 242.867C193.87 231.197 197.397 218.405 199.617 209.318L225.515 209.915L234.401 210.125Z" fill="#22B5B8"/>
<path d="M226.209 213.176C223.933 229.494 203.999 220.052 202.07 229.494C201.11 234.215 197.454 238.937 190.465 242.899C193.87 231.229 197.397 218.438 199.617 209.35L225.515 209.947C226.156 210.893 226.405 212.05 226.209 213.176V213.176Z" fill="#22B5B8"/>
<path d="M209.358 221.472C207.251 222.441 208.551 223.627 209.148 225.386C209.745 227.146 206.622 226.718 206.727 229.099C206.832 231.48 207.986 230.148 206.727 233.731C205.508 237.194 191.691 271.978 186.954 279.58" stroke="#25CED1" stroke-width="0.75" stroke-linecap="round" stroke-linejoin="round"/>
<path d="M262.486 210.423C262.486 210.423 234.239 216.234 215.048 218.026C203.321 219.132 195.444 215.282 191.603 209.495C190.386 207.645 189.546 205.572 189.131 203.397C188.715 201.221 188.732 198.985 189.181 196.817C198.721 185.518 209.85 182.177 219.107 181.813C225.669 181.564 232.209 182.706 238.299 185.163C261.558 183.185 274.552 184.17 281.549 187.188C293.574 201.554 279.233 206.84 262.486 210.423Z" fill="#22B5B8"/>
<path d="M202.651 188.197C202.215 196.268 205.508 199.068 222.876 198.818C241.987 198.544 268.644 196.8 270.073 197.051C272.986 197.559 267.321 202.175 269.322 202.248C271.961 202.353 274.81 202.74 273.357 204.548C271.905 206.356 270.339 207.09 271.412 208.212" stroke="#25CED1" stroke-width="0.75" stroke-linecap="round" stroke-linejoin="round"/>
<path d="M197.833 215.153C202.086 217.509 207.841 218.704 215.048 218.034C222.739 217.316 231.875 215.952 240.066 214.572" stroke="#22B5B8" stroke-width="0.75" stroke-linecap="round" stroke-linejoin="round"/>
<path d="M268.902 175.244C268.346 177.471 266.796 179.562 263.729 181.248C263.366 181.361 262.995 181.466 262.624 181.563C262.252 181.66 261.938 181.717 261.591 181.781L260.945 181.87L260.501 181.918H260.283C259.912 181.918 259.541 181.959 259.169 181.959C253.173 181.959 246.7 178.125 241.85 167.698C241.85 167.698 238.799 173.493 237.96 177.213C237.836 177.707 237.763 178.213 237.742 178.722C237.706 180.89 237.906 183.055 238.339 185.179C238.339 185.179 226.387 185.308 218.421 187.648C210.455 189.989 201.521 194.323 189.222 196.833C189.222 196.833 189.827 191.183 191.909 188.262C191.127 187.976 190.463 187.435 190.024 186.727C189.585 186.019 189.396 185.184 189.488 184.356C189.763 182.047 192.055 181.014 194.96 176.535C195.9 175.073 196.736 173.547 197.462 171.967C202.046 162.097 201.005 159.579 200.408 158.627L194.912 164.534C185.041 175.131 165.204 196.397 163.848 197.696C162.024 199.431 159.183 200.117 158.15 199.423C157.521 199.004 153.308 202.361 150.08 205.073C147.973 206.848 146.278 208.349 146.278 208.349L134.237 201.086C134.237 201.086 137.627 198.277 141.129 195.299C144.834 192.16 148.667 188.843 148.788 188.439C149.047 187.632 148.264 185.639 149.991 183.831C151.532 182.217 180.885 149.241 191.038 137.554C192.353 136.037 193.354 134.883 193.919 134.197C198.866 128.233 201.844 125.319 208.962 123.552L243.722 124.303C243.722 124.303 253.722 122.471 255.828 128.733C256.127 129.653 256.442 130.912 256.764 132.405C258.637 141.17 260.582 157.844 260.582 157.844C260.582 157.844 270.839 167.383 268.902 175.244Z" fill="#F06B07"/>
<path d="M150.031 205.105C147.925 206.881 146.23 208.382 146.23 208.382L134.189 201.118C134.189 201.118 137.578 198.31 141.081 195.332C144.741 197.898 147.796 201.234 150.031 205.105V205.105Z" fill="#B25E47"/>
<path d="M209.204 149.047C209.204 153.171 207.074 159.087 204.588 161.298C201.554 163.977 206.122 173.702 201.045 176.503C200.13 177.078 199.071 177.383 197.99 177.383C196.91 177.383 195.851 177.078 194.936 176.503C195.875 175.041 196.712 173.514 197.438 171.935C202.022 162.065 200.981 159.547 200.383 158.594C203.846 155.019 207.082 151.428 209.204 149.047Z" fill="#DE660C"/>
<path d="M268.902 175.244C268.346 177.471 266.796 179.562 263.729 181.248C263.366 181.361 262.995 181.466 262.624 181.563C262.252 181.66 261.938 181.716 261.591 181.781L260.945 181.87L260.501 181.918H260.283C259.912 181.918 259.541 181.959 259.169 181.959C253.173 181.959 246.7 178.125 241.85 167.698C247.217 155.996 247.459 150.169 246.208 144.616C247.504 144.922 248.694 145.573 249.651 146.499C250.609 147.425 251.298 148.593 251.648 149.878C253.754 156.956 243.456 165.511 248.912 170.749C253.754 175.357 262.268 168.182 265.335 173.517C265.653 174.16 266.177 174.679 266.823 174.992C267.469 175.305 268.2 175.394 268.902 175.244Z" fill="#DE660C"/>
<path d="M256.692 132.381C253.375 132.115 249.154 132.817 246.813 137.223C242.56 145.294 228.429 155.786 218.526 143.365C210.786 133.68 203.789 132.97 190.989 137.498C192.305 135.981 193.305 134.826 193.87 134.14C198.818 128.176 201.796 125.263 208.914 123.495L243.674 124.246C243.674 124.246 253.673 122.414 255.78 128.677C256.054 129.629 256.369 130.856 256.692 132.381Z" fill="#F06B07"/>
<path d="M143.752 197.365L151.064 191.256" stroke="#DE660C" stroke-width="0.75" stroke-linecap="round" stroke-linejoin="round"/>
<path d="M146.432 200.061L153.493 194.04" stroke="#DE660C" stroke-width="0.75" stroke-linecap="round" stroke-linejoin="round"/>
<path d="M148.546 202.724L154.857 197.979" stroke="#DE660C" stroke-width="0.75" stroke-linecap="round" stroke-linejoin="round"/>
<path d="M193.088 195.937L194.936 188.689" stroke="#DE660C" stroke-width="0.75" stroke-linecap="round" stroke-linejoin="round"/>
<path d="M196.429 195.057L198.116 187.592" stroke="#DE660C" stroke-width="0.75" stroke-linecap="round" stroke-linejoin="round"/>
<path d="M199.617 194.105L201.045 187.592" stroke="#DE660C" stroke-width="0.75" stroke-linecap="round" stroke-linejoin="round"/>
<path d="M203.41 192.862L204.58 187.1" stroke="#DE660C" stroke-width="0.75" stroke-linecap="round" stroke-linejoin="round"/>
<path d="M207.122 191.554L207.881 186.365" stroke="#DE660C" stroke-width="0.75" stroke-linecap="round" stroke-linejoin="round"/>
<path d="M210.504 190.32L210.811 186.857" stroke="#DE660C" stroke-width="0.75" stroke-linecap="round" stroke-linejoin="round"/>
<path d="M211.666 146.19C211.666 146.19 210.73 147.279 209.204 149.015C207.082 151.436 203.846 154.987 200.383 158.578" stroke="#DE660C" stroke-width="0.75" stroke-linecap="round" stroke-linejoin="round"/>
<path d="M241.834 167.69C247.201 155.988 247.443 150.161 246.192 144.608C245.675 142.243 244.876 139.943 244.102 137.256" stroke="#DE660C" stroke-width="0.75" stroke-linecap="round" stroke-linejoin="round"/>
<path d="M206.323 129.532L211.666 125.949" stroke="#DE660C" stroke-width="0.75" stroke-linecap="round" stroke-linejoin="round"/>
<path d="M212.126 132.631L215.007 127.878" stroke="#DE660C" stroke-width="0.75" stroke-linecap="round" stroke-linejoin="round"/>
<path d="M217.146 133.826L218.526 129.225" stroke="#DE660C" stroke-width="0.75" stroke-linecap="round" stroke-linejoin="round"/>
<path d="M220.495 134.302L221.488 129.936" stroke="#DE660C" stroke-width="0.75" stroke-linecap="round" stroke-linejoin="round"/>
<path d="M223.788 135.012L224.385 130.372" stroke="#DE660C" stroke-width="0.75" stroke-linecap="round" stroke-linejoin="round"/>
<path d="M229.324 135.012V130.694" stroke="#DE660C" stroke-width="0.75" stroke-linecap="round" stroke-linejoin="round"/>
<path d="M233.529 130.694L234.167 135.012" stroke="#DE660C" stroke-width="0.75" stroke-linecap="round" stroke-linejoin="round"/>
<path d="M236.515 130.162L237.597 135.012" stroke="#DE660C" stroke-width="0.75" stroke-linecap="round" stroke-linejoin="round"/>
<path d="M239.211 129.532L240.704 133.471" stroke="#DE660C" stroke-width="0.75" stroke-linecap="round" stroke-linejoin="round"/>
<path d="M241.382 128.451L243.335 132.631" stroke="#DE660C" stroke-width="0.75" stroke-linecap="round" stroke-linejoin="round"/>
<path d="M243.811 128.451L246.264 130.371" stroke="#DE660C" stroke-width="0.75" stroke-linecap="round" stroke-linejoin="round"/>
<path d="M245.038 126.231L248.056 127.741" stroke="#DE660C" stroke-width="0.75" stroke-linecap="round" stroke-linejoin="round"/>
<path d="M237.024 120.243C236.426 119.969 235.773 119.686 235.071 119.436C233.369 118.801 231.559 118.51 229.744 118.58C223.514 118.653 208.914 123.568 208.914 123.568C209.229 124.004 213.046 128.241 220.826 129.847C228.606 131.453 236.58 130.654 239.994 129.298C240.992 128.866 241.858 128.178 242.504 127.304C243.15 126.429 243.554 125.399 243.674 124.319C243.674 124.319 242.052 122.535 237.024 120.243Z" fill="#B25E47"/>
<path d="M274.245 273.551C278.579 270.444 282.606 274.883 272.631 277.465" stroke="#22B5B8" stroke-width="0.75" stroke-linecap="round" stroke-linejoin="round"/>
<path d="M270.169 276.126C272.211 271.187 275.214 267.038 276.626 268.104C278.353 269.419 271.735 276.529 271.735 276.529" stroke="#22B5B8" stroke-width="0.75" stroke-linecap="round" stroke-linejoin="round"/>
<path d="M279.58 287.102H252.333C252.229 283.381 256.425 275.052 256.885 272.341C256.885 272.284 256.885 272.228 256.885 272.155C257.394 269.145 258.822 258.023 258.822 258.023L273.438 258.943L269.508 272.284C270.902 274.321 272.468 276.236 274.189 278.006C277.304 281.291 283.429 281.759 284.002 284.067C284.575 286.375 281.25 287.102 279.58 287.102Z" fill="#25CED1"/>
<path d="M273.462 258.943L269.532 272.284C269.532 272.284 261.607 272.22 256.909 272.155C257.418 269.145 258.846 258.023 258.846 258.023L273.462 258.943Z" fill="#B25E47"/>
<path d="M288.772 201.804C287.11 214.362 275.633 261.163 275.633 261.163H256.813L262.462 210.528C262.472 210.494 262.472 210.458 262.462 210.423C262.357 209.77 258.951 188.415 277.344 185.808C278.779 186.152 280.182 186.614 281.541 187.188V187.188C288.732 190.271 289.603 195.469 288.772 201.804Z" fill="#22B5B8"/>
<path d="M263.455 197.244C267.208 197.066 269.669 196.978 270.073 197.05C272.986 197.559 267.321 202.175 269.322 202.248C271.961 202.353 274.81 202.74 273.357 204.548C271.743 206.501 270.234 207.139 271.541 208.341C274.019 210.609 269.79 212.764 269.5 215.37C269.209 217.977 264.464 257.208 264.464 257.208" stroke="#25CED1" stroke-width="0.75" stroke-linecap="round" stroke-linejoin="round"/>
<path d="M284.81 129.516C283.615 132.744 282.332 135.593 282.332 135.593L282.203 136.102L279.782 145.94C279.782 145.94 281.686 146.448 281.638 148.119C281.589 149.789 278.071 163.509 274.673 171.249C274.528 171.596 274.35 171.935 274.172 172.282C273.995 172.629 273.906 172.782 273.761 173.024C273.46 173.53 273.137 174.022 272.792 174.501C272.631 174.727 272.47 174.945 272.3 175.155C272.131 175.365 271.929 175.615 271.727 175.833C271.525 176.051 271.348 176.261 271.154 176.471C270.743 176.898 270.347 177.278 269.855 177.697L269.169 178.262C268.025 179.171 266.776 179.937 265.448 180.546H265.392L264.585 180.885C264.31 180.99 264.036 181.095 263.778 181.184C258.201 179.755 256.369 176.099 256.24 172.096C256.022 165.43 260.566 157.795 260.566 157.795C260.562 157.782 260.562 157.768 260.566 157.755C260.832 156.996 265.214 144.777 266.11 143.769C267.006 142.76 268.781 143.422 268.781 143.422L271.921 133.438L272.607 131.251C272.607 131.251 272.357 130.727 272.018 129.96C271.284 128.387 270.742 126.731 270.404 125.029C270.218 123.084 272.018 121.865 273.47 121.639C273.47 121.639 273.608 118.298 274.721 116.942C274.894 116.669 275.141 116.451 275.433 116.312C275.726 116.174 276.051 116.121 276.372 116.16C276.693 116.199 276.996 116.328 277.247 116.532C277.497 116.736 277.685 117.007 277.788 117.313C278.135 116.151 280.677 115.99 280.742 118.282C280.839 117.883 281.085 117.537 281.429 117.313C281.773 117.089 282.189 117.005 282.593 117.077C282.997 117.148 283.358 117.372 283.603 117.7C283.849 118.029 283.96 118.439 283.914 118.847C283.914 118.847 285.778 117.039 286.746 120.461C287.19 122.253 286.052 126.126 284.81 129.516Z" fill="#F06B07"/>
<path d="M274.253 135.012C274.253 135.012 271.679 143.551 271.679 143.398" stroke="#DE660C" stroke-width="0.75" stroke-linecap="round" stroke-linejoin="round"/>
<path d="M276.263 135.819L274.479 143.228" stroke="#DE660C" stroke-width="0.75" stroke-linecap="round" stroke-linejoin="round"/>
<path d="M279.265 136.263L277.675 143.922" stroke="#DE660C" stroke-width="0.75" stroke-linecap="round" stroke-linejoin="round"/>
<path d="M260.485 157.82C258.871 162.476 257.789 165.939 257.983 167.117" stroke="#DE660C" stroke-width="0.75" stroke-linecap="round" stroke-linejoin="round"/>
<path d="M274.205 172.282C274.076 172.532 273.938 172.782 273.793 173.025C273.492 173.53 273.169 174.023 272.825 174.501C272.663 174.727 272.502 174.945 272.332 175.155C272.163 175.365 271.961 175.615 271.759 175.833C271.558 176.051 271.38 176.261 271.186 176.471C270.775 176.898 270.379 177.278 269.887 177.697L269.201 178.262C268.06 179.175 266.81 179.942 265.48 180.546H265.424L264.617 180.885C264.343 180.99 264.068 181.095 263.81 181.184C258.233 179.755 256.401 176.099 256.272 172.096C259.96 171.515 263.616 170.369 265.408 173.485C267.385 177.1 271.614 174.437 274.205 172.282Z" fill="#DE660C"/>
<path d="M282.332 135.593L282.203 136.102C280.562 136.361 278.89 136.342 277.255 136.045C275.275 135.649 273.427 134.761 271.88 133.463L272.566 131.275C272.566 131.275 270.533 126.998 270.347 125.053C270.161 123.108 271.961 121.889 273.414 121.663C273.414 121.663 273.551 118.322 274.665 116.966C274.838 116.693 275.085 116.475 275.377 116.337C275.669 116.198 275.994 116.145 276.315 116.184C276.636 116.223 276.94 116.352 277.19 116.556C277.441 116.76 277.629 117.031 277.731 117.338C278.079 116.175 280.621 116.006 280.685 118.306C280.783 117.908 281.029 117.561 281.372 117.337C281.716 117.113 282.132 117.029 282.536 117.101C282.94 117.173 283.301 117.396 283.547 117.725C283.792 118.053 283.903 118.463 283.857 118.871C283.857 118.871 285.721 117.063 286.69 120.485C287.658 123.907 282.332 135.593 282.332 135.593Z" fill="#B25E47"/>
<path d="M271.679 129.242C271.068 127.896 270.621 126.481 270.347 125.029C270.161 123.076 271.961 121.865 273.414 121.639C273.414 121.639 273.551 118.298 274.665 116.942C274.838 116.669 275.085 116.451 275.377 116.312C275.669 116.174 275.994 116.121 276.315 116.16C276.636 116.199 276.94 116.328 277.19 116.532C277.441 116.736 277.629 117.007 277.731 117.313C278.079 116.151 280.621 115.982 280.685 118.282C280.783 117.883 281.029 117.537 281.372 117.313C281.716 117.089 282.132 117.005 282.536 117.077C282.94 117.149 283.301 117.372 283.547 117.7C283.792 118.029 283.903 118.439 283.857 118.847C283.857 118.847 285.721 117.039 286.69 120.461" stroke="#914839" stroke-width="0.75" stroke-linecap="round" stroke-linejoin="round"/>
<path d="M273.398 121.663C275.94 121.203 278.111 121.446 278.183 122.309C278.256 123.173 275.23 124.399 275.23 124.399C275.23 124.399 279.095 124.916 277.788 129.532" stroke="#914839" stroke-width="0.75" stroke-linecap="round" stroke-linejoin="round"/>
<path d="M277.675 117.176C277.675 117.176 277.126 120.8 276.868 121.51" stroke="#914839" stroke-width="0.75" stroke-linecap="round" stroke-linejoin="round"/>
<path d="M278.329 122.325C279.305 122.592 280.241 121.599 280.75 117.999" stroke="#914839" stroke-width="0.75" stroke-linecap="round" stroke-linejoin="round"/>
<path d="M279.531 121.865C279.618 122.304 279.862 122.695 280.217 122.967C280.572 123.239 281.014 123.372 281.46 123.342" stroke="#914839" stroke-width="0.75" stroke-linecap="round" stroke-linejoin="round"/>
<path d="M283.889 118.871C283.082 119.492 280.984 123.278 282.098 124.214C283.397 125.295 284.438 122.6 284.438 122.6" stroke="#914839" stroke-width="0.75" stroke-linecap="round" stroke-linejoin="round"/>
<path d="M138.886 345.468C142.63 343.087 146.149 342.635 146.956 343.216C148.094 344.104 144.64 346.493 141.823 346.872" stroke="#22B5B8" stroke-width="0.75" stroke-linecap="round" stroke-linejoin="round"/>
<path d="M135.552 347.768C141.153 345.662 146.851 347.768 146.214 349.665C145.495 351.852 136.65 348.696 136.65 348.696" stroke="#22B5B8" stroke-width="0.75" stroke-linecap="round" stroke-linejoin="round"/>
<path d="M137.998 356.831C139.652 358.486 142.84 362.053 142.396 363.086C141.952 364.119 140.266 364.434 140.266 364.434H128.321C128.321 364.434 126.4 363.288 126.328 362.19C126.255 361.093 122.486 339.044 123.1 337.123C123.624 335.509 131.122 332.531 134.665 330.554C135.16 330.287 135.633 329.979 136.077 329.633C138.272 327.785 145.003 320.909 145.003 320.909L153.388 331.215C148.546 333.919 143.123 337.599 140.613 340.9C139.939 341.705 139.468 342.66 139.241 343.684C138.619 347.389 136.351 355.153 137.998 356.831Z" fill="#25CED1"/>
<path d="M153.388 331.183C148.546 333.887 143.123 337.567 140.613 340.868L134.665 330.521C135.16 330.255 135.633 329.947 136.077 329.601C138.272 327.753 145.003 320.877 145.003 320.877L153.388 331.183Z" fill="#B25E47"/>
<path d="M200.149 282.97C198.823 285.561 197.355 288.078 195.751 290.507C187.85 301.621 152.896 334.645 152.896 334.645L141.137 319.497L181.304 271.534C188.189 262.672 206.17 264.779 200.149 282.97Z" fill="#22B5B8"/>
<path d="M184.46 282.865C175.534 293.566 145.907 325.639 145.907 325.639" stroke="#25CED1" stroke-width="0.75" stroke-linecap="round" stroke-linejoin="round"/>
<path d="M193.297 266.562C191.437 271.015 189.33 275.361 186.986 279.58" stroke="#25CED1" stroke-width="0.75" stroke-linecap="round" stroke-linejoin="round"/>
<path d="M247.887 117.693C245.094 116.886 245.038 119.065 246.353 119.952C247.669 120.84 246.999 123.608 243.722 123.988C243.424 124.028 242.649 124.141 241.713 124.238C239.961 124.415 237.677 124.561 236.999 124.181C236.322 123.802 236.281 122.745 236.523 121.631C236.564 121.405 236.636 121.179 236.701 120.937C237.077 119.76 237.561 118.62 238.146 117.531C239.7 117.497 241.218 117.052 242.544 116.24C245.538 114.247 245.619 110.252 244.408 106.087C244.105 105.046 243.738 104.025 243.311 103.028C242.98 102.221 242.609 101.414 242.213 100.664C238.565 93.5536 233.392 93.5617 233.392 93.5617C235.684 97.484 233.505 100.147 232.165 100.825C230.826 101.503 229.365 101.963 229.437 104.659C229.51 107.354 228.299 107.758 227.492 107.621C224.95 107.153 223.142 109.081 224.264 111.196C225.386 113.31 228.533 112.649 229.47 111.648C229.47 111.648 231.334 112.899 231.439 114.392C231.544 115.885 228.663 117.677 230.027 120.001C230.286 120.41 230.427 120.882 230.435 121.365C230.443 121.849 230.318 122.326 230.072 122.743C229.827 123.16 229.472 123.501 229.045 123.73C228.618 123.958 228.137 124.064 227.654 124.036C226.473 123.895 225.276 124.079 224.191 124.569C223.931 124.696 223.682 124.847 223.449 125.021C223.284 125.144 223.127 125.279 222.981 125.424C221.754 126.667 220.842 128.192 217.921 127.523C214.999 126.853 214.483 122.785 214.483 122.785C210.342 122.971 207.574 123.471 207.308 120.098C207.09 117.418 210.092 116.458 211.682 116.167C211.994 116.125 212.287 115.993 212.524 115.787C212.762 115.581 212.934 115.31 213.02 115.008C213.106 114.705 213.101 114.384 213.007 114.084C212.913 113.784 212.733 113.518 212.489 113.318C210.948 112.14 212.102 110.316 214.353 109.541C216.605 108.767 215.766 103.763 215.968 101.326C216.282 96.9675 220.318 93.1743 225.733 92.916C225.733 92.916 228.533 86.855 235.313 87.8961C242.092 88.9372 245.167 95.4905 244.852 98.5089C244.537 101.527 244.497 104.739 247.766 104.893C251.034 105.046 252.874 107.056 251.696 109.065C250.518 111.075 249.678 112.584 252.156 114.238C254.634 115.893 250.679 118.476 247.887 117.693Z" fill="#333333"/>
<path d="M233.384 93.5214C235.676 97.4437 233.497 100.107 232.157 100.785C230.817 101.463 229.357 101.923 229.429 104.618C229.502 107.314 228.291 107.718 227.484 107.58C224.942 107.112 223.134 109.041 224.256 111.156C225.378 113.27 228.525 112.608 229.462 111.608C229.462 111.608 231.326 112.858 231.431 114.352C231.536 115.845 228.655 117.636 230.018 119.961C230.277 120.369 230.419 120.841 230.427 121.325C230.435 121.809 230.309 122.286 230.064 122.703C229.819 123.12 229.463 123.461 229.037 123.689C228.61 123.918 228.129 124.024 227.646 123.996C226.465 123.855 225.267 124.039 224.183 124.529C223.922 124.656 223.674 124.807 223.441 124.98C219.228 123.124 216.024 120.203 217.727 117.927C219.954 114.957 221.496 116.587 220.221 111.85C218.946 107.112 220.18 104.078 223.288 103.779C226.395 103.48 229.332 101.358 227.783 98.2346C226.233 95.1113 231.173 88.4047 237.468 91.2132C240.777 92.6902 241.987 96.5721 242.261 100.591C238.557 93.5134 233.384 93.5214 233.384 93.5214Z" fill="#333333"/>
<path d="M242.544 116.216C242.229 118.589 240.76 120.905 236.523 121.615C236.564 121.389 236.636 121.163 236.701 120.921C237.078 119.744 237.561 118.604 238.146 117.515C239.701 117.479 241.219 117.031 242.544 116.216V116.216Z" fill="#333333"/>
<path d="M236.701 120.921C236.289 122.285 236.168 123.649 237 124.149C237.645 124.528 239.961 124.383 241.713 124.206C235.184 129.581 229.752 128.757 224.159 124.561C225.243 124.071 226.44 123.887 227.622 124.028C228.105 124.056 228.586 123.95 229.013 123.722C229.439 123.493 229.795 123.152 230.04 122.735C230.285 122.318 230.411 121.841 230.403 121.357C230.395 120.874 230.253 120.401 229.994 119.993C228.63 117.668 231.512 115.885 231.407 114.384C231.302 112.883 229.437 111.64 229.437 111.64C228.501 112.64 225.329 113.302 224.232 111.188C223.134 109.073 224.942 107.152 227.46 107.613C228.267 107.75 229.486 107.346 229.405 104.651C229.324 101.955 230.793 101.543 232.133 100.817C233.473 100.091 235.652 97.4436 233.36 93.5536C233.36 93.5536 238.541 93.5536 242.189 100.672C242.584 101.439 242.956 102.229 243.287 103.036C243.714 104.033 244.081 105.054 244.384 106.095C245.998 111.745 245.288 117.079 238.121 117.539C237.537 118.628 237.053 119.768 236.677 120.945L236.701 120.921Z" fill="#B25E47"/>
<path d="M236.338 103.836C236.338 103.945 236.36 104.053 236.403 104.154C236.446 104.255 236.509 104.346 236.588 104.421C236.667 104.497 236.761 104.555 236.864 104.593C236.966 104.631 237.076 104.648 237.185 104.643C237.343 104.635 237.495 104.581 237.622 104.487C237.749 104.394 237.846 104.265 237.901 104.117C237.956 103.97 237.967 103.809 237.931 103.655C237.896 103.501 237.816 103.361 237.701 103.252C237.587 103.143 237.443 103.07 237.288 103.042C237.133 103.014 236.972 103.032 236.827 103.095C236.682 103.157 236.558 103.26 236.471 103.392C236.384 103.523 236.338 103.678 236.338 103.836Z" fill="#333333"/>
<path d="M239.945 102.084C239.945 102.298 240.03 102.504 240.182 102.655C240.333 102.806 240.538 102.891 240.752 102.891C240.862 102.891 240.97 102.869 241.071 102.826C241.171 102.783 241.262 102.72 241.338 102.641C241.413 102.562 241.472 102.468 241.51 102.365C241.548 102.263 241.565 102.153 241.559 102.044C241.559 101.83 241.474 101.625 241.323 101.473C241.172 101.322 240.966 101.237 240.752 101.237C240.643 101.237 240.534 101.259 240.434 101.302C240.333 101.345 240.242 101.408 240.167 101.487C240.091 101.567 240.033 101.66 239.995 101.763C239.957 101.866 239.94 101.975 239.945 102.084Z" fill="#333333"/>
<path d="M238.146 117.507C237.561 118.596 237.078 119.736 236.701 120.913C235.839 120.619 235.104 120.038 234.621 119.266C234.137 118.494 233.934 117.58 234.046 116.676C235.363 117.157 236.745 117.437 238.146 117.507V117.507Z" fill="#914839"/>
<path d="M225.733 110.3C226.29 108.863 228.154 109.13 228.961 109.969" stroke="#914839" stroke-width="0.75" stroke-linecap="round" stroke-linejoin="round"/>
<path d="M227.089 111.026C227.036 110.846 227.026 110.657 227.06 110.472C227.093 110.287 227.169 110.113 227.282 109.963C227.395 109.814 227.542 109.692 227.71 109.609C227.878 109.526 228.063 109.484 228.251 109.485" stroke="#914839" stroke-width="0.75" stroke-linecap="round" stroke-linejoin="round"/>
<path d="M229.445 111.64C229.725 111.294 229.926 110.892 230.035 110.461" stroke="#914839" stroke-width="0.75" stroke-linecap="round" stroke-linejoin="round"/>
<path d="M237.08 107.919C237.672 108.419 238.399 108.733 239.169 108.821C239.938 108.908 240.717 108.766 241.406 108.411" stroke="#914839" stroke-width="0.75" stroke-linecap="round" stroke-linejoin="round"/>
<path d="M242.205 105.958C242.576 104.764 242.334 103.908 240.954 103.682C240.289 103.531 239.7 103.148 239.291 102.603C238.881 102.058 238.679 101.385 238.719 100.704" stroke="#914839" stroke-width="0.75" stroke-linecap="round" stroke-linejoin="round"/>
<path d="M233.344 100.995C233.344 101.955 236.927 101.511 237.225 100.446C237.468 99.6066 233.319 99.1869 233.344 100.995Z" fill="#333333"/>
<path d="M240.365 96.6043C239.493 96.1927 238.299 99.6549 239.38 99.9213C239.913 100.058 242.407 97.5808 240.365 96.6043Z" fill="#333333"/>
<path d="M225.685 92.9241C227.036 93.0218 228.357 93.378 229.575 93.9732" stroke="#4F4F4F" stroke-width="0.75" stroke-linecap="round" stroke-linejoin="round"/>
<path d="M227.96 99.1626C225.281 100.155 222.061 101.834 221.964 105.054C221.867 108.274 223.247 111.196 218.986 113.294C214.725 115.393 218.76 120.767 218.76 120.767" stroke="#4F4F4F" stroke-width="0.75" stroke-linecap="round" stroke-linejoin="round"/>
<path d="M223.506 121.647C226.104 119.525 223.28 116.853 226.104 114.86" stroke="#4F4F4F" stroke-width="0.75" stroke-linecap="round" stroke-linejoin="round"/>
<path d="M230.769 96.8302C226.411 95.1112 221.375 97.2741 220.277 99.1142" stroke="#4F4F4F" stroke-width="0.75" stroke-linecap="round" stroke-linejoin="round"/>
<path d="M29.7393 358.551C23.9043 364.813 22.4758 369.801 21.5396 373.078L34.6462 383.359H53.7573C53.7573 383.359 53.4183 378.743 49.722 377.984C46.0257 377.226 43.8063 376.887 43.8063 376.887L40.1584 369.01L29.7393 358.551Z" fill="#333333"/>
<path d="M85.6037 271.986C86.1283 308.223 88.4203 315.736 81.0035 328.278C73.5867 340.82 40.1584 369.01 40.1584 369.01L26.0591 358.446C26.0591 358.446 43.0073 339.641 50.9245 329.618C58.8417 319.594 60.012 315.518 59.8021 309.352C59.5923 303.186 53.7411 256.288 53.7411 256.288L85.6037 271.986Z" fill="#683F1D"/>
<path d="M178.27 321.934C178.27 321.934 190.804 329.561 193.289 330.86C195.775 332.16 196.122 335.477 196.122 335.477H165.857C165.857 335.477 164.421 327.898 165.188 323.371L178.27 321.934Z" fill="#333333"/>
<path d="M178.27 321.934L162.976 324.961L143.462 272.567C138.918 260.412 134.027 249.59 144.043 245.772C155.269 246.16 160.62 249.735 165.204 262.575C170.014 276.126 178.27 321.934 178.27 321.934Z" fill="#683F1D"/>
<path d="M143.462 272.567C143.462 272.567 98.6781 276.642 84.8693 277.159C71.0606 277.675 57.607 276.126 51.4572 254.44L86.6852 242.181L91.1967 245.732C111.333 246.055 129.613 245.667 142.154 245.732C142.808 245.732 143.437 245.732 144.051 245.772C162.355 248.823 155.43 268.903 143.462 272.567Z" fill="#683F1D"/>
<path d="M82.545 277.215C72.4407 277.393 62.756 275.9 56.2027 265.634" stroke="#7F542D" stroke-width="0.75" stroke-linecap="round" stroke-linejoin="round"/>
<path d="M112.293 218.946L102.116 227.654L93.5614 245.853C93.5614 245.853 80.705 245.401 73.0621 250.905C65.4193 256.409 54.3304 258.782 50.0449 258.71C49.7363 249.873 50.3503 241.028 51.8769 232.319C54.403 218.405 60.6012 197.196 60.6012 197.196C60.5285 196.534 60.4963 195.872 60.472 195.227C60.125 184.154 65.9681 175.389 75.5075 175.962C85.6038 176.584 95.926 180.32 95.926 180.32C95.926 180.32 107.096 182.088 112.979 185.372C115.65 186.865 117.474 189.408 117.886 193.79C118.386 199.052 116.829 206.977 112.293 218.946Z" fill="#25CED1"/>
<path d="M89.8166 229.462L86.427 224.781C88.9773 223.675 91.0998 222.674 91.9392 222.271C90.8254 217.138 89.7924 212.627 88.7836 208.793C90.6156 209.132 93.1901 210.827 93.9003 217.275C94.433 222.19 101.608 214.346 104.239 220.746C106.87 227.146 89.8166 229.462 89.8166 229.462Z" fill="#22B5B8"/>
<path d="M111.325 200.061C109.928 201.522 107.935 209.447 105.062 218.841" stroke="#22B5B8" stroke-width="0.75" stroke-linecap="round" stroke-linejoin="round"/>
<path d="M150.765 207.332C150.644 210.157 145.633 209.447 145.633 209.447C146.908 211.691 143.211 213.151 141.387 213.256C140.163 213.289 138.944 213.087 137.796 212.659C137.796 212.659 119.855 228.614 113.149 234.619C106.442 240.623 94.0133 249.953 85.6118 248.807C77.2104 247.661 74.878 239.122 71.1413 229.438C73.1303 229.279 75.0984 228.922 77.0166 228.372C81.98 226.992 90.099 223.167 91.9391 222.287C92.1732 223.385 92.4234 224.523 92.6655 225.685C107.709 217.195 124.447 206.316 125.852 204.968C127.256 203.62 133.204 198.971 134.963 197.067C136.723 195.162 140.048 196.929 138.708 197.987C137.368 199.044 136.723 200.093 142.114 203.418C148.901 207.599 150.903 203.943 150.765 207.332Z" fill="#B25E47"/>
<path d="M117.886 193.806C115.094 192.047 111.672 191.32 108.201 194.129C99.9693 200.763 92.0602 200.448 80.9147 187.608C70.076 175.131 60.9966 194.145 60.4801 195.243C60.133 184.17 65.9761 175.405 75.5155 175.978C85.6118 176.6 95.9341 180.336 95.9341 180.336C95.9341 180.336 107.104 182.104 112.987 185.389C115.65 186.865 117.474 189.408 117.886 193.806Z" fill="#25CED1"/>
<path d="M93.5048 193.435C93.5048 193.772 93.6046 194.101 93.7918 194.381C93.9789 194.661 94.2448 194.879 94.556 195.008C94.8672 195.137 95.2096 195.171 95.5399 195.105C95.8702 195.039 96.1736 194.877 96.4118 194.639C96.6499 194.401 96.8121 194.097 96.8778 193.767C96.9435 193.437 96.9098 193.094 96.7809 192.783C96.652 192.472 96.4338 192.206 96.1537 192.019C95.8737 191.832 95.5445 191.732 95.2077 191.732C94.756 191.732 94.3229 191.911 94.0035 192.231C93.6842 192.55 93.5048 192.983 93.5048 193.435V193.435Z" fill="white"/>
<path d="M60.4478 197.034C60.4478 197.034 66.5007 224.644 68.5183 229.317C69.3822 229.436 70.2569 229.455 71.1251 229.373C73.1141 229.214 75.0823 228.857 77.0005 228.308C80.2093 227.315 83.3523 226.121 86.4108 224.732C88.9611 223.627 91.0836 222.626 91.923 222.223C90.8092 217.09 89.7762 212.578 88.7674 208.745C86.4592 199.972 84.264 194.799 81.4151 193.992" stroke="#22B5B8" stroke-width="0.75" stroke-linecap="round" stroke-linejoin="round"/>
<path d="M92.6655 225.669C88.2912 228.453 87.5972 230.729 87.5972 230.729" stroke="#914839" stroke-width="0.75" stroke-linecap="round" stroke-linejoin="round"/>
<path d="M145.625 209.447C142.396 209.164 140.895 208.93 140.895 208.93" stroke="#914839" stroke-width="0.75" stroke-linecap="round" stroke-linejoin="round"/>
<path d="M137.812 212.651C138.962 213.083 140.184 213.288 141.412 213.256C143.252 213.151 146.932 211.699 145.649 209.447C145.649 209.447 150.669 210.149 150.79 207.332C150.927 203.943 148.917 207.599 142.138 203.402C136.747 200.077 137.393 199.044 138.732 197.979C140.072 196.913 136.755 195.146 134.987 197.051C134.084 198.027 132.09 199.73 130.145 201.328" stroke="#914839" stroke-width="0.75" stroke-linecap="round" stroke-linejoin="round"/>
<path d="M128.652 199.1C130.605 196.372 133.285 198.293 133.341 200.577C133.398 202.861 128.83 205.823 127.53 204.613C126.231 203.402 127.554 200.626 128.652 199.1Z" fill="#B25E47"/>
<path d="M133.777 215.153C131.703 214.12 130.234 215.685 131.961 217.574C133.688 219.462 136.852 218.607 137.449 216.726L133.777 215.153Z" fill="#B25E47"/>
<path d="M133.777 215.153C131.703 214.12 130.234 215.685 131.961 217.574C133.688 219.462 136.852 218.607 137.449 216.726L133.777 215.153Z" stroke="#914839" stroke-width="0.75" stroke-linecap="round" stroke-linejoin="round"/>
<path d="M136.432 213.175C134.261 212.772 132.445 213.49 133.131 215.217C133.817 216.944 138.781 218.889 140.895 215.217L136.432 213.175Z" fill="#B25E47"/>
<path d="M136.432 213.175C134.261 212.772 132.445 213.49 133.131 215.217C133.817 216.944 138.781 218.889 140.895 215.217L136.432 213.175Z" stroke="#914839" stroke-width="0.75" stroke-linecap="round" stroke-linejoin="round"/>
<path d="M128.652 199.1C130.605 196.372 133.285 198.293 133.341 200.577C133.398 202.861 128.83 205.823 127.53 204.613C126.231 203.402 127.554 200.626 128.652 199.1Z" stroke="#914839" stroke-width="0.75" stroke-linecap="round" stroke-linejoin="round"/>
<path d="M136.335 213.982C134.883 212.53 135.738 210.431 137.707 210.932C139.676 211.432 140.08 212.602 143.47 212.804C145.721 212.901 140.233 217.889 136.335 213.982Z" fill="#B25E47"/>
<path d="M136.335 213.982C134.883 212.53 135.738 210.431 137.707 210.932C139.676 211.432 140.08 212.602 143.47 212.804C145.721 212.901 140.233 217.889 136.335 213.982Z" stroke="#914839" stroke-width="0.75" stroke-linecap="round" stroke-linejoin="round"/>
<path d="M102.56 163.695L99.7675 164.752L95.4901 166.326C94.0973 164.926 92.8656 163.375 91.818 161.701C90.1474 158.982 89.3081 156.092 92.0601 155.245C88.8723 155.245 88.501 152.549 91.1078 152.017C87.5003 151.928 88.8642 148.369 92.5928 148.788C92.5928 148.788 90.2846 145.665 96.3779 145.019C100.679 144.568 104.029 145.641 106.063 147.118L106.224 147.247C107.053 147.824 107.704 148.62 108.104 149.547C108.992 151.888 102.56 163.695 102.56 163.695Z" fill="#333333"/>
<path d="M102.56 163.695L99.7676 164.752L95.4902 166.326C94.0974 164.926 92.8657 163.375 91.8181 161.701C93.3595 160.047 95.8534 160.353 96.2407 159.199C96.8057 157.585 92.5121 149.878 99.5739 150.055C103.553 150.152 105.393 148.603 106.232 147.231C107.061 147.807 107.712 148.604 108.113 149.531C108.992 151.887 102.56 163.695 102.56 163.695Z" fill="#333333"/>
<path d="M92.6171 148.748C92.6171 148.748 98.3633 148.998 100.147 149.289C102.568 149.684 102.907 150.628 102.907 150.628" stroke="#4F4F4F" stroke-width="0.75" stroke-linecap="round" stroke-linejoin="round"/>
<path d="M98.2503 153.784L95.9987 153.55" stroke="#4F4F4F" stroke-width="0.75" stroke-linecap="round" stroke-linejoin="round"/>
<path d="M91.1078 151.936C92.7865 152.073 94.2715 152.339 94.2715 152.339" stroke="#4F4F4F" stroke-width="0.75" stroke-linecap="round" stroke-linejoin="round"/>
<path d="M92.0601 155.204C92.956 155.193 93.8515 155.247 94.7396 155.366" stroke="#4F4F4F" stroke-width="0.75" stroke-linecap="round" stroke-linejoin="round"/>
<path d="M99.6465 159.175C96.9348 159.078 93.4322 159.086 93.1174 158.546" stroke="#4F4F4F" stroke-width="0.75" stroke-linecap="round" stroke-linejoin="round"/>
<path d="M105.53 174.324C104.998 175.914 104.548 177.53 104.182 179.166C104.118 179.451 104.053 179.742 103.988 180.038C102.762 183.686 101.261 188.019 96.273 187.398C93.1094 187.011 89.4615 184.864 87.6456 179.602C86.9434 177.56 88.9127 175.607 89.1629 175.236C91.0998 172.427 92.9076 169.514 93.5209 167.335C93.5209 167.335 92.0118 165.438 93.0529 163.453C93.2093 163.163 93.3989 162.892 93.6178 162.646C95.2723 160.806 98.3471 161.653 99.3721 163.073C99.6241 162.894 99.8543 162.685 100.058 162.452C100.249 162.288 100.405 162.087 100.517 161.861C100.629 161.636 100.694 161.39 100.709 161.138C100.724 160.887 100.689 160.635 100.605 160.398C100.521 160.16 100.39 159.942 100.22 159.756C100.031 159.541 99.8456 159.339 99.6626 159.151L99.59 159.078C98.3149 157.731 97.2334 156.657 97.7822 154.809C97.8863 154.436 98.0498 154.081 98.2664 153.76C99.1139 152.565 100.688 152.412 103.044 152.727C106.006 153.114 107.491 152.267 108.129 149.499C108.209 149.62 108.855 150.661 109.743 152.315C110.001 152.791 110.275 153.316 110.55 153.889C111.212 155.196 111.938 156.746 112.616 158.425C112.885 159.065 113.135 159.719 113.366 160.386C113.62 161.078 113.833 161.784 114.004 162.5C115.457 168.392 114.537 175.542 105.53 174.324Z" fill="#B25E47"/>
<path d="M104.085 158.546C104.085 158.705 104.133 158.861 104.221 158.994C104.31 159.127 104.436 159.23 104.583 159.291C104.731 159.352 104.893 159.368 105.05 159.337C105.206 159.306 105.35 159.229 105.463 159.116C105.576 159.004 105.653 158.86 105.684 158.703C105.715 158.547 105.699 158.384 105.638 158.237C105.577 158.089 105.473 157.963 105.341 157.875C105.208 157.786 105.052 157.739 104.892 157.739C104.678 157.739 104.473 157.824 104.322 157.975C104.17 158.126 104.085 158.332 104.085 158.546Z" fill="#683F1D"/>
<path d="M110.001 157.779C110.456 157.779 110.824 157.41 110.824 156.956C110.824 156.501 110.456 156.133 110.001 156.133C109.546 156.133 109.178 156.501 109.178 156.956C109.178 157.41 109.546 157.779 110.001 157.779Z" fill="#683F1D"/>
<path d="M105.53 174.324C104.998 175.913 104.548 177.53 104.182 179.166C97.4191 177.77 100.236 171.281 100.236 171.281C100.236 171.281 103.553 173.799 105.53 174.324Z" fill="#914839"/>
<path d="M93.5048 167.343C94.7396 169.078 97.9113 169.029 98.9847 168.15" stroke="#914839" stroke-width="0.75" stroke-linecap="round" stroke-linejoin="round"/>
<path d="M94.7396 165.107C96.0551 163.557 97.8548 164.3 98.8556 166.132" stroke="#914839" stroke-width="0.75" stroke-linecap="round" stroke-linejoin="round"/>
<path d="M97.7015 167.012C95.5547 166.955 96.2407 164.405 98.2503 165.252" stroke="#914839" stroke-width="0.75" stroke-linecap="round" stroke-linejoin="round"/>
<path d="M105.716 162.508C106.563 163.961 107.491 164.695 109.549 164.26" stroke="#914839" stroke-width="0.75" stroke-linecap="round" stroke-linejoin="round"/>
<path d="M107.79 154.849C107.507 156.641 107.322 158.199 109.226 159.078C111.131 159.958 110.76 161.701 108.976 162.234" stroke="#914839" stroke-width="0.75" stroke-linecap="round" stroke-linejoin="round"/>
<path d="M101.083 155.874C101.801 156.843 105.49 155.124 104.828 153.824C104.416 153.009 99.816 154.139 101.083 155.874Z" fill="#333333"/>
<path d="M110.55 153.913C109.581 154.317 107.62 154.026 107.62 153.437C107.62 152.848 108.766 152.372 109.735 152.339C109.993 152.816 110.267 153.34 110.55 153.913Z" fill="#333333"/>
<path d="M89.1468 175.244C87.1211 174.8 84.4981 175.76 84.1995 177.027C83.9009 178.294 83.5619 188.851 85.9186 188.883C88.2752 188.915 92.2055 184.113 94.2554 187.898C96.7977 192.587 97.5967 186.405 100.865 189.577C102.019 190.699 103.407 192.967 104.836 191.191C106.264 189.416 107.33 183.121 106.886 182.088C106.442 181.055 105.344 179.788 103.956 180.046C103.02 180.215 101.535 186.664 96.5233 186.93C95.4902 186.986 88.5173 179.666 88.0976 178.173C87.6779 176.68 89.1468 175.244 89.1468 175.244Z" fill="white"/>
</svg>
