<svg width="618" height="461" viewBox="0 0 618 461" fill="none" xmlns="http://www.w3.org/2000/svg">
<path d="M514.46 18.6455H128.982V330.169H514.46V18.6455Z" stroke="#DDDDDD" stroke-width="2" stroke-linecap="round" stroke-linejoin="round"/>
<path d="M346.091 60.6208H284.622V90.67L268.937 94.4185L259.56 55.1149L340.189 35.8745L346.091 60.6208Z" stroke="#DDDDDD" stroke-miterlimit="10"/>
<path d="M290.443 268.771H255.335V314.758H290.443V268.771Z" fill="#DDDDDD"/>
<path d="M235.373 275.811H200.265V314.748H235.373V275.811Z" stroke="#DDDDDD" stroke-linecap="round" stroke-linejoin="round"/>
<path d="M455.652 149.214H420.544V314.758H455.652V149.214Z" stroke="#DDDDDD" stroke-linecap="round" stroke-linejoin="round"/>
<path d="M400.582 149.214H365.474V314.758H400.582V149.214Z" fill="#DDDDDD"/>
<path d="M447.789 33.2637L399.455 64.2474L414.591 73.5831C405.387 88.4553 357.378 150.971 357.378 150.971L303.131 156.051C283.068 194.531 237.009 262.228 237.009 262.228H95.286V296.117L248.213 294.472L322.808 180.563L375.125 179.354L437.275 84.6357L449.211 89.1359L447.789 33.2637Z" fill="#DDDDDD" stroke="#DDDDDD" stroke-linecap="round" stroke-linejoin="round"/>
<path d="M345.513 211.506H310.404V314.758H345.513V211.506Z" stroke="#DDDDDD" stroke-linecap="round" stroke-linejoin="round"/>
<path d="M536.321 330.169H107.131V347.814H536.321V330.169Z" stroke="#DDDDDD" stroke-width="2" stroke-linecap="round" stroke-linejoin="round"/>
<path d="M313.676 72.09C313.655 72.0231 313.613 71.9648 313.556 71.9243C313.499 71.8839 313.43 71.8635 313.361 71.8665H309.053C308.983 71.8635 308.915 71.8839 308.858 71.9243C308.801 71.9648 308.759 72.0231 308.738 72.09L302.572 88.7094C302.568 88.7466 302.568 88.7841 302.572 88.8212V88.9431C302.57 89.0332 302.602 89.1207 302.664 89.1869C302.734 89.2478 302.825 89.2803 302.918 89.2783H307.184C307.255 89.2852 307.325 89.2664 307.383 89.2254C307.441 89.1843 307.482 89.1238 307.499 89.0548L308.444 86.566H314.021L314.945 89.0548C314.962 89.1238 315.003 89.1843 315.061 89.2254C315.119 89.2664 315.19 89.2852 315.26 89.2783H319.547C319.634 89.2792 319.718 89.2465 319.781 89.1869C319.842 89.1207 319.875 89.0332 319.872 88.9431V88.8212C319.877 88.7875 319.877 88.7533 319.872 88.7196L313.676 72.09ZM310.018 82.2486L311.197 79.0283L312.416 82.2486H310.018Z" fill="#DDDDDD"/>
<path d="M334.155 73.898C333.465 73.2292 332.646 72.7074 331.748 72.3641C330.797 72.0187 329.792 71.8466 328.781 71.8561H322.148C322.101 71.8514 322.054 71.857 322.01 71.8727C321.966 71.8884 321.926 71.9136 321.893 71.9467C321.86 71.9798 321.835 72.0198 321.819 72.0639C321.803 72.108 321.798 72.155 321.802 72.2015V88.9327C321.8 89.0258 321.833 89.1163 321.894 89.1867C321.963 89.2494 322.054 89.2822 322.148 89.2781H328.751C329.762 89.2876 330.767 89.1156 331.717 88.7702C332.615 88.4269 333.434 87.905 334.125 87.2362C334.879 86.4665 335.443 85.5305 335.77 84.5036C336.556 81.9381 336.556 79.1961 335.77 76.6307C335.453 75.606 334.9 74.67 334.155 73.898V73.898ZM330.396 83.9956C330.054 84.3713 329.634 84.6683 329.166 84.8665C328.698 85.0646 328.192 85.1591 327.684 85.1436H326.882C326.859 85.147 326.837 85.1452 326.815 85.1383C326.794 85.1313 326.775 85.1195 326.759 85.1036C326.743 85.0878 326.731 85.0684 326.724 85.0471C326.717 85.0258 326.716 85.0032 326.719 84.981V76.1329C326.719 76.011 326.78 75.9602 326.882 75.9602H327.684C328.193 75.9419 328.699 76.0352 329.168 76.2335C329.636 76.4318 330.056 76.7303 330.396 77.1081C331.079 78.1289 331.443 79.3292 331.443 80.557C331.443 81.7848 331.079 82.985 330.396 84.0058V83.9956Z" fill="#DDDDDD"/>
<path d="M349.18 82.5939C348.957 81.9667 348.612 81.39 348.164 80.8975C347.751 80.453 347.279 80.0668 346.762 79.7495C346.276 79.4581 345.748 79.2423 345.198 79.1095C344.775 79.0096 344.368 78.8523 343.989 78.6422C343.713 78.4925 343.474 78.2845 343.288 78.0327C343.172 77.8686 343.077 77.6912 343.003 77.5045C342.962 77.3797 342.938 77.2498 342.932 77.1185C342.939 77.0005 342.963 76.8842 343.003 76.7731C343.072 76.6153 343.157 76.4655 343.257 76.3261C343.409 76.1218 343.623 75.9721 343.867 75.8994C344.192 75.7811 344.537 75.7293 344.883 75.7471C345.957 75.7702 347.025 75.903 348.072 76.1432C348.118 76.1579 348.166 76.16 348.213 76.1492C348.259 76.1385 348.302 76.1154 348.337 76.0823C348.412 76.025 348.462 75.9416 348.479 75.8486L348.804 72.4557C348.803 72.3679 348.775 72.2825 348.723 72.2119C348.669 72.1457 348.593 72.1021 348.509 72.09C347.248 71.9483 345.979 71.8737 344.71 71.8665C342.993 71.7676 341.29 72.2158 339.844 73.1464C339.262 73.5694 338.796 74.1312 338.487 74.7806C338.178 75.4301 338.037 76.1465 338.076 76.8645C338.072 77.6165 338.203 78.3631 338.462 79.0689C338.688 79.6946 339.033 80.2707 339.478 80.7654C339.891 81.2 340.359 81.579 340.87 81.893C341.354 82.1911 341.882 82.4105 342.434 82.5431C342.86 82.6322 343.268 82.79 343.643 83.0104C343.923 83.1539 344.163 83.363 344.344 83.62C344.454 83.7806 344.543 83.9547 344.608 84.1381C344.654 84.2617 344.678 84.3923 344.679 84.5241C344.677 84.6459 344.653 84.7663 344.608 84.8796C344.551 85.0436 344.469 85.1978 344.365 85.3368C344.209 85.5308 344.001 85.6755 343.765 85.7533C343.44 85.8707 343.094 85.9191 342.749 85.8955C341.723 85.8731 340.702 85.7472 339.702 85.5196C339.655 85.5048 339.606 85.5016 339.558 85.5105C339.51 85.5194 339.465 85.5399 339.427 85.5704C339.387 85.5983 339.354 85.6345 339.329 85.6766C339.305 85.7187 339.29 85.7657 339.285 85.8142L338.96 89.2072C338.961 89.295 338.989 89.3803 339.041 89.451C339.095 89.5172 339.171 89.5607 339.255 89.5729C340.478 89.7196 341.71 89.7908 342.942 89.7862C345.279 89.7862 346.972 89.3765 348.022 88.557C348.563 88.0981 348.989 87.5172 349.262 86.862C349.536 86.2069 349.65 85.4962 349.596 84.7882C349.593 84.0375 349.451 83.2938 349.18 82.5939V82.5939Z" fill="#DDDDDD"/>
<path d="M536.321 1H107.131V18.6455H536.321V1Z" stroke="#DDDDDD" stroke-width="2" stroke-linecap="round" stroke-linejoin="round"/>
<path d="M367.506 60.6206H284.612V101.021H367.506V60.6206Z" stroke="#DDDDDD" stroke-width="2" stroke-linecap="round" stroke-linejoin="round"/>
<path d="M491.034 424.481V455.861H541.827C541.827 455.861 544.874 452.946 535.63 448.446C526.904 444.199 521.642 440.055 517.263 430.089L491.034 424.481Z" fill="#333333"/>
<path d="M490.008 433.045H522.058L523.714 185.419L492.578 187.776L490.008 433.045Z" fill="#25CED1"/>
<path d="M497.891 218.973C502.188 218.282 503.824 216.728 503.824 216.728" stroke="#22B5B8" stroke-width="0.75" stroke-linecap="round" stroke-linejoin="round"/>
<path d="M514.409 194.399C514.155 202.455 516.989 212.258 520.504 214.839" stroke="#22B5B8" stroke-width="0.75" stroke-linecap="round" stroke-linejoin="round"/>
<path d="M464.368 437.576V459.661H515.161C515.161 459.661 518.208 456.745 508.954 452.245C500.238 447.998 494.975 443.854 490.597 433.888L464.368 437.576Z" fill="#333333"/>
<path d="M515.161 459.681C515.161 459.681 518.208 456.765 508.954 452.265C500.238 448.018 494.975 443.874 490.597 433.908" stroke="#7F542D" stroke-width="0.75" stroke-linecap="round" stroke-linejoin="round"/>
<path d="M448.114 158.844C443.675 218.963 445.981 259.414 449.943 310.725C453.904 362.036 460.304 437.576 460.304 437.576H493.828L496.286 180.563L448.114 158.844Z" fill="#25CED1"/>
<path d="M493.797 437.596L495.808 221.909" stroke="#22B5B8" stroke-width="0.75" stroke-linecap="round" stroke-linejoin="round"/>
<path d="M617.813 129.384C617.813 139.096 614.177 147.741 608.508 153.348C604.939 157.008 600.21 159.313 595.129 159.87V159.87C594.784 159.87 594.438 159.921 594.113 159.931H593.29C582.99 159.931 574.162 152.048 570.515 140.874C569.304 137.154 568.694 133.265 568.707 129.354C568.707 119.947 572.12 111.546 577.484 105.938C579.494 103.737 581.933 101.971 584.652 100.748C587.37 99.5255 590.31 98.8717 593.29 98.8272C606.812 98.817 617.813 112.501 617.813 129.384Z" fill="#F06B07"/>
<path d="M608.498 153.359C604.929 157.018 600.2 159.323 595.119 159.88C594.774 159.88 594.428 159.931 594.103 159.941H593.28C582.98 159.941 574.152 152.058 570.505 140.884C581.882 147.538 586.312 161.11 606.273 154.171C606.954 153.948 607.716 153.673 608.498 153.359Z" fill="#DE660C"/>
<path d="M606.222 154.151C604.848 155.796 603.157 157.147 601.249 158.124C599.342 159.102 597.257 159.685 595.119 159.84V159.84C594.774 159.84 594.428 159.89 594.103 159.901H593.28C590.252 159.902 587.241 159.443 584.351 158.539C566.32 153.196 546.073 140.061 532.979 131.863L532.796 131.751C529.749 129.821 527.057 128.185 524.903 126.997C524.547 126.784 524.202 126.601 523.887 126.428C519.062 123.868 515.161 118.139 512.774 111.454C512.316 110.164 511.91 108.833 511.565 107.482C507.349 90.8323 512.479 71.2364 535.194 79.0382C539.46 80.4908 545.098 83.4978 551.386 87.419C560.392 93.1368 569.099 99.3111 577.474 105.918C592.295 117.488 605.349 129.425 608.214 134.565C609.784 137.68 610.432 141.178 610.079 144.649C609.726 148.119 608.388 151.416 606.222 154.151V154.151Z" fill="#F06B07"/>
<path d="M608.498 153.359C604.929 157.018 600.2 159.323 595.119 159.88C594.774 159.88 594.428 159.931 594.103 159.941H593.28C590.252 159.942 587.241 159.483 584.351 158.58C566.319 153.237 546.073 140.102 532.979 131.904C532.979 131.904 532.918 131.843 532.796 131.792C529.748 129.862 527.056 128.226 524.903 127.038C524.547 126.824 524.202 126.642 523.887 126.469C519.062 123.909 515.161 118.179 512.774 111.495C512.316 110.205 511.91 108.874 511.565 107.523C519.001 106.324 527.646 107.035 537.256 111.19C540.933 112.785 547.8 115.701 543.93 120.892C539.064 127.434 543.107 137.491 557.715 137.491C562.213 137.419 566.643 138.594 570.515 140.884C581.893 147.538 586.322 161.11 606.283 154.171C606.954 153.948 607.716 153.674 608.498 153.359Z" fill="#DE660C"/>
<path d="M551.335 87.4698C547.788 87.2016 544.22 87.4411 540.74 88.1809C534.645 89.4609 527.392 92.6202 522.902 100.178C520.258 104.562 516.812 108.408 512.743 111.515C506.597 94.2456 510.61 70.6675 535.163 79.089C539.409 80.5417 545.047 83.5486 551.335 87.4698Z" fill="#F06B07"/>
<path d="M543.869 76.7319C541.959 76.2646 544.631 69.4685 549.741 63.0686C554.546 57.0547 557.583 53.7633 559.046 55.7748C559.94 57.0141 558.609 76.224 543.869 76.7319Z" fill="#DE660C"/>
<path d="M551.945 77.3213C545.85 68.8186 541.786 61.799 538.922 59.5032C536.057 57.2073 533.416 56.0492 533.111 53.408C533.025 51.4684 533.478 49.5429 534.419 47.8448C535.361 46.1468 536.754 44.7426 538.444 43.7878C542.66 41.3396 561.392 64.2878 561.392 64.2878C561.392 64.2878 562.002 75.7061 551.945 77.3213Z" fill="#B25E47"/>
<path d="M521.947 31.0184C525.583 27.4121 529.444 27.9708 537.571 35.5694C545.698 43.1681 554.779 47.0791 556.679 53.1844C558.711 59.7977 553.215 65.0395 545.85 64.1557C543.249 63.851 539.196 63.3938 543.249 54.1089L532.339 44.9661C532.339 44.9661 529.291 49.5273 524.629 48.2474C519.773 46.8658 513.464 39.4602 521.947 31.0184Z" fill="#DDDDDD" stroke="#DDDDDD" stroke-linecap="round" stroke-linejoin="round"/>
<path d="M545.078 46.1647C546.835 47.0689 551.701 40.0696 549.385 38.688C546.266 36.8493 543.31 45.2505 545.078 46.1647Z" fill="#B25E47" stroke="#914839" stroke-width="0.75" stroke-linecap="round" stroke-linejoin="round"/>
<path d="M543.249 54.109C544.494 51.9423 546.45 50.2732 548.786 49.3853" stroke="#DDDDDD" stroke-linecap="round" stroke-linejoin="round"/>
<path d="M532.339 44.9252C532.999 43.9792 533.457 42.9073 533.684 41.7765C533.911 40.6456 533.903 39.48 533.66 38.3525" stroke="#DDDDDD" stroke-linecap="round" stroke-linejoin="round"/>
<path d="M532.43 54.5961C533.873 57.8672 538.017 53.113 539.724 48.501C541.36 44.1429 540.963 43.1575 538.475 43.6147C535.986 44.0718 530.459 50.2584 532.43 54.5961Z" fill="#B25E47" stroke="#914839" stroke-width="0.75" stroke-linecap="round" stroke-linejoin="round"/>
<path d="M536.027 40.1917C537.997 41.2076 543.483 33.4464 540.872 31.9328C537.368 29.9011 534.035 39.186 536.027 40.1917Z" fill="#B25E47" stroke="#914839" stroke-width="0.75" stroke-linecap="round" stroke-linejoin="round"/>
<path d="M539.145 41.8372C541.116 42.8531 546.602 35.0919 543.991 33.5783C540.486 31.5466 537.154 40.8315 539.145 41.8372Z" fill="#B25E47" stroke="#914839" stroke-width="0.75" stroke-linecap="round" stroke-linejoin="round"/>
<path d="M542.182 44.1433C544.082 45.1592 549.293 37.6825 546.825 36.24C543.462 34.2793 540.283 43.1884 542.182 44.1433Z" fill="#B25E47" stroke="#914839" stroke-width="0.75" stroke-linecap="round" stroke-linejoin="round"/>
<path d="M543.869 76.7321C551.63 87.6526 572.963 119.398 581.029 130.044C591.492 143.88 616.533 146.125 616.584 119.662C616.584 106.558 559.087 55.7749 559.087 55.7749C559.087 55.7749 556.12 71.3074 543.869 76.7321Z" fill="#F06B07"/>
<path d="M551.254 79.9928C560.793 76.7827 564.064 66.0044 564.064 66.0044" stroke="#DE660C" stroke-width="0.75" stroke-linecap="round" stroke-linejoin="round"/>
<path d="M555.683 60.4478C569.905 80.1148 574.985 93.5546 571.602 98.8168C568.219 104.079 560.59 101.235 561.443 96.785C562.459 91.2689 571.673 89.867 567.874 104.678C564.074 119.49 553.652 120.78 551.762 116.676C549.212 110.987 559.818 104.932 560.905 119.855C561.992 134.778 545.311 138.598 540.659 134.849C536.006 131.101 549.131 121.318 548.928 137.724C548.725 154.13 529.332 154.638 520.586 152.444" stroke="#DDDDDD" stroke-width="2" stroke-linecap="round" stroke-linejoin="round"/>
<path d="M543.869 76.7319C551.63 87.6524 572.963 119.398 581.029 130.044C583.431 133.177 586.507 135.729 590.03 137.511" stroke="#DE660C" stroke-width="0.75" stroke-linecap="round" stroke-linejoin="round"/>
<path d="M427.35 166.534C427.394 170.396 426.531 174.214 424.83 177.681C423.129 181.148 420.638 184.168 417.557 186.496C413.969 189.13 409.635 190.553 405.184 190.559H405.123C402.326 190.549 399.561 189.968 396.996 188.853C388.808 185.338 383.018 176.662 383.018 166.504C383.018 166.301 383.018 166.108 383.018 165.925C383.066 162.527 383.812 159.176 385.21 156.08C386.608 152.983 388.628 150.207 391.145 147.924C393.755 145.592 396.892 143.929 400.287 143.078C401.908 142.666 403.573 142.458 405.245 142.458C414.032 142.458 421.631 148.015 425.206 156.061C426.003 157.827 426.586 159.683 426.943 161.587C427.241 163.219 427.377 164.876 427.35 166.534V166.534Z" fill="#F06B07"/>
<path d="M405.123 190.58C402.326 190.57 399.561 189.989 396.996 188.873C388.808 185.358 383.018 176.683 383.018 166.524C383.018 166.321 383.018 166.128 383.018 165.945C383.066 162.548 383.812 159.197 385.21 156.1C386.608 153.003 388.628 150.227 391.145 147.944C389.336 171.36 391.876 183.438 405.123 190.58Z" fill="#DE660C"/>
<path d="M471.682 96.5929C471.073 98.5331 470.362 100.514 469.569 102.525C468.838 104.374 468.028 106.244 467.141 108.133C466.857 108.722 466.562 109.322 466.268 109.911C465.343 111.78 464.358 113.659 463.281 115.539C462.925 116.168 462.56 116.798 462.194 117.428C455.873 127.838 448.707 137.712 440.77 146.949C438.941 149.082 437.072 151.185 435.172 153.237L433.831 154.67C432.409 156.173 430.977 157.636 429.534 159.058C428.65 159.922 427.777 160.785 426.893 161.608C416.115 171.766 405.001 179.121 395.98 179.324C395.138 179.349 394.295 179.302 393.461 179.182C390.992 178.917 388.678 177.846 386.878 176.135C384.471 173.788 383.191 170.253 383.048 165.976C382.794 157.93 386.523 147.203 394.223 136.516L395.543 134.657C403.112 123.808 414.286 105.4 426.68 90.4368C438.057 76.6922 450.471 65.8428 462.113 66.371C463.045 66.4138 463.973 66.5327 464.886 66.7266C474.994 68.8193 476.487 81.2127 471.682 96.5929Z" fill="#F06B07"/>
<path d="M395.513 165.661C393.872 167.588 393.01 170.057 393.094 172.586C393.179 175.115 394.204 177.522 395.97 179.334C395.128 179.359 394.285 179.312 393.451 179.192C390.981 178.927 388.668 177.856 386.868 176.145C384.46 173.798 383.18 170.263 383.038 165.986C382.784 157.94 386.512 147.213 394.212 136.526L395.533 134.667C397.884 136.983 399.508 139.934 400.206 143.16C400.812 145.734 401.032 148.384 400.856 151.022C400.562 156.477 398.672 161.953 395.513 165.661Z" fill="#DE660C"/>
<path d="M469.569 102.525C467.496 107.674 465.031 112.656 462.194 117.428C455.873 127.838 448.707 137.711 440.769 146.948C437.163 151.164 433.384 155.268 429.534 159.068" stroke="#DE660C" stroke-width="0.75" stroke-linecap="round" stroke-linejoin="round"/>
<path d="M471.682 96.5925C466.257 89.9386 460.243 86.3323 450.349 86.2815C444.254 86.2815 436.614 87.592 426.73 90.3957C438.108 76.6512 450.522 65.8018 462.163 66.33C463.096 66.3728 464.023 66.4917 464.937 66.6856C474.994 68.8189 476.487 81.2124 471.682 96.5925Z" fill="#F06B07"/>
<path d="M540.74 88.1812C540.313 97.5982 536.291 115.477 533.477 129.13C533.294 130.045 533.111 130.969 532.928 131.924C529.423 149.925 525.908 176.866 525.888 180.939C525.888 194.542 516.471 192.114 490.14 191.342C477.188 190.986 462.864 190.509 452.177 188.365C449.162 187.818 446.209 186.974 443.36 185.846C438.28 183.713 435.294 180.706 435.812 176.398C435.879 175.862 435.991 175.332 436.147 174.814C438.703 165.722 440.253 156.378 440.769 146.949C441.145 141.869 441.348 136.648 441.592 131.304C441.785 126.774 442.009 122.162 442.384 117.275C443.126 107.584 446.448 95.9424 450.308 86.2815C454.697 75.1071 459.685 66.5332 461.98 66.3402H462.123C466.501 66.0151 477.594 67.4983 493.838 67.8234C500.715 67.9716 507.525 69.2129 514.013 71.5008C516.857 72.5166 528.306 75.8385 535.132 79.0994C536.941 79.8149 538.583 80.8936 539.958 82.2689C540.659 83.1832 540.872 85.2758 540.74 88.1812Z" fill="#F06B07"/>
<path d="M452.177 188.365C449.162 187.817 446.209 186.974 443.36 185.846C438.28 183.712 435.294 180.705 435.812 176.398C435.879 175.861 435.991 175.331 436.147 174.813C438.703 165.722 440.253 156.378 440.769 146.948C441.145 141.869 441.348 136.648 441.592 131.304L464.083 109.91C470.249 120.231 458.405 140.193 450.501 145.323C442.598 150.453 443.146 160.561 459.796 164.106C472.423 166.778 459.288 181.447 452.177 188.365Z" fill="#DE660C"/>
<path d="M551.335 87.47C547.788 87.2018 544.22 87.4412 540.74 88.1811C534.645 89.4611 527.392 92.6204 522.901 100.178C520.258 104.562 516.812 108.408 512.743 111.515C502.137 119.642 487.814 122.07 478.681 106.893C476.6 103.302 474.272 99.8601 471.712 96.5924C466.288 89.9385 460.274 86.3322 450.379 86.2814C444.284 86.2814 436.645 87.5919 426.761 90.3957C438.138 76.6511 450.552 65.8017 462.194 66.33C466.572 66.0049 477.665 67.488 493.909 67.8131C500.786 67.9613 507.596 69.2026 514.084 71.4905C516.928 72.5064 528.377 75.8282 535.204 79.0891C539.409 80.5418 545.047 83.5488 551.335 87.47Z" fill="#F06B07"/>
<path d="M507.034 84.3207C507.034 84.3207 510.081 94.1238 511.26 94.9974L516.339 95.7898C518.008 92.8149 519.408 89.6975 520.524 86.4743L515.161 78.7437L507.034 84.3207Z" fill="#333333"/>
<path d="M511.3 94.9976L499.588 139.695C499.588 139.695 500.939 145.669 507.633 154.75C507.633 154.75 514.409 145.912 515.841 142.083L516.4 95.7899L511.3 94.9976Z" fill="#333333"/>
<path d="M498.541 64.2676C495.758 64.3488 490.049 66.8986 489.978 69.225C489.906 71.5513 495.158 89.9587 503.499 94.5402C503.499 94.5402 506.729 84.92 515.14 83.5689L498.541 64.2676Z" fill="white"/>
<path d="M515.161 83.5688C518.432 87.5896 521.148 92.0313 523.237 96.775C523.237 96.775 531.475 85.9967 530.348 77.3009C530.155 75.8483 522.922 72.374 522.922 72.374L515.161 83.5688Z" fill="white"/>
<path d="M532.928 131.924C533.111 130.969 533.294 130.044 533.477 129.13C534.624 123.573 535.976 117.306 537.195 111.21C537.286 110.763 537.367 110.337 537.449 109.91" stroke="#DE660C" stroke-width="0.75" stroke-linecap="round" stroke-linejoin="round"/>
<path d="M525.065 74.4872C525.065 74.4872 521.723 84.3411 514.907 84.3208C503.814 84.3208 496.885 66.4924 496.885 66.4924C500.299 52.6666 499.933 46.2463 499.933 46.2463C499.557 37.1036 520.555 25.0251 523.45 52.179L523.704 55.7751L524.598 68.3718L525.065 74.4872Z" fill="#B25E47"/>
<path d="M524.629 68.3716C517.518 68.1277 510.965 64.4097 510.62 55.7749H523.735L524.629 68.3716Z" fill="#914839"/>
<path d="M522.871 19.7833C522.515 22.2416 519.356 23.8467 519.356 23.8467L512.113 34.7266C512.113 34.7266 505.5 42.2846 498.46 41.5125C497.422 41.4005 496.411 41.1083 495.473 40.649C491.999 38.9627 494.021 35.6916 493.309 34.625C492.598 33.5583 490.892 33.4161 490.465 31.4453C490.038 29.4746 493.208 29.6168 491.857 27.4936C490.506 25.3705 489.734 23.6334 491.958 22.0994C494.183 20.5655 492.04 19.956 493.462 17.4976C494.559 15.5878 496.388 17.9039 497.058 15.3948C497.728 12.8856 499.77 13.7795 501.233 13.5459C503.082 13.2411 501.507 11.6462 504.037 11.0367C505.266 10.732 505.236 12.1846 506.678 11.2196C507.293 10.7483 508.027 10.4562 508.798 10.3755C509.569 10.2948 510.347 10.4287 511.046 10.7624C512.905 11.9916 512.824 9.52309 515.11 10.2748C516.756 10.8234 515.709 12.0729 517.975 12.4284C520.24 12.784 520.169 14.1148 520.362 15.5268C520.382 15.7247 520.412 15.9214 520.453 16.116C520.788 17.7211 523.216 17.3249 522.871 19.7833Z" fill="#333333"/>
<path d="M524.436 18.5946C524.07 21.2358 520.748 22.9831 520.748 22.9831L513.129 34.5842C513.129 34.5842 506.211 42.7111 498.826 41.8578C498.965 41.2461 498.923 40.607 498.704 40.0191C497.952 38.8813 496.174 38.7289 495.727 36.616C495.28 34.503 498.602 34.6452 497.19 32.3798C495.778 30.1144 494.966 28.2554 497.282 26.5996C499.598 24.9437 497.373 24.3241 498.866 21.693C500.014 19.6613 501.914 22.1196 502.645 19.4378C503.377 16.7559 505.48 17.7108 507.014 17.467C508.954 17.1419 507.298 15.4353 509.96 14.775C511.25 14.4499 511.209 16.0042 512.723 14.9781C514.236 13.9521 516.166 13.7083 517.304 14.4804C519.255 15.801 519.163 13.1496 521.601 13.9623L521.815 14.0436C521.815 14.2569 521.876 14.4601 521.916 14.6734C522.272 16.3902 524.801 15.994 524.436 18.5946Z" fill="#333333"/>
<path d="M529.311 54.7694C527.351 60.3058 515.516 66.5737 501.142 48.5219C499.293 49.2126 496.205 48.6946 494.508 45.4743C492.385 41.4108 495.422 35.4173 502.493 38.2922C503.793 38.8204 504.524 35.5493 502.94 33.2738C501.355 30.9983 498.673 25.4517 504.971 21.4086C511.27 17.3655 519.661 17.7921 522.871 22.8308C524.896 26.1825 526.506 29.7676 527.666 33.5075C528.204 35.1836 528.682 36.9106 529.078 38.6579C530.398 44.5092 530.805 50.5333 529.311 54.7694Z" fill="#B25E47"/>
<path d="M515.912 40.0194C515.577 41.3705 512.946 41.8784 510.02 41.1571C507.095 40.4359 505.002 38.7698 505.327 37.4188C505.652 36.0677 508.293 35.5699 511.219 36.2912C514.145 37.0124 516.238 38.6784 515.912 40.0194Z" fill="#914839"/>
<path d="M529.108 38.6275C527.707 39.3995 526.416 39.5824 525.776 38.9322C524.832 37.9976 525.675 35.5697 527.696 33.4771C528.235 35.1532 528.712 36.8802 529.108 38.6275Z" fill="#914839"/>
<path d="M507.785 30.7036C508.009 31.8719 515.607 29.6167 514.896 27.2091C513.87 23.938 507.369 28.611 507.785 30.7036Z" fill="#333333"/>
<path d="M518.848 27.1685C519.011 28.6719 525.086 28.6923 525.065 27.717C525.045 26.7418 518.482 23.7653 518.848 27.1685Z" fill="#333333"/>
<path d="M513.545 34.1983C513.545 34.4694 513.626 34.7345 513.777 34.96C513.927 35.1855 514.141 35.3612 514.392 35.465C514.642 35.5688 514.918 35.5959 515.184 35.543C515.45 35.4901 515.694 35.3596 515.886 35.1678C516.078 34.976 516.208 34.7317 516.261 34.4658C516.314 34.1998 516.287 33.9241 516.183 33.6736C516.08 33.423 515.904 33.2089 515.678 33.0582C515.453 32.9076 515.188 32.8271 514.917 32.8271C514.737 32.8271 514.558 32.8626 514.392 32.9315C514.226 33.0004 514.074 33.1014 513.947 33.2287C513.82 33.3561 513.719 33.5072 513.65 33.6736C513.581 33.8399 513.545 34.0182 513.545 34.1983V34.1983Z" fill="#333333"/>
<path d="M521.459 32.8262C521.457 33.0998 521.536 33.3679 521.687 33.5964C521.837 33.8249 522.052 34.0035 522.305 34.1096C522.557 34.2157 522.835 34.2445 523.103 34.1924C523.372 34.1402 523.619 34.0095 523.813 33.8167C524.007 33.6239 524.14 33.3778 524.194 33.1096C524.248 32.8414 524.221 32.5632 524.117 32.3102C524.013 32.0572 523.836 31.8409 523.609 31.6886C523.381 31.5364 523.114 31.4551 522.84 31.4551C522.659 31.4538 522.48 31.4882 522.312 31.5566C522.145 31.6249 521.992 31.7256 521.864 31.8531C521.736 31.9806 521.634 32.1322 521.564 32.2992C521.495 32.4662 521.459 32.6453 521.459 32.8262Z" fill="#333333"/>
<path d="M496.875 42.4062C497.891 39.7751 501.812 40.2627 503.031 43.1782" stroke="#914839" stroke-width="0.75" stroke-linecap="round" stroke-linejoin="round"/>
<path d="M502.248 41.9088C500.39 40.7814 497.221 45.0268 502.248 46.2354" stroke="#914839" stroke-width="0.75" stroke-linecap="round" stroke-linejoin="round"/>
<path d="M501.142 48.5012C502.362 48.165 503.51 47.6035 504.524 46.8457" stroke="#914839" stroke-width="0.75" stroke-linecap="round" stroke-linejoin="round"/>
<path d="M518.462 30.4805C518.462 35.5598 520.789 36.1286 523.125 37.0429C525.075 37.815 524.456 39.9686 523.999 40.6695" stroke="#914839" stroke-width="0.75" stroke-linecap="round" stroke-linejoin="round"/>
<path d="M515.912 43.9808C519.895 43.9808 522.901 43.7573 522.901 43.7573C522.901 43.7573 521.134 48.7757 518.838 48.5217C516.542 48.2677 515.912 43.9808 515.912 43.9808Z" fill="white" stroke="#914839" stroke-width="0.75" stroke-linecap="round" stroke-linejoin="round"/>
<path d="M515.013 174.247L466.893 144.132L423.181 213.978L471.301 244.093L515.013 174.247Z" fill="#DDDDDD"/>
<path d="M507.619 177.445L467.249 152.181L430.576 210.78L470.945 236.045L507.619 177.445Z" fill="#F9F9F9"/>
<path d="M498.074 160.469C498.555 160.069 498.967 159.592 499.293 159.057C499.705 158.407 499.983 157.682 500.112 156.923C500.24 156.164 500.216 155.387 500.04 154.638C499.865 153.889 499.542 153.182 499.09 152.559C498.639 151.936 498.067 151.409 497.41 151.009C496.752 150.61 496.021 150.345 495.26 150.231C494.499 150.117 493.723 150.156 492.977 150.345C492.231 150.535 491.531 150.871 490.916 151.334C490.302 151.797 489.786 152.379 489.398 153.044C489.079 153.576 488.846 154.155 488.708 154.76L481.404 150.311L475.816 159.454L499.801 174.062L505.378 164.919L498.074 160.469Z" fill="#DDDDDD" stroke="#DDDDDD" stroke-linecap="round" stroke-linejoin="round"/>
<path d="M495.01 158.778C496.509 158.412 497.426 156.899 497.059 155.401C496.693 153.902 495.181 152.984 493.682 153.351C492.183 153.718 491.266 155.23 491.632 156.729C491.999 158.227 493.511 159.145 495.01 158.778Z" fill="#F9F9F9"/>
<path d="M469.569 163.334L497.088 180.553" stroke="#DDDDDD" stroke-linecap="round" stroke-linejoin="round"/>
<path d="M466.826 168.19L494.346 185.419" stroke="#DDDDDD" stroke-linecap="round" stroke-linejoin="round"/>
<path d="M464.083 173.056L485.528 186.476" stroke="#DDDDDD" stroke-linecap="round" stroke-linejoin="round"/>
<path d="M470.3 194.399C483.171 200.799 487.397 203.014 488.271 203.786C490.902 206.122 490.597 210.45 490.597 210.45C490.597 210.45 496.255 213.335 496.824 214.971C497.393 216.606 494.457 219.704 492.578 219.542C492.578 219.542 490.323 222.071 488.271 221.909C488.271 221.909 487.519 225.251 484.746 225.414C484.746 225.414 484.421 228.278 480.418 227.445C476.416 226.612 459.42 212.837 459.42 212.837L470.3 194.399Z" fill="#B25E47"/>
<path d="M471.733 195.11C470.585 197.549 464.175 209.414 461.432 214.463C460.68 215.864 460.203 216.738 460.203 216.738C460.203 216.738 442.324 209.627 426.395 202.963C416.917 198.991 408.109 195.202 404.229 193.18C401.723 191.916 399.31 190.477 397.006 188.873C391.815 185.226 388.178 181.071 386.847 176.134C385.517 171.197 386.553 165.183 390.83 158.164C391.945 156.363 393.404 154.801 395.125 153.567C396.846 152.333 398.793 151.451 400.856 150.971C403.074 150.425 405.36 150.202 407.642 150.311L408.404 150.362C409.217 150.362 410.029 150.504 410.862 150.636L411.584 150.758L412.407 150.921L413.768 151.225H413.819L414.55 151.418L414.875 151.52C415.159 151.601 415.444 151.682 415.708 151.774L416.561 152.048L417.405 152.333C417.689 152.444 417.973 152.546 418.258 152.668C419.673 153.221 421.057 153.852 422.403 154.557C422.646 154.669 422.89 154.801 423.124 154.933C423.357 155.065 423.825 155.309 424.14 155.512L425.023 156.041H425.084C426.243 156.741 427.411 157.514 428.579 158.357C428.874 158.57 429.178 158.783 429.463 159.007C430.936 160.104 432.409 161.333 433.872 162.664C451.07 178.389 471.326 194.603 471.844 194.603C471.946 194.653 471.885 194.785 471.733 195.11Z" fill="#F06B07"/>
<path d="M426.395 202.963C416.917 198.991 408.109 195.202 404.229 193.18C401.723 191.916 399.31 190.476 397.006 188.873C391.815 185.226 388.178 181.071 386.847 176.134C385.517 171.197 386.553 165.183 390.83 158.163C391.945 156.363 393.404 154.801 395.125 153.567C396.846 152.332 398.793 151.45 400.856 150.971C400.541 156.477 398.652 161.953 395.492 165.661C393.852 167.587 392.99 170.057 393.074 172.586C393.159 175.115 394.184 177.521 395.95 179.334C398.763 182.382 403.569 184.352 409.979 183.509C412.62 183.164 415.21 184.383 417.537 186.496C421.925 190.407 425.359 197.406 426.395 202.963Z" fill="#DE660C"/>
<path d="M406.89 150.291C415.017 150.402 424.719 154.354 433.943 162.725C451.212 178.511 471.529 194.785 471.915 194.663" stroke="#DE660C" stroke-width="0.75" stroke-linecap="round" stroke-linejoin="round"/>
<path d="M463.179 194.958C460.548 200.119 455.662 209.353 455.662 209.353" stroke="#DE660C" stroke-width="0.75" stroke-linecap="round" stroke-linejoin="round"/>
<path d="M488.271 203.786C490.902 206.122 490.597 210.45 490.597 210.45C490.597 210.45 496.256 213.335 496.825 214.97C497.393 216.606 494.458 219.704 492.578 219.542C492.578 219.542 490.323 222.071 488.271 221.909C488.271 221.909 487.519 225.251 484.746 225.413C484.746 225.413 484.421 228.278 480.418 227.445" stroke="#914839" stroke-width="0.75" stroke-linecap="round" stroke-linejoin="round"/>
<path d="M490.892 210.603L485.64 208.104" stroke="#914839" stroke-width="0.75" stroke-linecap="round" stroke-linejoin="round"/>
<path d="M492.578 219.542C490.845 218.831 489.15 218.03 487.499 217.145" stroke="#914839" stroke-width="0.75" stroke-linecap="round" stroke-linejoin="round"/>
<path d="M488.27 221.908C487.194 221.475 486.172 220.92 485.223 220.253" stroke="#914839" stroke-width="0.75" stroke-linecap="round" stroke-linejoin="round"/>
<path d="M164.212 157.615C161.987 161.364 159.569 165.133 157.009 168.79C150.426 178.237 143.011 187.075 136.083 193.384C112.576 214.808 104.733 192.652 106.948 183.591C108.705 176.348 127.874 149.509 138.907 134.616C141.67 130.888 143.915 127.922 145.256 126.174C151.981 117.499 160.311 112.968 171.526 116.382C181.684 119.47 175.671 138.304 164.212 157.615Z" fill="#25CED1"/>
<path d="M164.212 157.615C162.381 156.001 160.698 154.226 159.183 152.313C153.281 144.958 149.553 136.851 138.866 134.626C141.629 130.898 143.874 127.932 145.215 126.185C151.94 117.509 160.27 112.979 171.485 116.392C181.684 119.47 175.67 138.304 164.212 157.615Z" fill="#25CED1"/>
<path d="M120.296 274.713C113.459 298.332 96.7282 345.112 96.9314 346.027C96.9923 346.443 97.3479 351.502 97.7238 357.11C98.2215 364.444 98.7396 372.723 98.7396 372.723C98.7396 372.723 52.2641 387.443 48.2819 386.376C44.2997 385.31 45.0616 379.621 51.1974 375.019C52.4876 374.003 54.3669 372.459 56.5307 370.57C64.5763 363.52 76.5025 352.172 76.5025 352.172C76.5025 352.172 87.1588 261.883 88.9163 253.543C90.6737 245.202 97.9777 236.365 108.868 237.289C120.134 238.244 127.102 251.094 120.296 274.713Z" fill="#B25E47"/>
<path d="M98.7294 372.723C98.7294 372.723 52.2538 387.443 48.2716 386.376C44.2895 385.31 45.0514 379.621 51.1872 375.019C52.4773 374.003 54.3566 372.459 56.5204 370.57C65.0232 372.327 74.1253 369.472 78.8693 365.927C84.3954 361.632 90.8081 358.62 97.6424 357.109C98.1808 364.434 98.7294 372.723 98.7294 372.723Z" fill="#333333"/>
<path d="M277.267 153.725C277.49 152.008 277.378 149.58 272.451 146.959L270.826 154.354C270.826 154.354 276.881 156.721 277.267 153.725Z" fill="#25CED1"/>
<path d="M254.186 146.095C255.761 138.588 256.452 137.897 256.218 134.25C255.984 130.603 255.527 126.245 261.551 118.941C267.575 111.637 271.131 105.898 272.319 106.487C273.508 107.076 272.716 112.338 270.44 117.418C270.44 117.418 286.44 108.275 289.802 106.985C293.165 105.695 290.991 111.82 284.266 115.112C284.266 115.112 294.841 108.732 297.411 109.26C299.981 109.788 295.237 113.507 291.58 115.894C291.58 115.894 298.508 111.536 299.88 112.968C301.251 114.4 297.431 117.448 294.242 119.358C294.242 119.358 298.396 117.194 299.087 118.271C299.778 119.348 299.087 120.546 295.024 123.117C290.96 125.687 282.082 130.035 275.275 137.836L273.498 157.138C273.498 157.138 257.539 159.728 254.186 146.095Z" fill="#B25E47"/>
<path d="M264.061 115.864C268.601 110.093 271.344 105.989 272.36 106.487C273.549 107.087 272.756 112.338 270.481 117.418C270.481 117.418 286.481 108.275 289.843 106.985C293.206 105.695 291.032 111.82 284.307 115.112C284.307 115.112 294.882 108.732 297.452 109.26C300.022 109.789 295.278 113.507 291.621 115.894C291.621 115.894 298.549 111.536 299.92 112.968C301.292 114.401 297.472 117.448 294.282 119.358C294.282 119.358 298.437 117.194 299.128 118.271C299.819 119.348 299.128 120.547 295.065 123.117" stroke="#914839" stroke-width="0.75" stroke-linecap="round" stroke-linejoin="round"/>
<path d="M271.669 130.197C272.36 124.762 275.987 122.964 279.044 122.172" stroke="#914839" stroke-width="0.75" stroke-linecap="round" stroke-linejoin="round"/>
<path d="M278.74 116.818C283.108 117.011 287.689 121.044 287.984 122.527" stroke="#914839" stroke-width="0.75" stroke-linecap="round" stroke-linejoin="round"/>
<path d="M280.914 117.204C280.974 117.204 286.907 113.547 286.907 113.547" stroke="#914839" stroke-width="0.75" stroke-linecap="round" stroke-linejoin="round"/>
<path d="M292.718 115.122L285.261 119.459" stroke="#914839" stroke-width="0.75" stroke-linecap="round" stroke-linejoin="round"/>
<path d="M295.146 118.789L289.508 121.948" stroke="#914839" stroke-width="0.75" stroke-linecap="round" stroke-linejoin="round"/>
<path d="M241 218.709C248.569 226.338 263.034 221.706 268.154 201.439C273.274 181.173 277.297 153.694 277.297 153.694C268.876 151.843 261.016 148.012 254.369 142.52C246.974 162.603 231.177 208.794 241 218.709Z" fill="#25CED1"/>
<path d="M254.339 142.53C249.453 155.868 240.828 180.726 238.481 198.829" stroke="#22B5B8" stroke-width="0.75" stroke-linecap="round" stroke-linejoin="round"/>
<path d="M92.7459 243.649C88.4386 264.88 80.9416 281.936 73.0789 300.435C65.2161 318.934 57.1502 342.085 57.1502 345.692V362.057C57.1502 362.057 4.67089 370.976 2.29378 370.976C-0.0833334 370.976 -1.76966 365.897 3.30964 362.27C4.57946 361.376 7.15975 359.426 10.3292 357.008C19.9596 349.694 34.9638 338.042 34.9638 338.042C34.9638 338.042 52.9344 263.183 57.0689 239.087C63.8142 200.19 98.5668 214.869 92.7459 243.649Z" fill="#B25E47"/>
<path d="M85.777 268.771C87.5751 263.6 89.2208 258.297 90.643 252.73C98.4956 254.336 107.913 255.666 119.697 257.759" stroke="#914839" stroke-width="0.75" stroke-linecap="round" stroke-linejoin="round"/>
<path d="M57.1502 347.002V362.037C57.1502 362.037 4.67089 370.956 2.29378 370.956C-0.0833334 370.956 -1.76966 365.877 3.30964 362.25C4.57946 361.356 7.15975 359.406 10.3292 356.988C19.858 359.172 31.1035 355.545 37.1784 352.813C43.521 349.924 50.2478 347.967 57.1502 347.002V347.002Z" fill="#333333"/>
<path d="M116.639 202.658C126.507 202.658 134.508 195.495 134.508 186.658C134.508 177.822 126.507 170.659 116.639 170.659C106.77 170.659 98.7697 177.822 98.7697 186.658C98.7697 195.495 106.77 202.658 116.639 202.658Z" fill="#25CED1"/>
<path d="M230.202 124.6C229.548 125.01 228.869 125.38 228.17 125.707C217.107 131.02 211.195 129.486 210.088 124.254C208.98 119.023 197.4 122.964 196.719 113.72C196.038 104.476 200.143 101.458 199.37 96.7449C199.37 96.7449 199.909 95.5258 200.732 94.0833C202.469 91.0357 205.496 87.1247 207.751 91.117C211.093 97.0293 213.166 96.3995 219.332 97.0903C225.498 97.781 228.333 102.058 226.443 105.146C224.147 108.905 225.366 110.53 232.101 111.15C238.156 111.708 239.08 119.277 230.202 124.6Z" fill="#333333"/>
<path d="M230.202 124.599C229.548 125.01 228.869 125.38 228.17 125.707C217.107 131.02 211.195 129.486 210.088 124.254C208.98 119.022 197.4 122.964 196.719 113.72C196.038 104.475 200.143 101.458 199.37 96.7446C199.37 96.7446 199.909 95.5255 200.732 94.083C208.859 96.582 211.175 100.849 210.382 104.536C209.367 109.229 213.501 115.396 223.771 114.553C228.922 114.126 230.212 119.337 230.202 124.599Z" fill="#333333"/>
<path d="M224.452 256.052C220.471 261.576 215.112 265.961 208.909 268.77C208.909 268.77 208.909 267.246 208.554 264.707C207.365 254.934 202.306 230.168 180.983 217.723L179.49 217.449H179.358L168.752 215.478C168.752 215.478 165.989 204.446 163.998 195.801C162.007 187.156 157.151 179.436 156.968 170.313C156.968 169.805 156.968 169.297 156.968 168.799C157.04 162.867 158.289 157.198 159.142 152.312C159.524 150.298 159.782 148.262 159.914 146.217C160.199 139.939 155.252 132.909 154.774 128.531C154.297 124.152 154.774 114.928 166.284 115.904C168.163 116.056 169.88 116.208 171.485 116.361C173.09 116.513 174.797 116.706 176.249 116.889C176.768 116.95 177.265 117.031 177.773 117.113C179.809 117.387 181.822 117.808 183.797 118.372C185.381 118.826 186.908 119.46 188.348 120.262C192.808 122.751 203.017 119.571 204.267 119.175H204.389C206.603 119.033 208.564 118.87 210.311 118.718C212.058 118.565 213.511 118.443 214.832 118.311C218.712 117.905 220.998 117.57 222.187 117.427C222.888 117.427 223.893 126.966 224.97 139.776C225.559 146.745 226.159 154.679 226.748 162.572C227.947 178.978 229.074 195.232 229.734 202.191C229.836 203.318 229.938 204.223 230.009 204.822C231.065 212.248 237.272 237.969 224.452 256.052Z" fill="#25CED1"/>
<path d="M225.021 139.767C221.807 141.742 218.778 144.003 215.97 146.522C204.633 156.457 196.496 167.997 179.399 164.706C173.797 163.757 168.561 161.298 164.252 157.595C162.422 155.98 160.739 154.206 159.224 152.292C159.605 150.278 159.863 148.242 159.996 146.197C160.28 139.919 155.333 132.889 154.856 128.511C154.378 124.132 154.856 114.908 166.365 115.884C168.245 116.036 169.961 116.188 171.566 116.341C173.172 116.493 174.878 116.686 176.331 116.869C178.882 117.16 181.407 117.656 183.879 118.352C185.463 118.806 186.99 119.44 188.43 120.242C192.889 122.731 203.099 119.551 204.348 119.155H204.47C208.818 118.86 212.242 118.555 214.913 118.291C218.794 117.885 221.079 117.55 222.268 117.407C222.938 117.418 223.944 126.957 225.021 139.767Z" fill="#25CED1"/>
<path d="M198.73 191.595C200.098 201.673 202.096 211.655 204.714 221.482L179.49 217.419H179.358C179.358 217.419 178.647 201.165 173.862 186.293C171.368 178.441 170.335 170.198 170.815 161.973C171.272 155.106 172.405 148.301 174.197 141.656C176.101 133.625 177.304 125.443 177.793 117.204C178.952 117.367 180.018 117.549 181.024 117.763L181.715 117.915C182.46 118.078 183.161 118.261 183.818 118.464C185.402 118.918 186.929 119.552 188.369 120.353C192.828 122.842 203.038 119.662 204.287 119.266H204.409C205.791 119.165 207.081 119.083 208.269 118.982L208.98 118.921L210.331 118.809C208.422 124.671 200.518 149 197.938 161.831C197.664 163.253 197.44 164.533 197.298 165.62C196.556 171.471 197.328 181.457 198.73 191.595Z" fill="white"/>
<path d="M210.403 118.708C208.493 124.569 200.589 148.899 198.009 161.73C192.415 165.056 185.762 166.12 179.409 164.706C176.461 164.157 173.597 163.232 170.886 161.953C171.343 155.086 172.476 148.281 174.268 141.636C176.172 133.605 177.375 125.423 177.865 117.184C179.023 117.347 180.089 117.529 181.095 117.743L181.786 117.895C182.531 118.058 183.232 118.241 183.889 118.444C185.473 118.898 187 119.532 188.44 120.333C192.899 122.822 203.109 119.642 204.358 119.246H204.48C205.862 119.145 207.152 119.063 208.34 118.962L209.051 118.901L210.403 118.708Z" fill="#F9F9F9"/>
<path d="M209.468 148.168L215.36 161.607C213.674 164.482 203.271 183.347 198.73 191.596C197.328 181.437 196.556 171.471 197.318 165.518C198.73 154.486 208.229 125.219 210.352 118.708C212.058 118.576 213.552 118.433 214.872 118.301L216.681 143.82C215.36 144.693 209.468 148.168 209.468 148.168Z" fill="#25CED1"/>
<path d="M174.218 141.595C172.054 150.342 167.767 167.296 173.862 186.293C168.762 178.863 165.131 170.525 163.165 161.729L169.768 146.959L166.395 142.53C166.395 142.53 170.063 132.371 176.249 116.92C176.767 116.981 177.265 117.062 177.773 117.143C177.297 125.381 176.107 133.563 174.218 141.595Z" fill="#25CED1"/>
<path d="M207.508 117.58C209.976 116.848 212.028 117.58 211.977 118.596C211.855 121.308 207.122 137.684 205.08 138.517C204.704 138.669 202.357 131.131 199.696 130.217C197.034 129.303 192.117 130.552 192.229 130.491C192.341 130.431 202.195 115.873 207.508 117.58Z" fill="#333333"/>
<path d="M183.99 116.991C188.166 122.618 187.597 126.844 186.073 127.037C184.549 127.23 182.69 127.088 180.851 129.018C179.013 130.949 176.097 134.098 175.874 133.691C174.787 131.66 176.636 118.453 177.448 117.082C178.454 115.396 182.863 115.467 183.99 116.991Z" fill="#333333"/>
<path d="M187.211 136.699C186.703 147.436 184.214 151.551 182.71 158.174C181.207 164.797 182.538 173.818 184.966 184.21C187.393 194.603 187.261 200.2 187.211 201.338C187.16 202.476 184.762 208.997 190.014 211.496" stroke="#DDDDDD" stroke-linecap="round" stroke-linejoin="round"/>
<path d="M207.518 117.58C207.518 117.58 191.376 134.068 187.597 131.619C183.818 129.171 182.365 119.815 182.781 116.676C182.934 115.66 183.218 113.73 183.533 111.597C184.193 107.31 185.016 102.088 185.158 100.961C185.595 91.8179 200.589 83.945 204.876 94.0731C204.257 102.005 205.153 109.983 207.518 117.58V117.58Z" fill="#B25E47"/>
<path d="M183.533 111.556C184.193 107.269 185.016 102.048 185.158 100.92L194.921 97.5171C195.947 105.857 191.711 110.591 183.533 111.556Z" fill="#914839"/>
<path d="M157.009 168.8C157.08 162.867 158.33 157.198 159.183 152.312C159.564 150.298 159.822 148.263 159.955 146.217C160.087 143.169 159.02 140.01 157.811 137.023" stroke="#22B5B8" stroke-width="0.75" stroke-linecap="round" stroke-linejoin="round"/>
<path d="M208.015 222.213C201.798 220.73 180.983 217.733 180.983 217.733" stroke="#22B5B8" stroke-width="0.75" stroke-linecap="round" stroke-linejoin="round"/>
<path d="M79.4887 212.908C68.6089 212.908 52.3551 230.442 63.5702 240.611C76.3091 252.12 90.7038 252.618 119.696 257.769C119.696 257.769 134.498 212.939 79.4887 212.908Z" fill="#B25E47"/>
<path d="M208.554 264.677C195.683 267.724 168.255 265.245 151.818 263.417C147.531 262.929 143.986 262.503 141.659 262.228C139.851 262.015 138.754 261.893 138.612 261.913C106.683 264.88 102.722 257.901 89.2512 240.652C75.7809 223.402 79.306 213.965 79.4888 212.908C104.418 210.877 147.145 212.746 168.793 215.479L180.983 217.693C186.286 220.79 190.959 224.856 194.758 229.68C204.724 242.226 207.68 257.494 208.554 264.677Z" fill="#F06B07"/>
<path d="M120.296 257.058C130.637 260.105 141.629 262.228 141.629 262.228" stroke="#DE660C" stroke-width="0.75" stroke-linecap="round" stroke-linejoin="round"/>
<path d="M208.554 264.677C195.683 267.724 168.255 265.245 151.818 263.417C159.498 257.728 167.655 257.952 176.727 259.648C195.419 263.132 198.984 256.438 194.494 249.317C190.553 243.039 188.866 234.16 194.758 229.68C204.724 242.226 207.68 257.494 208.554 264.677Z" fill="#DE660C"/>
<path d="M254.085 220.781C242.758 226.602 234.967 214.046 229.826 202.201C228.81 199.814 227.856 197.478 227.033 195.304C223.518 186.161 217.89 164.655 216.011 146.542C214.467 131.802 215.482 119.267 222.228 117.418C230.263 115.213 239.182 118.769 244.424 133.732C245.463 136.782 246.285 139.902 246.883 143.068C251.708 167.845 265.869 214.717 254.085 220.781Z" fill="#25CED1"/>
<path d="M229.785 202.201C228.769 199.814 227.814 197.477 226.992 195.303C224.259 188.192 220.216 173.564 217.697 158.885" stroke="#22B5B8" stroke-width="0.75" stroke-linecap="round" stroke-linejoin="round"/>
<path d="M244.434 133.732C237.568 134.133 230.904 136.205 225.021 139.767C221.807 141.742 218.778 144.003 215.97 146.522C214.466 131.802 215.482 119.267 222.227 117.418C230.273 115.213 239.192 118.769 244.434 133.732Z" fill="#25CED1"/>
<path d="M209.153 85.296C205.262 92.7625 175.416 84.2801 175.416 84.2801C170.571 82.8681 168.143 80.9582 168.305 78.0224C168.468 75.0866 173.029 74.9748 171.851 72.1812C171.255 70.8184 170.911 69.3592 170.835 67.874C170.754 65.1921 171.759 62.1141 175.691 59.6252C182.598 55.2367 192.087 61.1287 192.087 61.1287C192.087 61.1287 196.424 57.5021 204.277 61.535C208.249 63.5667 210.443 67.7317 211.124 72.3031C211.793 76.7337 211.106 81.263 209.153 85.296V85.296Z" fill="#333333"/>
<path d="M209.153 85.296C205.262 92.7626 175.416 84.2802 175.416 84.2802C170.571 82.8681 168.143 80.9583 168.305 78.0225C168.468 75.0866 173.029 74.9749 171.851 72.1813C171.255 70.8185 170.911 69.3593 170.835 67.8741C177.265 61.0881 191.965 60.2551 193.55 66.5839C195.358 73.7864 198.781 85.2249 211.134 72.3032C211.8 76.7348 211.109 81.2642 209.153 85.296V85.296Z" fill="#333333"/>
<path d="M191.04 64.9789C196.668 61.1593 201.9 64.0443 203.363 68.25C205.486 74.3451 198.283 80.7349 205.486 86.1697" stroke="#333333" stroke-width="0.75" stroke-linecap="round" stroke-linejoin="round"/>
<path d="M174.634 68.9915C175.142 63.2824 183.96 57.8171 192.107 61.0882" stroke="#333333" stroke-width="0.75" stroke-linecap="round" stroke-linejoin="round"/>
<path d="M204.876 94.0325C204.876 94.0325 196.699 101.976 187.79 104.536C178.88 107.096 171.536 101.783 172.247 89.1766C172.247 88.9633 172.247 88.75 172.247 88.5468C172.369 87.0129 172.552 85.4992 172.795 84.077C174.675 73.2073 180.323 65.3446 189.699 68.2906C192.574 69.1845 189.882 79.333 191.812 83.9043C191.926 84.1861 192.069 84.4551 192.239 84.7069C192.881 85.6441 193.738 86.4139 194.738 86.9519C197.907 88.7093 202.235 88.3132 203.627 85.6313C205.658 81.7507 211.185 79.8714 213.105 86.4033C214.537 91.0865 209.387 95.3328 204.876 94.0325Z" fill="#B25E47"/>
<path d="M194.779 86.9519C193.875 88.0296 192.69 88.835 191.355 89.2782C188.724 90.294 186.185 89.9588 185.687 88.628C185.189 87.2973 186.926 85.4179 189.567 84.4427C190.301 84.1601 191.07 83.979 191.853 83.9043C191.967 84.1861 192.11 84.4551 192.28 84.7068C192.921 85.644 193.778 86.4139 194.779 86.9519V86.9519Z" fill="#914839"/>
<path d="M174.959 88.5672C174.502 89.2377 173.486 89.4206 172.247 89.1768C172.247 88.9634 172.247 88.7501 172.247 88.5469C172.369 87.013 172.552 85.4994 172.796 84.0771C174.736 85.5908 175.671 87.5006 174.959 88.5672Z" fill="#914839"/>
<path d="M176.615 81.4555C176.615 81.6785 176.681 81.8964 176.805 82.0818C176.929 82.2672 177.105 82.4117 177.311 82.497C177.517 82.5824 177.744 82.6047 177.962 82.5612C178.181 82.5177 178.382 82.4103 178.54 82.2527C178.697 82.095 178.805 81.8941 178.848 81.6754C178.892 81.4567 178.869 81.2301 178.784 81.0241C178.699 80.8181 178.554 80.642 178.369 80.5181C178.183 80.3942 177.965 80.3281 177.743 80.3281C177.444 80.3281 177.157 80.4469 176.945 80.6583C176.734 80.8697 176.615 81.1565 176.615 81.4555V81.4555Z" fill="#333333"/>
<path d="M182.863 83.1728C182.863 83.4718 182.981 83.7585 183.193 83.9699C183.404 84.1814 183.691 84.3001 183.99 84.3001C184.289 84.3001 184.576 84.1814 184.787 83.9699C184.999 83.7585 185.117 83.4718 185.117 83.1728C185.117 82.8738 184.999 82.587 184.787 82.3756C184.576 82.1642 184.289 82.0454 183.99 82.0454C183.691 82.0454 183.404 82.1642 183.193 82.3756C182.981 82.587 182.863 82.8738 182.863 83.1728V83.1728Z" fill="#333333"/>
<path d="M205.08 89.3291C206.288 86.2816 208.95 84.8391 210.951 86.2816" stroke="#914839" stroke-width="0.75" stroke-linecap="round" stroke-linejoin="round"/>
<path d="M205.486 88.455C208.716 85.987 210.95 91.5019 205.77 91.5019" stroke="#914839" stroke-width="0.75" stroke-linecap="round" stroke-linejoin="round"/>
<path d="M173.618 76.0007C173.314 77.4737 179.622 79.4851 180.221 76.5391C180.648 74.4159 173.954 74.4159 173.618 76.0007Z" fill="#333333"/>
<path d="M184.041 76.9455C183.35 79.5054 190.522 80.8464 191.294 79.1194C191.955 77.6566 184.813 74.0401 184.041 76.9455Z" fill="#333333"/>
<path d="M177.519 88.3637C176.128 86.1695 176.859 84.5441 178.688 84.5441C180.943 84.5441 181.674 82.5124 181.573 79.668" stroke="#914839" stroke-width="0.75" stroke-linecap="round" stroke-linejoin="round"/>
<path d="M177.479 90.5989C180.374 90.9544 184.224 89.1665 184.224 89.1665C184.224 89.1665 184.041 94.2458 180.851 94.6928C177.662 95.1398 177.479 90.5989 177.479 90.5989Z" fill="white" stroke="#914839" stroke-width="0.75" stroke-linecap="round" stroke-linejoin="round"/>
<path d="M99.1863 60.6918C96.2098 58.782 92.7864 59.3103 91.7807 61.9414C90.328 65.7407 93.0607 68.3006 96.1286 69.2962L99.1863 60.6918Z" fill="#F9F9F9" stroke="#DDDDDD" stroke-linecap="round" stroke-linejoin="round"/>
<path d="M135.127 86.1695C139.983 88.1504 142.614 89.2983 143.417 88.6685C144.219 88.0387 147.927 79.5258 147.531 78.6115C147.135 77.6972 139.526 73.583 139.526 73.583L135.127 86.1695Z" fill="#DDDDDD" stroke="#DDDDDD" stroke-linecap="round" stroke-linejoin="round"/>
<path d="M108.177 122.344C108.939 119.104 119.839 116.473 123.516 115.863V126.804C123.516 126.804 111.996 129.202 108.177 122.344Z" fill="#25CED1"/>
<path d="M112.789 127.21C114.668 118.149 115.938 116.036 115.349 114.898C114.76 113.76 110.95 110.042 110.493 106.233C110.036 102.423 114.069 96.0234 115.491 94.0425C116.913 92.0616 118.894 90.548 125.121 91.5333C131.349 92.5187 133.787 93.372 133.858 96.4501C133.929 99.5282 131.105 120.343 131.105 120.343C131.105 120.343 126.178 135.865 112.789 127.21Z" fill="#B25E47"/>
<path d="M120.54 81.8018C119.25 87.8969 115.857 98.1063 114.587 103.003C113.317 107.899 114.14 110.54 118.193 111.363C122.246 112.186 124.715 105.177 125.538 100.575C126.361 95.973 128.585 84.5446 128.585 84.5446L120.54 81.8018Z" fill="#F9F9F9" stroke="#DDDDDD" stroke-linecap="round" stroke-linejoin="round"/>
<path d="M102.467 195.862C116.283 207.281 124.999 183.489 128.199 162.613C130.192 148.612 131.163 134.485 131.105 120.343C131.105 120.343 119.585 123.553 108.177 122.375C104.662 139.299 91.2016 186.557 102.467 195.862Z" fill="#25CED1"/>
<path d="M121.312 187.553C124.552 180.594 126.858 171.35 128.199 162.613C130.192 148.612 131.163 134.485 131.105 120.343" stroke="#22B5B8" stroke-width="0.75" stroke-linecap="round" stroke-linejoin="round"/>
<path d="M137.027 86.4133C135.442 87.0432 131.836 87.226 127.132 86.6673C119.151 85.6694 111.401 83.3016 104.225 79.668L114.038 58.335C121.42 60.4661 128.396 63.8098 134.68 68.2294C138.236 70.7183 140.775 73.0751 141.659 74.6294C142.543 76.1836 140.765 84.92 137.027 86.4133Z" fill="#F9F9F9" stroke="#DDDDDD" stroke-linecap="round" stroke-linejoin="round"/>
<path d="M137.027 86.4134C135.442 87.0432 131.836 87.2261 127.133 86.6673C131.856 81.3442 135.199 75.564 134.68 68.2803C138.236 70.7691 140.776 73.1259 141.659 74.6802C142.543 76.2345 140.765 84.9201 137.027 86.4134Z" fill="#F9F9F9" stroke="#DDDDDD" stroke-linecap="round" stroke-linejoin="round"/>
<path d="M106.226 81.2124C108.847 80.4403 116.903 64.7351 115.745 60.1231C114.587 55.5111 104.733 44.8853 104.733 44.8853C104.733 44.8853 92.1567 66.6856 89.8304 82.8073C89.8304 82.8276 102.417 82.34 106.226 81.2124Z" fill="#DDDDDD" stroke="#DDDDDD" stroke-linecap="round" stroke-linejoin="round"/>
<path d="M90.8868 52.3825L87.0163 46.0029" stroke="#DDDDDD" stroke-linecap="round" stroke-linejoin="round"/>
<path d="M75.7505 56.8213L82.5771 59.5844" stroke="#DDDDDD" stroke-linecap="round" stroke-linejoin="round"/>
<path d="M74.948 70.5965L82.0082 69.3267" stroke="#DDDDDD" stroke-linecap="round" stroke-linejoin="round"/>
<path d="M109.396 101.519C112.22 100.067 120.001 108.63 115.267 109.179C112.464 109.524 105.241 103.652 109.396 101.519Z" fill="#B25E47" stroke="#914839" stroke-width="0.75" stroke-linecap="round" stroke-linejoin="round"/>
<path d="M110.005 96.765C112.839 95.3123 121.18 103.947 116.497 104.536C113.683 104.882 105.85 98.8983 110.005 96.765Z" fill="#B25E47" stroke="#914839" stroke-width="0.75" stroke-linecap="round" stroke-linejoin="round"/>
<path d="M111.174 91.9398C114.221 90.3754 123.232 99.6705 118.142 100.3C115.125 100.666 106.704 94.2154 111.174 91.9398Z" fill="#B25E47" stroke="#914839" stroke-width="0.75" stroke-linecap="round" stroke-linejoin="round"/>
<path d="M112.88 87.6124C115.836 85.8854 124.634 95.4954 120.164 97.4967C118.061 98.4414 108.563 90.152 112.88 87.6124Z" fill="#B25E47" stroke="#914839" stroke-width="0.75" stroke-linecap="round" stroke-linejoin="round"/>
<path d="M125.527 97.3343C124.806 96.3896 118.112 93.2099 118.894 90.6703C119.676 88.1306 127.671 90.7414 131.409 91.9401C135.148 93.1388 134.223 95.4652 133.289 103.003C133.289 103.003 129.987 103.196 125.527 97.3343Z" fill="#B25E47"/>
<path d="M125.527 97.3343C124.806 96.3896 118.112 93.2099 118.894 90.6703C119.676 88.1306 127.671 90.7414 131.409 91.9401C135.148 93.1388 134.223 95.4652 133.289 103.003" stroke="#914839" stroke-width="0.75" stroke-linecap="round" stroke-linejoin="round"/>
</svg>
