<svg width="857" height="580" viewBox="0 0 857 580" fill="none" xmlns="http://www.w3.org/2000/svg">
<path d="M380.162 98.1062C380.164 98.8521 379.946 99.5819 379.533 100.203C379.121 100.825 378.533 101.31 377.845 101.597C377.156 101.884 376.398 101.961 375.666 101.817C374.934 101.673 374.262 101.315 373.734 100.789C373.205 100.262 372.845 99.5907 372.699 98.8594C372.552 98.1281 372.626 97.3697 372.911 96.6804C373.196 95.991 373.679 95.4017 374.298 94.9871C374.918 94.5724 375.648 94.3511 376.393 94.3511C377.391 94.3511 378.347 94.7463 379.053 95.4501C379.76 96.154 380.158 97.1091 380.162 98.1062Z" fill="#DDDDDD"/>
<path d="M397.62 98.1064H470.772" stroke="#DDDDDD" stroke-width="2" stroke-linecap="round" stroke-linejoin="round"/>
<path d="M380.162 115.538C380.162 116.283 379.941 117.012 379.527 117.631C379.113 118.251 378.524 118.734 377.836 119.019C377.147 119.305 376.389 119.379 375.658 119.234C374.927 119.088 374.256 118.729 373.729 118.202C373.202 117.675 372.843 117.004 372.698 116.273C372.552 115.542 372.627 114.784 372.912 114.096C373.197 113.407 373.68 112.819 374.3 112.405C374.92 111.991 375.648 111.77 376.393 111.77C376.889 111.768 377.38 111.864 377.838 112.053C378.296 112.242 378.712 112.519 379.062 112.869C379.412 113.22 379.69 113.636 379.878 114.094C380.067 114.552 380.163 115.043 380.162 115.538V115.538Z" fill="#DDDDDD"/>
<path d="M397.62 115.538H425.816" stroke="#DDDDDD" stroke-width="2" stroke-linecap="round" stroke-linejoin="round"/>
<path d="M163.919 98.1062C163.922 98.8521 163.703 99.5819 163.29 100.203C162.878 100.825 162.29 101.31 161.602 101.597C160.914 101.884 160.156 101.961 159.424 101.817C158.692 101.673 158.019 101.315 157.491 100.789C156.963 100.262 156.602 99.5907 156.456 98.8594C156.309 98.1281 156.383 97.3697 156.668 96.6804C156.953 95.991 157.436 95.4017 158.056 94.9871C158.676 94.5724 159.405 94.3511 160.151 94.3511C161.148 94.3511 162.104 94.7463 162.811 95.4501C163.517 96.154 163.916 97.1091 163.919 98.1062V98.1062Z" fill="#DDDDDD"/>
<path d="M181.39 98.1064H278.852" stroke="#DDDDDD" stroke-width="2" stroke-linecap="round" stroke-linejoin="round"/>
<path d="M160.151 119.306C162.232 119.306 163.919 117.619 163.919 115.538C163.919 113.457 162.232 111.77 160.151 111.77C158.07 111.77 156.382 113.457 156.382 115.538C156.382 117.619 158.07 119.306 160.151 119.306Z" fill="#DDDDDD"/>
<path d="M181.39 115.538H228.573" stroke="#DDDDDD" stroke-width="2" stroke-linecap="round" stroke-linejoin="round"/>
<path d="M163.919 133.286C163.922 134.032 163.703 134.762 163.29 135.383C162.878 136.004 162.29 136.489 161.602 136.777C160.914 137.064 160.156 137.14 159.424 136.997C158.692 136.853 158.019 136.495 157.491 135.968C156.963 135.442 156.602 134.77 156.456 134.039C156.309 133.308 156.383 132.549 156.668 131.86C156.953 131.171 157.436 130.581 158.056 130.167C158.676 129.752 159.405 129.531 160.151 129.531C161.148 129.531 162.104 129.926 162.811 130.63C163.517 131.334 163.916 132.289 163.919 133.286V133.286Z" fill="#DDDDDD"/>
<path d="M181.39 133.286H242.816" stroke="#DDDDDD" stroke-width="2" stroke-linecap="round" stroke-linejoin="round"/>
<path d="M527.336 57.0503H365.879V76.801H527.336V57.0503Z" stroke="#DDDDDD" stroke-linecap="round" stroke-linejoin="round"/>
<path d="M315.231 57.0503H153.774V76.801H315.231V57.0503Z" stroke="#DDDDDD" stroke-linecap="round" stroke-linejoin="round"/>
<path d="M740.838 19.2617H85.7729V436.937H740.838V19.2617Z" stroke="#DDDDDD" stroke-width="2" stroke-linecap="round" stroke-linejoin="round"/>
<path d="M751.735 437.464H74.8632V455.726H751.735V437.464Z" stroke="#DDDDDD" stroke-width="2" stroke-linecap="round" stroke-linejoin="round"/>
<path d="M751.735 1H74.8633V19.2618H751.735V1Z" stroke="#DDDDDD" stroke-width="2" stroke-linecap="round" stroke-linejoin="round"/>
<path d="M646.262 79.4231C615.654 66.906 600.476 101.993 612.005 124.037C614.719 129.202 614.324 133.405 611.754 139.676C609.185 145.948 609.119 150.428 616.063 153.248C623.006 156.067 626.076 152.852 628.646 146.581C631.215 140.309 633.916 137.041 639.424 135.249C663.114 127.607 676.883 91.9402 646.262 79.4231Z" fill="#F9F9F9" stroke="#DDDDDD" stroke-linecap="round" stroke-linejoin="round"/>
<path d="M619.502 146.488C617.723 139.017 618.316 133.826 623.665 132.561C629.015 131.296 633.31 128.266 630.965 124.353C628.619 120.439 618.896 119.53 621.557 124.274C624.219 129.017 638.225 127.317 634.944 122.679C631.663 118.041 623.837 114.194 627.038 113.456C630.24 112.718 640.03 117.145 636.868 113.693C630.517 106.776 637.935 105.314 639.977 97.8823" stroke="#DDDDDD" stroke-linecap="round" stroke-linejoin="round"/>
<path d="M632.572 144.301C631.49 146.13 630.556 148.042 629.779 150.019C629.193 151.518 628.488 152.968 627.671 154.354C624.746 159.269 620.832 161.232 613.915 158.412C606.998 155.593 605.614 151.442 606.971 145.895C607.353 144.327 607.864 142.793 608.5 141.31C609.319 139.355 609.993 137.343 610.516 135.289C617.251 139.623 624.728 142.678 632.572 144.301V144.301Z" fill="#F9F9F9" stroke="#DDDDDD" stroke-linecap="round" stroke-linejoin="round"/>
<path d="M632.572 144.301C631.601 145.936 630.759 147.646 630.056 149.413C629.95 149.611 629.871 149.822 629.779 150.019C629.193 151.518 628.488 152.968 627.671 154.354C624.838 154.987 621.201 154.459 616.353 152.47C611.504 150.48 608.539 148.32 606.971 145.882C607.353 144.314 607.864 142.78 608.5 141.297L608.737 140.677C609.457 138.921 610.051 137.116 610.516 135.275C617.25 139.615 624.728 142.674 632.572 144.301Z" fill="#F9F9F9" stroke="#DDDDDD" stroke-linecap="round" stroke-linejoin="round"/>
<path d="M632.572 144.301C631.6 145.936 630.759 147.646 630.056 149.413C622.432 147.979 615.179 145.011 608.737 140.691C609.457 138.934 610.051 137.129 610.516 135.289C617.251 139.623 624.728 142.678 632.572 144.301V144.301Z" fill="#F9F9F9" stroke="#DDDDDD" stroke-linecap="round" stroke-linejoin="round"/>
<path d="M651.466 71.2144L657.251 57.0503" stroke="#DDDDDD" stroke-width="2" stroke-linecap="round" stroke-linejoin="round"/>
<path d="M673.945 92.9544L687.871 90.9517" stroke="#DDDDDD" stroke-width="2" stroke-linecap="round" stroke-linejoin="round"/>
<path d="M611.965 73.6519L599.514 60.3047" stroke="#DDDDDD" stroke-width="2" stroke-linecap="round" stroke-linejoin="round"/>
<path d="M631.874 68.0521V58.6445" stroke="#DDDDDD" stroke-linecap="round" stroke-linejoin="round"/>
<path d="M599.474 96.0903L589.026 97.5924" stroke="#DDDDDD" stroke-linecap="round" stroke-linejoin="round"/>
<path d="M668.569 122.139L672.416 128.74" stroke="#DDDDDD" stroke-linecap="round" stroke-linejoin="round"/>
<path d="M665.854 81.9525L673.378 78.3818" stroke="#DDDDDD" stroke-linecap="round" stroke-linejoin="round"/>
<path d="M139.267 144.696H108.409C105.749 156.324 106.509 168.472 110.596 179.678L142.943 179.164C142.943 179.164 134.221 160.217 139.267 144.696Z" fill="#DDDDDD" stroke="#DDDDDD" stroke-miterlimit="10"/>
<path d="M132.31 153.419H116.604" stroke="#F9F9F9" stroke-linecap="round" stroke-linejoin="round"/>
<path d="M131.309 160.23H119.437" stroke="#F9F9F9" stroke-linecap="round" stroke-linejoin="round"/>
<path d="M132.073 166.726H115.616" stroke="#F9F9F9" stroke-linecap="round" stroke-linejoin="round"/>
<path d="M115.814 93.1521H145.512C147.831 103.574 145.977 114.49 140.347 123.562L108.211 122.244C108.211 122.244 118.014 108.173 115.814 93.1521Z" stroke="#DDDDDD" stroke-linecap="round" stroke-linejoin="round"/>
<path d="M121.242 100.254H140.637" stroke="#DDDDDD" stroke-linecap="round" stroke-linejoin="round"/>
<path d="M121.519 106.763H137.001" stroke="#DDDDDD" stroke-linecap="round" stroke-linejoin="round"/>
<path d="M121.242 115.274H128.555" stroke="#DDDDDD" stroke-linecap="round" stroke-linejoin="round"/>
<path d="M130.215 115.274H135.077" stroke="#DDDDDD" stroke-linecap="round" stroke-linejoin="round"/>
<path d="M188.98 190.601L218.691 190.667C221.022 201.078 219.188 211.988 213.579 221.064L181.456 219.746C181.456 219.746 191.18 205.595 188.98 190.601Z" stroke="#DDDDDD" stroke-linecap="round" stroke-linejoin="round"/>
<path d="M194.408 197.716H213.803" stroke="#DDDDDD" stroke-linecap="round" stroke-linejoin="round"/>
<path d="M194.685 204.212H210.166" stroke="#DDDDDD" stroke-linecap="round" stroke-linejoin="round"/>
<path d="M194.408 212.723H201.721" stroke="#DDDDDD" stroke-linecap="round" stroke-linejoin="round"/>
<path d="M203.381 212.723H208.243" stroke="#DDDDDD" stroke-linecap="round" stroke-linejoin="round"/>
<path d="M436.251 205.832H465.95C468.265 216.25 466.412 227.161 460.785 236.229L428.649 234.911C428.649 234.911 438.439 220.826 436.251 205.832Z" stroke="#DDDDDD" stroke-linecap="round" stroke-linejoin="round"/>
<path d="M441.667 212.947H461.062" stroke="#DDDDDD" stroke-linecap="round" stroke-linejoin="round"/>
<path d="M441.943 219.443H457.425" stroke="#DDDDDD" stroke-linecap="round" stroke-linejoin="round"/>
<path d="M441.667 227.955H448.979" stroke="#DDDDDD" stroke-linecap="round" stroke-linejoin="round"/>
<path d="M450.64 227.955H455.501" stroke="#DDDDDD" stroke-linecap="round" stroke-linejoin="round"/>
<path d="M536.388 90.3457L506.69 90.4116C504.374 100.83 506.228 111.74 511.855 120.808L543.991 119.491C543.991 119.491 534.214 105.34 536.388 90.3457Z" stroke="#DDDDDD" stroke-linecap="round" stroke-linejoin="round"/>
<path d="M530.986 97.4607H511.591" stroke="#DDDDDD" stroke-linecap="round" stroke-linejoin="round"/>
<path d="M530.709 103.957H515.241" stroke="#DDDDDD" stroke-linecap="round" stroke-linejoin="round"/>
<path d="M530.986 112.468H523.673" stroke="#DDDDDD" stroke-linecap="round" stroke-linejoin="round"/>
<path d="M522.013 112.468H517.151" stroke="#DDDDDD" stroke-linecap="round" stroke-linejoin="round"/>
<path d="M341.372 53.4136V364.378" stroke="#DDDDDD" stroke-linecap="round" stroke-linejoin="round"/>
<path d="M496.452 131.758C489.245 110.413 486.069 102.771 481.958 98.1461C477.848 93.5213 466.213 88.6067 466.213 88.6067C466.213 88.6067 461.365 69.8179 455.159 70.424C448.953 71.0301 459.243 96.0248 459.243 96.0248L453.788 120.558C455.557 123.437 456.935 126.539 457.886 129.781C462.129 143.721 473.763 145.039 476.965 156.739C476.767 156.067 496.386 144.314 496.452 131.758Z" fill="#B25E47"/>
<path d="M496.452 131.758C489.245 110.413 486.069 102.771 481.958 98.1461C477.848 93.5213 466.213 88.6067 466.213 88.6067C466.213 88.6067 461.365 69.8179 455.159 70.424C448.953 71.0301 459.243 96.0248 459.243 96.0248L453.788 120.558C455.557 123.437 456.935 126.539 457.886 129.781C462.129 143.721 473.763 145.039 476.965 156.739C476.767 156.067 496.386 144.314 496.452 131.758Z" fill="#B25E47"/>
<path d="M481.972 98.1461C477.887 93.4423 466.226 88.6067 466.226 88.6067C466.226 88.6067 461.378 69.8179 455.172 70.424C448.966 71.0301 459.256 96.0248 459.256 96.0248L453.802 120.558" stroke="#7F542D" stroke-width="0.75" stroke-linecap="round" stroke-linejoin="round"/>
<path d="M447.635 110.953C452.761 106.895 461.549 121.757 456.239 125.815C452.431 128.727 442.76 114.761 447.635 110.953Z" fill="#B25E47" stroke="#7F542D" stroke-miterlimit="10"/>
<path d="M466.226 88.6068C462.142 86.9993 461.628 93.8771 465.199 96.5123C468.769 99.1475 471.049 99.7009 471.563 101.361C472.076 103.021 473.091 108.226 473.091 108.226C471.946 111.514 471.508 115.007 471.805 118.476C472.103 121.946 473.129 125.313 474.817 128.358" stroke="#7F542D" stroke-width="0.75" stroke-linecap="round" stroke-linejoin="round"/>
<path d="M451.469 102.455C456.595 98.3964 467.452 116.948 462.142 120.98C458.347 123.879 446.594 106.302 451.469 102.455Z" fill="#B25E47" stroke="#7F542D" stroke-miterlimit="10"/>
<path d="M455.923 96.4463C461.048 92.3881 471.918 110.94 466.609 114.972C462.814 117.87 451.061 100.267 455.923 96.4463Z" fill="#B25E47" stroke="#7F542D" stroke-miterlimit="10"/>
<path d="M477.689 170.258L470.772 156.752C470.772 156.752 487.69 145.171 496.452 131.718L502.262 141.455C502.262 141.455 495.319 171.984 477.689 170.258Z" fill="white"/>
<path d="M578.814 235.347C555.216 201.34 524.991 167.873 520.696 163.195C518.421 160.51 515.226 158.771 511.736 158.32L501.195 139.597C501.195 139.597 489.693 156.726 470.772 165.949L480.338 184.29C480.338 184.29 477.413 186.517 483.843 200.022C490.272 213.527 515.162 265.111 527.745 275.349C557.838 299.829 609.83 280.052 578.814 235.347Z" fill="#25CED1"/>
<path d="M495.661 173.828L485.015 156.752" stroke="#22B5B8" stroke-width="0.75" stroke-linecap="round" stroke-linejoin="round"/>
<path d="M489.311 178.071L478.849 161.298" stroke="#22B5B8" stroke-width="0.75" stroke-linecap="round" stroke-linejoin="round"/>
<path d="M496.452 145.645L507.678 163.656" stroke="#22B5B8" stroke-width="0.75" stroke-linecap="round" stroke-linejoin="round"/>
<path d="M490.826 151.324L502.065 169.335" stroke="#22B5B8" stroke-width="0.75" stroke-linecap="round" stroke-linejoin="round"/>
<path d="M578.814 235.347C555.216 201.34 524.991 167.873 520.696 163.195C518.421 160.51 515.226 158.771 511.736 158.32L501.195 139.597" stroke="#22B5B8" stroke-width="0.75" stroke-linecap="round" stroke-linejoin="round"/>
<path d="M798.838 557.576H668.555V454.923L785.07 453.302C794.042 491.157 798.838 557.576 798.838 557.576Z" fill="#683F1D"/>
<path d="M731.984 557.576C731.984 557.576 727.715 516.23 727.28 512.291C727.153 511.248 726.687 510.276 725.954 509.524C725.221 508.772 724.261 508.281 723.222 508.127C720.723 507.613 718.145 507.613 715.646 508.127" stroke="#7F542D" stroke-width="0.75" stroke-linecap="round" stroke-linejoin="round"/>
<path d="M808.22 308.222C806.138 342.598 798.997 396.04 794.056 430.086C791.276 449.257 789.233 462.288 789.233 462.288C789.233 462.288 705.869 465.529 683.22 464.923C660.571 464.317 658.094 462.644 658.094 453.513C658.094 444.382 658.476 330.358 658.476 330.358C658.476 330.358 546.639 290.83 530.538 277.404C514.437 263.978 533.713 219.852 575.112 228.904C585.521 231.183 595.864 233.502 606.431 235.834C637.842 242.804 671.164 249.814 712.945 255.743C758.323 262.225 786.73 262.594 806.125 275.349C808.997 277.233 809.327 290.079 808.22 308.222Z" fill="#25CED1"/>
<path d="M778.113 342.783C760.497 353.956 760.457 369.675 767.348 381.849C783.238 409.874 737.044 391.665 735.054 426.423L801.935 410.533L778.113 342.783Z" fill="#22B5B8"/>
<path d="M832.674 318.987C825.034 314.347 816.811 310.744 808.22 308.275C794.003 304.322 780.287 305.152 771.182 314.534C769.554 316.206 768.134 318.068 766.953 320.081C744.145 358.291 680.374 351.321 668.555 311.029C658.502 276.772 642.994 255.479 606.431 235.926C637.842 242.804 671.164 249.814 712.945 255.743C758.323 262.225 786.73 262.594 806.125 275.349C815.111 279.143 824.479 296.509 832.674 318.987Z" fill="#25CED1"/>
<path d="M717.201 253.253C702.338 253.253 690.282 262.753 690.282 274.453C690.282 281.041 694.103 286.943 700.112 290.83C703.018 292.702 706.235 294.041 709.611 294.783C712.1 295.361 714.646 295.648 717.201 295.64C717.767 295.64 718.321 295.64 718.874 295.64C722.456 295.483 725.988 294.731 729.323 293.413C732.48 292.211 735.381 290.423 737.874 288.142C739.803 286.431 741.357 284.337 742.436 281.994C743.516 279.652 744.098 277.111 744.145 274.532C744.145 262.753 732.089 253.253 717.201 253.253ZM726.121 284.73C723.489 285.543 720.758 285.986 718.004 286.047H717.201C715.044 286.056 712.894 285.835 710.784 285.389C708.071 284.859 705.469 283.87 703.089 282.464C699.268 280.158 696.897 276.917 696.897 273.333C696.897 266.297 705.988 260.605 717.201 260.605C728.413 260.605 737.518 266.297 737.518 273.333C737.518 276.429 735.752 279.262 732.801 281.475C730.782 282.942 728.521 284.044 726.121 284.73V284.73Z" stroke="#22B5B8" stroke-width="0.75" stroke-linecap="round" stroke-linejoin="round"/>
<path d="M703.814 247.837C698.781 248.799 693.181 250.473 690.375 255.295C687.568 260.117 687.436 280.211 690.006 282.411C692.575 284.611 696.001 274.097 711.324 268.972L703.814 247.837Z" fill="white"/>
<path d="M724.21 269.92L739.85 245.202C739.85 245.202 748.151 249.603 749.495 257.548C750.839 265.493 747.202 291.542 740.614 284.941C735.937 280.329 736.991 276.521 724.21 269.92Z" fill="white"/>
<path d="M700.112 290.83L703.089 282.424" stroke="#22B5B8" stroke-width="0.75" stroke-linecap="round" stroke-linejoin="round"/>
<path d="M709.611 294.796L710.784 285.349" stroke="#22B5B8" stroke-width="0.75" stroke-linecap="round" stroke-linejoin="round"/>
<path d="M718.874 295.613L718.004 285.995" stroke="#22B5B8" stroke-width="0.75" stroke-linecap="round" stroke-linejoin="round"/>
<path d="M729.323 293.387L726.121 284.704" stroke="#22B5B8" stroke-width="0.75" stroke-linecap="round" stroke-linejoin="round"/>
<path d="M737.874 288.064L732.801 281.436" stroke="#22B5B8" stroke-width="0.75" stroke-linecap="round" stroke-linejoin="round"/>
<path d="M742.222 248.549C742.34 251.632 736.055 271.897 718.611 273.583C701.166 275.27 698.61 256.27 698.715 251.276C698.715 249.26 698.939 245.703 699.189 241.249C699.532 235.136 699.993 227.349 700.336 219.628L700.415 217.941C702.338 173.143 740.799 182.09 738.401 205.833C736.938 220.471 742.077 245.479 742.222 248.549Z" fill="#B25E47"/>
<path d="M699.189 241.249C699.532 235.136 699.993 227.349 700.336 219.628L721.641 216.334C722.418 229.918 715.857 241.605 699.189 241.249Z" fill="#7F542D"/>
<path d="M785.412 406.949C785.412 406.686 785.267 406.422 785.202 406.146C779.233 382.152 774.279 357.052 772.197 335.141" stroke="#22B5B8" stroke-width="0.75" stroke-linecap="round" stroke-linejoin="round"/>
<path d="M687.911 376.83C685.987 368.476 691.02 366.025 695.408 364.523C694.999 362.165 695.869 358.344 701.1 357.527C706.054 356.749 707.833 361.625 707.833 361.625C707.833 361.625 718.255 358.093 720.89 368.7L687.911 376.83Z" fill="#DDDDDD"/>
<path d="M662.6 379.162L741.326 360.966L771.182 487.467L691.771 503.45L662.6 379.162Z" fill="#F9F9F9" stroke="#DDDDDD" stroke-linecap="round" stroke-linejoin="round"/>
<path d="M698.451 363.943C698.449 364.645 698.654 365.331 699.042 365.916C699.43 366.501 699.983 366.957 700.63 367.227C701.278 367.497 701.991 367.57 702.679 367.434C703.367 367.299 704 366.962 704.497 366.467C704.994 365.972 705.333 365.341 705.471 364.653C705.609 363.965 705.539 363.252 705.272 362.603C705.004 361.955 704.549 361.4 703.966 361.01C703.383 360.62 702.697 360.412 701.996 360.412C701.058 360.412 700.158 360.784 699.494 361.446C698.83 362.107 698.455 363.006 698.451 363.943V363.943Z" fill="#F9F9F9" stroke="#DDDDDD" stroke-linecap="round" stroke-linejoin="round"/>
<path d="M856.562 432.735C856.587 435.242 856.473 437.75 856.22 440.245V440.614C856.137 441.121 856.022 441.623 855.877 442.116C852.662 452.656 832.318 462.604 813.424 451.668C811.767 450.708 810.182 449.629 808.681 448.44C802.56 443.387 797.573 437.102 794.042 429.994C790.28 422.674 787.384 414.94 785.412 406.949C785.412 406.686 785.267 406.422 785.202 406.146C777.296 374.155 771.077 340.187 771.13 314.481C771.13 283.491 780.26 264.492 806.125 275.375C815.058 279.143 824.426 296.456 832.622 318.934C839.557 338.412 845.152 358.341 849.368 378.582C853.927 399.624 856.562 419.361 856.562 432.735Z" fill="#25CED1"/>
<path d="M856.272 440.284V440.653C856.189 441.16 856.075 441.662 855.93 442.155C852.715 452.696 832.371 462.644 813.477 451.708C811.82 450.747 810.235 449.668 808.734 448.48C814.496 445.505 820.98 444.212 827.443 444.751C862.215 447.887 825.322 409.479 849.46 378.582C853.901 399.663 856.615 419.361 856.654 432.734C856.82 435.257 856.692 437.791 856.272 440.284V440.284Z" fill="#22B5B8"/>
<path d="M832.674 318.987C825.034 314.347 816.811 310.745 808.22 308.275C794.003 304.322 780.287 305.152 771.182 314.534C771.182 283.544 780.313 264.544 806.177 275.428C815.111 279.143 824.479 296.509 832.674 318.987Z" fill="#25CED1"/>
<path d="M701.179 433.301C699.031 431.983 686.316 424.631 682.627 424.394C678.938 424.157 671.072 429.598 671.072 429.598C671.072 429.598 655.459 430.521 653.732 433.301C652.006 436.081 655.511 439.994 658.199 441.391C660.887 442.788 658.357 445.66 658.7 447.979C659.042 450.298 661.941 451.932 662.284 453.526C662.626 455.12 661.124 459.468 664.708 460.535C668.292 461.603 666.026 463.803 667.831 466.926C669.636 470.048 680.664 469.469 708.676 463.922L701.179 433.301Z" fill="#B25E47"/>
<path d="M682.64 424.394C678.938 424.17 671.085 429.598 671.085 429.598C671.085 429.598 655.472 430.521 653.746 433.301C652.02 436.081 655.524 439.994 658.212 441.391C660.9 442.787 658.37 445.66 658.713 447.979C659.056 450.298 661.954 451.932 662.297 453.526C662.639 455.12 661.137 459.468 664.721 460.535C668.305 461.603 666.039 463.803 667.844 466.926C668.569 468.151 670.716 468.81 674.748 468.81" stroke="#7F542D" stroke-width="0.75" stroke-linecap="round" stroke-linejoin="round"/>
<path d="M699.216 430.771L704.842 466.768L716.713 465.015L713.024 429.888L699.216 430.771Z" fill="white"/>
<path d="M856.233 440.653C856.127 441.154 856.022 441.668 855.89 442.155C852.754 454.501 839.526 462.485 803.266 465.015C800.103 465.244 796.972 465.446 793.871 465.621C750.865 468.177 713.67 467.44 713.67 467.44L708.07 428.979C727.57 423.195 759.97 412.233 785.465 406.949C796.006 404.775 805.295 403.55 812.08 404.05C819.81 404.47 827.47 405.729 834.927 407.806C836.912 408.378 838.857 409.078 840.751 409.9C849.473 413.853 855.337 420.072 856.443 430.218C856.536 431.061 856.602 431.904 856.668 432.708C856.839 435.364 856.693 438.031 856.233 440.653Z" fill="#25CED1"/>
<path d="M812.08 404.05C805.295 403.55 795.966 404.775 785.465 406.949C759.97 412.219 727.57 423.195 708.07 428.979L713.67 467.44" stroke="#22B5B8" stroke-width="0.75" stroke-linecap="round" stroke-linejoin="round"/>
<path d="M708.742 433.538L731.562 429.888" stroke="#22B5B8" stroke-width="0.75" stroke-linecap="round" stroke-linejoin="round"/>
<path d="M709.822 440.93L731.997 438.163" stroke="#22B5B8" stroke-width="0.75" stroke-linecap="round" stroke-linejoin="round"/>
<path d="M710.639 446.608L732.537 444.751" stroke="#22B5B8" stroke-width="0.75" stroke-linecap="round" stroke-linejoin="round"/>
<path d="M711.851 454.936L732.985 453.302" stroke="#22B5B8" stroke-width="0.75" stroke-linecap="round" stroke-linejoin="round"/>
<path d="M713.024 461.721L733.75 459.639" stroke="#22B5B8" stroke-width="0.75" stroke-linecap="round" stroke-linejoin="round"/>
<path d="M671.072 429.664C676.724 429.085 681.81 428.847 681.81 428.847" stroke="#7F542D" stroke-width="0.75" stroke-linecap="round" stroke-linejoin="round"/>
<path d="M856.233 440.653C856.15 441.16 856.036 441.662 855.89 442.155C852.754 454.501 839.526 462.485 803.266 465.015C800.103 465.244 796.972 465.446 793.871 465.621C801.935 445.673 819.841 444.066 827.404 444.751C850.686 446.859 841.897 430.349 840.698 409.927C849.421 413.88 855.284 420.099 856.391 430.244C856.483 431.087 856.549 431.93 856.615 432.734C856.801 435.38 856.673 438.038 856.233 440.653V440.653Z" fill="#22B5B8"/>
<path d="M735.884 176.107C735.019 182.498 733.478 188.779 731.286 194.844C727.873 203.724 722.352 211.485 713.353 211.419C712.404 211.407 711.456 211.318 710.52 211.155L686.593 201.339C686.593 201.339 686.698 200.878 686.936 200.022C688.617 194.206 691.077 188.643 694.248 183.486C694.525 183.051 694.828 182.616 695.118 182.168C700.81 173.538 706.502 166.634 706.502 166.634C706.502 166.634 706.831 158.373 713.577 157.161C720.323 155.948 737.755 163.511 735.884 176.107Z" fill="#B25E47"/>
<path d="M751.353 177.807C750.272 180.891 746.596 190.39 744.567 195.621C743.737 197.742 743.17 199.165 743.17 199.165L737.347 197.044L733.17 195.529L731.694 195.002C731.694 195.002 731.694 195.621 731.536 196.702C731.115 200.714 730.344 204.682 729.23 208.56C727.912 213.386 725.758 217.943 722.866 222.026C714.961 232.566 694.433 231.486 684.959 223.343C678.371 217.625 679.689 207.163 685.42 196.28C688.138 191.253 691.403 186.543 695.157 182.234C695.157 182.234 690.533 193.078 689.782 195.41C688.872 198.322 692.285 198.046 693.603 195.568C694.92 193.091 697.463 191.378 704.842 193.355C712.22 195.331 715.224 199.152 713.854 204.489C713.05 207.638 718.9 208.731 723.209 204.581C723.578 204.228 723.921 203.849 724.237 203.448C724.828 202.716 725.337 201.92 725.752 201.076C729.705 193.025 732.01 180.706 732.234 175.857C727.82 176.134 724.013 172.774 726.516 168.597C721.338 170.771 717.491 167.056 718.373 162.102C716.133 165.62 711.1 165.396 710.468 161.232L706.515 166.634C705.753 164.588 705.395 162.413 705.461 160.231C705.751 153.643 711.351 151.245 715.778 152.76C716.463 148.003 727.636 147.055 728.453 153.854C730.851 149.426 738.796 150.336 738.994 157.174C740.026 156.613 741.212 156.397 742.376 156.558C743.54 156.719 744.623 157.248 745.465 158.068C746.307 158.888 746.865 159.956 747.056 161.115C747.248 162.275 747.064 163.465 746.53 164.513C750.154 163.722 752.473 168.466 749.35 171.865C749.389 171.931 752.894 173.472 751.353 177.807Z" fill="#333333"/>
<path d="M712.945 183.275C712.945 183.625 713.048 183.966 713.242 184.256C713.436 184.547 713.712 184.773 714.035 184.906C714.357 185.04 714.712 185.075 715.055 185.007C715.397 184.939 715.712 184.771 715.959 184.524C716.206 184.277 716.374 183.962 716.442 183.62C716.51 183.277 716.475 182.922 716.342 182.6C716.208 182.277 715.982 182.001 715.691 181.807C715.401 181.613 715.06 181.51 714.71 181.51C714.242 181.51 713.793 181.696 713.462 182.027C713.131 182.358 712.945 182.807 712.945 183.275V183.275Z" fill="#333333"/>
<path d="M701.653 179.494C701.651 179.844 701.752 180.187 701.945 180.479C702.138 180.772 702.414 181 702.737 181.135C703.06 181.271 703.416 181.307 703.76 181.239C704.104 181.171 704.419 181.003 704.667 180.755C704.915 180.508 705.083 180.192 705.151 179.848C705.219 179.504 705.183 179.148 705.047 178.825C704.912 178.502 704.684 178.226 704.391 178.033C704.099 177.84 703.756 177.739 703.406 177.741C702.942 177.745 702.498 177.93 702.17 178.258C701.842 178.586 701.657 179.03 701.653 179.494V179.494Z" fill="#333333"/>
<path d="M716.502 173.973C715.593 177.122 724.83 180.232 725.225 178.308C725.515 176.924 717.846 169.309 716.502 173.973Z" fill="#333333"/>
<path d="M703.406 169.796C702.865 171.483 710.626 174.395 711.535 171.562C712.615 168.189 703.88 168.347 703.406 169.796Z" fill="#333333"/>
<path d="M737.347 197.044L731.694 195.002C731.34 199.607 730.514 204.163 729.23 208.6C727.399 208.876 725.277 207.914 723.209 204.647C724.253 203.635 725.114 202.449 725.752 201.142C729.705 193.092 732.01 180.772 732.234 175.923C727.82 176.2 724.013 172.84 726.516 168.663C721.338 170.837 717.491 167.122 718.373 162.168C716.133 165.686 711.1 165.462 710.468 161.298L706.515 166.7C705.753 164.654 705.395 162.479 705.461 160.297C707.595 158.123 710.521 156.621 712.971 157.372C712.971 157.372 719.414 158.926 721.68 155.843C720.429 160.797 725.488 165.514 731.457 163.485C731.457 163.485 733.539 172.484 740.825 172.471C740.825 172.471 740.034 180.522 744.198 181.26C747.347 181.8 740.983 190.878 737.347 197.044Z" fill="#333333"/>
<path d="M731.536 196.701C731.115 200.714 730.344 204.682 729.23 208.56C727.912 213.386 725.758 217.943 722.866 222.025C714.961 232.566 694.433 231.486 684.959 223.343C678.371 217.625 679.689 207.163 685.42 196.28C686.237 215.108 704.13 225.899 723.209 204.646L724.237 203.513C726.475 201.042 728.917 198.764 731.536 196.701V196.701Z" fill="#333333"/>
<path d="M744.567 195.621C743.737 197.742 743.17 199.165 743.17 199.165L737.347 197.044L733.17 195.529C739.626 191.247 742.907 193.091 744.567 195.621Z" fill="#333333"/>
<path d="M729.467 207.716C730.616 203.56 731.362 199.302 731.694 195.002C735.331 191.708 741.708 191.813 744.62 195.476C745.418 196.494 745.924 197.71 746.082 198.994C747.202 206.992 740.522 215.411 729.467 207.716Z" fill="#B25E47"/>
<path d="M737.834 210.747C734.795 210.648 731.865 209.587 729.467 207.717" stroke="#4F4F4F" stroke-width="0.75" stroke-linecap="round" stroke-linejoin="round"/>
<path d="M698.702 187.478C699.281 184.132 701.139 184.132 704.644 183.526C708.149 182.919 710.863 179.797 710.481 176.635" stroke="#4F4F4F" stroke-width="0.75" stroke-linecap="round" stroke-linejoin="round"/>
<path d="M734.092 200.404C734.659 199.775 735.366 199.289 736.156 198.986C736.946 198.683 737.797 198.571 738.639 198.659C739.481 198.748 740.29 199.035 740.999 199.496C741.709 199.957 742.299 200.58 742.722 201.313" stroke="#4F4F4F" stroke-width="0.75" stroke-linecap="round" stroke-linejoin="round"/>
<path d="M735.766 199.218C741.747 198.652 740.838 207.638 735.054 205.977" stroke="#4F4F4F" stroke-width="0.75" stroke-linecap="round" stroke-linejoin="round"/>
<path d="M681.81 219.14C687.45 215.359 694.986 217.269 701.06 222.698C709.137 229.918 722.339 222.698 722.339 222.698" stroke="#4F4F4F" stroke-width="0.75" stroke-linecap="round" stroke-linejoin="round"/>
<path d="M728.321 211.419C725.027 214.054 712.51 221.314 703.498 214.608C694.485 207.901 680.888 216.307 680.888 216.307" stroke="#4F4F4F" stroke-width="0.75" stroke-linecap="round" stroke-linejoin="round"/>
<path d="M681.138 207.44C684.05 204.805 694.657 199.179 701.561 206.689C708.465 214.199 717.464 207.334 717.464 207.334" stroke="#4F4F4F" stroke-width="0.75" stroke-linecap="round" stroke-linejoin="round"/>
<path d="M693.181 196.28C694.854 198.111 706.818 202.314 713.775 199.771" stroke="#4F4F4F" stroke-width="0.75" stroke-linecap="round" stroke-linejoin="round"/>
<path d="M710.441 161.298C709.704 157.516 713.077 153.076 715.804 152.826" stroke="#4F4F4F" stroke-width="0.75" stroke-linecap="round" stroke-linejoin="round"/>
<path d="M718.373 162.194C718.914 159.19 722.497 151.983 727.596 151.653" stroke="#4F4F4F" stroke-width="0.75" stroke-linecap="round" stroke-linejoin="round"/>
<path d="M726.516 168.663C727.834 162.813 731.694 156.515 737.834 153.919" stroke="#4F4F4F" stroke-width="0.75" stroke-linecap="round" stroke-linejoin="round"/>
<path d="M732.234 175.923C733.051 169.533 741.892 164.249 746.57 164.579" stroke="#4F4F4F" stroke-width="0.75" stroke-linecap="round" stroke-linejoin="round"/>
<path d="M730.838 185.331C736.569 180.403 746.504 176.042 751.748 175.686" stroke="#4F4F4F" stroke-width="0.75" stroke-linecap="round" stroke-linejoin="round"/>
<path d="M699.361 197.9C704.539 199.02 710.336 198.414 710.152 198.651C709.967 198.889 709.071 206.557 703.406 205.753C697.74 204.949 699.361 197.9 699.361 197.9Z" fill="white" stroke="#4F4F4F" stroke-width="0.75" stroke-linecap="round" stroke-linejoin="round"/>
<path d="M551.066 222.711C554.623 212.789 559.314 202.723 561.501 204.054C565.204 206.307 557.865 225.596 557.865 225.596L551.066 222.711Z" fill="#B25E47" stroke="#7F542D" stroke-width="0.75" stroke-miterlimit="10"/>
<path d="M546.481 224.977C546.481 224.358 548.668 195.99 552.805 196.636C558.418 197.479 553.951 225.623 553.951 225.623L546.481 224.977Z" fill="#B25E47" stroke="#7F542D" stroke-width="0.75" stroke-miterlimit="10"/>
<path d="M539.708 228.983C539.55 200.562 540.104 193.25 543.556 193.236C548.325 193.236 548.945 225.978 548.945 225.978L539.708 228.983Z" fill="#B25E47" stroke="#7F542D" stroke-width="0.75" stroke-miterlimit="10"/>
<path d="M555.638 227.256C554.808 240.683 554.413 247.811 554.413 247.811C554.413 247.811 542.396 254.399 541.619 238.271C540.841 222.144 555.638 227.256 555.638 227.256Z" fill="#B25E47" stroke="#7F542D" stroke-width="0.75" stroke-miterlimit="10"/>
<path d="M486.939 310.778C471.062 334.324 451.667 367.053 467.333 377.554C482.999 388.055 503.87 383.773 516.347 354.891C528.825 326.01 544.214 275.731 547.298 270.776C550.381 265.822 557.548 259.999 562.173 250.433C566.798 240.867 569.011 240.34 567.444 237.613C565.876 234.885 561.976 235.9 559.92 238.93C557.865 241.961 552.397 247.824 549.314 246.111C546.23 244.398 544.926 240.946 544.873 236.717C544.821 232.487 547.337 227.942 552.173 229.417C557.008 230.893 559.235 237.231 563.333 235.004C567.43 232.777 558.721 224.239 555.638 221.499C552.555 218.758 550.17 220.642 545.097 222.355C540.025 224.068 538.43 224.239 535.874 230.261C533.318 236.282 523.568 255.993 522.026 259.577C520.485 263.161 501.814 288.682 486.939 310.778Z" fill="#B25E47"/>
<path d="M562.173 250.472C566.785 240.893 569.012 240.38 567.444 237.652C565.876 234.925 561.976 235.939 559.92 238.97C557.865 242 552.397 247.864 549.314 246.151C546.23 244.438 544.926 240.986 544.873 236.756C544.821 232.527 547.337 227.981 552.173 229.457C557.008 230.933 559.235 237.27 563.333 235.043C567.43 232.817 558.721 224.279 555.638 221.538C552.555 218.798 550.17 220.682 545.097 222.395C540.025 224.107 538.43 224.279 535.874 230.3" stroke="#7F542D" stroke-width="0.75" stroke-linecap="round" stroke-linejoin="round"/>
<path d="M483.012 316.695C480.285 320.885 477.545 325.259 474.975 329.673" stroke="#7F542D" stroke-width="0.75" stroke-linecap="round" stroke-linejoin="round"/>
<path d="M243.106 333.164C238.758 339.924 247.718 345.023 255.808 350.293C263.898 355.563 266.019 331.583 266.019 331.583C266.019 331.583 245.504 329.436 243.106 333.164Z" fill="#DE660C"/>
<path d="M485.134 303.874C487.874 305.93 483.816 312.768 476.029 320.37L469.639 312.122C469.639 312.122 478.743 301.516 485.134 303.874Z" fill="#DE660C"/>
<path d="M472.221 305.93C490.457 325.232 511.617 350.635 500.378 369.925C489.139 389.214 462.313 378.977 446.08 364.18C446.08 364.18 432.865 338.751 472.221 305.93Z" fill="#B25E47"/>
<path d="M255.649 332.624C248.64 348.185 228.362 382.943 249.852 397.278C271.342 411.614 297.483 361.321 297.483 361.321C297.483 361.321 289.498 331.254 255.649 332.624Z" fill="#B25E47"/>
<path d="M485.134 303.874C470.426 314.766 458.902 329.397 451.759 346.248C449.199 351.993 447.294 358.008 446.08 364.18C441.864 361.123 431.903 353.639 431.903 353.639C431.165 358.29 430.204 363.64 429.268 369.042C426.383 384.55 423.062 400.361 423.062 400.361H324.493L322.833 393.773L309.947 342.703L297.483 361.295C297.232 360.992 296.982 360.702 296.705 360.425C282.212 344.759 243.106 333.138 243.106 333.138C253.731 315.214 266.413 298.592 280.894 283.61C285.134 279.282 289.588 275.17 294.242 271.29C300.757 266.128 307.903 261.816 315.507 258.457C324.153 254.529 333.114 251.334 342.294 248.904C342.294 248.904 342.505 227.928 344.797 203.131C345.812 191.945 368.514 189.758 373.784 208.784C379.055 227.81 383.008 240.037 383.008 240.037C388.676 239.2 394.411 238.896 400.136 239.128C407.396 239.418 415.657 240.748 422.127 244.477C425.605 246.493 432.549 252.514 440.573 259.985C459.744 277.812 485.134 303.874 485.134 303.874Z" fill="#F06B07"/>
<path d="M451.759 346.248C449.199 351.993 447.294 358.008 446.08 364.18C441.864 361.123 431.903 353.639 431.903 353.639C434.853 339.202 436.31 324.499 436.251 309.764C436.216 303.276 434.664 296.887 431.719 291.107C440.863 296.258 448.452 301.871 444.012 314.099C439.809 325.43 440.454 344.35 451.759 346.248Z" fill="#DE660C"/>
<path d="M356.142 397.673L322.833 393.72L309.947 342.703C313.489 336.891 316.573 330.812 319.17 324.521C332.478 340.332 304.44 358.778 348.065 368.396C369.832 373.219 356.142 397.673 356.142 397.673Z" fill="#DE660C"/>
<path d="M440.612 260.012C429.057 261.066 417.831 269.867 410.782 293.386C398.081 335.773 351.649 330.792 335.68 301.463C323.176 278.484 307.773 275.902 280.868 283.636C285.107 279.308 289.562 275.196 294.215 271.317C300.731 266.154 307.877 261.842 315.481 258.483C324.127 254.556 333.087 251.36 342.268 248.931C342.268 248.931 342.478 227.955 344.771 203.158C345.786 191.971 368.488 189.784 373.758 208.81C379.028 227.836 382.981 240.063 382.981 240.063C388.65 239.226 394.384 238.922 400.11 239.154C407.37 239.444 415.631 240.775 422.1 244.504C425.631 246.519 432.575 252.541 440.612 260.012Z" fill="#F06B07"/>
<path d="M400.162 239.154C400.373 253.371 388.054 262.871 373.916 265.098C359.778 267.324 336.325 265.664 315.507 258.51C324.153 254.582 333.114 251.387 342.294 248.957C342.294 248.957 342.505 227.981 344.797 203.184C345.812 191.998 368.514 189.81 373.784 208.836C374.983 213.119 376.116 217.058 377.131 220.589C379.305 228.034 381.005 233.686 382.006 236.927C382.639 238.983 382.994 240.09 382.994 240.09C388.675 239.241 394.423 238.928 400.162 239.154V239.154Z" fill="#B25E47"/>
<path d="M382.032 236.901C369.542 237.902 362.269 230.498 362.361 220.603C362.361 220.603 371.11 220.603 377.157 220.603C379.331 228.073 381.031 233.66 382.032 236.901Z" fill="#7F542D"/>
<path d="M434.156 557.576H299.222C299.222 557.576 293.754 490.563 301.963 454.922C305.281 440.602 309.685 426.555 315.138 412.905C317.516 406.788 320.199 400.794 323.176 394.946L423.075 400.374C424.077 404.406 424.986 408.596 425.829 412.905C437.569 473.593 434.156 557.576 434.156 557.576Z" fill="#25CED1"/>
<mask id="mask0_1_374" style="mask-type:alpha" maskUnits="userSpaceOnUse" x="297" y="394" width="138" height="164">
<path d="M434.156 557.576H299.222C299.222 557.576 293.754 490.563 301.962 454.922C305.281 440.602 309.685 426.555 315.138 412.905C317.516 406.788 320.199 400.794 323.176 394.946L423.075 400.374C424.077 404.406 424.986 408.596 425.829 412.905C437.569 473.593 434.156 557.576 434.156 557.576Z" fill="#A7CAF0"/>
</mask>
<g mask="url(#mask0_1_374)">
<path d="M331.87 474.351C336.545 469.248 336.197 461.322 331.094 456.647C325.991 451.973 318.065 452.32 313.391 457.423C308.716 462.526 309.064 470.452 314.167 475.127C319.27 479.801 327.196 479.454 331.87 474.351Z" stroke="white" stroke-miterlimit="10"/>
<path d="M344.029 559.756C348.923 554.863 348.923 546.929 344.029 542.036C339.136 537.142 331.202 537.142 326.309 542.036C321.415 546.929 321.415 554.863 326.309 559.756C331.202 564.649 339.136 564.649 344.029 559.756Z" stroke="white" stroke-miterlimit="10"/>
<path d="M395.705 477.123C400.598 472.229 400.598 464.296 395.705 459.402C390.812 454.509 382.878 454.509 377.985 459.402C373.091 464.296 373.091 472.229 377.984 477.123C382.878 482.016 390.812 482.016 395.705 477.123Z" stroke="white" stroke-miterlimit="10"/>
<path d="M400.191 566.699C406.928 565.116 411.105 558.371 409.521 551.634C407.938 544.897 401.193 540.72 394.456 542.304C387.719 543.888 383.542 550.633 385.126 557.369C386.71 564.106 393.455 568.283 400.191 566.699Z" stroke="white" stroke-miterlimit="10"/>
<path d="M383.155 431.098C389.888 429.502 394.053 422.749 392.456 416.015C390.859 409.282 384.106 405.117 377.373 406.714C370.639 408.311 366.475 415.064 368.071 421.797C369.668 428.531 376.421 432.695 383.155 431.098Z" stroke="white" stroke-miterlimit="10"/>
<path d="M362.321 516.454C366.542 516.454 369.963 513.032 369.963 508.812C369.963 504.591 366.542 501.17 362.321 501.17C358.101 501.17 354.679 504.591 354.679 508.812C354.679 513.032 358.101 516.454 362.321 516.454Z" stroke="white" stroke-miterlimit="10"/>
<path d="M433.405 497.256C437.626 497.256 441.047 493.835 441.047 489.614C441.047 485.394 437.626 481.972 433.405 481.972C429.185 481.972 425.763 485.394 425.763 489.614C425.763 493.835 429.185 497.256 433.405 497.256Z" stroke="white" stroke-miterlimit="10"/>
<path d="M435.329 435.62C435.329 437.131 434.881 438.609 434.041 439.865C433.201 441.122 432.008 442.101 430.611 442.68C429.215 443.258 427.678 443.41 426.196 443.115C424.714 442.82 423.352 442.092 422.283 441.023C421.214 439.955 420.487 438.593 420.192 437.11C419.897 435.628 420.048 434.091 420.627 432.695C421.205 431.299 422.184 430.105 423.441 429.265C424.698 428.426 426.175 427.978 427.687 427.978C429.714 427.978 431.657 428.783 433.091 430.216C434.524 431.649 435.329 433.593 435.329 435.62V435.62Z" stroke="white" stroke-miterlimit="10"/>
<path d="M308.445 512.817C308.445 514.328 307.997 515.806 307.157 517.063C306.317 518.319 305.124 519.299 303.727 519.877C302.331 520.456 300.795 520.607 299.312 520.312C297.83 520.017 296.468 519.29 295.399 518.221C294.331 517.152 293.603 515.79 293.308 514.308C293.013 512.826 293.164 511.289 293.743 509.893C294.321 508.496 295.301 507.303 296.557 506.463C297.814 505.623 299.292 505.175 300.803 505.175C302.829 505.179 304.771 505.985 306.203 507.417C307.635 508.85 308.442 510.791 308.445 512.817V512.817Z" stroke="white" stroke-miterlimit="10"/>
<path d="M335.166 435.62C339.386 435.62 342.808 432.198 342.808 427.978C342.808 423.757 339.386 420.336 335.166 420.336C330.945 420.336 327.524 423.757 327.524 427.978C327.524 432.198 330.945 435.62 335.166 435.62Z" stroke="white" stroke-miterlimit="10"/>
</g>
<path d="M340.067 249.51C340.067 249.51 356.563 277.997 376.67 290.184C376.67 290.184 387.843 273.846 386.012 239.668" stroke="#683F1D" stroke-miterlimit="10"/>
<path d="M371.215 291.054C371.215 292.198 371.554 293.316 372.19 294.268C372.825 295.219 373.729 295.96 374.786 296.398C375.843 296.836 377.006 296.95 378.128 296.727C379.25 296.504 380.28 295.953 381.089 295.144C381.898 294.335 382.449 293.304 382.672 292.182C382.896 291.06 382.781 289.897 382.343 288.84C381.905 287.784 381.164 286.88 380.213 286.245C379.262 285.609 378.143 285.27 376.999 285.27C375.465 285.27 373.994 285.879 372.909 286.964C371.824 288.049 371.215 289.52 371.215 291.054V291.054Z" fill="white"/>
<path d="M431.903 353.652C434.854 339.211 436.311 324.504 436.251 309.764C436.216 303.276 434.664 296.887 431.719 291.107C429.268 285.836 426.62 281.001 426.066 274.505" stroke="#DE660C" stroke-width="0.75" stroke-linecap="round" stroke-linejoin="round"/>
<path d="M320.857 320.476C320.857 320.476 320.238 322.083 319.184 324.547C316.586 330.838 313.502 336.918 309.96 342.73" stroke="#DE660C" stroke-width="0.75" stroke-linecap="round" stroke-linejoin="round"/>
<path d="M425.711 412.905H315.033C317.411 406.788 320.093 400.794 323.07 394.946L423.075 400.374C424.011 404.406 424.92 408.583 425.711 412.905Z" fill="#22B5B8"/>
<path d="M381.743 412.905V443.038" stroke="#22B5B8" stroke-width="0.75" stroke-linecap="round" stroke-linejoin="round"/>
<path d="M384.062 445.067C387.197 443.341 389.002 442.524 389.332 440.627C389.661 438.729 391.229 417.806 391.229 417.806" stroke="#22B5B8" stroke-width="0.75" stroke-linecap="round" stroke-linejoin="round"/>
<path d="M380.254 557.576C380.254 557.576 381.044 473.553 381.703 469.732C381.699 469.693 381.699 469.653 381.703 469.614C382.375 468.362 383.732 466.504 391.19 462.143" stroke="#22B5B8" stroke-width="0.75" stroke-linecap="round" stroke-linejoin="round"/>
<path d="M216.873 252.91C223.54 250.354 230.8 250.867 240.075 255.295C250.932 260.486 260.34 273.833 255.755 292.187C255.004 295.152 243.462 301.318 241.551 299.961C239.641 298.604 254.767 261.013 216.873 252.91Z" fill="white"/>
<path d="M336.576 203.54C330.673 202.973 326.957 205.398 324.203 210.418C321.45 215.438 317.971 220.444 317.971 220.444C317.971 220.444 325.139 223.37 332.135 215.424C338.644 208.02 336.576 203.54 336.576 203.54Z" fill="#F06B07"/>
<path d="M340.884 205.833C334.217 207.611 331.094 210.299 329.895 218.376C328.696 226.453 329.118 230.155 328.262 233.199C328.262 233.199 336.8 231.222 340.884 223.554C344.771 216.215 343.783 211.511 340.884 205.833Z" fill="#F06B07"/>
<path d="M349.29 162.721C349.29 162.721 342.86 176.687 342.702 188.401C342.603 191.05 342.996 193.695 343.862 196.201L336.734 197.031C330.633 202.894 319.605 200.878 323.558 193.394C316.97 197.505 308.34 191.879 312.622 185.937C307.496 187.149 304.888 178.861 311.489 176.714C305.994 176.121 304.901 166.318 312.345 165.751C311.696 165.077 311.25 164.234 311.059 163.318C310.868 162.401 310.94 161.45 311.267 160.573C311.593 159.696 312.16 158.928 312.904 158.36C313.647 157.791 314.536 157.444 315.468 157.358C316.244 157.335 317.015 157.49 317.723 157.809C318.431 158.129 319.056 158.605 319.552 159.203C316.364 147.714 329.843 144.051 333.98 150.085C334.705 145.223 343.822 144.723 345.179 150.994C352.057 147.2 356.537 156.423 349.29 162.721Z" fill="#683F1D"/>
<path d="M343.915 196.201L336.786 197.031C330.686 202.894 319.658 200.878 323.611 193.394C317.023 197.505 308.392 191.879 312.675 185.937C307.549 187.149 304.94 178.861 311.541 176.714C306.047 176.121 304.953 166.318 312.398 165.751C311.749 165.077 311.303 164.234 311.112 163.318C310.921 162.401 310.993 161.45 311.319 160.573C311.646 159.696 312.213 158.929 312.957 158.36C313.7 157.791 314.589 157.444 315.521 157.358C315.046 161.417 316.838 167.161 320.791 167.557C315.389 169.546 315.428 175.95 320.791 178.203C317.431 181.931 322.464 187.175 326.667 184.224C326.509 188.335 332.689 195.028 342.676 188.335C342.594 191.011 343.014 193.679 343.915 196.201V196.201Z" fill="#683F1D"/>
<path d="M383.297 227.217C364.153 229.852 347.446 208.296 347.446 208.296C338.71 211.353 331.938 204.568 334.665 197.756C335.158 196.49 335.993 195.386 337.076 194.567V194.567C337.953 193.911 338.966 193.46 340.041 193.25C340.866 193.094 341.71 193.062 342.544 193.157C344.145 193.34 345.673 193.926 346.986 194.859C348.3 195.792 349.355 197.042 350.055 198.494C350.661 199.548 354.732 199.363 352.914 194.725C351.319 190.693 349.58 190.996 349.58 190.996C352.215 190.166 350.12 184.264 346.945 185.107C349.58 183.974 350.502 178.98 347.551 177.201C350.726 177.03 354.205 175.765 352.914 170.93C353.498 171.636 354.274 172.157 355.149 172.43C356.024 172.703 356.959 172.716 357.841 172.468C358.723 172.219 359.514 171.72 360.117 171.031C360.721 170.341 361.111 169.491 361.241 168.584C361.827 169.156 362.567 169.546 363.37 169.706C364.173 169.866 365.005 169.789 365.766 169.485C366.526 169.18 367.182 168.662 367.653 167.992C368.125 167.323 368.392 166.53 368.422 165.712C368.817 167.491 370.899 168.018 372.546 167.03C376.262 171.088 379.572 175.501 382.428 180.205L382.533 180.377C384.141 182.88 385.656 185.41 387.026 187.926C397.422 206.992 400.149 224.885 383.297 227.217Z" fill="#B25E47"/>
<path d="M360.161 191.247C359.462 193.605 355.18 194.409 350.608 193.052C346.036 191.695 342.874 188.677 343.572 186.319C344.27 183.96 348.553 183.17 353.125 184.527C357.697 185.884 360.859 188.901 360.161 191.247Z" fill="#7F542D"/>
<path d="M387.105 188.019C385.221 189.336 383.363 189.758 382.151 188.914C380.32 187.676 380.583 184.066 382.612 180.469C384.22 182.972 385.735 185.502 387.105 188.019Z" fill="#7F542D"/>
<path d="M342.557 193.236C341.723 193.141 340.879 193.172 340.054 193.328C338.979 193.539 337.966 193.99 337.089 194.646V194.646C331.002 176.753 347.05 167.649 347.05 167.649C340.937 176.542 341.885 188.546 342.557 193.236Z" fill="white"/>
<path d="M373.85 180.021C373.848 180.37 373.948 180.711 374.14 181.003C374.331 181.294 374.604 181.522 374.925 181.659C375.246 181.795 375.6 181.833 375.942 181.769C376.285 181.704 376.601 181.54 376.85 181.296C377.099 181.052 377.271 180.74 377.343 180.399C377.415 180.058 377.385 179.703 377.256 179.38C377.126 179.056 376.904 178.777 376.617 178.58C376.33 178.382 375.991 178.274 375.642 178.269C375.409 178.263 375.177 178.305 374.959 178.39C374.742 178.476 374.544 178.604 374.377 178.768C374.21 178.931 374.078 179.126 373.987 179.341C373.897 179.556 373.85 179.787 373.85 180.021Z" fill="#683F1D"/>
<path d="M362.361 183.749C362.361 184.099 362.464 184.44 362.658 184.73C362.852 185.021 363.128 185.247 363.451 185.381C363.773 185.514 364.128 185.549 364.471 185.481C364.813 185.413 365.128 185.245 365.375 184.998C365.622 184.751 365.79 184.436 365.858 184.094C365.926 183.751 365.891 183.396 365.757 183.074C365.624 182.751 365.398 182.475 365.107 182.281C364.817 182.087 364.476 181.984 364.126 181.984C363.894 181.984 363.665 182.03 363.451 182.118C363.236 182.207 363.042 182.337 362.878 182.501C362.714 182.665 362.584 182.86 362.495 183.074C362.406 183.288 362.361 183.518 362.361 183.749V183.749Z" fill="#683F1D"/>
<path d="M374.114 165.356C373.789 166.06 373.273 166.658 372.625 167.082C370.978 168.123 368.896 167.596 368.501 165.765C368.471 166.583 368.204 167.375 367.733 168.045C367.261 168.715 366.605 169.233 365.845 169.537C365.084 169.841 364.252 169.918 363.449 169.758C362.646 169.599 361.906 169.209 361.32 168.637C361.19 169.544 360.8 170.394 360.196 171.083C359.593 171.773 358.802 172.272 357.92 172.52C357.038 172.769 356.103 172.755 355.228 172.482C354.353 172.209 353.577 171.688 352.993 170.982C354.31 175.818 350.806 177.083 347.63 177.254C350.582 179.006 349.593 184 347.024 185.159C350.134 184.316 352.294 190.219 349.659 191.049C349.659 191.049 351.398 190.746 352.993 194.778C354.811 199.416 350.74 199.6 350.134 198.546C349.262 196.7 347.814 195.188 346.008 194.237C344.201 193.286 342.135 192.949 340.12 193.276C339.251 189.643 339.077 185.879 339.606 182.182C340.429 176.619 343.064 171.482 347.103 167.57C344.257 163.064 349.62 157.174 354.1 160.573C353.52 156.476 360.582 153.88 363.257 158.781C364.798 154.381 371.347 157.068 370.609 160.323C372.743 159.163 375.642 162.194 374.114 165.356Z" fill="#683F1D"/>
<path d="M367.565 178.269C371.9 187.558 378.475 182.472 380.135 189.481" stroke="#7F542D" stroke-width="0.75" stroke-linecap="round" stroke-linejoin="round"/>
<path d="M363.902 193.816C371.413 195.937 376.657 194.554 377.895 193.816C377.895 193.816 378.633 200.483 371.913 199.943C370.102 199.9 368.35 199.284 366.91 198.184C365.471 197.083 364.418 195.553 363.902 193.816V193.816Z" fill="white" stroke="#7F542D" stroke-width="0.75" stroke-linecap="round" stroke-linejoin="round"/>
<path d="M338.605 201.445C339.54 196.715 346.919 196.767 348.289 203.54" stroke="#7F542D" stroke-width="0.75" stroke-linecap="round" stroke-linejoin="round"/>
<path d="M344.547 205.832C340.423 204.765 342.373 198.52 346.879 200.312" stroke="#7F542D" stroke-width="0.75" stroke-linecap="round" stroke-linejoin="round"/>
<path d="M356.195 179.56C355.865 181.76 364.1 177.004 362.4 174.289C360.701 171.575 356.498 177.425 356.195 179.56Z" fill="#683F1D"/>
<path d="M377.157 171.483C378.87 172.906 369.555 174.895 369.054 171.773C368.553 168.65 375.497 170.099 377.157 171.483Z" fill="#683F1D"/>
<path d="M296.824 362.639C290.118 361.306 283.344 360.338 276.533 359.74" stroke="#7F542D" stroke-width="0.75" stroke-linecap="round" stroke-linejoin="round"/>
<path d="M276.533 359.74C252.342 357.605 234.555 377.817 245.346 393.312C258.996 412.905 346.379 407.898 355.351 407.674C361.043 407.542 360.622 411.732 369.331 412.549C374.601 413.063 382.665 413.089 384.365 412.233C385.642 411.375 386.673 410.199 387.356 408.82C387.356 408.82 392.336 410.81 394.326 405.118C394.326 405.118 399.398 406.264 400.228 399.136C400.228 399.136 403.298 402.957 406.131 401.56C409.372 399.966 409.834 397.607 407.554 394.59C405.275 391.573 395.893 380.914 392.771 379.794C389.648 378.674 366.195 382.824 362.19 381.928C342.07 377.435 314.532 363.087 276.533 359.74Z" fill="#B25E47"/>
<path d="M378.897 412.892C380.742 412.959 382.588 412.737 384.365 412.233C385.642 411.375 386.673 410.199 387.355 408.82C387.355 408.82 392.336 410.81 394.325 405.118C394.325 405.118 399.398 406.264 400.228 399.136C400.228 399.136 403.298 402.957 406.131 401.56C409.372 399.966 409.834 397.608 407.554 394.59C405.275 391.573 395.893 380.914 392.771 379.794" stroke="#7F542D" stroke-width="0.75" stroke-linecap="round" stroke-linejoin="round"/>
<path d="M400.874 399.847L393.733 392.021" stroke="#7F542D" stroke-width="0.75" stroke-linecap="round" stroke-linejoin="round"/>
<path d="M394.326 405.118L386.842 400.375" stroke="#7F542D" stroke-width="0.75" stroke-linecap="round" stroke-linejoin="round"/>
<path d="M387.356 408.82L382.243 407.252" stroke="#7F542D" stroke-width="0.75" stroke-linecap="round" stroke-linejoin="round"/>
<path d="M254.542 129.781L249.166 130.335L242.816 131.02L247.124 126.514L251.103 122.363L254.542 129.781Z" fill="white"/>
<path d="M233.527 290.184C250.207 300.725 265.399 289.078 269.589 267.865C275.769 236.545 281.078 157.424 281.078 157.424C281.078 157.424 289.551 139.083 292.252 132.456C294.953 125.828 294.518 119.939 290.591 118.239C290.591 118.239 286.639 105.986 280.551 105.603C279.381 104.979 278.16 104.454 276.902 104.036C273.858 103.416 268.258 106.223 266.783 107.777C265.307 109.332 270.208 110.966 273.002 110.505C275.795 110.044 277.837 117.093 276.585 120.071C275.334 123.048 269.998 129.03 268.1 127.475C266.203 125.921 265.61 120.545 266.387 116.342C267.165 112.139 266.625 110.031 263.818 111.664C261.012 113.298 255.57 126.922 256.189 129.412C256.808 131.903 260.392 142.18 260.629 143.906C260.867 145.632 233.487 235.742 228.085 251.381C222.683 267.021 221.734 282.74 233.527 290.184Z" fill="#B25E47"/>
<path d="M290.591 118.239C290.911 120.338 291.096 122.455 291.145 124.577" stroke="#333333" stroke-width="0.75" stroke-linecap="round" stroke-linejoin="round"/>
<path d="M283.411 114.761C284.2 117.658 284.642 120.639 284.728 123.641" stroke="#333333" stroke-width="0.75" stroke-linecap="round" stroke-linejoin="round"/>
<path d="M251.103 122.363L260.05 117.277C257.994 121.494 256.097 126.856 256.097 128.938L254.503 129.781C253.791 129.519 253.139 129.118 252.583 128.603C252.027 128.088 251.578 127.468 251.262 126.778C250.946 126.089 250.77 125.344 250.742 124.587C250.715 123.829 250.838 123.073 251.103 122.363V122.363Z" fill="#333333"/>
<path d="M249.166 130.335L242.816 131.02L247.124 126.514L249.166 130.335Z" fill="#333333"/>
<path d="M256.189 129.426C255.57 126.935 261.025 113.298 263.818 111.678C265.887 110.466 266.73 111.282 266.717 113.496C266.693 114.453 266.583 115.405 266.387 116.342C266.127 117.812 266.012 119.303 266.045 120.795C266.045 120.993 266.045 121.191 266.045 121.375V121.942C266.045 122.218 266.045 122.495 266.137 122.759L266.256 123.549C266.38 125.031 267.007 126.426 268.034 127.502C269.984 129.07 275.281 123.141 276.52 120.123C276.779 119.438 276.909 118.709 276.902 117.976" stroke="#333333" stroke-width="0.75" stroke-linecap="round" stroke-linejoin="round"/>
<path d="M271.816 110.584C269.023 110.584 265.491 109.135 266.769 107.777C268.258 106.223 273.858 103.416 276.902 104.036C278.16 104.451 279.38 104.971 280.551 105.59" stroke="#333333" stroke-width="0.75" stroke-linecap="round" stroke-linejoin="round"/>
<path d="M287.904 112.126C288.948 114.079 289.829 116.115 290.539 118.213C293.095 119.32 294.175 122.166 293.859 125.921" stroke="#333333" stroke-width="0.75" stroke-linecap="round" stroke-linejoin="round"/>
<path d="M293.569 109.174L287.904 112.152L276.968 117.936L266.282 123.549C265.89 121.161 265.912 118.723 266.348 116.342C266.543 115.405 266.654 114.453 266.677 113.496L271.776 110.584L280.551 105.59L289.155 100.715L293.569 109.174Z" fill="#333333"/>
<path d="M287.561 100.715C287.073 102.942 288.655 109.451 292.752 110.755L295.387 109.122L290.315 99.2266L287.561 100.715Z" fill="white"/>
<path d="M294.926 102.902C296.455 105.696 296.784 108.436 295.677 109.042C294.571 109.649 292.436 107.883 290.921 105.09C289.406 102.296 289.063 99.5558 290.17 98.9497C291.277 98.3436 293.398 100.109 294.926 102.902Z" fill="#333333"/>
<path d="M256.189 129.426C255.57 126.935 261.025 113.298 263.818 111.678C265.887 110.466 266.73 111.282 266.717 113.496C266.693 114.453 266.583 115.405 266.387 116.342C266.127 117.812 266.012 119.303 266.045 120.795C266.045 120.993 266.045 121.191 266.045 121.375V121.942C266.045 122.218 266.045 122.495 266.137 122.759L266.256 123.549C266.38 125.031 267.007 126.426 268.034 127.502C269.984 129.07 275.281 123.141 276.52 120.123C276.779 119.438 276.909 118.709 276.902 117.976" stroke="#333333" stroke-width="0.75" stroke-linecap="round" stroke-linejoin="round"/>
<path d="M107.407 265.796C103.547 282.925 76.839 277.444 75.337 268.669C73.8349 259.893 76.2593 257.719 78.3147 241.645C80.0012 228.469 102.374 228.219 106.34 237.06C106.979 238.487 107.127 240.085 106.761 241.605C105.928 246.093 105.906 250.694 106.696 255.19C107.262 259.406 108.026 262.99 107.407 265.796Z" fill="#B25E47"/>
<path d="M106.761 241.605C105.928 246.093 105.906 250.694 106.696 255.19C95.2852 251.896 93.2957 239.089 93.2957 239.089L106.34 237.06C106.979 238.487 107.127 240.085 106.761 241.605Z" fill="#914839"/>
<path d="M38.8661 387.041L64.559 396.896C64.559 396.896 60.9884 426.595 60.7117 426.16C60.435 425.725 17.4684 421.245 17.4684 421.245L38.8661 387.041Z" fill="#B25E47"/>
<path d="M1.4465 404.327C5.03034 417.279 14.0163 421.996 22.6202 421.706C31.224 421.416 43.135 416.897 47.5621 403.313C50.9483 392.917 43.6093 380.453 43.6093 380.453L1.4465 404.327Z" fill="white"/>
<path d="M50.3554 557.576C50.3554 557.576 53.6494 539.604 46.6794 509.866C43.6995 498.252 42.3689 486.276 42.7266 474.291C42.7266 474.291 42.7266 474.291 42.7266 474.291C43.5303 455.951 49.2091 435.462 63.1887 407.595L152.785 403.919C156.79 416.383 160.427 427.838 163.694 438.282C173.616 469.904 180.375 492.698 185.105 508.114C191.403 528.616 202.049 557.589 202.049 557.589L50.3554 557.576Z" fill="#F06B07"/>
<path d="M163.747 438.295C154.3 465.753 140.861 478.191 106.103 465.398C74.8495 453.908 63.3864 445.634 42.7794 474.305C43.5831 455.964 49.2619 435.475 63.2415 407.608L152.838 403.932C156.843 416.397 160.48 427.851 163.747 438.295Z" fill="#F06B07"/>
<path d="M155.407 357.579C150.466 376.75 155.038 397.568 157.041 402.127C159.043 406.686 157.409 409.808 154.498 410.349C151.586 410.889 65.7448 413.458 61.8975 412.905C58.0501 412.351 56.7984 409.44 56.7984 406.159C56.7984 402.878 50.0392 379.807 46.7452 370.584C46.7452 370.584 46.3895 396.33 39.2613 403.998C32.1331 411.666 15.5447 414.776 5.12258 409.123C3.17906 407.893 1.79718 405.948 1.27523 403.708C-2.67754 391.402 3.43607 363.298 7.67871 343.204C9.36522 335.141 11.8028 325.061 14.9123 314.995C21.1708 294.717 30.1699 274.453 41.264 270.829C66.0084 262.752 84.0198 265.901 97.143 264.676C101.228 264.281 105.18 263.806 109.001 263.359H109.146C129.951 260.723 145.881 258.312 153.786 271.686C155.009 273.807 155.974 276.067 156.658 278.419C161.547 294.546 159.518 305.179 158.45 320.068C158.45 320.66 158.384 321.253 158.345 321.859C159.363 333.847 158.37 345.92 155.407 357.579V357.579Z" fill="#25CED1"/>
<path d="M46.7453 370.531C46.7453 370.531 46.3895 396.277 39.2614 403.945C32.1332 411.614 15.5448 414.723 5.12264 409.071C3.17911 407.841 1.79724 405.896 1.27528 403.655C34.8343 413.63 46.0074 377.923 37.061 371.335C28.3517 364.918 28.4835 347.711 33.8065 338.764C37.3509 349.028 44.0179 362.099 46.7453 370.531Z" fill="#25CED1"/>
<path d="M153.773 271.554C144.273 278.801 136.315 288.077 133.113 300.106C130.952 308.196 127.448 314.507 122.717 318.987C109.897 331.188 88.0517 329.897 59.7894 313.993C40.2232 303.005 26.8497 305.337 14.9123 314.903C21.1709 294.625 30.17 274.36 41.2641 270.737C66.0084 262.66 84.0199 265.809 97.143 264.584C101.228 264.189 105.18 263.714 109.001 263.266H109.146C129.938 260.684 145.867 258.233 153.773 271.554Z" fill="#25CED1"/>
<path d="M31.5403 329.62C31.9287 332.752 32.6895 335.826 33.8065 338.777C37.3508 349.028 44.0178 362.099 46.7452 370.531" stroke="#22B5B8" stroke-width="0.75" stroke-linecap="round" stroke-linejoin="round"/>
<path d="M248.547 294.875C243.106 298.499 212.34 307.089 188.109 314.046C178.407 316.874 168.48 318.862 158.437 319.988C149.576 321.015 140.636 321.178 131.743 320.476C128.682 320.221 125.647 319.723 122.665 318.987C84.8631 309.843 90.8845 266.534 108.935 263.24H109.08C134.835 258.702 160.81 255.513 186.897 253.687C198.202 252.989 209.744 252.673 220.878 252.963C264.174 254.135 253.989 291.318 248.547 294.875Z" fill="#25CED1"/>
<path d="M248.547 294.875C243.106 298.498 212.34 307.089 188.109 314.046C178.407 316.874 168.48 318.862 158.437 319.988C149.576 321.015 140.636 321.178 131.743 320.476" stroke="#22B5B8" stroke-width="0.75" stroke-linecap="round" stroke-linejoin="round"/>
<path d="M186.95 253.727C177.002 257.851 164.419 263.464 153.773 271.606C144.273 278.853 136.315 288.129 133.113 300.159C130.952 308.249 127.448 314.56 122.717 319.04C84.9158 309.896 90.9372 266.586 108.988 263.293H109.133C134.888 258.75 160.862 255.557 186.95 253.727V253.727Z" fill="#25CED1"/>
<path d="M216.872 252.91C223.539 250.354 230.799 250.868 240.075 255.295C250.932 260.486 260.34 273.833 255.754 292.187C255.003 295.152 243.461 301.318 241.551 299.961C239.64 298.604 254.766 261.013 216.872 252.91Z" fill="white"/>
<path d="M81.8195 243.146C104.706 248.562 116.261 246.23 119.213 234.174C122.164 222.118 109.871 203.79 109.871 203.79L110.846 197.202C108.116 195.944 105.451 194.55 102.861 193.025C101.623 192.037 97.591 181.826 93.8754 180.838C90.1598 179.85 64.1111 193.263 71.8585 215.398C79.6059 237.534 81.8195 243.146 81.8195 243.146Z" fill="#B25E47"/>
<path d="M109.831 203.79L110.806 197.202C108.077 195.944 105.412 194.55 102.822 193.026" stroke="#333333" stroke-width="0.75" stroke-linecap="round" stroke-linejoin="round"/>
<path d="M91.1085 289.447C80.3438 292.082 77.6823 281.185 77.6823 281.185C68.9994 290.185 58.7353 287.602 56.3637 282.846C56.3637 282.846 47.5227 286.495 40.4472 281.185C30.7234 273.899 37.061 263.055 37.061 263.055C26.8629 260.42 28.7338 250.235 34.5839 245.927L35.4535 245.321C41.5408 241.368 52.4768 238.733 48.4581 230.827C44.2682 222.408 40.8293 210.813 51.6467 204.331C51.6467 204.331 52.2001 191.827 59.9739 187.729C67.7476 183.631 68.2615 182.011 68.4328 179.692C69.0257 171.154 77.0894 163.09 86.2334 169.375C86.5233 169.573 86.8263 169.783 87.1162 170.007C96.9059 169.032 99.4884 178.242 97.8414 182.683C101.346 194.172 92.9926 202.789 95.3643 206.808C98.0785 211.393 96.0099 216.874 96.0099 216.874C91.9649 210.457 86.9845 208.428 83.5587 213.923C80.7786 218.402 83.0448 224.266 92.044 229.852C101.676 235.834 97.1167 243.516 95.0086 249.3C93.7785 252.686 93.3653 256.315 93.8026 259.892C94.2399 263.468 95.5153 266.89 97.5252 269.881C102.176 276.508 101.873 286.864 91.1085 289.447Z" fill="#333333"/>
<path d="M91.1085 289.447C80.3438 292.082 77.6823 281.186 77.6823 281.186C68.9993 290.185 58.7353 287.602 56.3637 282.846C56.3637 282.846 47.5226 286.495 40.4472 281.186C30.7234 273.899 37.061 263.055 37.061 263.055C26.8628 260.42 28.7338 250.235 34.5839 245.927L35.4535 245.321C39.5512 256.823 47.0088 263.042 54.6113 261.25C64.7172 258.905 70.4223 253.345 79.8826 259.169C89.3429 264.992 92.1757 237.824 78.3147 233.726C64.4537 229.628 61.7921 206.32 73.7822 203.421C82.755 201.313 90.8186 183.17 86.2334 169.256C86.5233 169.454 86.8263 169.665 87.1162 169.889C96.9059 168.914 99.4884 178.124 97.8414 182.564C101.346 194.053 92.9926 202.67 95.3643 206.689C98.0785 211.274 96.0099 216.755 96.0099 216.755C91.9649 210.339 86.9844 208.31 83.5587 213.804C80.7786 218.284 83.0448 224.147 92.044 229.734C101.676 235.716 97.1167 243.397 95.0085 249.181C93.7784 252.568 93.3652 256.197 93.8025 259.773C94.2399 263.349 95.5153 266.772 97.5251 269.762C102.176 276.508 101.873 286.864 91.1085 289.447Z" fill="#333333"/>
<path d="M99.8572 199.442C99.8572 199.789 99.96 200.128 100.153 200.416C100.345 200.704 100.619 200.929 100.939 201.061C101.259 201.194 101.612 201.229 101.951 201.161C102.291 201.093 102.604 200.927 102.849 200.682C103.094 200.436 103.261 200.124 103.328 199.784C103.396 199.444 103.361 199.092 103.229 198.772C103.096 198.452 102.871 198.178 102.583 197.985C102.295 197.793 101.956 197.69 101.61 197.69C101.379 197.688 101.15 197.732 100.937 197.82C100.724 197.907 100.53 198.036 100.367 198.199C100.204 198.362 100.074 198.556 99.987 198.77C99.8996 198.983 99.8555 199.212 99.8572 199.442Z" fill="#333333"/>
<path d="M37.0215 263.069C42.0151 253.174 46.5608 253.464 50.8034 250.196C55.0461 246.928 56.9039 240.13 56.0738 237.02" stroke="#333333" stroke-width="0.75" stroke-linecap="round" stroke-linejoin="round"/>
<path d="M56.3636 282.846C55.0156 280.657 54.4153 278.09 54.6529 275.53C54.8905 272.971 55.9533 270.558 57.6812 268.655" stroke="#333333" stroke-width="0.75" stroke-linecap="round" stroke-linejoin="round"/>
<path d="M77.6822 281.185C77.0378 279.512 76.7529 277.721 76.846 275.93C76.939 274.139 77.408 272.387 78.2224 270.79" stroke="#333333" stroke-width="0.75" stroke-linecap="round" stroke-linejoin="round"/>
<path d="M69.5263 188.335C75.3764 187.017 75.943 182.841 77.6954 179.402C79.4478 175.963 82.162 170.64 87.1161 169.915" stroke="#333333" stroke-width="0.75" stroke-linecap="round" stroke-linejoin="round"/>
<path d="M97.8413 182.59C96.0626 178.638 90.4233 173.907 85.1925 178.638" stroke="#333333" stroke-width="0.75" stroke-linecap="round" stroke-linejoin="round"/>
<path d="M87.6828 221.248C87.5642 216.294 92.4525 215.135 96.2471 218.916" stroke="#333333" stroke-width="0.75" stroke-linecap="round" stroke-linejoin="round"/>
<path d="M94.2575 223.396C90.4365 223.396 90.3047 217.665 95.1666 217.994" stroke="#333333" stroke-width="0.75" stroke-linecap="round" stroke-linejoin="round"/>
<path d="M106.103 211.195C106.807 212.089 107.751 212.762 108.824 213.138C109.898 213.514 111.056 213.576 112.164 213.317" stroke="#333333" stroke-width="0.75" stroke-linecap="round" stroke-linejoin="round"/>
<path d="M87.0898 226.031C89.9885 228.363 95.2193 228.034 95.2193 228.034" stroke="#333333" stroke-width="0.75" stroke-linecap="round" stroke-linejoin="round"/>
<path d="M98.3421 230.827C100.394 230.827 102.058 229.164 102.058 227.112C102.058 225.06 100.394 223.396 98.3421 223.396C96.29 223.396 94.6265 225.06 94.6265 227.112C94.6265 229.164 96.29 230.827 98.3421 230.827Z" fill="white"/>
<path d="M95.5224 197.769C97.3407 198.955 101.715 190.549 98.2894 188.243C94.8636 185.937 93.0717 196.175 95.5224 197.769Z" fill="#333333"/>
<path d="M833.386 550.896H16.2568C9.06003 550.896 3.22588 556.73 3.22588 563.926V565.969C3.22588 573.166 9.06003 579 16.2568 579H833.386C840.583 579 846.417 573.166 846.417 565.969V563.926C846.417 556.73 840.583 550.896 833.386 550.896Z" fill="#DDDDDD"/>
<path d="M28.497 579C50.1055 568.67 82.1624 566.39 106.591 579" stroke="#DDDDDD" stroke-width="0.75" stroke-linecap="round" stroke-linejoin="round"/>
<path d="M21.0395 550.883C42.3449 562.741 56.509 561.779 82.7949 561.423C102.374 561.173 125.946 571.147 141.638 578.987" stroke="#DDDDDD" stroke-width="0.75" stroke-linecap="round" stroke-linejoin="round"/>
<path d="M122.164 550.883C137.62 568.262 148.345 570.436 153.536 565.956C159.044 561.199 164.709 559.908 170.56 564.928C177.332 570.752 186.753 558.959 192.049 550.883" stroke="#DDDDDD" stroke-width="0.75" stroke-linecap="round" stroke-linejoin="round"/>
<path d="M182.431 579C188.676 573.242 199.81 566.127 217.149 564.941C237.704 563.624 263.818 573.084 277.758 579" stroke="#DDDDDD" stroke-width="0.75" stroke-linecap="round" stroke-linejoin="round"/>
<path d="M250.774 550.883C274.886 563.531 301.238 570.936 322.53 564.928C343.309 559.091 392.929 566.364 410.98 550.883" stroke="#DDDDDD" stroke-width="0.75" stroke-linecap="round" stroke-linejoin="round"/>
<path d="M342.228 579C357.67 570.212 381.756 564.836 400.492 579" stroke="#DDDDDD" stroke-width="0.75" stroke-linecap="round" stroke-linejoin="round"/>
<path d="M427.028 579C455.738 556.68 513.053 552.648 560.921 564.823C617.578 579.25 642.981 562.596 653.271 550.896" stroke="#DDDDDD" stroke-width="0.75" stroke-linecap="round" stroke-linejoin="round"/>
<path d="M478.651 579C499.443 569.658 527.402 567.734 556.929 579" stroke="#DDDDDD" stroke-width="0.75" stroke-linecap="round" stroke-linejoin="round"/>
<path d="M659.886 579C694.696 562.794 722.55 564.678 748.375 579" stroke="#DDDDDD" stroke-width="0.75" stroke-linecap="round" stroke-linejoin="round"/>
<path d="M708.992 550.883C766.347 570.146 813.806 585.061 845.073 558.92" stroke="#DDDDDD" stroke-width="0.75" stroke-linecap="round" stroke-linejoin="round"/>
<path d="M754.739 550.883C783.844 568.011 817.838 566.694 838.761 552.424" stroke="#DDDDDD" stroke-width="0.75" stroke-linecap="round" stroke-linejoin="round"/>
</svg>
