<svg width="1136" height="674" viewBox="0 0 1136 674" fill="none" xmlns="http://www.w3.org/2000/svg">
<path d="M1 616.219H1176.52" stroke="#DDDDDD" stroke-width="2" stroke-linecap="round" stroke-linejoin="round"/>
<path d="M1150.67 673.048H26.8533" stroke="#DDDDDD" stroke-linecap="round" stroke-linejoin="round"/>
<path d="M394.477 20.1963H381.708V392.027H394.477V20.1963Z" fill="#DDDDDD" stroke="#DDDDDD" stroke-linecap="round" stroke-linejoin="round"/>
<path d="M929.615 20.1963H916.846V392.027H929.615V20.1963Z" fill="#DDDDDD" stroke="#DDDDDD" stroke-linecap="round" stroke-linejoin="round"/>
<path d="M942.383 392.027H368.94V405.337H942.383V392.027Z" fill="#DDDDDD" stroke="#DDDDDD" stroke-linecap="round" stroke-linejoin="round"/>
<path d="M937.531 4.57324H371.523V29.9007H937.531V4.57324Z" fill="#F9F9F9" stroke="#DDDDDD" stroke-linecap="round" stroke-linejoin="round"/>
<path d="M935.578 16.8613V17.2369C935.578 25.2888 937.306 31.8986 939.529 32.7548C935.924 33.4759 930.516 33.521 928.473 29.7504C925.048 23.396 925.619 6.76638 928.473 3.19109C930.411 0.757486 936.179 0.577225 939.785 1.55367L939.559 1.62877C939.486 1.64961 939.415 1.6799 939.349 1.7189C937.276 2.90566 935.578 9.23002 935.578 16.8613Z" fill="#F9F9F9" stroke="#DDDDDD" stroke-linecap="round" stroke-linejoin="round"/>
<path d="M944.442 17.2369C944.442 25.8597 942.459 32.845 940.01 32.845C937.561 32.845 935.503 25.8597 935.503 17.2369C935.503 8.61413 937.486 1.61377 940.01 1.61377C942.534 1.61377 944.442 8.61413 944.442 17.2369Z" fill="#DDDDDD" stroke="#DDDDDD" stroke-miterlimit="10"/>
<path d="M388.754 29.1045C389.205 29.7354 386.966 31.1024 383.782 32.1089C378.854 33.6111 371.659 34.4373 368.639 30.4865C363.667 23.9819 364.493 6.94666 368.639 3.29625C371.523 0.742473 380.281 0.607273 385.479 1.79403C387.762 2.25972 389.355 2.98079 389.475 3.83705C389.715 5.33928 385.089 7.02177 384.968 17.3571C384.873 21.5872 386.207 25.726 388.754 29.1045V29.1045Z" fill="#DDDDDD" stroke="#DDDDDD" stroke-miterlimit="10"/>
<path d="M388.754 29.1044C389.205 29.7353 386.966 31.1023 383.782 32.1088C383.072 31.6844 382.446 31.1347 381.934 30.4864C376.977 23.9818 377.773 6.94657 381.934 3.29617C382.984 2.52951 384.198 2.01545 385.479 1.79395C387.762 2.25963 389.355 2.9807 389.475 3.83697C389.715 5.33919 385.089 7.02168 384.968 17.357C384.873 21.5871 386.207 25.7259 388.754 29.1044V29.1044Z" fill="#F9F9F9" stroke="#DDDDDD" stroke-linecap="round" stroke-linejoin="round"/>
<path d="M921.818 619.373C921.818 619.373 931.101 645.632 926.324 646.699C923.876 647.239 905.383 647.795 887.912 647.66C871.268 647.555 855.539 646.819 855.479 644.851C855.269 638.842 860.151 635.837 870.141 631.947L873.266 630.775C876.503 629.553 879.54 627.857 882.279 625.743C886.563 622.46 890.2 618.411 893.005 613.8L883.556 472.906C883.631 428.275 930.786 431.505 930.786 472.906C930.035 499.706 921.818 619.373 921.818 619.373Z" fill="#B25E47"/>
<path d="M926.324 646.698C923.876 647.239 905.383 647.795 887.912 647.66C871.268 647.555 855.539 646.819 855.479 644.851C855.269 638.842 860.151 635.837 870.141 631.947C875.227 632.434 880.348 632.434 885.434 631.947C898.41 630.85 910.912 626.55 921.818 619.433C921.818 619.433 931.101 645.632 926.324 646.698Z" fill="#22B5B8"/>
<path d="M1069.25 583.425C1069.25 583.425 1089.66 602.368 1085.92 605.538C1082.18 608.707 1024.33 640.314 1022.32 636.799C1019.31 631.526 1022.32 626.599 1029.32 618.562L1031.54 616.068C1040.82 605.808 1041.18 591.837 1041.18 591.837L967.395 471.449C947.866 435.125 986.413 408.912 1009.22 449.517C1020.96 473.552 1069.25 583.425 1069.25 583.425Z" fill="#B25E47"/>
<path d="M1086 605.463C1082.27 608.617 1024.4 640.239 1022.39 636.724C1019.39 631.451 1022.39 626.524 1029.39 618.487C1041.89 613.395 1059.44 601.722 1069.32 583.35C1069.25 583.425 1089.66 602.293 1086 605.463Z" fill="#22B5B8"/>
<path d="M945.403 265.749C951.937 259.019 995.261 265.194 998.491 266.516C1001.72 267.838 1022.18 308.788 1022.75 312.769C1023.32 316.75 1018.25 320.731 1017.45 320.731C1016.65 320.731 1018.77 341.762 1016.13 343.865C1013.48 345.968 1000.76 352.202 998.296 351.451C995.832 350.7 961.521 348.222 958.292 340.65C955.062 333.079 939.529 271.818 945.403 265.749Z" fill="#DDDDDD" stroke="#DDDDDD" stroke-width="0.75" stroke-linecap="round" stroke-linejoin="round"/>
<path d="M985.422 276.565C989.388 271.443 997.74 275.814 1002.47 285.038C1006.6 293.09 1013.27 312.964 1013.27 312.964" stroke="#DDDDDD" stroke-linecap="round" stroke-linejoin="round"/>
<path d="M1019.81 456.622C949.503 490.287 881.813 478.69 881.813 478.69L877.562 389.367L875.834 353.029L914.892 311.162L985.377 323.961L998.236 373.534L1019.81 456.622Z" fill="#4F4F4F"/>
<path d="M998.281 373.564C982.507 392.672 957.946 404.405 937.936 391.501C910.896 374.015 894.913 371.746 877.562 389.367L875.834 353.029L914.892 311.162L985.377 323.961L998.281 373.564Z" fill="#4F4F4F"/>
<path d="M952.057 157.033C952.083 160.845 951.578 164.643 950.555 168.315C946.995 180.844 937.636 189.797 926.655 189.797C918.723 189.797 911.632 185.11 906.961 177.779C904.464 173.806 902.756 169.389 901.928 164.77C901.441 162.22 901.199 159.629 901.207 157.033C901.207 140.839 910.34 127.394 922.328 124.766C923.747 124.439 925.199 124.278 926.655 124.285C938.011 124.285 947.686 133.854 950.901 147.059C951.661 150.09 952.059 153.202 952.087 156.327C952.057 156.553 952.057 156.793 952.057 157.033Z" fill="#25CED1"/>
<path d="M995.727 334.146C995.727 334.146 963.82 352.758 925.122 359.684L914.697 331.757L912.924 362.117C912.924 362.117 876.586 363.89 867.858 362.117C867.858 362.117 867.707 356.334 867.452 348.312C866.971 332.463 866.1 307.887 865.214 301.848C864.868 299.49 864.282 296.185 863.531 292.414C863.501 292.181 863.456 291.95 863.396 291.723C861.248 281.102 857.688 267.207 853.692 260.627C852.031 257.811 850.566 254.885 849.305 251.869C847.803 248.594 846.451 244.914 845.144 241.083C842.426 233.396 840.415 225.476 839.135 217.423C832.841 224.934 827.223 232.07 822.145 238.619C811.93 251.794 803.848 262.655 796.607 269.265C785.746 279.24 765.496 277.692 759.668 262.505C755.386 251.343 784.71 203.918 805.155 175.376C812.501 165.101 818.675 157.259 821.784 154.435C833.397 143.784 861.714 137.264 874.813 139.082C875.714 139.578 896.986 123.85 919.144 124.285C920.235 124.317 921.32 124.478 922.373 124.766C926.88 125.968 930.951 129.468 934.662 134.32C937.709 138.446 940.331 142.87 942.488 147.525C945.656 154.265 948.366 161.211 950.6 168.315C951.501 171.08 952.328 173.844 953.079 176.503C955.708 185.681 957.48 193.853 958.367 198.75C961.461 215.801 965.457 241.293 976.754 272.54C988.051 303.786 995.727 334.146 995.727 334.146Z" fill="#25CED1"/>
<path d="M863.396 291.663C861.248 281.042 857.688 267.161 853.692 260.567C852.031 257.751 850.566 254.825 849.305 251.809C853.026 251.098 856.432 249.244 859.049 246.505C861.667 243.767 863.365 240.28 863.907 236.531C865.499 227.022 874.107 206.036 889.054 209.882C935.232 221.734 891.488 283.476 863.396 291.663Z" fill="#25CED1"/>
<path d="M950.795 147.059H949.443C947.065 147.016 944.687 147.182 942.338 147.555C925.258 150.183 913.12 163.358 906.915 177.824C906.224 179.462 905.593 181.114 905.038 182.767C903.396 187.513 900.756 191.852 897.297 195.493C893.838 199.133 889.639 201.991 884.983 203.873C871.268 209.717 854.668 207.628 846.346 195.866C837.663 183.593 823.572 174.204 805.065 175.421C812.411 165.146 818.585 157.304 821.694 154.48C833.307 143.829 861.623 137.309 874.723 139.127C875.624 139.623 896.896 123.895 919.053 124.33C920.145 124.362 921.23 124.523 922.283 124.811C923.702 124.485 925.154 124.323 926.61 124.33C937.966 124.285 947.596 133.854 950.795 147.059Z" fill="#25CED1"/>
<path d="M839.06 217.363C832.766 224.874 827.147 232.01 822.07 238.559C817.398 220.698 835.304 220.427 828.079 209.416C825.074 204.834 822.881 192.576 833.877 192.892C835.124 198.165 837.663 208.935 839.06 217.363Z" fill="#25CED1"/>
<path d="M833.141 189.842C833.141 189.842 833.442 191.014 833.907 192.967C835.154 198.195 837.663 208.966 839.06 217.393" stroke="#22B5B8" stroke-width="0.75" stroke-linecap="round" stroke-linejoin="round"/>
<path d="M841.479 141.29C839.36 151.1 847.487 166.828 854.999 167.82C862.51 168.811 867.602 148.967 867.602 148.967C867.602 148.967 880.071 162.892 889.084 160.248C898.097 157.604 894.808 128.401 892.389 128.131C884.487 127.245 883.105 131.526 869.856 134.275C857.342 136.859 842.635 135.852 841.479 141.29Z" fill="white"/>
<path d="M869.12 165.055C869.12 165.608 869.283 166.148 869.59 166.608C869.897 167.067 870.334 167.425 870.844 167.637C871.355 167.848 871.917 167.904 872.459 167.796C873.001 167.688 873.499 167.422 873.889 167.031C874.28 166.64 874.546 166.142 874.654 165.6C874.762 165.058 874.707 164.497 874.495 163.986C874.284 163.476 873.925 163.039 873.466 162.732C873.007 162.425 872.466 162.261 871.914 162.261C871.173 162.261 870.462 162.556 869.938 163.08C869.414 163.604 869.12 164.314 869.12 165.055Z" fill="white"/>
<path d="M866.175 166.453C869.795 194.469 882.7 261.634 889.475 276.491C896.25 291.347 904.782 296.125 907.952 301.518C913.826 311.537 907.261 315.038 911.918 323.961" stroke="#22B5B8" stroke-width="0.75" stroke-linecap="round" stroke-linejoin="round"/>
<path d="M970.324 352.413C973.809 357.4 982.342 361.291 985.271 362.493" stroke="#333333" stroke-width="0.75" stroke-linecap="round" stroke-linejoin="round"/>
<path d="M981.11 349.078C987.119 364.581 1007.77 454.654 1007.77 454.654" stroke="#333333" stroke-width="0.75" stroke-linecap="round" stroke-linejoin="round"/>
<path d="M888.739 133.734C888.648 135.657 884.487 143.183 872.049 150.258C859.611 157.334 851.994 147.855 851.408 143.709C851.205 142.084 851.18 140.442 851.333 138.812C851.589 135.326 852.325 129.798 853.451 118.066C853.85 113.543 854.976 109.115 856.786 104.951C862.525 92.0173 873.551 87.6007 877.352 103.284C882.249 123.459 888.829 131.796 888.739 133.734Z" fill="#B25E47"/>
<path d="M851.333 138.767C851.589 135.282 852.325 129.753 853.451 118.021C853.85 113.499 854.976 109.07 856.786 104.907C861.804 103.93 866.851 105.823 869.029 115.422C873.266 134.26 860.136 140.75 851.333 138.767Z" fill="#914839"/>
<path d="M828.109 147.404C828.109 143.003 839.751 142.432 840.127 143.874C840.502 145.316 841.899 167.549 872.77 199.351C903.641 231.153 940.37 255.88 955.212 263.331C970.054 270.782 991.055 278.518 991.971 279.434C992.888 280.351 986.218 285.594 981.05 284.993C963.129 282.875 919.579 258.403 885.133 229.41C849.365 199.366 828.079 156.928 828.109 147.404Z" fill="#F9F9F9" stroke="#DDDDDD" stroke-linecap="round" stroke-linejoin="round"/>
<path d="M951.652 186.598C950.946 190.173 950.014 194.289 948.858 198.796C942.158 225.055 928.472 264.097 913.525 280.426C912.969 281.042 912.384 281.628 911.828 282.154C910.77 283.205 909.63 284.17 908.418 285.038C898.578 292.009 885.794 291.783 877.156 285.128C869.856 279.54 865.514 269.355 868.398 255.084C868.881 252.697 869.519 250.343 870.306 248.039C874.663 235.195 879.41 219.496 884.983 203.858C886.02 200.854 887.101 197.984 888.198 195.085C888.694 193.793 889.189 192.516 889.7 191.239C890.091 190.248 890.466 189.241 890.887 188.235C890.93 188.107 890.98 187.982 891.037 187.859C891.382 186.988 891.743 186.117 892.119 185.261C892.855 183.458 893.621 181.685 894.402 179.928C894.732 179.192 895.063 178.425 895.408 177.689C895.919 176.563 896.445 175.436 896.911 174.339C897.301 173.498 897.707 172.687 898.127 171.861C905.954 156.012 915.238 142.913 926.595 136.769C937.951 130.625 945.342 136.453 949.443 147.029C953.544 157.605 954.311 173.183 951.652 186.598Z" fill="#25CED1"/>
<path d="M948.858 198.856C942.158 225.115 928.472 264.158 913.525 280.487C912.969 281.103 912.384 281.688 911.828 282.214C910.77 283.265 909.63 284.23 908.418 285.099C898.578 292.069 885.794 291.843 877.156 285.189C880.612 282.725 885.314 281.358 891.428 280.487C900.328 279.463 908.552 275.233 914.562 268.589C921.487 260.582 924.026 249.511 920.571 237.748C914.907 218.235 933.52 189.332 948.858 198.856Z" fill="#25CED1"/>
<path d="M949.504 147.044C947.125 147.009 944.748 147.175 942.398 147.54C925.258 150.214 913.12 163.388 906.916 177.825C906.224 179.462 905.594 181.114 905.038 182.767C903.393 187.511 900.753 191.849 897.294 195.49C893.835 199.13 889.638 201.988 884.983 203.873C895.183 175.196 908.192 146.789 926.655 136.799C937.831 130.745 945.403 136.468 949.504 147.044Z" fill="#25CED1"/>
<path d="M898.488 171.23C898.383 171.455 898.278 171.666 898.188 171.876C897.767 172.702 897.361 173.513 896.971 174.355C896.445 175.451 895.919 176.578 895.469 177.705C895.123 178.456 894.793 179.207 894.462 179.943C893.681 181.7 892.96 183.473 892.179 185.276C891.803 186.132 891.443 187.003 891.097 187.875C891.041 187.997 890.99 188.122 890.947 188.25C890.526 189.242 890.151 190.248 889.76 191.255C889.249 192.532 888.754 193.808 888.258 195.1C887.161 198 886.08 200.944 885.043 203.873C879.47 219.496 874.723 235.21 870.366 248.054C869.579 250.358 868.942 252.712 868.459 255.099V255.099C865.574 269.355 869.961 279.54 877.217 285.144C885.854 291.798 898.638 292.024 908.478 285.053C909.69 284.185 910.83 283.22 911.888 282.169C912.444 281.643 913.03 281.058 913.585 280.442C928.533 264.112 942.218 225.07 948.918 198.811C950.074 194.304 951.006 190.188 951.712 186.613" stroke="#22B5B8" stroke-width="0.75" stroke-linecap="round" stroke-linejoin="round"/>
<path d="M841.328 113.334C834.448 115.542 834.073 126.659 835.079 132.502C836.086 138.346 838.85 138.421 837.227 141.05C835.605 143.679 834.343 147.915 835.545 150.334C836.747 152.752 836.026 153.098 834.839 154.164C833.652 155.231 827.748 164.049 835.545 167.684C835.545 167.684 835.951 173.693 840.863 172.326C845.775 170.959 841.869 159.272 841.328 157.995C840.788 156.718 840.592 154.164 841.869 153.023C843.146 151.881 846.106 146.638 845.159 143.273C844.213 139.908 844.633 139.908 846.346 138.151C848.058 136.393 854.308 109.173 841.328 113.334Z" fill="#333333"/>
<path d="M834.674 126.749C837.678 133.99 843.341 138.767 843.687 150.199" stroke="#333333" stroke-width="0.75" stroke-linecap="round" stroke-linejoin="round"/>
<path d="M835.214 146.353C838.309 150.86 839.15 152.753 837.618 160.865C836.837 165.071 843.086 168.886 843.086 168.886" stroke="#333333" stroke-width="0.75" stroke-linecap="round" stroke-linejoin="round"/>
<path d="M856.997 68.4177C855.472 69.544 854.194 70.9703 853.241 72.6089C846.842 82.0279 837.618 103.239 837.618 103.239C835.463 99.5848 833.878 95.6236 832.916 91.4919C831.541 85.9268 832.069 80.0614 834.418 74.8322C837.964 67.1408 846.286 62.2886 856.321 60.9517C856.291 60.9517 862.48 65.4433 856.997 68.4177Z" fill="#4F4F4F"/>
<path d="M853.241 72.6687C846.842 82.0877 837.618 103.299 837.618 103.299C835.463 99.6446 833.878 95.6834 832.916 91.5517C835.92 76.2891 843.627 66.1941 853.241 72.6687Z" fill="#333333"/>
<path d="M851.739 71.9781C845.099 68.3577 840.442 72.6691 837.227 78.5878" stroke="#333333" stroke-width="0.75" stroke-linecap="round" stroke-linejoin="round"/>
<path d="M877.187 106.995C866.476 128.957 848.644 130.925 841.133 122.768C833.622 114.611 837.318 88.2168 842.756 77.9116C848.194 67.6063 858.529 61.5975 869.27 67.8467C880.011 74.096 882.61 95.8482 877.187 106.995Z" fill="#B25E47"/>
<path d="M900.336 168.811C896.73 167.609 895.469 163.253 895.469 163.253C891.638 162.352 891.803 158.386 892.464 155.321C893.125 152.257 894.793 149.102 892.464 148.411C887.822 147.029 887.852 141.426 887.537 137.4C887.221 133.374 888.033 134.395 881.693 127.215C875.354 120.034 877.517 106.259 877.517 106.259L871.658 107.761C871.163 110.315 871.899 112.042 872.89 119.613C873.882 127.185 869.165 128.311 869.165 128.311C869.165 128.311 871.568 120.515 867.062 113.845C862.555 107.175 868.038 97.3204 869.029 90.8908C870.021 84.4613 865.664 81.2766 859.07 77.3708C852.475 73.465 850.327 66.8553 851.919 59.945C852.22 58.938 852.896 58.0844 853.806 57.5592C854.717 57.0341 855.794 56.8773 856.816 57.1209V57.1209C857.983 57.4489 859.028 58.1123 859.821 59.0287C863.336 62.7842 868.053 57.5264 878.058 65.999C888.063 74.4715 896.971 89.5238 898.458 102.052C899.337 108.72 899.057 115.489 897.632 122.062C897.331 123.564 897.046 124.691 896.881 125.727C896.22 129.828 896.971 131.256 899.51 136.724C902.048 142.192 898.248 144.746 898.308 146.759C898.368 148.772 900.711 149.763 903.701 155.772C906.69 161.781 903.941 169.968 900.336 168.811Z" fill="#4F4F4F"/>
<path d="M900.336 168.811C896.73 167.609 895.469 163.253 895.469 163.253C891.638 162.352 891.803 158.386 892.464 155.321C893.125 152.257 894.793 149.102 892.464 148.411C887.822 147.029 887.852 141.426 887.537 137.4C887.221 133.374 888.033 134.395 881.693 127.215C875.354 120.034 877.517 106.259 877.517 106.259L871.658 107.761C871.163 110.315 871.899 112.042 872.89 119.613C873.882 127.185 869.165 128.311 869.165 128.311C869.165 128.311 871.568 120.515 867.062 113.845C862.555 107.175 868.038 97.3204 869.029 90.8908C870.021 84.4613 865.664 81.2766 859.07 77.3708C852.475 73.465 850.327 66.8553 851.919 59.945C852.22 58.938 852.896 58.0844 853.806 57.5592C854.717 57.0341 855.794 56.8773 856.816 57.1209C856.101 60.8482 856.617 64.7072 858.286 68.1159C859.955 71.5246 862.687 74.2983 866.07 76.0188C875.279 80.856 886.245 87.4808 884.713 102.683C883.496 114.701 889.445 128.401 897.707 122.107C897.406 123.609 897.121 124.736 896.956 125.772C896.295 129.874 897.046 131.301 899.585 136.769C902.123 142.237 898.323 144.791 898.383 146.804C898.443 148.817 900.786 149.808 903.776 155.817C906.765 161.826 903.941 169.968 900.336 168.811Z" fill="#333333"/>
<path d="M862.164 69.1836C864.643 74.3813 868.894 82.8989 869.06 87.4957" stroke="#333333" stroke-width="0.75" stroke-linecap="round" stroke-linejoin="round"/>
<path d="M873.221 75.7485C884.487 77.0855 895.228 96.7797 891.698 110.074C888.168 123.369 897.707 121.972 897.707 121.972" stroke="#333333" stroke-width="0.75" stroke-linecap="round" stroke-linejoin="round"/>
<path d="M859.896 58.8936C860.842 66.2995 869.991 67.291 869.991 67.291" stroke="#333333" stroke-width="0.75" stroke-linecap="round" stroke-linejoin="round"/>
<path d="M881.693 127.185C887.327 130.264 893.486 127.635 893.846 136.679C894.041 141.546 896.46 145.692 899.66 143.529" stroke="#333333" stroke-width="0.75" stroke-linecap="round" stroke-linejoin="round"/>
<path d="M888.739 144.521C890.252 144.71 891.71 145.207 893.025 145.98C894.339 146.753 895.482 147.787 896.382 149.018C897.282 150.249 897.921 151.651 898.26 153.138C898.599 154.625 898.631 156.165 898.353 157.665C898.118 159.812 897.089 161.795 895.469 163.223" stroke="#333333" stroke-width="0.75" stroke-linecap="round" stroke-linejoin="round"/>
<path d="M851.423 89.749C851.42 90.0705 851.513 90.3856 851.69 90.6544C851.866 90.9232 852.118 91.1334 852.414 91.2586C852.711 91.3837 853.037 91.4179 853.353 91.357C853.669 91.2962 853.959 91.1428 854.188 90.9165C854.416 90.6902 854.572 90.4012 854.636 90.0861C854.7 89.771 854.668 89.444 854.546 89.1466C854.424 88.8493 854.216 88.595 853.949 88.4161C853.682 88.2371 853.367 88.1416 853.046 88.1416C852.618 88.1416 852.208 88.3104 851.904 88.6115C851.6 88.9125 851.427 89.3213 851.423 89.749V89.749Z" fill="#333333"/>
<path d="M842.14 89.1932C842.14 89.5141 842.235 89.8278 842.413 90.0946C842.591 90.3614 842.845 90.5693 843.141 90.6921C843.438 90.8149 843.764 90.847 844.079 90.7844C844.393 90.7218 844.682 90.5673 844.909 90.3404C845.136 90.1135 845.291 89.8244 845.353 89.5097C845.416 89.195 845.384 88.8688 845.261 88.5723C845.138 88.2759 844.93 88.0225 844.663 87.8442C844.397 87.666 844.083 87.5708 843.762 87.5708C843.549 87.5708 843.338 87.6128 843.141 87.6943C842.944 87.7758 842.766 87.8953 842.615 88.046C842.464 88.1967 842.345 88.3755 842.263 88.5723C842.182 88.7692 842.14 88.9801 842.14 89.1932Z" fill="#333333"/>
<path d="M871.508 109.759C875.714 111.261 885.719 107.806 885.494 97.9363C885.269 88.0667 875.789 89.629 872.289 95.9083C869.675 100.715 871.508 109.759 871.508 109.759Z" fill="#B25E47"/>
<path d="M871.508 109.759C873.738 110.314 876.091 110.091 878.178 109.128" stroke="#914839" stroke-width="0.75" stroke-linecap="round" stroke-linejoin="round"/>
<path d="M873.221 101.902C874.422 97.2001 878.193 93.8501 881.468 95.2321" stroke="#914839" stroke-width="0.75" stroke-linecap="round" stroke-linejoin="round"/>
<path d="M876.781 102.548C882.399 100.64 877.953 94.6164 874.723 98.402" stroke="#914839" stroke-width="0.75" stroke-linecap="round" stroke-linejoin="round"/>
<path d="M846.346 104.591C850.297 106.168 853.031 103.524 854.833 99.7539" stroke="#914839" stroke-width="0.75" stroke-linecap="round" stroke-linejoin="round"/>
<path d="M842.921 101.211C842.23 98.537 842.365 95.4724 844.138 94.1355C845.91 92.7985 850.147 90.3048 849.14 86.2188" stroke="#914839" stroke-width="0.75" stroke-linecap="round" stroke-linejoin="round"/>
<path d="M851.318 82.0877C850.492 84.2509 858.829 87.8262 859.761 85.678C860.452 84.1157 852.911 77.9115 851.318 82.0877Z" fill="#4F4F4F"/>
<path d="M840.082 84.7919C840.082 86.2942 847.593 84.2662 847.593 81.6673C847.578 78.1521 840.157 82.8841 840.082 84.7919Z" fill="#4F4F4F"/>
<path d="M794.219 318.162C789.306 318.433 786.032 310.771 785.671 307.962C785.31 305.153 800.573 301.007 800.573 301.007C800.573 301.007 799.657 316.975 794.219 318.162Z" fill="#22B5B8"/>
<path d="M792.626 286.255C779.422 287.321 774.119 287.667 766.893 286.615C759.668 285.564 756.994 287.397 756.122 289.485C756.122 289.485 744.916 287.397 742.392 290.191C739.868 292.985 742.046 297.311 743.894 297.702C745.742 298.092 746.598 299.099 745.802 301.442C745.458 302.391 745.35 303.41 745.489 304.41C745.628 305.41 746.009 306.361 746.598 307.181C747.635 308.833 743.984 310.561 745.201 313.355C746.418 316.149 747.455 317.696 746.703 320.385C745.952 323.074 752.442 323.51 766.232 320.911C780.023 318.312 797.569 313.565 797.569 313.565C797.569 313.565 810.278 292.925 792.626 286.255Z" fill="#B25E47"/>
<path d="M766.893 286.616C759.683 285.579 756.994 287.397 756.122 289.485C756.122 289.485 744.916 287.397 742.392 290.191C739.868 292.985 742.046 297.311 743.894 297.702C745.742 298.092 746.598 299.099 745.802 301.442C745.458 302.392 745.35 303.41 745.489 304.41C745.628 305.41 746.009 306.361 746.598 307.181C747.635 308.833 743.984 310.561 745.201 313.355C746.418 316.149 747.455 317.696 746.703 320.385C746.223 322.233 749.107 323.014 755.416 322.489" stroke="#914839" stroke-width="0.75" stroke-linecap="round" stroke-linejoin="round"/>
<path d="M756.122 289.485C756.122 289.485 763.017 290.101 765.346 290.191" stroke="#914839" stroke-width="0.75" stroke-linecap="round" stroke-linejoin="round"/>
<path d="M911.828 282.154C911.687 282.393 911.531 282.624 911.362 282.845C908.329 286.869 904.399 290.13 899.885 292.369C893.35 295.869 882.279 299.415 869.69 302.719C837.032 311.267 794.204 318.147 794.204 318.147C794.204 318.147 799.191 308.578 787.504 286.165L788.435 285.699L788.856 285.489C792.732 283.551 804.584 277.798 819.486 271.593L821.394 270.797C822.896 270.196 824.308 269.595 825.795 269.01L827.523 268.319C830.152 267.282 832.841 266.245 835.56 265.224L837.588 264.488C841.058 263.211 844.573 261.994 848.104 260.837L850.011 260.222C853.196 259.185 856.381 258.224 859.535 257.352L861.413 256.827L865.169 255.94C866.265 255.67 867.332 255.399 868.414 255.174L868.864 255.084C870.772 254.648 872.665 254.258 874.498 253.927L876 253.657L877.742 253.371C887.507 251.869 896.1 251.869 902.244 254.258C905.304 255.476 908.023 257.42 910.166 259.922C912.309 262.423 913.812 265.408 914.547 268.619C915.017 270.942 915.018 273.336 914.552 275.661C914.085 277.985 913.159 280.192 911.828 282.154Z" fill="#25CED1"/>
<path d="M911.828 282.154C911.687 282.393 911.531 282.624 911.362 282.845C908.329 286.869 904.399 290.13 899.885 292.369C893.35 295.869 882.279 299.415 869.69 302.719C870.036 293.871 872.394 288.493 877.202 285.128C880.657 282.665 885.359 281.298 891.473 280.426C900.373 279.402 908.597 275.173 914.607 268.529C915.081 270.87 915.079 273.283 914.602 275.624C914.124 277.964 913.181 280.185 911.828 282.154V282.154Z" fill="#25CED1"/>
<path d="M869.675 302.719C882.264 299.414 893.335 295.869 899.87 292.369C904.108 289.727 907.969 286.524 911.347 282.845C912.233 281.913 912.969 281.087 913.51 280.426" stroke="#22B5B8" stroke-width="0.75" stroke-linecap="round" stroke-linejoin="round"/>
<path d="M853.286 259.185C861.289 256.643 869.461 254.67 877.742 253.281" stroke="#22B5B8" stroke-width="0.75" stroke-linecap="round" stroke-linejoin="round"/>
<path d="M800.002 286.255C802.661 291.903 806.657 303.981 806.432 307.962" stroke="#22B5B8" stroke-width="0.75" stroke-linecap="round" stroke-linejoin="round"/>
<path d="M649.734 282.424C646.73 339.689 641.562 518.529 639.579 587.661C639.098 604.921 638.813 615.347 638.813 615.347C638.813 615.347 614.868 621.581 595.925 615.347L595.789 588.382L595.324 492.961L594.768 383.464L594.573 340.155L594.257 275.995C596.36 237.403 649.734 234.548 649.734 282.424Z" fill="#22B5B8"/>
<path d="M595.324 492.961L594.768 383.464L594.573 340.155C598.073 339.253 602.354 340.049 607.552 342.964C622.469 351.271 621.973 391.11 611.653 405.321C601.963 418.736 627.952 466.146 595.324 492.961Z" fill="#22B5B8"/>
<path d="M599.455 611.591L597.953 646.834H670.059C670.059 646.834 671.351 640.043 660.685 635.522C650.02 631 627.216 611.907 626.735 611.591C626.254 611.276 599.455 611.591 599.455 611.591Z" fill="#683F1D"/>
<path d="M639.579 587.661C639.098 604.922 638.813 615.347 638.813 615.347C638.813 615.347 614.868 621.581 595.925 615.347L595.789 588.382C610.327 590.537 625.12 590.294 639.579 587.661V587.661Z" fill="#25CED1"/>
<path d="M609.58 328.783C609.58 330.841 609.46 332.884 609.4 334.927C609.4 335.152 609.4 335.377 609.4 335.603C609.4 336.189 609.4 336.744 609.4 337.33C609.4 338.637 609.279 339.914 609.234 341.206C609.114 344.06 608.964 346.899 608.799 349.754C608.799 350.79 608.678 351.827 608.618 352.848C608.528 354.185 608.453 355.537 608.363 356.874C608.243 358.722 608.108 360.54 607.972 362.402C607.882 363.469 607.807 364.551 607.717 365.632C607.537 367.9 607.356 370.139 607.146 372.422C606.996 374.015 606.846 375.622 606.711 377.244C606.605 378.311 606.485 379.362 606.38 380.429C606.245 381.766 606.11 383.118 605.959 384.485C605.869 385.401 605.779 386.318 605.674 387.234C605.584 387.91 605.524 388.601 605.449 389.292L605.043 392.747C604.893 394.039 604.728 395.346 604.562 396.668C604.442 397.66 604.322 398.681 604.187 399.673C604.052 400.664 603.931 401.685 603.796 402.677C603.556 404.54 603.316 406.418 603.045 408.325C602.384 413.253 601.648 418.315 600.852 423.543C600.611 425.045 600.371 426.667 600.116 428.26C593.431 470.863 566.616 553.891 551.654 598.988C547.538 611.396 544.308 620.92 542.641 626.028C542.641 626.028 512.776 626.598 497.965 614.641C497.965 614.641 501.45 602.758 506.302 585.768C517.148 547.792 534.919 484.323 536.106 471.599C536.677 465.245 537.608 443.267 538.495 417.143C540.252 367.315 542.1 302.464 542.1 302.464C542.4 280.035 554.884 266.966 569.14 262.79C586.821 257.577 607.191 266.065 610.106 287.246C610.076 301.998 609.985 315.578 609.58 328.783Z" fill="#22B5B8"/>
<path d="M609.399 334.927C608.216 366.217 605.085 397.404 600.026 428.305" stroke="white" stroke-width="0.75" stroke-linecap="round" stroke-linejoin="round"/>
<path d="M565.535 332.328C551.849 336.834 545.465 349.197 553.366 365.857C560.036 379.873 556.897 402.767 538.419 417.083C540.177 367.254 542.025 302.403 542.025 302.403C542.325 279.975 554.809 266.906 569.065 262.729C576.02 266.094 581.999 274.357 584.207 289.289C586.851 307.421 581.248 327.22 565.535 332.328Z" fill="#22B5B8"/>
<path d="M607.582 330.075C611.593 327.355 613.185 326.98 613.591 325.568C613.996 324.156 614.342 306.79 614.342 306.79" stroke="white" stroke-width="0.75" stroke-linecap="round" stroke-linejoin="round"/>
<path d="M617.121 332.343C612.419 333.244 609.415 334.446 609.369 335.603" stroke="white" stroke-width="0.75" stroke-linecap="round" stroke-linejoin="round"/>
<path d="M604.833 311.853C605.043 318.072 604.833 325.373 604.833 325.373" stroke="white" stroke-width="0.75" stroke-linecap="round" stroke-linejoin="round"/>
<path d="M548.064 301.983C547.478 313.505 548.064 329.999 548.064 329.999C548.064 329.999 561.028 321.091 558.669 301.983" stroke="white" stroke-width="0.75" stroke-linecap="round" stroke-linejoin="round"/>
<path d="M506.978 609.037L493.984 641.831L562.079 665.611C562.079 665.611 565.535 659.602 556.957 651.835C548.379 644.069 533.177 618.516 532.786 618.05C532.395 617.585 506.978 609.037 506.978 609.037Z" fill="#683F1D"/>
<path d="M551.564 599.033C547.448 611.441 544.218 620.965 542.55 626.073C542.55 626.073 512.686 626.643 497.874 614.686C497.874 614.686 501.359 602.803 506.212 585.813C518.785 591.807 538.6 596.809 551.564 599.033Z" fill="#25CED1"/>
<path d="M702.522 230.643L701.02 229.501C686.584 217.904 641.202 179.552 641.202 179.552C641.637 183.113 643.275 196.933 645.258 213.788C649.253 247.513 654.661 293.406 654.661 293.406C625.984 300.031 604.172 303.396 587.767 304.853C552.15 308.067 541.95 302.449 541.95 302.449C541.95 302.449 538.164 288.133 533.162 268.484C532.606 266.261 532.005 263.977 531.419 261.604C527.408 245.785 522.841 227.428 518.86 210.528C515.12 194.665 511.905 180.123 510.148 170.223C509.343 166.376 508.875 162.465 508.75 158.536C509.21 152.893 511.831 147.646 516.066 143.889C519.905 140.324 524.345 137.465 529.181 135.447C514.459 125.758 524.854 97.3806 550.708 103.224C554.899 104.171 559.375 103.87 565.91 102.744C569.966 102.023 574.833 101.001 580.932 99.7391L585.439 98.8077C590.697 97.7261 595.068 96.945 598.689 96.4342C616.069 93.9856 616.415 97.4858 615.904 102.278C615.904 102.278 635.869 96.4793 648.713 110.916C652.859 115.573 656.87 120.259 660.851 125.037C677.856 145.467 694.23 167.339 718.461 194.71C748.445 228.435 715.051 240.618 702.522 230.643Z" fill="#F06B07"/>
<path d="M621.598 286.255C617.211 289.65 603.255 297.807 587.843 304.808C552.225 308.022 542.025 302.404 542.025 302.404C542.025 302.404 538.239 288.088 533.237 268.439C532.681 266.215 532.08 263.932 531.494 261.559C527.483 245.74 522.916 227.383 518.936 210.483C521.76 200.328 527.078 192.456 535.866 188.686C568.464 174.85 581.128 194.695 578.739 210.182C576.351 225.67 579.535 240.137 604.833 243.562C630.13 246.987 631.527 278.594 621.598 286.255Z" fill="#DE660C"/>
<path d="M701.095 229.501C686.659 217.904 641.277 179.552 641.277 179.552C641.277 179.552 639.204 161.42 637.792 147.915C649.253 150.604 657.801 158.055 655.292 168.946C652.288 181.985 666.214 194.484 678.892 193.192C690.625 191.96 706.203 218.895 701.095 229.501Z" fill="#DE660C"/>
<path d="M660.956 125.006C647.241 125.322 635.238 133.419 628.688 151.205C623.881 164.305 617.091 172.236 608.904 175.646C597.021 180.589 582.194 176.022 566.09 163.899C562.473 161.095 558.338 159.032 553.922 157.829C549.507 156.625 544.897 156.304 540.357 156.884C530.217 158.04 519.912 163.043 510.223 170.208C509.418 166.361 508.951 162.45 508.826 158.521C509.285 152.878 511.906 147.631 516.141 143.874C519.981 140.308 524.421 137.45 529.256 135.432C514.534 125.743 524.929 97.3655 550.783 103.209C554.974 104.156 559.451 103.855 565.985 102.728C570.041 102.007 574.908 100.986 581.007 99.724L585.514 98.7926C590.772 97.711 595.143 96.9299 598.764 96.4191C616.144 93.9705 616.49 97.4707 615.979 102.263C615.979 102.263 635.944 96.4642 648.788 110.901C652.964 115.542 656.975 120.229 660.956 125.006Z" fill="#F06B07"/>
<path d="M641.337 179.552C641.337 179.552 639.264 161.42 637.852 147.915C637.566 145.166 637.311 142.613 637.1 140.404" stroke="#DE660C" stroke-width="0.75" stroke-linecap="round" stroke-linejoin="round"/>
<path d="M601.768 140.434C608.964 154.089 614.447 232.52 614.913 242.585C615.378 252.65 621.357 251.178 621.598 261.183C621.627 264.183 621.026 267.157 619.833 269.91C618.64 272.664 616.882 275.136 614.672 277.166" stroke="#DE660C" stroke-width="0.75" stroke-linecap="round" stroke-linejoin="round"/>
<path d="M598.133 127.17C588.837 121.598 578.686 117.598 568.088 115.332C568.088 115.332 564.258 92.7986 561.989 77.9116C557.828 50.5861 585.544 53.0648 591.463 74.5917C591.763 75.7334 592.199 77.1455 592.71 78.7528C595.143 86.3541 599.395 98.1766 601.723 104.591C602.73 107.355 603.391 109.098 603.391 109.098C596.27 116.038 598.133 127.17 598.133 127.17Z" fill="#B25E47"/>
<path d="M601.768 104.591C587.933 109.639 577.627 101.857 577.627 87.5109L588.368 79.5341L592.71 78.7529C595.143 86.3542 599.395 98.2067 601.768 104.591Z" fill="#914839"/>
<path d="M550.783 112.868C560.878 113.079 576.561 115.437 598.133 127.169C598.133 127.169 594.768 112.613 609.49 104.23" stroke="#DE660C" stroke-width="0.75" stroke-linecap="round" stroke-linejoin="round"/>
<path d="M559.27 224.739C554.726 241.415 545.702 256.528 533.177 268.439C523.172 229.246 508.27 168.841 508.765 158.521C509.502 143.033 529.196 135.432 529.196 135.432C559.841 143.484 568.794 190.593 559.27 224.739Z" fill="#F9F9F9" stroke="#DDDDDD" stroke-linecap="round" stroke-linejoin="round"/>
<path d="M473.208 216.581C470.203 200.267 469.272 195.325 472.412 189.136C475.551 182.946 484.429 176.487 489.627 179.627C494.825 182.766 499.587 200.658 499.587 200.658L493.398 204.248C493.398 204.248 490.393 181.444 484.159 183.713C477.925 185.981 473.388 193.762 476.798 209.25L473.208 216.581Z" fill="#DDDDDD" stroke="#DDDDDD" stroke-width="0.75" stroke-linecap="round" stroke-linejoin="round"/>
<path d="M547.808 291.888C541.875 308.007 528.009 341.687 517.148 343.249C509.662 344.277 502.062 344.151 494.615 342.874C491.084 342.168 488.305 341.086 487.028 339.629C481.098 332.503 476.235 324.553 472.592 316.029C468.972 306.775 459.643 265.855 460.935 251.869C462.227 237.883 470.774 197.353 499.527 180.829C513.377 172.852 521.279 196.121 532.426 222.53C540.988 242.856 548.95 263.406 549.521 279.149C549.777 283.466 549.195 287.792 547.808 291.888V291.888Z" fill="#F9F9F9" stroke="#DDDDDD" stroke-linecap="round" stroke-linejoin="round"/>
<path d="M547.808 291.888C541.874 308.007 528.009 341.687 517.148 343.249C509.662 344.277 502.062 344.151 494.615 342.874C487.419 329.173 485.451 325.207 486.968 315.984C488.485 306.76 500.984 284.362 505.866 281.012C510.373 278.008 534.484 271.924 549.431 279.164C549.714 283.47 549.163 287.791 547.808 291.888V291.888Z" fill="#DDDDDD" stroke="#DDDDDD" stroke-width="0.75" stroke-linecap="round" stroke-linejoin="round"/>
<path d="M481.876 210.287C485.586 225.565 489.883 243.051 491.7 247.016C493.518 250.982 500.443 268.438 500.443 268.438" fill="#F9F9F9"/>
<path d="M481.876 210.287C485.586 225.565 489.883 243.051 491.7 247.016C493.518 250.982 500.443 268.438 500.443 268.438" stroke="#DDDDDD" stroke-width="0.75" stroke-linecap="round" stroke-linejoin="round"/>
<path d="M495.711 245.199C505.055 240.061 523.532 238.289 529.076 238.514Z" fill="#F9F9F9"/>
<path d="M495.711 245.199C505.055 240.061 523.532 238.289 529.076 238.514" stroke="#DDDDDD" stroke-width="0.75" stroke-linecap="round" stroke-linejoin="round"/>
<path d="M457.314 266.455C458.892 269.189 463.654 264.863 467.409 258.944C471.165 253.026 481.53 232.115 481.245 226.646C480.959 221.178 477.204 215.109 479.082 207.313C480.959 199.516 499.707 181.46 506.332 179.537C504.948 178.83 503.417 178.461 501.863 178.461C500.309 178.461 498.777 178.83 497.394 179.537C492.496 181.94 468.551 204.429 461.926 227.788C455.301 251.148 455.707 263.691 457.314 266.455Z" fill="#DDDDDD" stroke="#DDDDDD" stroke-width="0.75" stroke-linecap="round" stroke-linejoin="round"/>
<path d="M471.721 235.119L475.701 229.786L481.876 248.279L477.76 253.536L471.721 235.119Z" fill="#DDDDDD" stroke="#DDDDDD" stroke-linecap="round" stroke-linejoin="round"/>
<path d="M458.171 260.732L461.265 256.571L466.087 270.992L462.873 275.093L458.171 260.732Z" fill="#DDDDDD" stroke="#DDDDDD" stroke-linecap="round" stroke-linejoin="round"/>
<path d="M790.613 49.8199H729.878L732.717 37.0811H793.452L790.613 49.8199Z" fill="#DDDDDD"/>
<path d="M812.786 191.871L870.306 500.803C870.166 501.886 869.708 502.904 868.989 503.727C868.271 504.551 867.325 505.143 866.271 505.429C865.216 505.715 864.101 505.682 863.065 505.335C862.029 504.987 861.12 504.341 860.451 503.477L860.256 503.236L804.929 209.371L812.786 191.871Z" fill="#F9F9F9" stroke="#DDDDDD" stroke-linecap="round" stroke-linejoin="round"/>
<path d="M772.736 191.871L715.201 500.803C715.341 501.886 715.799 502.904 716.517 503.727C717.236 504.551 718.182 505.143 719.236 505.429C720.29 505.715 721.406 505.682 722.442 505.335C723.478 504.987 724.387 504.341 725.056 503.477L725.251 503.236L780.578 209.371L772.736 191.871Z" fill="#F9F9F9" stroke="#DDDDDD" stroke-linecap="round" stroke-linejoin="round"/>
<path d="M691.586 191.871L634.051 500.803C634.195 501.886 634.656 502.902 635.376 503.724C636.095 504.546 637.042 505.137 638.096 505.423C639.151 505.709 640.266 505.676 641.303 505.33C642.339 504.984 643.25 504.339 643.921 503.477L644.101 503.236L699.428 209.372L691.586 191.871Z" fill="#F9F9F9" stroke="#DDDDDD" stroke-linecap="round" stroke-linejoin="round"/>
<path d="M642.689 288.418L649.734 294.502H799.025L802.285 288.418H642.689Z" fill="#DDDDDD" stroke="#DDDDDD" stroke-width="0.75" stroke-linecap="round" stroke-linejoin="round"/>
<path d="M686.268 44.4873H837.617L802.285 288.418H642.689L686.268 44.4873Z" fill="#F9F9F9" stroke="#DDDDDD" stroke-linecap="round" stroke-linejoin="round"/>
<path d="M538.87 273.636C536.211 269.757 533.749 265.746 531.494 261.618C520.032 240.843 508.796 211.414 505.776 193.703C504.713 187.659 504.046 181.552 503.778 175.421C503.207 160.534 506.001 147.69 516.142 143.874C522.256 141.636 530.893 144.114 540.327 156.898C548.154 167.504 556.551 185.215 564.543 213.187C589.33 299.685 556.311 298.783 538.87 273.636Z" fill="#F06B07"/>
<path d="M540.357 156.883C530.217 158.04 519.912 163.043 510.223 170.208C508.044 171.831 505.881 173.543 503.778 175.361C503.207 160.474 506.001 147.63 516.141 143.814C522.286 141.621 530.923 144.099 540.357 156.883Z" fill="#F06B07"/>
<path d="M636.349 331.757C638.633 332.914 643.485 328.753 646.414 320.175C646.414 320.175 633.961 314.046 633.69 314.046C633.42 314.046 630.401 327.476 636.349 331.757Z" fill="#DE660C"/>
<path d="M642.478 292.399C653.67 296.755 656.449 297.822 659.003 298.047C661.557 298.272 671.021 297.056 673.289 298.047C675.557 299.039 677.39 302.554 677.39 302.554C677.39 302.554 686.839 301.472 689.168 303.019C691.496 304.567 691.241 309.028 689.363 310.2C687.485 311.372 685.592 312.303 686.148 315.518C686.704 318.733 686.253 320.295 685.157 321.286C684.06 322.278 687.14 324.051 684.826 327.821C682.513 331.592 684.706 334.251 681.266 335.588C677.826 336.925 631.617 324.727 629.409 322.503C627.201 320.28 629.68 287.486 642.478 292.399Z" fill="#B25E47"/>
<path d="M665.793 297.777C668.933 297.612 672.132 297.522 673.304 298.047C675.527 299.054 677.405 302.554 677.405 302.554C677.405 302.554 686.854 301.472 689.183 303.02C691.511 304.567 691.256 309.029 689.378 310.2C687.5 311.372 685.607 312.303 686.163 315.518C686.719 318.733 686.268 320.295 685.172 321.287C684.075 322.278 687.155 324.051 684.841 327.821C682.528 331.592 684.721 334.251 681.281 335.588C680.425 335.918 676.909 335.408 672.087 334.416" stroke="#914839" stroke-width="0.75" stroke-linecap="round" stroke-linejoin="round"/>
<path d="M677.39 302.509C673.833 302.585 670.274 302.419 666.739 302.013" stroke="#914839" stroke-width="0.75" stroke-linecap="round" stroke-linejoin="round"/>
<path d="M543.121 246.115C554.433 231.543 570.161 239.445 598.193 256.826C616.232 268.165 633.455 280.754 649.734 294.502C649.734 294.502 634.487 313.294 636.349 331.757C636.349 331.757 560.217 295.418 548.995 284.211C540.147 275.378 534.514 257.201 543.121 246.115Z" fill="#F06B07"/>
<path d="M553.291 238.995C563.702 236.441 577.612 244.102 598.193 256.826C616.232 268.165 633.455 280.755 649.734 294.502" stroke="#DE660C" stroke-width="0.75" stroke-linecap="round" stroke-linejoin="round"/>
<path d="M595.564 95.202C585.139 98.7322 571.033 95.6377 561.809 80.5403C556.13 71.653 553.694 61.0771 554.914 50.601C555.5 45.0278 560.051 32.2589 574.713 36.5252C587.843 40.3108 594.032 48.543 598.028 59.5092C598.508 60.8011 598.959 62.1381 599.38 63.5201C600.026 65.6683 600.657 67.8766 601.182 70.0848C603.856 81.1112 604.247 92.1976 595.564 95.202Z" fill="#B25E47"/>
<path d="M578.694 67.8616C577.673 70.9712 572.835 72.1579 567.923 70.5205C563.011 68.8831 559.856 65.0374 560.893 61.9278C561.929 58.8182 566.751 57.6314 571.679 59.2689C576.606 60.9063 579.746 64.752 578.694 67.8616Z" fill="#914839"/>
<path d="M601.182 70.0097C600.415 70.1846 599.618 70.1751 598.855 69.9818C598.093 69.7886 597.387 69.4172 596.796 68.8981C594.768 66.8551 595.294 62.8892 598.028 59.4341C598.508 60.726 598.959 62.063 599.38 63.445C600.026 65.5932 600.657 67.8015 601.182 70.0097Z" fill="#914839"/>
<path d="M589.555 56.7601C589.552 57.1386 589.662 57.5096 589.87 57.8256C590.079 58.1416 590.377 58.3885 590.726 58.5347C591.075 58.681 591.46 58.72 591.831 58.6469C592.203 58.5738 592.544 58.3918 592.812 58.124C593.08 57.8563 593.262 57.515 593.335 57.1435C593.408 56.7721 593.369 56.3872 593.223 56.038C593.076 55.6888 592.83 55.391 592.514 55.1825C592.197 54.974 591.827 54.8643 591.448 54.8672C590.946 54.8672 590.465 55.0667 590.11 55.4216C589.755 55.7766 589.555 56.258 589.555 56.7601V56.7601Z" fill="#4F4F4F"/>
<path d="M579.821 58.8635C579.818 59.2415 579.927 59.6118 580.135 59.9275C580.343 60.2432 580.64 60.4901 580.988 60.6368C581.336 60.7835 581.72 60.8234 582.091 60.7515C582.463 60.6796 582.804 60.4991 583.072 60.2329C583.341 59.9667 583.524 59.6268 583.599 59.2563C583.673 58.8858 583.637 58.5014 583.493 58.1519C583.349 57.8025 583.104 57.5036 582.79 57.2933C582.476 57.083 582.107 56.9707 581.729 56.9707C581.225 56.9707 580.742 57.1696 580.385 57.5242C580.027 57.8787 579.825 58.3601 579.821 58.8635V58.8635Z" fill="#4F4F4F"/>
<path d="M594.918 41.2873C592.755 43.5106 589.901 41.2873 589.901 41.2873C590.246 44.5471 582.915 47.2962 577.642 47.852C572.37 48.4078 574.638 43.5256 570.567 41.7079C566.496 39.8902 560.893 44.3067 560.893 44.3067C560.893 44.3067 569.44 50.0903 569.906 57.8268C570.229 62.3241 568.887 66.7833 566.135 70.3553L556.792 72.3382C553.429 70.7495 550.34 68.6349 547.643 66.074C542.641 61.2518 539.786 55.2129 541.153 49.2941C543.227 40.2808 552.225 38.7786 552.225 38.7786C552.404 36.01 553.301 33.3359 554.829 31.0202C556.357 28.7046 558.463 26.8274 560.938 25.574C568.013 21.6833 575.449 22.5696 578.183 24.7027C580.917 26.8359 581.729 27.3617 586.791 28.3681H587.016C587.692 28.4307 588.349 28.6297 588.945 28.9532C589.542 29.2767 590.067 29.7179 590.488 30.2502C590.91 30.7824 591.219 31.3947 591.396 32.0498C591.574 32.7049 591.617 33.3893 591.523 34.0616C591.523 34.0616 597.081 39.0339 594.918 41.2873Z" fill="#333333"/>
<path d="M594.918 41.2872C592.755 43.5105 589.901 41.2872 589.901 41.2872C590.246 44.5471 582.915 47.2961 577.642 47.852C572.37 48.4078 574.638 43.5255 570.567 41.7079C566.496 39.8902 560.893 44.3067 560.893 44.3067C560.893 44.3067 569.44 50.0903 569.906 57.8267C570.229 62.3241 568.887 66.7833 566.135 70.3553L556.792 72.3382C553.429 70.7494 550.34 68.6348 547.643 66.0739C557.227 62.3785 553.847 53.8759 553.171 47.6416C552.225 38.8386 557.197 31.5528 568.193 35.6238C574.533 37.9222 581.714 33.3254 586.851 28.4883H587.076C587.752 28.5508 588.409 28.7498 589.005 29.0733C589.602 29.3968 590.127 29.8381 590.548 30.3703C590.97 30.9026 591.279 31.5148 591.457 32.1699C591.634 32.8251 591.677 33.5095 591.583 34.1817C591.583 34.1817 597.081 39.0339 594.918 41.2872Z" fill="#333333"/>
<path d="M589.901 41.2723C588.819 37.9524 588.233 37.9975 584.568 37.6069C580.902 37.2163 576.366 36.6906 575.164 34.272" stroke="#4F4F4F" stroke-width="0.75" stroke-linecap="round" stroke-linejoin="round"/>
<path d="M591.463 34.2117C588.473 32.9308 585.196 32.4693 581.969 32.8747" stroke="#4F4F4F" stroke-width="0.75" stroke-linecap="round" stroke-linejoin="round"/>
<path d="M573.256 55.303C572.775 57.1507 583.576 54.627 581.834 50.7963C580.091 46.9656 574.127 52.0131 573.256 55.303Z" fill="#333333"/>
<path d="M585.559 49.4893C585.229 51.8477 593.551 52.0881 593.566 50.1352C593.581 48.1823 586.04 45.9891 585.559 49.4893Z" fill="#333333"/>
<path d="M584.628 54.4019C586.25 59.7047 589.765 60.606 591.884 62.0031C594.002 63.4002 593.566 67.7416 593.566 67.7416" stroke="#914839" stroke-width="0.75" stroke-linecap="round" stroke-linejoin="round"/>
<path d="M581.503 68.9131C583.666 72.4884 586.851 74.5614 590.366 73.4198" stroke="#914839" stroke-width="0.75" stroke-linecap="round" stroke-linejoin="round"/>
<path d="M566.09 70.3853C564.273 63.1446 552.57 59.2989 550.948 69.529C549.551 78.3771 557.873 79.1132 562.245 78.8128L566.09 70.3853Z" fill="#B25E47"/>
<path d="M554.613 69.1085C559.39 66.7951 562.725 70.8661 563.311 73.0293" stroke="#914839" stroke-width="0.75" stroke-linecap="round" stroke-linejoin="round"/>
<path d="M562.695 71.6472C558.744 65.8335 553.682 74.7267 560.457 75.4177" stroke="#914839" stroke-width="0.75" stroke-linecap="round" stroke-linejoin="round"/>
<path d="M560.863 78.8578C562.1 78.8851 563.334 78.7074 564.513 78.332" stroke="#914839" stroke-width="0.75" stroke-linecap="round" stroke-linejoin="round"/>
<path d="M419.879 628.086C423.349 620.875 434.481 612.072 438.477 617.135C443.569 623.579 422.658 628.086 422.658 628.086" stroke="#DE660C" stroke-width="0.75" stroke-linecap="round" stroke-linejoin="round"/>
<path d="M421.592 627.275C427.601 622.978 439.258 606.604 434.105 604.846C428.337 602.909 421.592 625.217 421.592 625.217" stroke="#DE660C" stroke-width="0.75" stroke-linecap="round" stroke-linejoin="round"/>
<path d="M441.692 646.834H386.214L387.131 616.218L389.685 531.373L431.206 529.345C431.206 529.345 415.928 616.143 416.499 619.328C424.716 627.712 433.631 635.381 443.149 642.252C443.585 642.562 443.912 643.002 444.081 643.509C444.251 644.017 444.255 644.565 444.093 645.075C443.931 645.585 443.611 646.03 443.179 646.346C442.748 646.662 442.227 646.833 441.692 646.834V646.834Z" fill="#B25E47"/>
<path d="M441.692 646.834H386.214L386.74 629.333L387.131 616.218C393.32 617.51 393.275 619.673 396.97 621.07C400.13 622.349 403.549 622.858 406.945 622.555C410.341 622.252 413.615 621.146 416.499 619.328C424.716 627.711 433.631 635.381 443.149 642.252C443.585 642.562 443.912 643.002 444.081 643.509C444.251 644.017 444.255 644.565 444.093 645.075C443.931 645.585 443.611 646.03 443.179 646.346C442.748 646.662 442.227 646.833 441.692 646.834V646.834Z" fill="#F06B07"/>
<path d="M415.057 646.833H386.214L386.74 629.332C389.037 628.501 391.463 628.079 393.906 628.086C399.113 628.088 404.139 629.996 408.035 633.45C411.932 636.904 414.43 641.664 415.057 646.833V646.833Z" fill="#DE660C"/>
<path d="M304.494 201.544C303.968 203.737 303.412 206.051 302.781 208.364C301.279 214.058 298.905 223.011 295.916 233.166C287.533 261.453 274.149 298.813 260.073 299.264C240.995 299.82 238.666 283.175 242.362 271.998C245.561 262.264 256.678 217.558 263.753 191.404C264.82 187.453 265.796 183.893 266.637 181.009C271.55 163.944 279.602 154.059 288.074 151.776C290.61 151.07 293.29 151.07 295.826 151.776C308.67 155.291 311.674 171.214 304.494 201.544Z" fill="#B25E47"/>
<path d="M469.798 531.853C468.882 534.858 448.617 545.974 436.96 546.275C425.302 546.575 400.125 543.511 391.893 541.678C386.485 540.476 373.671 543.841 363.696 546.185C358.348 547.477 353.812 548.483 351.678 548.363C345.534 548.062 320.672 552.058 316.677 548.363C312.681 544.667 323.121 309.78 323.121 309.78C323.121 309.78 332.645 294.502 366.415 287.126C400.185 279.75 434.871 286.585 434.871 286.585C434.871 286.585 458.817 349.138 463.714 375.847C464.075 377.8 464.435 380.354 464.751 383.238C468.867 420.464 470.654 528.999 469.798 531.853Z" fill="#25CED1"/>
<path d="M469.798 531.853C468.882 534.858 448.617 545.974 436.96 546.275C425.302 546.575 400.125 543.511 391.893 541.678C386.485 540.476 373.671 543.841 363.696 546.184C371.508 522.93 392.238 512.79 417.986 524.643C447.791 538.313 461.656 512.91 448.121 472.876C437.125 440.353 448.241 398.756 464.751 383.238C468.867 420.463 470.654 528.999 469.798 531.853Z" fill="#22B5B8"/>
<path d="M319.936 271.322C319.936 271.322 319.08 299.279 321.529 301.983C323.977 304.687 387.536 304.221 434.811 286.645L415.673 232.43L319.936 271.322Z" fill="#22B5B8"/>
<path d="M426.519 234.052C426.519 234.052 424.07 236.606 419.714 240.467C413.883 245.612 407.72 250.369 401.267 254.708C397.736 257.081 393.921 259.44 389.85 261.678C386.163 263.745 382.373 265.62 378.493 267.296C350.612 279.314 322.791 272.75 319.906 271.322C317.022 269.895 315.715 260.311 306.597 249.525C302.144 244.704 298.524 239.175 295.886 233.166C293.001 226.301 290.868 217.137 289.081 202.325L288.585 197.924C286.939 182.573 286.758 167.1 288.044 151.715C288.044 151.34 288.044 151.145 288.044 151.145C293.828 148.651 299.596 146.337 304.268 144.52C310.277 142.191 314.483 140.689 314.483 140.689C314.483 140.689 314.288 136.979 313.822 130.414C313.462 125.366 312.936 118.606 312.32 110.539C311.927 106.453 311.927 102.338 312.32 98.2513C314.964 73.1191 335.094 76.2437 338.023 85.8429C341.358 96.8091 352.64 130.624 352.64 130.624C359.184 128.96 365.827 127.711 372.529 126.884C372.8 126.884 373.055 126.809 373.325 126.793C377.153 126.327 381.007 126.126 384.862 126.193C387.574 126.219 390.275 126.546 392.914 127.169C394.849 127.663 396.669 128.525 398.277 129.708C401.479 132.132 404.165 135.171 406.179 138.646C423.515 166.617 426.519 234.052 426.519 234.052Z" fill="#25CED1"/>
<path d="M406.194 138.646C396.415 142.386 390.631 149.011 385.614 156.673C373.896 174.429 366.295 197.593 321.619 201.98C315.915 202.528 310.166 202.397 304.494 201.589C299.117 200.784 293.809 199.573 288.615 197.969C286.969 182.618 286.788 167.145 288.074 151.76C288.074 151.385 288.074 151.189 288.074 151.189C293.858 148.696 299.626 146.382 304.298 144.565C310.307 142.236 314.513 140.734 314.513 140.734C314.513 140.734 314.318 137.024 313.852 130.459C313.492 125.411 312.966 118.651 312.35 110.584C311.958 106.498 311.958 102.383 312.35 98.2962C314.994 73.164 335.124 76.2886 338.053 85.8878C341.388 96.854 352.67 130.669 352.67 130.669C359.214 129.005 365.857 127.756 372.559 126.929C372.83 126.929 373.085 126.853 373.355 126.838C377.183 126.372 381.038 126.171 384.893 126.238C387.604 126.264 390.305 126.591 392.944 127.214C394.879 127.708 396.7 128.57 398.307 129.753C401.499 132.166 404.18 135.188 406.194 138.646V138.646Z" fill="#25CED1"/>
<path d="M373.34 126.749C365.379 133.764 344.498 151.46 331.188 154.525C320.672 156.928 310.983 155.772 304.358 144.475C310.367 142.146 314.573 140.644 314.573 140.644C314.573 140.644 314.378 136.934 313.912 130.369C313.552 125.321 313.026 118.561 312.41 110.495C312.018 106.408 312.018 102.293 312.41 98.2063C315.054 73.0741 335.184 76.1988 338.113 85.798C341.448 96.7642 352.73 130.579 352.73 130.579C359.51 128.856 366.394 127.577 373.34 126.749Z" fill="#B25E47"/>
<path d="M313.852 130.414C313.492 125.367 312.966 118.607 312.35 110.54C311.958 106.453 311.958 102.338 312.35 98.2517C319.696 96.5242 328.875 96.4941 330.572 106.304C333.141 121.611 327.853 128.927 313.852 130.414Z" fill="#914839"/>
<path d="M430.53 342.829C426.414 330.991 430.44 323.014 436.073 321.077C441.707 319.139 448.331 326.71 450.269 334.431L455.061 331.802C455.061 331.802 449.263 311.417 434.826 314.872C420.39 318.327 423.064 337.406 425.588 344.346L430.53 342.829Z" fill="#DDDDDD" stroke="#DDDDDD" stroke-width="0.75" stroke-linecap="round" stroke-linejoin="round"/>
<path d="M430.094 246.476C454.4 304.882 466.148 337.766 466.148 337.766C466.148 337.766 476.153 339.449 475.672 337.766C475.191 336.084 441.541 242.42 441.541 242.42L430.094 246.476Z" fill="#F9F9F9" stroke="#DDDDDD" stroke-width="0.75" stroke-linecap="round" stroke-linejoin="round"/>
<path d="M424.281 358.662H412.263C412.353 358.136 400.681 312.859 389.73 261.679C378.463 208.71 368.053 149.417 372.424 126.884C372.694 126.884 372.95 126.809 373.22 126.794C377.047 126.328 380.902 126.127 384.757 126.193C380.611 143.664 390.346 201.304 401.147 254.708C412.218 308.788 424.281 358.662 424.281 358.662Z" fill="#F9F9F9" stroke="#DDDDDD" stroke-width="0.75" stroke-linecap="round" stroke-linejoin="round"/>
<path d="M471.901 408.611C464.105 411.766 440.129 425.691 426.579 426.638L412.098 345.142C416.19 342.797 420.402 340.666 424.716 338.758C427.901 337.256 431.116 336.024 434.301 334.852C439.063 333.079 443.72 331.592 448.061 330.345C451.907 329.309 455.572 328.513 458.652 327.987C462.029 327.285 465.493 327.098 468.927 327.431C474.936 328.438 493.488 352.759 499.768 377.756C506.047 402.753 479.698 405.442 471.901 408.611Z" fill="#F9F9F9" stroke="#DDDDDD" stroke-linecap="round" stroke-linejoin="round"/>
<path d="M451.186 366.173C451.186 366.173 445.312 370.049 445.312 369.703C445.312 369.358 436.599 347.17 424.716 338.712C427.901 337.21 431.116 335.978 434.301 334.807C439.694 340.064 449.548 351.692 451.186 366.173Z" fill="#DDDDDD" stroke="#DDDDDD" stroke-width="0.75" stroke-linecap="round" stroke-linejoin="round"/>
<path d="M472.697 356.409C470.809 357.706 468.843 358.885 466.809 359.939C466.809 359.639 458.997 339.674 448.061 330.36C451.907 329.324 455.572 328.528 458.652 328.002C464.075 334.056 471.315 344.211 472.697 356.409Z" fill="#DDDDDD" stroke="#DDDDDD" stroke-width="0.75" stroke-linecap="round" stroke-linejoin="round"/>
<path d="M412.098 345.082C421.982 342.754 432.708 360.104 438.657 381.856C444.606 403.609 439.393 429.928 422.673 426.247C405.954 422.567 406.705 391.891 405.218 382.608C403.73 373.324 398.728 348.252 412.098 345.082Z" fill="#DDDDDD" stroke="#DDDDDD" stroke-linecap="round" stroke-linejoin="round"/>
<path d="M442.232 259.725C432.243 259.139 426.594 253.371 419.699 240.467C415.282 232.175 410.37 220.938 403.49 206.276C393.906 185.816 387.792 168.991 385.599 156.628C383.736 146.292 384.637 139.082 388.603 135.431C391.254 132.65 394.631 130.667 398.352 129.708C403.385 128.686 408.282 130.94 413.675 136.558C417.345 140.563 420.639 144.898 423.515 149.507C437.035 170.403 454.551 217.813 458.216 231.453C461.881 245.094 458.622 260.672 442.232 259.725Z" fill="#B25E47"/>
<path d="M323.647 226.932L375.864 215.004L386.71 217.317L386.034 220.126L323.647 236.411C323.647 236.411 316.241 230.837 323.647 226.932Z" fill="#F9F9F9" stroke="#DDDDDD" stroke-linecap="round" stroke-linejoin="round"/>
<path d="M323.647 226.931C319.816 228.524 318.314 230.507 319.786 236.726C321.258 242.945 340.051 315.548 340.051 315.548L402.679 292.323C402.679 292.323 387.792 216.761 387.251 217.212C386.71 217.663 330.166 230.732 326.591 231.633C323.016 232.535 319.411 229.32 323.647 226.931Z" fill="#F9F9F9" stroke="#DDDDDD" stroke-linecap="round" stroke-linejoin="round"/>
<path d="M326.591 247.602L332.931 239.716L380.115 222.891L403.099 293.615L400.711 301.983" fill="#F9F9F9"/>
<path d="M326.591 247.602L332.931 239.716L380.115 222.891L403.099 293.615L400.711 301.983" stroke="#DDDDDD" stroke-linecap="round" stroke-linejoin="round"/>
<path d="M377.306 228.524L380.115 222.891" stroke="#DDDDDD" stroke-linecap="round" stroke-linejoin="round"/>
<path d="M326.591 247.602L354.848 322.924L400.711 301.983L377.306 228.524L326.591 247.602Z" fill="#F9F9F9" stroke="#DDDDDD" stroke-linecap="round" stroke-linejoin="round"/>
<path d="M342.304 254.272L344.963 259.755L372.454 248.999L370.201 243.005L342.304 254.272Z" fill="#DDDDDD"/>
<path d="M321.063 289.799C339.676 287.035 354.908 288.763 358.183 287.185C361.458 285.608 391.998 265.884 403.655 255.053C415.312 244.222 425.798 224.513 442.788 229.245C465.126 235.464 461.641 257.682 443.494 273.065C428.472 285.758 349.996 319.078 341.253 321.451C332.51 323.825 314.889 317.816 313.251 314.902C311.614 311.987 307.603 291.797 321.063 289.799Z" fill="#B25E47"/>
<path d="M416.004 241.653C423.605 233.316 431.852 226.195 442.818 229.245" stroke="#914839" stroke-width="0.75" stroke-linecap="round" stroke-linejoin="round"/>
<path d="M340.892 94.5559C333.381 118.832 309.571 122.858 301.504 113.905C298.094 110.119 297.373 102.187 298.229 93.1288C298.633 89.0904 299.265 85.078 300.122 81.111C301.791 72.9861 304.356 65.0711 307.768 57.5111C307.768 57.5111 323.256 48.7982 339.826 65.8184C344.032 70.1448 344.648 82.2827 340.892 94.5559Z" fill="#B25E47"/>
<path d="M346.706 76.8898C346.362 78.0367 345.889 79.1405 345.294 80.1796C345.294 80.1796 338.429 86.9096 334.658 84.9567C334.17 84.7885 333.729 84.5061 333.372 84.1331C333.014 83.76 332.751 83.3071 332.605 82.812C332.458 82.3169 332.431 81.7938 332.527 81.2863C332.623 80.7788 332.838 80.3016 333.156 79.8942C331.488 78.2267 332.495 76.349 334.658 76.0636C331.113 74.9068 330.542 71.5569 334.658 69.8293C330.602 70.1147 328.875 67.3807 331.654 64.6316C326.802 66.224 324.278 63.8355 325.209 60.3954C324.083 63.8204 319.456 62.4384 319.636 60.3954C317.818 62.2131 315.129 62.6487 312.906 58.9682C312.906 58.9682 307.408 61.8525 305.815 57.2106C304.223 52.5688 311.449 52.0129 312.621 53.1697C312.636 52.8448 312.687 52.5225 312.771 52.2082C313.837 47.7016 320.462 48.4076 321.589 50.706C322.67 47.7016 328.604 47.7016 329.19 51.9378C332.014 50.1201 334.463 51.2168 335.049 54.6869C338.534 53.5152 340.757 55.1376 340.322 57.8716C343.326 57.2257 346.421 60.5907 343.326 63.0843C343.326 63.0843 347.127 64.3162 347.487 70.0847C347.648 72.3818 347.383 74.6889 346.706 76.8898V76.8898Z" fill="#683F1D"/>
<path d="M346.706 76.89C343.116 74.5916 338.924 71.0013 339.57 66.9903C340.667 60.1402 330.557 54.7172 326.606 55.964C324.067 56.7602 317.413 55.8739 312.816 52.2385C313.882 47.7318 320.507 48.4379 321.634 50.7363C322.715 47.7318 328.649 47.7318 329.235 51.9681C332.059 50.1504 334.508 51.247 335.094 54.7172C338.579 53.5454 340.802 55.1678 340.367 57.9019C343.371 57.2559 346.466 60.6209 343.371 63.1146C343.371 63.1146 347.172 64.3464 347.532 70.115C347.675 72.4049 347.395 74.7015 346.706 76.89V76.89Z" fill="#683F1D"/>
<path d="M316.857 79.4737C316.857 79.8511 316.969 80.2199 317.178 80.5337C317.388 80.8474 317.686 81.0919 318.035 81.2363C318.383 81.3807 318.767 81.4185 319.137 81.3449C319.507 81.2713 319.847 81.0896 320.114 80.8228C320.38 80.556 320.562 80.216 320.636 79.8459C320.709 79.4759 320.672 79.0923 320.527 78.7436C320.383 78.395 320.138 78.0971 319.825 77.8874C319.511 77.6778 319.142 77.5659 318.765 77.5659C318.259 77.5659 317.773 77.7669 317.416 78.1247C317.058 78.4825 316.857 78.9678 316.857 79.4737V79.4737Z" fill="#683F1D"/>
<path d="M304.343 77.1751C304.343 77.5495 304.454 77.9154 304.662 78.2267C304.87 78.5379 305.166 78.7806 305.512 78.9238C305.858 79.0671 306.238 79.1046 306.605 79.0315C306.972 78.9585 307.31 78.7782 307.574 78.5135C307.839 78.2488 308.019 77.9115 308.092 77.5444C308.165 77.1772 308.128 76.7966 307.985 76.4508C307.841 76.1049 307.599 75.8093 307.288 75.6013C306.976 75.3933 306.61 75.2823 306.236 75.2823C305.987 75.2803 305.74 75.3279 305.509 75.4223C305.279 75.5167 305.069 75.6561 304.893 75.8322C304.717 76.0084 304.578 76.2178 304.483 76.4484C304.389 76.6789 304.341 76.926 304.343 77.1751V77.1751Z" fill="#683F1D"/>
<path d="M333.381 84.1003C336.205 79.3533 345.144 77.5506 348.028 84.1003C350.912 90.65 342.335 98.4165 335.544 93.9098L333.381 84.1003Z" fill="#B25E47"/>
<path d="M302.195 66.9899C301.865 68.4922 311.884 69.8892 312.275 67.5908C312.921 63.7602 302.781 64.0906 302.195 66.9899Z" fill="#683F1D"/>
<path d="M327.868 73.044C327.538 74.5463 317.818 71.8723 318.374 69.6039C319.29 65.8183 328.469 70.1447 327.868 73.044Z" fill="#683F1D"/>
<path d="M345.654 85.3173C342.905 81.8922 337.603 84.1606 337.152 88.0663" stroke="#914839" stroke-width="0.75" stroke-linecap="round" stroke-linejoin="round"/>
<path d="M337.512 86.7595C338.924 84.8667 343.521 85.5727 343.146 88.8175C342.77 92.0624 338.173 91.3563 338.173 91.3563" stroke="#914839" stroke-width="0.75" stroke-linecap="round" stroke-linejoin="round"/>
<path d="M305.635 88.5769C304.764 83.7698 304.989 81.9821 308.459 80.9906C310.187 80.4376 311.702 79.3644 312.796 77.9177C313.89 76.471 314.511 74.7216 314.573 72.9087" stroke="#914839" stroke-width="0.75" stroke-linecap="round" stroke-linejoin="round"/>
<path d="M311.389 94.2704C315.655 93.0686 317.217 90.9355 317.292 88.9375" stroke="#914839" stroke-width="0.75" stroke-linecap="round" stroke-linejoin="round"/>
<path d="M325.855 94.0454C329.448 94.0454 332.36 91.1331 332.36 87.5407C332.36 83.9483 329.448 81.0361 325.855 81.0361C322.263 81.0361 319.35 83.9483 319.35 87.5407C319.35 91.1331 322.263 94.0454 325.855 94.0454Z" fill="#914839"/>
<path d="M303.442 86.7592C303.441 88.2662 302.916 89.7261 301.957 90.8883C300.998 92.0505 299.664 92.8426 298.184 93.1286C298.588 89.0902 299.22 85.0779 300.077 81.1108C301.088 81.6698 301.932 82.4873 302.524 83.4798C303.115 84.4723 303.432 85.604 303.442 86.7592Z" fill="#914839"/>
<path d="M344.362 93.9551C343.064 94.8149 341.541 95.2734 339.984 95.2734C338.426 95.2734 336.903 94.8149 335.605 93.9551" stroke="#914839" stroke-width="0.75" stroke-linecap="round" stroke-linejoin="round"/>
<path d="M336.731 91.897C334.294 92.1789 332.027 93.2903 330.312 95.0448C328.597 96.7992 327.537 99.0901 327.31 101.533C327.083 103.976 327.703 106.423 329.066 108.464C330.429 110.504 332.452 112.013 334.796 112.739C337.14 113.465 339.662 113.363 341.94 112.45C344.217 111.537 346.112 109.869 347.305 107.725C348.499 105.581 348.919 103.092 348.495 100.675C348.072 98.2584 346.83 96.0608 344.978 94.4507" stroke="#F06B07" stroke-linecap="round" stroke-linejoin="round"/>
<path d="M186.989 212.045C224.049 248.639 242.121 257.607 251.24 262.009C260.358 266.41 280.293 287.426 263.453 298.423C243.638 311.372 224.2 292.414 212.197 280.697C200.194 268.979 177.15 239.686 177.15 239.686L186.989 212.045Z" fill="#B25E47"/>
<path d="M245.937 259.35C247.98 260.431 249.737 261.287 251.24 262.009C255.01 264.051 258.404 266.724 261.274 269.91" stroke="#914839" stroke-width="0.75" stroke-linecap="round" stroke-linejoin="round"/>
<path d="M201.862 209.821C201.586 209.191 201.443 208.511 201.441 207.823C201.441 205.044 203.319 201.995 203.319 196.662C203.319 190.037 195.222 182.901 195.222 182.901H183.354C183.354 182.901 175.257 190.037 175.257 196.662C175.257 201.995 177.15 205.044 177.12 207.823C177.123 208.51 176.985 209.19 176.714 209.821C175.783 211.969 174.07 212.285 174.07 220.036C174.07 221.914 174.07 224.904 174.07 228.419C174.221 239.28 174.506 254.933 174.506 256.796C174.506 259.109 182.393 259.455 188.642 259.5H189.784C196.018 259.5 203.905 259.109 203.905 256.796C203.905 254.933 204.205 239.28 204.355 228.419C204.355 224.919 204.43 221.914 204.43 220.036C204.505 212.285 202.808 211.969 201.862 209.821Z" fill="#F9F9F9" stroke="#DDDDDD" stroke-linecap="round" stroke-linejoin="round"/>
<path d="M196.529 176.021H182.062V182.631H196.529V176.021Z" fill="#DDDDDD" stroke="#DDDDDD" stroke-miterlimit="10"/>
<path d="M204.505 220.037C204.505 221.914 204.505 224.919 204.43 228.419H174.145C174.145 224.904 174.145 221.914 174.145 220.037C174.145 212.285 175.858 211.97 176.789 209.822C177.039 209.201 177.161 208.537 177.15 207.869H201.471C201.473 208.556 201.616 209.236 201.892 209.867C202.808 211.97 204.505 212.285 204.505 220.037Z" fill="#DDDDDD" stroke="#DDDDDD" stroke-linecap="round" stroke-linejoin="round"/>
<path d="M169.954 236.411C173.394 233.406 179.974 241.954 176.639 245.424C173.304 248.894 165.478 240.497 169.954 236.411Z" fill="#B25E47" stroke="#914839" stroke-width="0.75" stroke-miterlimit="10"/>
<path d="M169.083 230.703C171.231 226.632 180.41 232.385 178.502 236.847C176.594 241.308 166.289 236.02 169.083 230.703Z" fill="#B25E47" stroke="#914839" stroke-width="0.75" stroke-miterlimit="10"/>
<path d="M167.476 221.839C169.774 217.242 179.629 223.762 177.586 228.81C175.543 233.857 164.456 227.878 167.476 221.839Z" fill="#B25E47" stroke="#914839" stroke-width="0.75" stroke-miterlimit="10"/>
<path d="M165.973 215.185C165.973 219.226 178.262 222.546 178.757 215.185C179.148 209.281 165.973 208.124 165.973 215.185Z" fill="#B25E47" stroke="#914839" stroke-width="0.75" stroke-miterlimit="10"/>
<path d="M333.997 330.631H267.809V659.783H333.997V330.631Z" fill="#DDDDDD"/>
<path d="M267.809 330.631H174.055V659.783H267.809V330.631Z" fill="#F9F9F9" stroke="#DDDDDD" stroke-linecap="round" stroke-linejoin="round"/>
<path d="M279.917 183.743L274.644 187.168C273.845 187.683 272.91 187.946 271.959 187.925C271.009 187.903 270.087 187.598 269.311 187.048L253.238 196.812V272.84C254.711 273.271 256.005 274.166 256.929 275.392C257.852 276.618 258.354 278.11 258.36 279.645V286.781C258.352 288.669 257.597 290.478 256.261 291.812C254.924 293.146 253.113 293.897 251.225 293.901C249.335 293.901 247.522 293.151 246.184 291.817C244.847 290.482 244.093 288.67 244.089 286.781V279.645C244.093 278.11 244.594 276.617 245.518 275.39C246.441 274.163 247.737 273.269 249.212 272.84V195.686C249.211 195.342 249.299 195.003 249.467 194.703C249.636 194.403 249.879 194.152 250.173 193.973L267.283 183.533C267.219 182.689 267.384 181.843 267.759 181.085C268.134 180.326 268.707 179.683 269.417 179.221L274.674 175.796C275.196 175.428 275.786 175.168 276.41 175.033C277.034 174.898 277.678 174.89 278.305 175.01C278.932 175.13 279.529 175.375 280.059 175.731C280.589 176.086 281.042 176.545 281.39 177.08C281.739 177.614 281.976 178.214 282.088 178.842C282.2 179.471 282.184 180.115 282.04 180.737C281.897 181.359 281.63 181.946 281.255 182.463C280.88 182.979 280.404 183.415 279.857 183.743H279.917Z" fill="#F9F9F9" stroke="#DDDDDD" stroke-linecap="round" stroke-linejoin="round"/>
<path d="M279.917 183.743L274.644 187.168C273.845 187.683 272.91 187.946 271.959 187.925C271.009 187.903 270.087 187.598 269.311 187.048L267.283 183.533C267.219 182.689 267.384 181.843 267.759 181.085C268.134 180.326 268.707 179.683 269.417 179.221L274.674 175.796C275.196 175.428 275.786 175.168 276.41 175.033C277.033 174.898 277.678 174.89 278.305 175.01C278.932 175.13 279.529 175.375 280.059 175.731C280.589 176.086 281.042 176.545 281.39 177.08C281.739 177.614 281.976 178.214 282.088 178.842C282.2 179.471 282.184 180.115 282.04 180.737C281.897 181.359 281.63 181.946 281.255 182.463C280.88 182.979 280.404 183.415 279.857 183.743H279.917Z" fill="#DDDDDD" stroke="#DDDDDD" stroke-linecap="round" stroke-linejoin="round"/>
<path d="M356.876 283.581H267.809V330.631H356.876V283.581Z" fill="#DDDDDD"/>
<path d="M267.809 283.581H150.44V330.631H267.809V283.581Z" fill="#F9F9F9" stroke="#DDDDDD" stroke-linecap="round" stroke-linejoin="round"/>
</svg>
