<svg width="716" height="557" viewBox="0 0 716 557" fill="none" xmlns="http://www.w3.org/2000/svg">
<path d="M244.636 59.2199C246.838 57.5684 249.053 55.9445 251.31 54.3618" stroke="#DDDDDD" stroke-width="3" stroke-linecap="round" stroke-linejoin="round"/>
<path d="M264.66 45.6091C301.408 22.8319 343.773 10.7373 387.007 10.6802C405.109 10.6722 423.148 12.8018 440.749 17.0247" stroke="#DDDDDD" stroke-width="3" stroke-linecap="round" stroke-linejoin="round" stroke-dasharray="11.57 11.57"/>
<path d="M448.388 19.0205C451.039 19.7545 453.682 20.5344 456.315 21.3601" stroke="#DDDDDD" stroke-width="3" stroke-linecap="round" stroke-linejoin="round"/>
<path d="M265.747 542.83C263.394 541.454 261.054 539.94 258.756 538.44" stroke="#DDDDDD" stroke-width="3" stroke-linecap="round" stroke-linejoin="round"/>
<path d="M245.393 529.054C196.99 492.79 160.396 438.47 143.386 374.75" stroke="#DDDDDD" stroke-width="3" stroke-linecap="round" stroke-linejoin="round" stroke-dasharray="11.9 11.9"/>
<path d="M141.321 366.795C140.688 364.125 140.087 361.442 139.519 358.744" stroke="#DDDDDD" stroke-width="3" stroke-linecap="round" stroke-linejoin="round"/>
<path d="M638.666 333.229C638.327 335.981 637.951 338.706 637.538 341.404" stroke="#DDDDDD" stroke-width="3" stroke-linecap="round" stroke-linejoin="round"/>
<path d="M634.551 358.001C630.557 377.266 624.694 396.095 617.046 414.221" stroke="#DDDDDD" stroke-width="3" stroke-linecap="round" stroke-linejoin="round" stroke-dasharray="12.25 12.25"/>
<path d="M613.66 421.997C612.513 424.501 611.339 426.983 610.137 429.442" stroke="#DDDDDD" stroke-width="3" stroke-linecap="round" stroke-linejoin="round"/>
<path d="M199.454 434.259L123.843 445.434C122.492 445.627 121.118 445.312 119.986 444.549C118.854 443.786 118.046 442.63 117.719 441.305L108.966 400.458C108.823 399.819 108.815 399.157 108.943 398.515C109.071 397.873 109.332 397.264 109.709 396.729C110.086 396.194 110.571 395.743 111.133 395.407C111.695 395.07 112.321 394.855 112.971 394.774L188.581 383.613C189.932 383.42 191.307 383.735 192.439 384.498C193.57 385.261 194.378 386.417 194.706 387.742L203.459 428.492C203.615 429.137 203.633 429.808 203.511 430.46C203.39 431.112 203.131 431.731 202.752 432.276C202.374 432.821 201.884 433.279 201.316 433.621C200.747 433.963 200.112 434.18 199.454 434.259V434.259Z" fill="#F9F9F9" stroke="#DDDDDD" stroke-width="2" stroke-linecap="round" stroke-linejoin="round"/>
<path d="M120.155 401.435C120.967 401.284 165.227 415.762 165.227 415.762L185.87 389.724" stroke="#DDDDDD" stroke-width="2" stroke-linecap="round" stroke-linejoin="round"/>
<path d="M131.578 431.162L156.212 412.831" stroke="#DDDDDD" stroke-width="2" stroke-linecap="round" stroke-linejoin="round"/>
<path d="M177.062 412.831L195.807 418.762" stroke="#DDDDDD" stroke-width="2" stroke-linecap="round" stroke-linejoin="round"/>
<path d="M231.231 497.675L211.551 501.377C211.286 501.426 211.039 501.545 210.835 501.721L198.449 512.539C198.237 512.72 197.979 512.838 197.703 512.882C197.428 512.925 197.145 512.892 196.888 512.785C196.63 512.678 196.407 512.502 196.243 512.277C196.079 512.051 195.98 511.785 195.958 511.506L193.852 478.903C193.832 478.629 193.889 478.353 194.018 478.11C194.147 477.866 194.343 477.664 194.582 477.527C194.791 477.406 195.028 477.343 195.27 477.343C195.512 477.343 195.749 477.406 195.958 477.527L231.63 494.868C231.916 495.004 232.15 495.228 232.299 495.507C232.449 495.786 232.505 496.105 232.461 496.418C232.416 496.731 232.273 497.022 232.052 497.248C231.831 497.474 231.543 497.624 231.231 497.675V497.675Z" fill="white" stroke="#DDDDDD" stroke-width="2" stroke-linecap="round" stroke-linejoin="round"/>
<path d="M231.231 497.675L211.551 501.377C211.286 501.426 211.039 501.545 210.835 501.721L194.582 477.527C194.791 477.406 195.028 477.343 195.27 477.343C195.511 477.343 195.749 477.406 195.958 477.527L231.63 494.868C231.915 495.004 232.15 495.228 232.299 495.507C232.449 495.786 232.505 496.105 232.461 496.418C232.416 496.731 232.273 497.022 232.052 497.248C231.831 497.474 231.543 497.624 231.231 497.675V497.675Z" fill="#DDDDDD" stroke="#DDDDDD" stroke-width="2" stroke-linecap="round" stroke-linejoin="round"/>
<mask id="mask0_1_1388" style="mask-type:alpha" maskUnits="userSpaceOnUse" x="1" y="104" width="294" height="208">
<rect x="1" y="104.594" width="293.139" height="206.436" fill="#C4C4C4"/>
</mask>
<g mask="url(#mask0_1_1388)">
<path d="M232.676 303.695C238.979 306.86 247.14 300.943 256.209 292.933L246.383 284.125C246.383 284.125 230.969 298.493 232.676 303.695Z" fill="#25CED1"/>
<path d="M316.695 265.807L293.946 312.173H246.094L238.126 289.905L265.21 265.807H316.695Z" fill="#B25E47"/>
<path d="M279.619 265.807L257.214 300.819" stroke="#914839" stroke-width="0.75" stroke-linecap="round" stroke-linejoin="round"/>
<path d="M271.087 269.427C254.861 278.689 232.676 303.695 232.676 303.695L226.717 315.531L223.249 322.412H105.525C102.773 312.489 100.406 299.566 98.644 289.093C97.2678 280.987 96.387 274.354 96.0292 271.752L95.8778 270.583C92.8776 273.239 91.4188 273.335 91.4188 273.335L85.9138 287.882L85.4046 289.258C65.862 276.184 30.1074 273.872 30.1074 273.872L34.9104 257.646C33.4674 254.311 33.0645 250.617 33.7544 247.049C34.5389 242.989 45.3011 224.162 56.1458 208.363C60.4217 201.936 65.1642 195.832 70.3348 190.1C70.7614 189.66 71.2018 189.233 71.6422 188.834C84.7303 176.792 106.42 178.54 120.678 179.834C122.797 180.026 124.806 180.164 126.678 180.246C130.891 180.468 135.113 180.468 139.326 180.246C142.78 180.067 144.679 179.806 144.679 179.806C145.12 177.797 145.532 175.677 145.945 173.351C148.519 158.309 149.964 138.23 147.666 125.032L183.888 141.203C184.507 147.781 186.93 162.218 188.595 171.714C189.531 177.026 190.205 180.797 190.205 180.797C193.123 180.26 195.875 179.778 198.463 179.338C235.236 173.104 244.704 175.443 254.888 193.376C255.164 193.844 255.425 194.339 255.7 194.862C261.976 207.248 266.256 232.02 268.637 249.526C270.33 261.032 271.087 269.427 271.087 269.427Z" fill="#25CED1"/>
<path d="M271.087 269.426C255.177 278.523 233.502 302.773 232.69 303.667C232.979 303.062 237.713 293.263 238.195 289.905C238.676 286.547 236.997 276.61 234.396 267.266L268.802 249.581C270.33 261.031 271.087 269.426 271.087 269.426Z" fill="#25CED1"/>
<path d="M148.574 274.78C148.312 287.965 117.43 289.822 98.6853 289.093C97.3091 280.987 96.4283 274.354 96.0705 271.752L95.9191 270.583C102.731 263.672 108.361 255.689 112.585 246.953C123.595 254.467 109.475 262.188 108.938 265.807C107.479 275.73 148.945 255.953 148.574 274.78Z" fill="#25CED1"/>
<path d="M255.838 194.917C245.103 191.188 233.047 191.311 224.694 204.647C205.88 234.677 170.566 258.1 135.238 222.648C130.407 217.671 125.123 213.156 119.453 209.161C98.5752 194.876 80.918 197.766 56.2283 208.349C60.5043 201.922 65.2467 195.818 70.4173 190.087C70.844 189.646 71.2844 189.22 71.7248 188.82C84.8128 176.778 106.502 178.526 120.76 179.82C122.88 180.013 124.889 180.15 126.761 180.233C130.973 180.454 135.195 180.454 139.408 180.233C142.862 180.054 144.762 179.792 144.762 179.792C145.202 177.783 145.615 175.664 146.028 173.338C148.601 158.295 150.046 138.216 147.748 125.018L183.971 141.189C184.59 147.767 187.012 162.204 188.677 171.7C189.613 177.012 190.288 180.783 190.288 180.783C193.205 180.246 195.958 179.765 198.545 179.324C235.318 173.09 244.787 175.43 254.971 193.362C255.301 193.899 255.563 194.394 255.838 194.917Z" fill="#25CED1"/>
<path d="M198.6 179.393C198.49 188.697 197.485 205.652 193.439 217.639C188.21 233.191 182.044 226.874 175.273 220.736C169.149 215.148 146.826 196.555 126.774 180.274C130.987 180.496 135.209 180.496 139.422 180.274C142.876 180.095 144.775 179.834 144.775 179.834C145.216 177.824 145.629 175.705 146.042 173.379C160.588 172.43 178.039 171.494 188.705 171.742C189.641 177.054 190.315 180.825 190.315 180.825C193.205 180.26 195.958 179.834 198.6 179.393Z" fill="#22B5B8"/>
<path d="M184.342 214.955C184.342 214.955 153.349 193.871 139.422 180.26C142.876 180.081 144.775 179.82 144.775 179.82C148.092 164.585 150.404 140.253 147.762 125.045L171.309 135.546L183.985 141.216C184.439 146.074 185.897 155.295 187.287 163.58C188.829 172.746 190.301 180.811 190.301 180.811C191.43 207.537 184.342 214.955 184.342 214.955Z" fill="#B25E47"/>
<path d="M232.676 303.695C232.965 303.09 237.699 293.291 238.181 289.933C238.662 286.575 236.983 276.638 234.382 267.294C234.245 266.812 234.107 266.317 233.956 265.835" stroke="#22B5B8" stroke-width="0.75" stroke-linecap="round" stroke-linejoin="round"/>
<path d="M187.274 163.621C162.818 165.121 165.57 138.835 165.777 138.175L171.282 135.587L183.957 141.258C184.425 146.116 185.884 155.336 187.274 163.621Z" fill="#914839"/>
<path d="M30.1899 273.844C29.5018 275.867 29.5018 278.069 44.8469 282.391L47.214 272.331C47.214 272.331 33.259 268.56 30.1899 273.844Z" fill="#25CED1"/>
<path d="M38.5988 268.546C34.993 280.299 22.4142 319.659 22.4142 319.659C19.0011 334.096 61.8159 343.523 77.0508 318.999L85.4321 279.515C71.581 270.501 55.0118 266.621 38.5988 268.546V268.546Z" fill="#B25E47"/>
<path d="M108.993 253.6C108.94 253.678 108.894 253.761 108.856 253.848C107.039 256.752 105.016 259.711 102.814 262.766L102.663 262.972C100.598 265.666 98.3445 268.209 95.9191 270.583C92.9189 273.239 91.46 273.335 91.46 273.335L85.4872 289.231C84.8816 288.832 84.2623 288.433 83.6155 288.047C72.7157 281.441 57.7147 277.808 46.4571 275.881C42.755 275.248 39.452 274.808 36.8234 274.505C32.7773 274.023 30.2725 273.858 30.2725 273.858L35.0756 257.632C33.6326 254.297 33.2296 250.604 33.9195 247.035C34.704 242.976 45.4662 224.149 56.3109 208.349C60.5869 201.923 65.3293 195.819 70.4999 190.087C70.9266 189.646 71.367 189.22 71.8074 188.821C90.359 180.137 114.471 182.27 119.219 207.303C119.343 207.923 119.453 208.542 119.535 209.161C122.178 225.828 118.063 239.053 108.993 253.6Z" fill="#25CED1"/>
<path d="M119.453 209.161C98.5752 194.876 80.918 197.766 56.2283 208.349C60.5043 201.923 65.2467 195.819 70.4173 190.087C70.844 189.646 71.2844 189.22 71.7248 188.821C90.2764 180.137 114.388 182.27 119.136 207.303C119.26 207.964 119.37 208.583 119.453 209.161Z" fill="#25CED1"/>
<path d="M42.6174 261.073C55.5403 261.073 68.1742 266.358 70.3073 267.363" stroke="#22B5B8" stroke-width="0.75" stroke-linecap="round" stroke-linejoin="round"/>
<path d="M95.9191 270.582C98.3445 268.209 100.598 265.665 102.663 262.972L102.814 262.765C104.989 259.905 107.006 256.928 108.856 253.847C108.894 253.761 108.94 253.678 108.993 253.6C110.452 251.136 111.663 248.865 112.585 246.952C113.342 245.466 113.893 244.2 114.278 243.264" stroke="#22B5B8" stroke-width="0.75" stroke-linecap="round" stroke-linejoin="round"/>
<path d="M207.793 259.091C208.289 265.601 204.463 267.266 204.463 267.266C204.986 283.093 200.334 290.662 192.6 292.671C184.865 294.681 164.882 298.919 164.882 298.919C162.811 299.762 160.813 300.775 158.909 301.947C156.68 303.213 153.914 304.837 150.652 306.764C140.716 312.572 125.068 317.994 106.475 327.793C73.5276 345.161 50.049 335.748 48.4801 317.32C45.6451 283.588 88.4874 281.386 104.135 278.785C115.475 276.886 133.036 272.386 143.922 269.867C148.051 268.931 151.147 268.271 152.606 268.133C157.836 267.665 168.681 261.94 187.714 255.953C206.747 249.967 222.12 246.499 222.12 250.696C222.12 254.894 207.793 259.091 207.793 259.091Z" fill="#B25E47"/>
<path d="M187.742 255.953C206.761 249.939 222.148 246.499 222.148 250.696C222.148 254.894 207.738 259.132 207.738 259.132C208.234 265.642 204.408 267.307 204.408 267.307C204.931 283.134 200.279 290.703 192.545 292.713" stroke="#914839" stroke-width="0.75" stroke-linecap="round" stroke-linejoin="round"/>
<path d="M56.4623 294.488C64.7197 286.492 77.9453 283.038 89.1204 281.083" stroke="#914839" stroke-width="0.75" stroke-linecap="round" stroke-linejoin="round"/>
<path d="M158.909 301.947C156.68 303.213 153.914 304.837 150.652 306.764C142.986 298.218 139.009 284.978 143.922 269.826C148.051 268.89 151.147 268.229 152.606 268.092C149.056 277.794 148.395 293.621 158.909 301.947Z" fill="#683F1D"/>
<path d="M207.793 259.091L196.027 262.903" stroke="#914839" stroke-width="0.75" stroke-linecap="round" stroke-linejoin="round"/>
<path d="M204.463 267.266L197.224 269.895" stroke="#914839" stroke-width="0.75" stroke-linecap="round" stroke-linejoin="round"/>
<path d="M198.008 277.492L204.174 275.812" stroke="#914839" stroke-width="0.75" stroke-linecap="round" stroke-linejoin="round"/>
<path d="M156.129 287.606C156.129 289.574 155.546 291.498 154.453 293.135C153.359 294.771 151.805 296.046 149.987 296.799C148.169 297.552 146.168 297.749 144.238 297.365C142.308 296.982 140.535 296.034 139.143 294.642C137.752 293.251 136.804 291.478 136.42 289.548C136.036 287.617 136.233 285.617 136.986 283.799C137.74 281.981 139.015 280.427 140.651 279.333C142.288 278.24 144.211 277.656 146.179 277.656C148.818 277.656 151.349 278.705 153.215 280.571C155.081 282.437 156.129 284.968 156.129 287.606V287.606Z" fill="white" stroke="#683F1D" stroke-linecap="round" stroke-linejoin="round"/>
</g>
<path d="M293.946 103.452V308.897H1V103.452C0.998197 100.731 1.53261 98.0362 2.57269 95.5217C3.61278 93.0072 5.13816 90.7222 7.06166 88.7975C8.98516 86.8727 11.2691 85.3458 13.7829 84.304C16.2967 83.2623 18.9912 82.7261 21.7124 82.7261H273.234C275.955 82.7261 278.649 83.2623 281.163 84.304C283.677 85.3458 285.961 86.8727 287.884 88.7975C289.808 90.7222 291.333 93.0072 292.373 95.5217C293.413 98.0362 293.948 100.731 293.946 103.452Z" stroke="#DDDDDD" stroke-width="2" stroke-linecap="round" stroke-linejoin="round"/>
<path d="M293.946 103.452V104.374H1V103.452C0.998197 100.731 1.53261 98.0362 2.57269 95.5217C3.61278 93.0072 5.13816 90.7222 7.06166 88.7975C8.98516 86.8727 11.2691 85.3458 13.7829 84.304C16.2967 83.2623 18.9912 82.7261 21.7124 82.7261H273.234C275.955 82.7261 278.649 83.2623 281.163 84.304C283.677 85.3458 285.961 86.8727 287.884 88.7975C289.808 90.7222 291.333 93.0072 292.373 95.5217C293.413 98.0362 293.948 100.731 293.946 103.452Z" stroke="#DDDDDD" stroke-width="2" stroke-linecap="round" stroke-linejoin="round"/>
<path d="M254.297 93.557C254.297 94.3028 254.075 95.0319 253.661 95.652C253.247 96.2721 252.658 96.7555 251.969 97.0409C251.28 97.3263 250.521 97.401 249.79 97.2555C249.059 97.11 248.387 96.7508 247.859 96.2234C247.332 95.6961 246.973 95.0242 246.827 94.2927C246.682 93.5612 246.756 92.803 247.042 92.114C247.327 91.4249 247.811 90.836 248.431 90.4216C249.051 90.0073 249.78 89.7861 250.526 89.7861C251.021 89.7861 251.511 89.8837 251.969 90.0732C252.426 90.2627 252.842 90.5405 253.192 90.8906C253.542 91.2408 253.82 91.6565 254.01 92.114C254.199 92.5715 254.297 93.0618 254.297 93.557V93.557Z" fill="#DDDDDD"/>
<path d="M262.815 97.3279C264.898 97.3279 266.586 95.6396 266.586 93.557C266.586 91.4744 264.898 89.7861 262.815 89.7861C260.733 89.7861 259.045 91.4744 259.045 93.557C259.045 95.6396 260.733 97.3279 262.815 97.3279Z" fill="#DDDDDD"/>
<path d="M278.876 93.5571C278.876 94.3035 278.655 95.0331 278.24 95.6535C277.825 96.2739 277.235 96.7572 276.545 97.0422C275.855 97.3272 275.096 97.4011 274.364 97.2545C273.633 97.1078 272.961 96.7473 272.434 96.2186C271.907 95.6898 271.549 95.0166 271.405 94.2843C271.261 93.5519 271.338 92.7932 271.625 92.1044C271.913 91.4156 272.398 90.8277 273.02 90.415C273.642 90.0023 274.373 89.7834 275.119 89.7862C275.614 89.7862 276.103 89.8838 276.56 90.0735C277.017 90.2631 277.432 90.5411 277.781 90.8915C278.13 91.2418 278.406 91.6576 278.594 92.115C278.782 92.5725 278.878 93.0625 278.876 93.5571Z" fill="#DDDDDD"/>
<path d="M222.863 273.706C227.57 268.711 235.428 268.091 235.428 268.091L244.525 277.491C244.525 277.491 247.113 249.732 235.428 211.652C233.213 230.245 226.373 260.164 222.863 273.706Z" fill="#DDDDDD" stroke="#DDDDDD" stroke-linecap="round" stroke-linejoin="round"/>
<path d="M312.622 206.009C325.765 247.709 325.132 277.491 325.132 277.491H244.525C244.525 277.491 233.667 236.108 235.428 211.652C235.428 211.652 233.901 205.886 238.952 205.376C244.002 204.867 312.622 206.009 312.622 206.009Z" fill="#F9F9F9" stroke="#DDDDDD" stroke-linecap="round" stroke-linejoin="round"/>
<path d="M248.035 205.596C248.028 205.481 248.028 205.366 248.035 205.252C248.152 204.138 248.589 203.082 249.294 202.212C249.998 201.341 250.94 200.694 252.005 200.347C253.07 200.001 254.213 199.971 255.295 200.26C256.377 200.55 257.352 201.147 258.101 201.979C258.851 202.811 259.343 203.842 259.519 204.948C259.695 206.055 259.546 207.188 259.091 208.211C258.636 209.235 257.894 210.104 256.956 210.715C256.017 211.325 254.921 211.651 253.801 211.651" stroke="#DDDDDD" stroke-linecap="round" stroke-linejoin="round"/>
<path d="M288.991 205.597C289.139 204.494 289.602 203.457 290.323 202.61C291.045 201.763 291.995 201.142 293.06 200.82C294.125 200.499 295.26 200.491 296.33 200.797C297.4 201.104 298.358 201.712 299.092 202.549C299.825 203.385 300.302 204.416 300.465 205.516C300.628 206.617 300.472 207.741 300.013 208.755C299.555 209.769 298.814 210.629 297.88 211.233C296.945 211.837 295.857 212.159 294.744 212.161C293.777 212.159 292.828 211.903 291.992 211.418" stroke="#DDDDDD" stroke-linecap="round" stroke-linejoin="round"/>
<path d="M264.481 205.349C264.544 203.839 265.169 202.408 266.234 201.336C267.298 200.264 268.725 199.629 270.233 199.555C271.821 199.719 273.292 200.467 274.361 201.652C275.431 202.838 276.022 204.378 276.022 205.975C276.022 207.571 275.431 209.111 274.361 210.297C273.292 211.483 271.821 212.23 270.233 212.395C268.936 212.374 267.69 211.886 266.724 211.019" stroke="#DDDDDD" stroke-linecap="round" stroke-linejoin="round"/>
<path d="M276.757 205.486C276.902 204.385 277.362 203.349 278.08 202.503C278.799 201.656 279.746 201.034 280.809 200.712C281.872 200.389 283.005 200.38 284.073 200.685C285.141 200.989 286.098 201.595 286.831 202.43C287.564 203.264 288.04 204.292 288.204 205.391C288.368 206.489 288.212 207.611 287.754 208.623C287.297 209.635 286.558 210.494 285.625 211.097C284.693 211.7 283.606 212.022 282.496 212.023" stroke="#DDDDDD" stroke-linecap="round" stroke-linejoin="round"/>
<path d="M308.3 219.414H251.819V225.868H308.3V219.414Z" stroke="#DDDDDD" stroke-linecap="round" stroke-linejoin="round"/>
<path d="M265.816 270.458L265.1 265.022L261.467 237.043L260.861 232.447" stroke="#DDDDDD" stroke-linecap="round" stroke-linejoin="round"/>
<path d="M284.147 270.458L283.39 264.637L279.84 237.401L279.193 232.447" stroke="#DDDDDD" stroke-linecap="round" stroke-linejoin="round"/>
<path d="M297.538 232.433L302.479 270.472" stroke="#DDDDDD" stroke-linecap="round" stroke-linejoin="round"/>
<path d="M308.906 240.043H280.184H261.852H253.815" stroke="#DDDDDD" stroke-linecap="round" stroke-linejoin="round"/>
<path d="M311.699 256.655H282.344H264.013H256.595" stroke="#DDDDDD" stroke-linecap="round" stroke-linejoin="round"/>
<path d="M267.082 233.754C257.971 238.406 253.581 257.797 269.036 259.091C291.813 260.99 292.9 232.942 272.945 235.585" fill="#F9F9F9"/>
<path d="M267.082 233.754C257.971 238.406 253.581 257.797 269.036 259.091C291.813 260.99 292.9 232.942 272.945 235.585" stroke="#DDDDDD" stroke-width="2" stroke-linecap="round" stroke-linejoin="round"/>
<path d="M282.344 256.655H264.013L261.852 240.043H280.184L282.344 256.655Z" fill="#DDDDDD"/>
<path d="M315.278 254.15C315.663 260.467 327.664 253.517 326.838 247.985C326.012 242.452 314.823 246.829 315.278 254.15Z" fill="#B25E47" stroke="#914839" stroke-width="0.75" stroke-linecap="round" stroke-linejoin="round"/>
<path d="M313.241 245.645C313.681 251.976 327.196 245.026 326.315 239.48C325.434 233.933 312.732 238.337 313.241 245.645Z" fill="#B25E47" stroke="#914839" stroke-width="0.75" stroke-linecap="round" stroke-linejoin="round"/>
<path d="M312.291 239.3C312.759 245.617 327.251 238.667 326.301 233.135C325.352 227.602 311.754 231.979 312.291 239.3Z" fill="#B25E47" stroke="#914839" stroke-width="0.75" stroke-linecap="round" stroke-linejoin="round"/>
<path d="M310.254 231.469C310.736 237.208 325.682 230.905 324.705 225.882C323.728 220.859 309.69 224.836 310.254 231.469Z" fill="#B25E47" stroke="#914839" stroke-width="0.75" stroke-linecap="round" stroke-linejoin="round"/>
<path d="M267.082 233.754C257.971 238.406 253.581 257.797 269.036 259.091C291.813 260.99 292.9 232.942 272.945 235.585" stroke="#DDDDDD" stroke-width="2" stroke-linecap="round" stroke-linejoin="round"/>
<path d="M212.693 86.4832C211.496 96.4334 198.187 102.269 198.187 102.269L161.263 134.5C157.478 140.542 147.17 143.583 140.895 138.533C137.22 135.587 134.935 129.876 136.174 120.366C135.147 120.367 134.142 120.065 133.284 119.499C129.031 116.871 126.403 108.489 132.788 98.539C132.334 98.9794 123.829 107.251 115.076 104.746C113.571 104.344 112.168 103.627 110.961 102.642C109.753 101.658 108.768 100.428 108.071 99.0345C105.319 93.4057 106.282 84.0197 114.14 71.1519C119.728 61.9724 127.504 60.3209 134.165 62.0412C141.707 63.968 147.817 70.161 147.817 74.6613C149.481 72.6193 151.411 70.8095 153.556 69.2802C156.501 67.2296 160.148 65.8396 163.41 67.8214C163.41 67.8214 174.888 61.6421 181.411 65.5093C189.531 70.2986 187.742 73.6291 195.641 74.1521C201.518 74.5375 210.78 76.0238 212.473 82.6848C212.795 83.9242 212.87 85.2149 212.693 86.4832Z" fill="#333333"/>
<path d="M147.817 74.6614L132.816 98.5116C131.745 99.514 130.599 100.434 129.389 101.264C126.017 103.604 120.623 106.274 115.118 104.705C113.612 104.303 112.21 103.585 111.002 102.601C109.794 101.616 108.81 100.387 108.113 98.9933C125.205 98.6354 131.22 93.8599 127.71 84.4602C124.448 75.7073 121.063 64.7112 134.206 62C139.348 63.2804 143.816 66.4558 146.716 70.8905C147.4 72.0322 147.779 73.3308 147.817 74.6614V74.6614Z" fill="#333333"/>
<path d="M212.693 86.4837C211.496 96.4339 198.187 102.269 198.187 102.269L161.263 134.501C157.478 140.542 147.17 143.584 140.895 138.533C138.724 133.329 138.191 127.587 139.367 122.072C140.542 116.557 143.37 111.531 147.473 107.664C155.042 100.783 149.496 95.6494 150.225 86.5938C150.955 77.5381 167.525 63.5968 179.388 76.1068C188.691 85.9194 206.197 74.0562 212.541 82.6853C212.841 83.9292 212.892 85.2199 212.693 86.4837V86.4837Z" fill="#333333"/>
<path d="M190.054 152.336C173.456 150.63 156.611 133.413 156.611 133.413C150.28 140.624 137.798 129.849 143.977 120.875C148.023 114.971 154.354 118.481 155.896 121.701C158.463 120.043 160.347 117.514 161.199 114.578C162.051 111.643 161.815 108.498 160.533 105.723C159.175 102.316 158.587 98.6497 158.813 94.9884C164.428 86.4557 179.319 84.5015 179.319 84.5015C181.52 86.8221 184.197 88.6387 187.167 89.8265C190.136 91.0144 193.328 91.5452 196.522 91.3827C196.522 91.3827 201.628 101.36 205.784 111.503C205.867 111.723 205.977 111.971 206.059 112.191C207.229 115.081 208.316 117.972 209.17 120.614C209.252 120.875 209.321 121.109 209.404 121.357C210.087 123.444 210.593 125.585 210.917 127.757C212.252 138.67 206.637 154.112 190.054 152.336Z" fill="#B25E47"/>
<path d="M196.949 106.948C196.949 107.302 197.054 107.648 197.25 107.942C197.447 108.236 197.726 108.465 198.053 108.601C198.38 108.736 198.74 108.772 199.087 108.703C199.434 108.634 199.753 108.463 200.003 108.213C200.253 107.963 200.424 107.644 200.493 107.297C200.562 106.95 200.526 106.59 200.391 106.263C200.255 105.936 200.026 105.657 199.732 105.46C199.438 105.264 199.092 105.159 198.738 105.159C198.264 105.162 197.811 105.352 197.477 105.687C197.142 106.021 196.952 106.474 196.949 106.948V106.948Z" fill="#4F4F4F"/>
<path d="M187.742 110.54C188.73 110.54 189.531 109.739 189.531 108.751C189.531 107.762 188.73 106.961 187.742 106.961C186.754 106.961 185.953 107.762 185.953 108.751C185.953 109.739 186.754 110.54 187.742 110.54Z" fill="#4F4F4F"/>
<path d="M185.636 120.862C189.222 122.66 193.2 123.535 197.21 123.408C197.21 123.408 196.439 130.11 190.687 128.321C185.664 126.766 185.636 120.862 185.636 120.862Z" fill="white" stroke="#914839" stroke-width="0.75" stroke-linecap="round" stroke-linejoin="round"/>
<path d="M179.966 103.493C180.627 105.695 188.898 103.493 187.989 99.9152C187.081 96.337 179.016 100.438 179.966 103.493Z" fill="#333333"/>
<path d="M194.017 99.0619C193.893 101.457 202.357 101.622 202.357 99.5574C202.357 97.6857 194.238 95.1947 194.017 99.0619Z" fill="#333333"/>
<path d="M136.174 120.366C137.199 113.593 140.476 107.363 145.477 102.682" stroke="#4F4F4F" stroke-width="0.75" stroke-linecap="round" stroke-linejoin="round"/>
<path d="M163.41 67.8076C160.809 69.8857 156.914 76.6431 155.4 79.6846" stroke="#4F4F4F" stroke-width="0.75" stroke-linecap="round" stroke-linejoin="round"/>
<path d="M161.098 86.497C164.167 78.3222 170.071 74.6339 172.837 77.7717C175.603 80.9095 179.319 84.4877 179.319 84.4877" stroke="#4F4F4F" stroke-width="0.75" stroke-linecap="round" stroke-linejoin="round"/>
<path d="M196.522 91.4514C199.963 91.3138 203.238 87.8044 204.229 85.7676" stroke="#4F4F4F" stroke-width="0.75" stroke-linecap="round" stroke-linejoin="round"/>
<path d="M127.669 97.0387C114.98 99.0205 108.718 80.2349 119.026 65.3853" stroke="#4F4F4F" stroke-width="0.75" stroke-linecap="round" stroke-linejoin="round"/>
<path d="M140.385 79.6844C143.041 72.8032 134.178 61.697 129.375 69.3213C123.87 78.0467 131.908 89.6208 140.385 88.5886" stroke="#4F4F4F" stroke-width="0.75" stroke-linecap="round" stroke-linejoin="round"/>
<path d="M132.816 98.5113C135.854 89.484 140.996 81.3089 147.817 74.6611C147.817 74.6611 143.964 82.4782 146.785 88.0382C141.888 91.196 137.22 94.6958 132.816 98.5113V98.5113Z" fill="#F06B07"/>
<path d="M145.477 126.766C148.037 122.238 152.482 122.486 154.822 126.298" stroke="#914839" stroke-width="0.75" stroke-linecap="round" stroke-linejoin="round"/>
<path d="M153.886 125.087C148.615 123.71 148.602 130.784 154.203 129.779" stroke="#914839" stroke-width="0.75" stroke-linecap="round" stroke-linejoin="round"/>
<path d="M192.173 105.654C192.091 109.783 195.394 112.15 197.568 113.292C199.742 114.435 199.027 117.421 198.875 117.862" stroke="#914839" stroke-width="0.75" stroke-linecap="round" stroke-linejoin="round"/>
<path d="M156.625 133.468C157.469 132.378 158.172 131.185 158.717 129.917" stroke="#914839" stroke-width="0.75" stroke-linecap="round" stroke-linejoin="round"/>
<path d="M180.461 119.513C179.085 122.128 174.86 122.609 170.828 120.614C166.795 118.618 164.69 114.861 166.011 112.246C167.332 109.631 171.612 109.15 175.644 111.159C179.677 113.168 181.783 116.953 180.461 119.513Z" fill="#914839"/>
<path d="M209.404 121.412C208.541 121.811 207.582 121.957 206.639 121.833C205.696 121.709 204.808 121.319 204.078 120.71C202.082 118.715 202.839 114.668 205.784 111.558C205.867 111.778 205.977 112.026 206.059 112.246C207.229 115.136 208.316 118.026 209.17 120.669C209.252 120.93 209.321 121.164 209.404 121.412Z" fill="#914839"/>
<path d="M699.551 55.6275V261.072H406.66V55.6275C406.66 50.1306 408.844 44.8588 412.731 40.9719C416.617 37.085 421.889 34.9014 427.386 34.9014H678.907C684.391 34.9196 689.644 37.1117 693.514 40.997C697.383 44.8824 699.555 50.1438 699.551 55.6275V55.6275Z" stroke="#DDDDDD" stroke-width="2" stroke-linecap="round" stroke-linejoin="round"/>
<path d="M699.551 55.6275V56.5496H406.66V55.6275C406.66 50.1306 408.844 44.8588 412.731 40.9719C416.617 37.085 421.889 34.9014 427.386 34.9014H678.907C684.391 34.9196 689.644 37.1117 693.514 40.997C697.383 44.8824 699.555 50.1438 699.551 55.6275V55.6275Z" stroke="#DDDDDD" stroke-width="2" stroke-linecap="round" stroke-linejoin="round"/>
<path d="M659.957 45.7319C659.957 46.4783 659.735 47.2079 659.32 47.8283C658.905 48.4487 658.315 48.932 657.626 49.217C656.936 49.502 656.177 49.5759 655.445 49.4293C654.713 49.2826 654.041 48.9221 653.514 48.3934C652.988 47.8646 652.63 47.1914 652.486 46.4591C652.342 45.7267 652.418 44.968 652.706 44.2792C652.993 43.5905 653.479 43.0025 654.101 42.5898C654.723 42.1771 655.453 41.9582 656.199 41.961C656.694 41.961 657.184 42.0586 657.64 42.2483C658.097 42.438 658.512 42.7159 658.861 43.0663C659.21 43.4166 659.487 43.8324 659.675 44.2899C659.863 44.7473 659.958 45.2373 659.957 45.7319V45.7319Z" fill="#DDDDDD"/>
<path d="M672.26 45.7318C672.26 46.4776 672.039 47.2067 671.625 47.8268C671.21 48.447 670.621 48.9303 669.932 49.2157C669.243 49.5011 668.485 49.5758 667.754 49.4303C667.022 49.2848 666.35 48.9256 665.823 48.3983C665.295 47.8709 664.936 47.199 664.791 46.4675C664.645 45.736 664.72 44.9778 665.005 44.2888C665.291 43.5997 665.774 43.0108 666.394 42.5965C667.014 42.1821 667.743 41.9609 668.489 41.9609C669.489 41.9609 670.449 42.3582 671.156 43.0654C671.863 43.7726 672.26 44.7317 672.26 45.7318V45.7318Z" fill="#DDDDDD"/>
<path d="M684.55 45.7318C684.55 46.4776 684.329 47.2067 683.914 47.8268C683.5 48.447 682.911 48.9303 682.222 49.2157C681.533 49.5011 680.775 49.5758 680.043 49.4303C679.312 49.2848 678.64 48.9256 678.113 48.3983C677.585 47.8709 677.226 47.199 677.081 46.4675C676.935 45.736 677.01 44.9778 677.295 44.2888C677.581 43.5997 678.064 43.0108 678.684 42.5965C679.304 42.1821 680.033 41.9609 680.779 41.9609C681.779 41.9609 682.738 42.3582 683.445 43.0654C684.153 43.7726 684.55 44.7317 684.55 45.7318V45.7318Z" fill="#DDDDDD"/>
<path d="M412.908 144.945C412.151 136.358 450.067 120.077 456.328 132.642L443.942 144.945C443.942 144.945 418.358 155.088 412.908 144.945Z" fill="#22B5B8"/>
<path d="M431.46 83.5242C425.955 66.4038 425.542 64.2568 429.23 62.9769C432.919 61.697 442.263 81.1433 443.323 83.5242C447.025 91.018 449.878 98.9024 451.828 107.03C453.466 114.627 455.613 132.119 455.957 136.33C457.416 154.111 428.102 159.52 426.822 145.689C425.542 131.858 425.446 127.385 425.446 127.385C425.446 127.385 410.307 128.761 408.188 117.503C406.068 106.246 406.66 90.8045 406.66 90.8045C406.66 90.8045 383.649 86.9923 384.448 80.9231C385.246 74.8539 430.276 87.1162 430.276 87.1162L431.46 83.5242Z" fill="#B25E47"/>
<path d="M406.66 90.8047C406.66 90.8047 383.649 86.9925 384.448 80.9233C385.246 74.8541 430.276 87.1164 430.276 87.1164L431.46 83.5657C425.955 66.4453 425.542 64.2983 429.23 63.0184C432.919 61.7385 442.263 81.1848 443.323 83.5657" stroke="#914839" stroke-width="0.75" stroke-linecap="round" stroke-linejoin="round"/>
<path d="M430.276 87.0752C428.3 94.6621 428.616 102.665 431.185 110.072" stroke="#914839" stroke-width="0.75" stroke-linecap="round" stroke-linejoin="round"/>
<path d="M419.5 73.9454C423.106 75.8171 425.955 76.2162 427.028 71.0691C428.102 65.9219 423.024 65.7981 421.386 66.0733C418.867 66.4862 417.945 73.1334 419.5 73.9454Z" fill="#683F1D"/>
<path d="M420.175 72.6245C419.609 74.6312 419.15 76.6663 418.799 78.7213C419.39 79.024 422.927 80.2214 423.395 79.024C423.935 76.9224 424.317 74.7832 424.537 72.6245H420.175Z" fill="#683F1D"/>
<path d="M416.954 80.4276C415.069 88.8639 405.325 135.105 404.995 136.619C404.665 138.133 405.105 145.125 405.697 145.386C406.288 145.647 409.688 140.652 410.926 138.119C412.165 135.587 423.12 84.8453 423.794 82.4782C425.473 76.7117 418.193 74.9089 416.954 80.4276Z" fill="#683F1D"/>
<path d="M408.38 106.672C403.66 107.759 402.325 112.26 405.807 115.246C409.55 118.467 418.771 117.035 419.198 112.92C419.624 108.805 412.316 105.778 408.38 106.672Z" fill="#B25E47" stroke="#914839" stroke-width="0.75" stroke-linecap="round" stroke-linejoin="round"/>
<path d="M407.954 99.2956C403.109 98.5799 401.926 103.424 405.38 107.14C408.835 110.856 420.244 111.695 420.89 107.278C421.537 102.86 410.926 99.736 407.954 99.2956Z" fill="#B25E47" stroke="#914839" stroke-width="0.75" stroke-linecap="round" stroke-linejoin="round"/>
<path d="M403.66 91.0248C409.743 89.6486 422.927 98.5253 422.39 101.292C421.744 104.773 415.509 105.296 406.729 101.567C398.485 98.0711 400.687 91.7267 403.66 91.0248Z" fill="#B25E47" stroke="#914839" stroke-width="0.75" stroke-linecap="round" stroke-linejoin="round"/>
<mask id="mask1_1_1388" style="mask-type:alpha" maskUnits="userSpaceOnUse" x="406" y="48" width="295" height="214">
<rect x="406.99" y="48.1685" width="293.139" height="213.317" fill="#C4C4C4"/>
</mask>
<g mask="url(#mask1_1_1388)">
<path d="M696.482 158.089C677.6 157.167 661.966 174.191 657.121 193.761C656.984 194.311 656.86 194.903 656.75 195.55C656.234 198.562 655.871 201.598 655.663 204.647C653.653 230.479 655.553 281.854 655.745 283.093C655.814 283.519 642.382 283.093 623.748 282.212C616.866 281.895 609.325 281.551 601.453 281.152C561.432 279.184 513.896 276.528 513.896 276.528L511.006 244.379C511.006 244.379 505.02 254.508 484.541 274.285C464.063 294.061 431.322 283.037 434.845 258.169C437.047 242.549 446.268 231.126 457.443 211.996C460.897 206.078 464.545 199.431 468.205 191.683C473.105 181.389 477.839 171.562 482.408 162.686C484.404 158.777 486.372 155.047 488.285 151.552C495.469 138.299 501.909 128.266 507.098 123.573C522.691 109.453 556.106 117.586 565.01 120.449C578.275 124.767 592.04 127.361 605.967 128.169C625.716 129.546 655.704 138.065 671.586 143.597C680.746 146.673 689.177 151.596 696.358 158.061L696.482 158.089Z" fill="#25CED1"/>
<path d="M709.776 187.389C692.491 170.049 666.246 162.479 639.905 186.013C609.27 213.304 585.764 218.052 551.303 178.196C526.379 149.295 517.736 142.015 488.285 151.607C495.469 138.354 501.91 128.321 507.098 123.628C522.691 109.508 556.106 117.641 565.01 120.504C578.278 124.803 592.043 127.379 605.967 128.17C625.716 129.546 655.704 138.065 671.586 143.597C680.746 146.673 689.177 151.596 696.358 158.061C703.267 163.511 707.299 174.411 709.776 187.389Z" fill="#25CED1"/>
<path d="M481.913 236.989C470.903 248.934 461.008 223.034 457.443 211.996C460.898 206.078 464.545 199.431 468.205 191.683C473.105 181.389 477.839 171.562 482.408 162.686C490.528 175.072 479.559 186.467 478.789 192.082C476.779 207.097 497.698 219.841 481.913 236.989Z" fill="#22B5B8"/>
<path d="M412.908 144.946C429.918 148.538 456.328 132.642 456.328 132.642C456.328 132.642 470.875 197.614 474.674 212.023C478.472 226.433 502.776 282.872 455.406 285.184C425.005 286.671 422.968 228.882 421.166 209.863C419.363 190.843 412.908 144.946 412.908 144.946Z" fill="#25CED1"/>
<path d="M424.18 152.378C437.268 153.3 451.842 144.492 451.842 144.492" stroke="#22B5B8" stroke-width="0.75" stroke-linecap="round" stroke-linejoin="round"/>
<path d="M456.328 132.642C456.328 132.642 470.875 197.614 474.674 212.023C476.752 219.882 484.927 240.25 484.239 257.522" stroke="#22B5B8" stroke-width="0.75" stroke-linecap="round" stroke-linejoin="round"/>
<path d="M551.303 130.977C559.78 146.707 582.268 161.832 609.407 140.955C609.407 140.955 612.325 132.285 612.022 132.285C611.719 132.285 555.142 125.403 555.142 125.403L551.303 130.977Z" fill="white"/>
<path d="M573.639 111.544C566.648 109.962 556.518 111.737 549.527 122.472C542.536 133.206 541.641 142.056 542.04 141.959C542.44 141.863 553.05 135.161 557.798 135.656C562.546 136.151 573.185 139.289 573.185 139.289L573.639 111.544Z" fill="#F06B07"/>
<path d="M605.141 114.696C605.141 114.696 620.596 114.793 622.661 125.624C624.725 136.455 619.027 149.446 612.036 155.447C605.045 161.447 608.884 146.776 583.782 139.895L605.141 114.696Z" fill="#F06B07"/>
<path d="M612.683 127.357C612.683 127.357 604.095 140.404 584.965 140.693C565.836 140.982 562.161 129.587 562.161 129.587C564.239 124.412 566.73 113.375 568.327 105.64C569.345 100.755 570.006 97.1766 570.006 97.1766C570.006 97.1766 573.171 66.5415 606.008 68.3857L606.572 73.409L612.683 127.357Z" fill="#B25E47"/>
<path d="M568.327 105.943C569.345 101.072 570.006 97.4795 570.006 97.4795L588.695 88.7129C588.695 88.7129 591.654 110.072 568.327 105.943Z" fill="#914839"/>
<path d="M511.006 244.379C508.364 214.211 508.364 189.783 508.364 189.783" stroke="#22B5B8" stroke-width="0.75" stroke-linecap="round" stroke-linejoin="round"/>
</g>
<path d="M635.79 317.746C634.186 317.162 632.657 316.39 631.234 315.448C621.601 309.131 620.844 296.827 623.748 282.156C626.005 270.926 630.436 258.32 634.758 245.961C639.698 231.869 644.529 218.12 645.891 207.11C646.084 205.569 646.194 204.096 646.249 202.692C646.512 194.25 648.058 185.898 650.832 177.92C658.732 155.708 675.948 141.725 696.427 158.089C703.212 163.511 707.244 174.411 709.721 187.389C710.602 192.027 711.29 196.94 711.854 201.949C713.726 218.96 714.001 237.25 714.841 250.874C718.983 316.838 703.17 343.179 635.79 317.746Z" fill="#25CED1"/>
<path d="M709.776 187.389C694.899 172.47 673.361 164.777 650.86 177.893C658.759 155.68 675.976 141.698 696.454 158.061C703.267 163.511 707.299 174.411 709.776 187.389Z" fill="#25CED1"/>
<path d="M655.745 283.037C655.814 283.464 642.382 283.037 623.748 282.156C616.867 281.84 609.325 281.496 601.453 281.097C587.993 275.041 579.626 266.275 586.796 253.709C606.311 219.565 642.162 266.866 644.033 233.066C645.3 209.89 650.915 204.853 655.663 204.702C653.653 230.479 655.511 281.854 655.745 283.037Z" fill="#22B5B8"/>
<path d="M660.328 183.687C657.655 190.377 656.079 197.455 655.663 204.647C653.874 230.493 655.553 281.854 655.745 283.093" stroke="#22B5B8" stroke-width="0.75" stroke-linecap="round" stroke-linejoin="round"/>
<path d="M635.79 317.746C634.186 317.162 632.657 316.39 631.234 315.448C646.676 318.765 669.769 321.751 679.94 313.067C695.973 299.415 685.789 281.909 694.652 272.275C703.515 262.642 716.3 259.531 711.91 201.991C713.781 219.001 714.057 237.291 714.896 250.916C718.983 316.838 703.17 343.179 635.79 317.746Z" fill="#22B5B8"/>
<path d="M597.173 201.949C599.622 190.939 585.777 191.421 585.777 191.421C587.002 181.264 573.543 178.443 570.432 188.366C559.491 185.063 556.037 188.366 554.44 194.119L597.173 201.949Z" fill="#DDDDDD"/>
<path d="M578.511 192.481C580.312 192.481 581.772 191.021 581.772 189.219C581.772 187.418 580.312 185.958 578.511 185.958C576.709 185.958 575.249 187.418 575.249 189.219C575.249 191.021 576.709 192.481 578.511 192.481Z" fill="#F9F9F9" stroke="#DDDDDD" stroke-linecap="round" stroke-linejoin="round"/>
<path d="M533.659 185.944L513.236 296.69L594.324 313.067L616.11 202.17L533.659 185.944Z" fill="#F9F9F9" stroke="#DDDDDD" stroke-linecap="round" stroke-linejoin="round"/>
<path d="M558.638 259.325C554.509 270.101 554.262 281.428 556.161 285.212C556.161 285.212 563.895 286.657 571.63 265.67L558.638 259.325Z" fill="#22B5B8"/>
<path d="M569.139 238.489C550.587 232.117 541.724 228.263 538.38 227.355C535.036 226.446 522.952 225.428 521.025 227.355C519.099 229.282 518.961 231.731 519.649 234.236C520.337 236.741 518.273 238.681 517.984 241.269C517.695 243.856 520.805 244.64 520.172 247.214C519.539 249.787 517.42 252.609 518.878 255.471C520.337 258.334 517.502 261.251 520.172 264.72C522.842 268.188 550.202 269.867 556.202 268.587L567.983 273.858C567.983 273.858 588.709 252.567 569.139 238.489Z" fill="#B25E47"/>
<path d="M538.38 227.355C535.036 226.46 522.952 225.428 521.025 227.355C519.099 229.282 518.961 231.731 519.649 234.236C520.337 236.741 518.273 238.681 517.984 241.269C517.695 243.856 520.805 244.641 520.172 247.214C519.539 249.788 517.42 252.609 518.878 255.472C520.337 258.334 517.502 261.252 520.172 264.72" stroke="#914839" stroke-width="0.75" stroke-linecap="round" stroke-linejoin="round"/>
<path d="M679.953 313.053C675.123 321.779 663.039 325.976 640.042 319.054C633.849 317.182 627.876 315.242 622.151 313.274C612.683 310.026 603.944 306.709 596.113 303.53C582.469 298.106 569.111 291.988 556.092 285.198C559.55 281.385 562.342 277.016 564.349 272.275C565.601 269.47 566.632 266.571 567.432 263.605C569.57 255.409 570.144 246.884 569.125 238.475C572.249 239.411 575.607 240.374 579.144 241.338C587.69 243.677 597.269 246.099 606.971 248.646C636.051 256.311 666.301 265.092 673.664 276.005C674.338 277.01 675.04 278.014 675.591 279.06C675.825 279.473 676.072 279.886 676.292 280.313C676.36 280.418 676.42 280.529 676.471 280.643C676.747 281.138 677.008 281.648 677.256 282.143C677.724 283.038 678.137 283.932 678.536 284.827C682.871 294.763 684.096 305.58 679.953 313.053Z" fill="#25CED1"/>
<path d="M569.139 238.489C602.444 248.522 662.833 259.958 673.733 276.019C675.623 278.804 677.254 281.757 678.605 284.84" stroke="#22B5B8" stroke-width="0.75" stroke-linecap="round" stroke-linejoin="round"/>
<path d="M579.144 241.337C581.208 262.215 570.432 282.253 570.432 282.253" stroke="#22B5B8" stroke-width="0.75" stroke-linecap="round" stroke-linejoin="round"/>
<path d="M679.94 313.067C675.109 321.793 663.026 325.99 640.029 319.068C633.836 317.196 627.863 315.256 622.138 313.288C635.638 316.838 667.443 323.706 679.94 313.067Z" fill="#22B5B8"/>
<path d="M605.967 68.6471L606.531 73.6566C594.902 91.7954 579.006 97.5068 569.964 97.4242C555.018 93.6946 549.913 80.235 549.046 65.7707C548.832 62.3426 548.832 58.9046 549.046 55.4765C549.713 45.6792 551.364 35.9739 553.972 26.5067C553.972 26.5067 598.865 5.6154 601.976 47.5494C601.976 47.5494 611.609 45.7878 613.385 56.4949C614.899 65.3854 605.967 68.6471 605.967 68.6471Z" fill="#B25E47"/>
<path d="M556.257 55.5318C557.245 55.5318 558.046 54.7308 558.046 53.7427C558.046 52.7546 557.245 51.9536 556.257 51.9536C555.269 51.9536 554.468 52.7546 554.468 53.7427C554.468 54.7308 555.269 55.5318 556.257 55.5318Z" fill="#683F1D"/>
<path d="M568.753 53.2467C569.741 53.2467 570.542 52.4457 570.542 51.4576C570.542 50.4695 569.741 49.6685 568.753 49.6685C567.765 49.6685 566.964 50.4695 566.964 51.4576C566.964 52.4457 567.765 53.2467 568.753 53.2467Z" fill="#683F1D"/>
<path d="M566.056 41.81C566.249 44.2597 574.616 45.2093 575.098 43.8193C575.772 41.7275 565.574 36.0711 566.056 41.81Z" fill="#683F1D"/>
<path d="M550.078 45.4709C550.078 46.8471 559.175 47.4114 558.844 42.7184C558.624 39.3191 550.27 41.7826 550.078 45.4709Z" fill="#683F1D"/>
<path d="M599.65 60.8437C603.393 55.3387 609.283 55.9167 609.93 56.9627" stroke="#914839" stroke-width="0.75" stroke-linecap="round" stroke-linejoin="round"/>
<path d="M601.246 58.9581C606.751 55.7101 609.779 62.9904 602.788 62.9904" stroke="#914839" stroke-width="0.75" stroke-linecap="round" stroke-linejoin="round"/>
<path d="M561.088 48.54C562.602 51.4714 562.464 53.2468 561.473 55.1322C560.482 57.0177 557.441 61.3115 559.023 65.1237" stroke="#914839" stroke-width="0.75" stroke-linecap="round" stroke-linejoin="round"/>
<path d="M570.886 65.7705C569.51 70.3259 564.088 73.1747 561.569 72.6517C561.569 72.6517 564.17 79.7118 568.753 77.9089C574.024 75.7758 570.886 65.7705 570.886 65.7705Z" fill="white" stroke="#914839" stroke-width="0.75" stroke-linecap="round" stroke-linejoin="round"/>
<path d="M598.824 67.3257C599.855 68.0523 601.029 68.5508 602.268 68.7881C603.506 69.0255 604.782 68.9961 606.008 68.7019" stroke="#914839" stroke-width="0.75" stroke-linecap="round" stroke-linejoin="round"/>
<path d="M615.146 43.2691C620.293 50.343 612.545 53.412 612.545 53.412C611.764 52.2536 610.728 51.2888 609.517 50.5907C608.757 50.1419 607.907 49.8669 607.028 49.7853C606.149 49.7037 605.262 49.8176 604.432 50.1188C603.602 50.4201 602.849 50.9011 602.227 51.5275C601.605 52.154 601.129 52.9103 600.833 53.7423C590.278 53.9625 594.833 45.7188 594.833 45.7188C585.364 49.5035 585.062 39.801 589.135 35.4245C581.745 43.682 572.359 35.4245 573.887 27.9516C571.272 36.1127 561.955 36.4292 563.193 29.6581C562.394 31.0493 561.423 32.3346 560.303 33.484C553.904 39.9248 548.151 33.0436 550.573 27.9791C540.94 37.1448 536.811 26.8919 545.963 21.3869C538.71 15.4416 547.339 6.96394 553.133 11.3679C551.757 0.812158 562.657 0.358001 567.432 6.50978C569.304 -5.07814 583.782 1.25255 584.36 6.74374C595.026 -0.715467 603.283 4.77573 602.251 16.9004C606.559 11.1339 615.793 14.5195 612.242 29.2865C621.105 28.6535 622.605 39.6496 615.146 43.2691Z" fill="#683F1D"/>
<path d="M609.517 50.5904C608.757 50.1416 607.907 49.8666 607.028 49.785C606.149 49.7034 605.262 49.8173 604.432 50.1186C603.602 50.4198 602.849 50.9008 602.227 51.5272C601.605 52.1537 601.129 52.91 600.833 53.742C590.278 53.9622 594.833 45.7185 594.833 45.7185C585.364 49.5032 585.062 39.8007 589.135 35.4242C581.745 43.6817 572.359 35.4242 573.887 27.9513C571.272 36.1124 561.955 36.4289 563.193 29.6578C562.394 31.049 561.423 32.3343 560.303 33.4837C557.716 25.6529 563.51 15.3174 572.359 19.9966C573.529 13.6934 587.993 9.60602 587.91 25.5016C593.264 18.0286 605.389 20.5884 599.65 34.8462C604.164 31.4744 614.541 37.3097 609.517 50.5904Z" fill="#683F1D"/>
<path d="M590.071 53.3568C591.351 55.9166 588.943 59.7013 584.704 61.8344C580.465 63.9676 575.979 63.6098 574.699 61.05C573.419 58.4902 575.813 54.7055 580.066 52.5724C584.318 50.4392 588.791 50.797 590.071 53.3568Z" fill="#914839"/>
<path d="M554.661 63.0867C554 64.8896 551.784 65.8392 549.059 65.8392C548.846 62.4111 548.846 58.973 549.059 55.5449C553.105 57.2652 555.596 60.5269 554.661 63.0867Z" fill="#914839"/>
<path d="M593.03 350.528V555.973H300.084V350.528C300.075 347.805 300.604 345.108 301.642 342.591C302.68 340.074 304.205 337.787 306.13 335.862C308.055 333.937 310.342 332.411 312.859 331.374C315.376 330.336 318.074 329.806 320.796 329.816H572.317C575.04 329.806 577.737 330.336 580.254 331.374C582.771 332.411 585.058 333.937 586.983 335.862C588.909 337.787 590.434 340.074 591.472 342.591C592.509 345.108 593.039 347.805 593.03 350.528Z" stroke="#DDDDDD" stroke-width="2" stroke-linecap="round" stroke-linejoin="round"/>
<path d="M593.03 350.528V351.464H300.084V350.528C300.075 347.805 300.604 345.108 301.642 342.591C302.68 340.074 304.205 337.787 306.13 335.862C308.055 333.937 310.342 332.411 312.859 331.374C315.376 330.336 318.074 329.806 320.796 329.816H572.317C575.04 329.806 577.737 330.336 580.254 331.374C582.771 332.411 585.058 333.937 586.983 335.862C588.909 337.787 590.434 340.074 591.472 342.591C592.509 345.108 593.039 347.805 593.03 350.528Z" stroke="#DDDDDD" stroke-width="2" stroke-linecap="round" stroke-linejoin="round"/>
<path d="M553.38 340.633C553.38 341.379 553.159 342.108 552.745 342.728C552.33 343.348 551.742 343.832 551.052 344.117C550.363 344.402 549.605 344.477 548.874 344.332C548.142 344.186 547.47 343.827 546.943 343.3C546.416 342.772 546.056 342.1 545.911 341.369C545.765 340.637 545.84 339.879 546.126 339.19C546.411 338.501 546.894 337.912 547.514 337.498C548.134 337.083 548.864 336.862 549.609 336.862C550.609 336.862 551.569 337.26 552.276 337.967C552.983 338.674 553.38 339.633 553.38 340.633V340.633Z" fill="#DDDDDD"/>
<path d="M561.899 344.404C563.982 344.404 565.67 342.716 565.67 340.633C565.67 338.551 563.982 336.862 561.899 336.862C559.817 336.862 558.128 338.551 558.128 340.633C558.128 342.716 559.817 344.404 561.899 344.404Z" fill="#DDDDDD"/>
<path d="M574.203 344.404C576.285 344.404 577.974 342.716 577.974 340.633C577.974 338.551 576.285 336.862 574.203 336.862C572.12 336.862 570.432 338.551 570.432 340.633C570.432 342.716 572.12 344.404 574.203 344.404Z" fill="#DDDDDD"/>
<path d="M317.356 449.782C308.988 425.01 307.02 411.633 309.305 409.72C310.681 408.509 312.979 407.614 313.158 405.164C313.337 402.715 310.529 394.485 320.328 392.558C320.328 392.558 323.645 373.139 326.797 364.042C326.797 364.042 344.302 433.721 345.527 438.951C346.752 444.181 323.039 466.682 317.356 449.782Z" fill="#B25E47"/>
<path d="M320.328 392.558C319.688 395.676 319.228 398.828 318.952 401.999" stroke="#914839" stroke-width="0.75" stroke-linecap="round" stroke-linejoin="round"/>
<path d="M308.699 417.041C308.19 412.913 308.438 410.463 309.318 409.72C310.695 408.509 312.993 407.614 313.172 405.164C313.351 402.715 310.543 394.485 320.342 392.558C320.342 392.558 323.659 373.139 326.81 364.042" stroke="#914839" stroke-width="0.75" stroke-linecap="round" stroke-linejoin="round"/>
<path d="M402.468 322.365L325.776 343.995C321.299 345.257 318.693 349.91 319.955 354.387L334.842 407.171C336.105 411.648 340.758 414.254 345.235 412.991L421.927 391.362C426.404 390.099 429.01 385.446 427.747 380.969L412.861 328.185C411.598 323.708 406.945 321.102 402.468 322.365Z" fill="#F9F9F9" stroke="#DDDDDD" stroke-linecap="round" stroke-linejoin="round"/>
<path d="M398.678 330.072L333.059 348.579C330.097 349.414 328.372 352.494 329.208 355.456L342.174 401.432C343.01 404.395 346.089 406.119 349.052 405.284L414.671 386.777C417.634 385.942 419.358 382.862 418.522 379.9L405.556 333.924C404.72 330.961 401.641 329.237 398.678 330.072Z" stroke="#DDDDDD" stroke-linecap="round" stroke-linejoin="round"/>
<path d="M379.658 374.557C379.679 374.947 379.679 375.337 379.658 375.727C379.444 378.688 378.41 381.531 376.671 383.937C374.933 386.343 372.558 388.217 369.814 389.349C367.069 390.481 364.064 390.826 361.135 390.345C358.205 389.864 355.468 388.577 353.229 386.628C350.99 384.679 349.338 382.144 348.459 379.309C347.58 376.473 347.509 373.449 348.252 370.575C348.996 367.701 350.526 365.091 352.67 363.038C354.814 360.985 357.487 359.569 360.391 358.95C361.474 358.705 362.582 358.585 363.693 358.593C365.792 358.591 367.87 359.002 369.809 359.804C371.748 360.605 373.511 361.78 374.996 363.263C376.481 364.745 377.659 366.506 378.464 368.444C379.268 370.381 379.684 372.459 379.685 374.557H379.658Z" stroke="#DDDDDD" stroke-linecap="round" stroke-linejoin="round"/>
<path d="M379.603 375.686C379.411 378.335 378.563 380.894 377.133 383.132C375.704 385.371 373.739 387.218 371.417 388.506C369.094 389.794 366.487 390.483 363.832 390.511C361.176 390.538 358.555 389.903 356.207 388.664C359.303 382.402 363.625 373.525 363.625 373.525L379.603 375.686Z" stroke="#DDDDDD" stroke-linecap="round" stroke-linejoin="round"/>
<path d="M379.658 374.557C379.679 374.947 379.679 375.337 379.658 375.727L363.721 373.608L375.777 364.07C378.299 366.98 379.678 370.707 379.658 374.557V374.557Z" stroke="#DDDDDD" stroke-linecap="round" stroke-linejoin="round"/>
<path d="M375.722 364.07L363.666 373.607C363.666 373.607 361.602 364.758 360.363 358.95C361.447 358.705 362.555 358.585 363.666 358.593C365.95 358.59 368.209 359.078 370.289 360.022C372.368 360.967 374.221 362.348 375.722 364.07V364.07Z" fill="#DDDDDD" stroke="#DDDDDD" stroke-linecap="round" stroke-linejoin="round"/>
<path d="M397.81 368.694C400.824 367.635 398.044 366.093 400.04 365.24C402.958 364.001 403.907 345.973 390.943 349.675C381.117 352.427 388.273 368.46 393.09 366.988C394.397 366.589 394.356 369.919 397.81 368.694Z" fill="#F9F9F9" stroke="#DDDDDD" stroke-linecap="round" stroke-linejoin="round"/>
<path d="M394.273 355.482C392.994 357.781 394.012 359.391 396.104 360.162C399.613 361.469 394.397 365.584 393.255 363.327C392.003 360.85 398.856 362.501 397.384 368.061" stroke="#DDDDDD" stroke-linecap="round" stroke-linejoin="round"/>
<path d="M396.269 372.383C397.15 374.488 398.237 374.86 399.902 374.378C401.568 373.897 401.636 372.741 401.196 371.062L396.269 372.383Z" fill="#F9F9F9" stroke="#DDDDDD" stroke-linecap="round" stroke-linejoin="round"/>
<path d="M394.851 371.048C395.65 369.671 400.356 368.832 401.017 368.983C401.678 369.135 402.269 371.048 401.402 371.543C399.584 372.354 397.646 372.861 395.663 373.043C395.465 372.985 395.282 372.883 395.128 372.744C394.974 372.605 394.854 372.433 394.776 372.241C394.698 372.05 394.664 371.843 394.677 371.636C394.69 371.429 394.75 371.228 394.851 371.048Z" fill="#F9F9F9" stroke="#DDDDDD" stroke-linecap="round" stroke-linejoin="round"/>
<path d="M393.943 368.488C394.796 367.111 399.861 366.258 400.508 366.423C401.361 366.63 401.884 368.488 400.934 368.969C398.983 369.784 396.917 370.29 394.81 370.469C394.609 370.417 394.422 370.319 394.263 370.184C394.105 370.049 393.979 369.88 393.896 369.689C393.812 369.498 393.773 369.291 393.781 369.083C393.789 368.875 393.845 368.671 393.943 368.488Z" fill="#F9F9F9" stroke="#DDDDDD" stroke-linecap="round" stroke-linejoin="round"/>
<path d="M377.8 354.271L381.984 354.546" stroke="#DDDDDD" stroke-linecap="round" stroke-linejoin="round"/>
<path d="M386.03 341.527L387.86 345.56" stroke="#DDDDDD" stroke-linecap="round" stroke-linejoin="round"/>
<path d="M400.329 342.587L398.856 345.56" stroke="#DDDDDD" stroke-linecap="round" stroke-linejoin="round"/>
<path d="M329.921 403.361C324.099 413.78 328.71 426.262 335.742 429.661C342.775 433.061 345.679 411.481 346.518 406.031C347.358 400.581 347.371 392.338 347.977 388.209C348.582 384.08 344.701 380.819 342.155 387.122C339.609 393.425 338.398 397.278 338.398 397.278L329.921 403.361Z" fill="#B25E47"/>
<path d="M346.518 406.031C347.371 400.526 347.371 392.338 347.977 388.209C348.582 384.08 344.701 380.819 342.155 387.122C339.609 393.425 338.398 397.278 338.398 397.278L329.921 403.361" stroke="#914839" stroke-width="0.75" stroke-linecap="round" stroke-linejoin="round"/>
<mask id="mask2_1_1388" style="mask-type:alpha" maskUnits="userSpaceOnUse" x="299" y="324" width="294" height="232">
<rect x="299.644" y="324.792" width="293.139" height="231.208" fill="#C4C4C4"/>
</mask>
<g mask="url(#mask2_1_1388)">
<path d="M517.887 362.832L513.208 422.01L461.957 426.84C466.348 412.899 469.882 398.701 472.54 384.328C473.696 378.122 474.742 371.529 475.541 364.8L494.423 363.933L517.887 362.832Z" fill="#B25E47"/>
<path d="M498.62 369.507C496.528 377.626 485.064 383.379 472.623 384.301C473.779 378.094 474.825 371.502 475.623 364.772L494.505 363.905C497.464 365.213 499.198 367.029 498.62 369.507Z" fill="#914839"/>
<path d="M597.489 426.812V564.505H586.809C586.809 564.505 580.506 539.526 553.367 487.174C553.367 487.174 552.844 489.5 551.784 493.533C550.325 499.12 547.834 507.955 544.297 518.456C538.333 536.516 530.656 553.963 521.369 570.56C501.788 578.949 481.134 584.572 460.003 587.268C459.425 587.268 458.833 587.419 458.241 587.474C437.185 590.076 412.743 590.089 387.943 583.704C372.543 579.803 357.846 573.52 344.385 565.083C345.128 563.872 378.612 498.322 389.044 477.238C389.856 475.6 390.668 474.004 391.494 472.421C401.292 453.69 413.045 439.13 444.782 426.812C452.144 423.977 458.613 421.459 464.283 419.257C485.188 411.151 495.606 407.146 501.992 405.247C506.506 403.907 510.795 402.655 514.859 401.49C553.972 390.26 573.377 387.631 589.823 412.72C592.712 417.228 595.274 421.938 597.489 426.812V426.812Z" fill="#F06B07"/>
<path d="M589.823 412.72C576.281 411.894 559.243 415.624 549.61 436.831C531.815 475.972 496.693 492.363 470.944 467.274C450.713 447.58 416.238 450.14 391.494 472.421C401.292 453.69 413.045 439.13 444.782 426.812C452.144 423.977 458.613 421.459 464.283 419.257C485.188 411.151 495.606 407.146 501.992 405.247C506.506 403.907 510.795 402.655 514.86 401.49C553.972 390.26 573.377 387.631 589.823 412.72Z" fill="#F06B07"/>
<path d="M597.489 527.292V564.451H586.809C586.809 564.451 580.506 539.472 553.367 487.12C554.922 481.078 556.119 475.257 557.083 470.096C574.616 477.775 576.116 494.028 574.203 503.208C572.428 511.754 581.442 532.701 597.489 527.292Z" fill="#DE660C"/>
<path d="M451.484 496.574C448.731 510.97 436.744 536.21 415.344 572.268C412.055 577.498 408.321 582.434 404.183 587.021C398.716 586.198 393.296 585.096 387.943 583.718L394.714 564.519C398.554 549.67 405.724 543.05 421.165 540.077C434.873 537.421 423.395 495.501 451.484 496.574Z" fill="#DE660C"/>
<path d="M382.534 609.178C382.534 609.178 394.136 598.554 404.183 587.007C408.321 582.42 412.055 577.484 415.344 572.254C436.744 536.21 448.718 510.97 451.484 496.561C452.346 492.102 452.323 488.684 451.415 486.308" stroke="#DE660C" stroke-width="0.75" stroke-linecap="round" stroke-linejoin="round"/>
<path d="M559.808 451.255C559.808 451.255 559.078 459.168 557.055 470.151C556.119 475.312 554.894 481.161 553.339 487.175" stroke="#DE660C" stroke-width="0.75" stroke-linecap="round" stroke-linejoin="round"/>
<path d="M394.7 533.609C395.209 566.707 357.432 600.081 336.719 559.124C328.063 542.018 306.442 462.182 307.956 451.255C309.332 441.525 337.793 419.863 349.477 424.102C349.477 424.102 354.363 436.956 361.079 453.361C369.625 474.238 381.131 500.91 389.223 514.149C392.758 520.028 394.65 526.749 394.7 533.609V533.609Z" fill="#F06B07"/>
<path d="M379.658 495.955C375.171 504.832 370.024 515.057 364.987 524.856C361.56 518.594 360.941 509.373 368.235 500.772C377.511 489.858 348.472 470.811 361.079 453.333C366.611 466.875 373.382 482.798 379.658 495.955Z" fill="#DE660C"/>
<path d="M379.837 495.611C379.837 495.721 379.713 495.831 379.658 495.955C375.171 504.832 370.024 515.057 364.987 524.856L360.267 534.118" stroke="#DE660C" stroke-width="0.75" stroke-linecap="round" stroke-linejoin="round"/>
</g>
<path d="M462.59 334.509C455.709 359.35 449.585 372.947 491.959 375.727C491.959 375.727 518.851 345.45 515.19 301.493C515.19 301.493 491.23 282.225 470.476 319.755C470.476 319.755 462.865 322.673 461.998 323.705C461.131 324.737 461.709 331.151 462.59 334.509Z" fill="#B25E47"/>
<path d="M470.476 319.755C470.476 319.755 462.865 322.673 461.998 323.705C461.131 324.737 461.709 331.151 462.59 334.509" stroke="#914839" stroke-width="0.75" stroke-linecap="round" stroke-linejoin="round"/>
<path d="M476.27 325.082C477.258 325.082 478.059 324.281 478.059 323.293C478.059 322.304 477.258 321.503 476.27 321.503C475.282 321.503 474.481 322.304 474.481 323.293C474.481 324.281 475.282 325.082 476.27 325.082Z" fill="#683F1D"/>
<path d="M477.825 308.814C481.376 306.35 487.61 320.691 483.096 320.636C481.279 320.636 473.504 311.814 477.825 308.814Z" fill="#683F1D"/>
<path d="M553.367 430.116C551.275 450.539 541.283 458.673 543.224 465.568C545.164 472.463 549.94 470.962 549.94 470.962C549.94 470.962 546.141 481.972 531.567 477.582C531.567 477.582 518.823 497.042 506.795 483.087C495.923 497.937 473.008 500.978 472.306 480.61C472.306 480.61 481.156 482.826 485.67 477.087C490.184 471.348 491.175 461.783 486.275 456.746C481.376 451.709 474.261 446.672 473.806 438.263C473.352 429.854 479.559 415.101 488.573 404.132C488.573 404.132 452.599 393.99 449.942 424.776L442.758 427.528C442.758 427.528 435.093 423.826 435.272 411.454C435.451 399.082 446.75 389.998 459.053 390.219C471.357 390.439 501.042 385.099 486.578 347.624C486.578 347.624 498.386 351.945 501.469 342.491C504.552 333.036 493.858 327.999 487.706 333.284C487.706 333.284 482.669 325.508 497.602 308.388C495.936 302.965 490.17 301.506 492.647 296.001C494.656 291.57 507.263 291.57 516.731 293.483C518.764 293.887 520.765 294.439 522.718 295.134C528.142 297.062 532.867 300.565 536.288 305.195C538.339 307.934 539.69 311.132 540.224 314.512C541.584 313.953 543.048 313.69 544.517 313.741C547.49 313.851 551.123 315.516 552.417 322.466C554.303 332.527 547.408 337.605 542.783 339.931C541.497 340.57 540.151 341.082 538.765 341.459C539.777 344.609 540.242 347.909 540.141 351.216V351.216C540.082 353.374 539.792 355.52 539.274 357.616C537.306 365.474 533.04 379.154 534.925 388.663C535.133 389.815 535.465 390.941 535.916 392.021C539.783 401.462 555.459 409.692 553.367 430.116Z" fill="#683F1D"/>
<path d="M542.728 340C541.442 340.639 540.096 341.15 538.71 341.527C538.71 341.527 532.255 343.096 529.695 331.811C527.645 322.769 532.723 316.673 540.224 314.581C541.584 314.022 543.048 313.759 544.517 313.81C530.948 325.632 537.54 335.238 542.728 340Z" fill="#683F1D"/>
<path d="M553.367 430.116C551.275 450.539 541.283 458.673 543.224 465.568C545.164 472.463 549.94 470.962 549.94 470.962C549.94 470.962 546.141 481.972 531.567 477.582C531.567 477.582 518.823 497.042 506.795 483.087C495.923 497.937 473.008 500.978 472.306 480.61C472.306 480.61 481.156 482.826 485.67 477.087C490.184 471.348 491.175 461.783 486.275 456.746C481.376 451.709 474.261 446.672 473.806 438.263C473.352 429.854 479.559 415.101 488.573 404.132C488.573 404.132 452.599 393.99 449.942 424.776L442.758 427.528C442.758 427.528 435.093 423.826 435.272 411.454C435.451 399.082 446.75 389.998 459.053 390.219C471.357 390.439 501.042 385.099 486.578 347.624C486.578 347.624 498.386 351.945 501.469 342.491C504.552 333.036 493.858 327.999 487.706 333.284C487.706 333.284 482.669 325.508 497.602 308.388C495.936 302.965 490.17 301.506 492.647 296.001C494.656 291.57 507.263 291.57 516.731 293.483C510.401 297.364 506.162 303.461 509.685 312.998C518.341 336.394 515.905 347.652 508.405 357.643C500.905 367.635 492.427 387.92 499.638 404.132C506.85 420.344 496.253 412.885 499.432 444.965C502.611 477.045 543.196 457.503 541.93 431.368C540.788 407.752 526.461 399.811 534.815 388.705C535.022 389.857 535.355 390.983 535.806 392.063C539.783 401.462 555.459 409.692 553.367 430.116Z" fill="#683F1D"/>
<path d="M487.5 338.94C491.436 336.49 495.166 336.711 497.326 338.266" stroke="#914839" stroke-width="0.75" stroke-linecap="round" stroke-linejoin="round"/>
<path d="M487.844 342.779C493.638 345.27 494.725 337.811 489.991 337.715" stroke="#914839" stroke-width="0.75" stroke-linecap="round" stroke-linejoin="round"/>
<path d="M517.736 305.566C524.08 307.548 533.576 317.526 533.576 317.526" stroke="#7F542D" stroke-width="0.75" stroke-linecap="round" stroke-linejoin="round"/>
<path d="M540.224 314.581C532.723 316.659 527.645 322.77 529.695 331.812C532.255 343.097 538.71 341.528 538.71 341.528" stroke="#7F542D" stroke-width="0.75" stroke-linecap="round" stroke-linejoin="round"/>
<path d="M531.966 319.769C537.774 317.443 544.71 316.452 547.353 323.801C549.995 331.15 546.128 336.848 540.224 341.045" stroke="#7F542D" stroke-width="0.75" stroke-linecap="round" stroke-linejoin="round"/>
<path d="M502.749 324.256C514.584 327.807 529.572 326.871 529.572 326.871" stroke="#7F542D" stroke-width="0.75" stroke-linecap="round" stroke-linejoin="round"/>
<path d="M506.01 344.789C516.346 347.335 529.406 339.834 531.471 336.862" stroke="#7F542D" stroke-width="0.75" stroke-linecap="round" stroke-linejoin="round"/>
<path d="M529.351 329.816C531.03 325.192 535.778 322.15 539.302 326.719C542.825 331.288 537.54 336.133 533.26 331.082" stroke="#7F542D" stroke-width="0.75" stroke-linecap="round" stroke-linejoin="round"/>
<path d="M488.587 404.201C498.606 392.379 507.056 382.938 502.762 365.873" stroke="#7F542D" stroke-width="0.75" stroke-linecap="round" stroke-linejoin="round"/>
<path d="M506.877 483.156C512.947 473.88 503.574 460.255 502.143 451.268C500.712 442.282 500.395 431.01 511.68 418.775" stroke="#7F542D" stroke-width="0.75" stroke-linecap="round" stroke-linejoin="round"/>
<path d="M522.112 378.3C530.535 399.728 531.856 403.183 527.287 419.23C522.718 435.277 519.965 443.231 527.287 454.681C535.421 467.37 532.874 471.967 531.553 477.582" stroke="#7F542D" stroke-width="0.75" stroke-linecap="round" stroke-linejoin="round"/>
<path d="M484.761 332.678C485.298 335.596 482.504 338.555 478.541 339.27C474.577 339.986 470.93 338.211 470.393 335.279C469.857 332.348 472.65 329.403 476.614 328.687C480.578 327.972 484.225 329.747 484.761 332.678Z" fill="#914839"/>
<path d="M593.03 385.044V555.973H300.084" stroke="#DDDDDD" stroke-width="2" stroke-linecap="round" stroke-linejoin="round"/>
</svg>
