<svg width="259" height="304" viewBox="0 0 259 304" fill="none" xmlns="http://www.w3.org/2000/svg">
<path d="M110.246 151.771C131.193 154.293 133.773 140.547 141.397 121C149.021 101.452 147.679 83.0995 152.854 53.0418C158.904 18.0571 116.412 17.27 107.666 66.3214C107.301 68.3039 106.908 70.607 106.485 73.1288C105.246 80.2278 103.686 89.1635 101.441 98.0262C100.873 100.257 100.261 102.487 99.6192 104.688C95.3919 118.813 89.255 149.235 110.246 151.771Z" fill="#B25E47"/>
<path d="M101.382 98.0258C129.574 106.772 133.758 83.7113 133.452 74.28L106.455 73.1284C105.187 80.1837 103.627 89.1193 101.382 98.0258Z" fill="#914839"/>
<path d="M-0.000534058 243.883C1.09393 244.926 2.25264 245.9 3.4688 246.798C4.38715 247.527 5.49496 248.358 6.77774 249.218L7.87102 249.962L9.12465 250.763C10.8885 251.871 12.8855 253.037 15.1303 254.174C16.1799 254.714 17.2877 255.268 18.4539 255.778C19.0515 256.055 19.6638 256.332 20.3051 256.594L22.2147 257.381C22.8124 257.615 23.41 257.848 24.0368 258.066C24.6637 258.285 25.4946 258.62 26.34 258.883C27.1855 259.145 27.7977 259.364 28.5266 259.582C29.2554 259.801 29.9842 260.034 30.786 260.238L32.8268 260.778L33.3807 260.909L35.4798 261.375C37.1561 261.754 38.8762 262.061 40.6691 262.323C41.398 262.454 42.1268 262.556 42.8994 262.644C43.1764 262.644 43.4533 262.717 43.7449 262.731C44.5175 262.833 45.29 262.906 46.0772 262.979V263.125C45.669 267.148 41.2376 343.298 40.1006 363.312L39.9986 365.09C39.9986 365.499 39.9986 365.863 39.9986 366.184C96.0032 364.726 151.804 364.187 205.564 364.332C206.671 344.304 208.668 307.293 210.607 269.582C213.304 216.741 215.869 162.602 215.578 152.078V151.917C214.966 131.655 217.808 116.481 200.505 109.79C194.47 107.457 185.928 106.146 174.034 106.029H171.745H169.223H166.57C165.666 106.029 164.821 106.029 164.005 105.942H162.212L160.506 105.854H159.049L156.687 105.723L155.025 105.606C154.151 105.606 153.364 105.49 152.635 105.431H152.183L151.352 105.358L150.171 105.227H149.763C148.961 105.125 148.305 105.023 147.824 104.936C147.343 104.848 147.125 104.804 146.862 104.746C146.58 104.693 146.306 104.605 146.046 104.484C142.227 115.038 131.586 134.337 113.743 131.903C95.9012 129.469 97.4026 109.586 100.945 100.883L100.61 101.175L100.099 101.583L98.9769 102.399C98.8166 102.516 98.6416 102.647 98.4521 102.764L97.8545 103.157L97.2714 103.522L96.4697 104.003C95.7846 104.382 95.012 104.746 94.2977 105.067L93.5397 105.373C93.0295 105.548 92.5193 105.679 92.082 105.796C91.5398 105.905 90.9879 105.958 90.4348 105.956C90.2603 105.972 90.0846 105.972 89.9101 105.956C89.7206 105.956 89.5456 105.956 89.3707 105.869C86.5865 105.169 78.7587 103.799 68.0446 107.997C61.2081 110.694 53.1907 115.664 44.5466 124.556C38.9493 130.689 34.2121 137.554 30.4653 144.964C15.0574 173.316 3.61455 216.493 -0.000534058 243.883Z" fill="#DE660C"/>
<path d="M30.3641 144.716C39.7346 143.382 49.2833 145.186 57.5209 149.847C63.993 153.778 69.0861 159.619 72.0979 166.567C87.1413 199.744 126.557 212.207 152.898 175.488C156.559 170.287 160.799 165.519 165.536 161.275C179.69 148.856 196.148 145.43 215.681 152.223V152.063C215.069 131.801 217.911 116.626 200.608 109.935C194.573 107.603 186.031 106.291 174.136 106.175C148.918 105.912 146.105 104.294 146.105 104.294C142.286 114.848 131.645 134.148 113.803 131.713C95.9603 129.279 97.4617 109.396 101.004 100.694C100.61 101.029 93.7155 106.758 89.3424 105.664C86.5582 104.965 78.7304 103.594 68.0163 107.793C61.1797 110.489 53.1624 115.46 44.5183 124.352C38.8986 130.467 34.1369 137.318 30.3641 144.716Z" fill="#DE660C"/>
<path d="M4.79542 367.35C16.5444 366.971 28.2886 366.631 40.0279 366.329V365.236L40.1299 363.458L46.1065 263.27V263.125L4.79542 234.991C4.2415 238.665 3.77504 242.659 3.33773 246.886C-0.39397 290.092 4.15404 358.021 4.79542 367.35Z" fill="#B25E47"/>
<path d="M6.86646e-05 243.883C6.86646e-05 243.883 16.4866 260.515 46.1652 263.095C47.7979 215.239 52.3896 177.354 57.4915 149.847C61.0046 130.824 64.78 116.743 67.914 107.793C61.0775 110.489 53.0601 115.46 44.416 124.352C38.8188 130.485 34.0816 137.35 30.3347 144.76C15.0581 173.316 3.61515 216.493 6.86646e-05 243.883Z" fill="#F9F9F9"/>
<path d="M30.3638 144.716C39.7343 143.382 49.283 145.186 57.5207 149.847C61.0337 130.824 64.8091 116.743 67.9432 107.793C61.1066 110.489 53.0893 115.46 44.4452 124.352C38.8512 130.471 34.1141 137.322 30.3638 144.716Z" fill="#F9F9F9"/>
<path d="M46.1943 263.096C47.8269 215.24 52.4186 177.354 57.5206 149.847" stroke="#F9F9F9" stroke-width="0.68" stroke-linecap="round" stroke-linejoin="round"/>
<path d="M146.951 99.0464C155.697 102.487 155.697 106.335 155.697 110.518C155.697 114.702 147.854 137.53 132.519 153.739C129.531 156.902 125.085 137.384 120.698 136.247C116.31 135.11 112.374 137.121 110.333 136.83C108.293 136.538 102.884 131.174 99.3714 133.608C95.8584 136.043 88.4242 148.185 86.9665 148.506C85.5088 148.827 85.363 119.746 88.7157 109.527C89.5949 106.64 91.2441 104.046 93.4861 102.025C95.7281 100.004 98.4783 98.6313 101.441 98.0552C101.441 98.0552 99.0216 119.163 106.091 125.431C120.785 138.492 135.901 122.034 146.951 99.0464Z" fill="#F9F9F9"/>
<path d="M151.105 41.2196C156.221 39.3246 164.064 44.135 162.999 52.1086C161.935 60.0822 150.143 62.6915 144.312 58.0706C147.232 52.7408 149.512 47.0846 151.105 41.2196Z" fill="#B25E47"/>
<path d="M158.976 52.6333C159.414 49.2078 155.274 43.7997 148.772 48.9308" stroke="#914839" stroke-width="0.68" stroke-linecap="round" stroke-linejoin="round"/>
<path d="M151.396 54.8784C158.174 54.7035 156.177 47.4005 150.055 48.0418" stroke="#914839" stroke-width="0.68" stroke-linecap="round" stroke-linejoin="round"/>
<path d="M98.1176 49.383L101.791 50.4471L137.782 60.8551C137.782 60.8551 138.744 59.9221 140.201 58.3041C144.955 53.0711 148.741 47.0346 151.382 40.4765C152.174 38.3584 152.727 36.1581 153.029 33.9169C154.807 19.9667 140.303 -6.16975 116.164 5.89996C108.365 13.3342 103.934 26.5409 102.797 30.4184L102.418 31.7303C101.033 36.9051 98.1176 49.383 98.1176 49.383Z" fill="#B25E47"/>
<path d="M124.487 30.3745C124.49 30.7448 124.383 31.1075 124.179 31.4166C123.975 31.7256 123.684 31.9671 123.342 32.1101C123.001 32.2531 122.624 32.2913 122.261 32.2198C121.898 32.1482 121.564 31.9702 121.302 31.7084C121.04 31.4466 120.862 31.1128 120.791 30.7495C120.719 30.3862 120.757 30.0099 120.9 29.6683C121.043 29.3268 121.285 29.0355 121.594 28.8316C121.903 28.6277 122.266 28.5204 122.636 28.5232C122.879 28.5232 123.12 28.5711 123.344 28.6642C123.569 28.7572 123.773 28.8936 123.945 29.0655C124.117 29.2374 124.253 29.4415 124.346 29.6661C124.439 29.8907 124.487 30.1314 124.487 30.3745Z" fill="#333333"/>
<path d="M111.048 28.5229C111.048 28.8925 110.938 29.2539 110.732 29.561C110.526 29.8681 110.234 30.1073 109.892 30.2481C109.551 30.3889 109.175 30.4249 108.812 30.3517C108.45 30.2786 108.118 30.0994 107.857 29.837C107.597 29.5746 107.42 29.2408 107.35 28.8779C107.28 28.515 107.319 28.1394 107.462 27.7987C107.606 27.458 107.847 27.1676 108.156 26.9644C108.465 26.7611 108.827 26.6542 109.196 26.657C109.441 26.657 109.683 26.7054 109.908 26.7993C110.134 26.8933 110.338 27.031 110.511 27.2044C110.683 27.3779 110.819 27.5837 110.911 27.81C111.003 28.0363 111.05 28.2786 111.048 28.5229Z" fill="#333333"/>
<path d="M95.0712 71.9187C102.928 92.064 122.49 86.2187 131.222 80.5628C139.954 74.907 144.341 60.3883 150.522 50.4614C158.612 37.5317 158.35 24.8352 154.05 15.4768C151.357 9.1432 146.292 4.1151 139.939 1.46832C126.266 -3.53157 116.149 5.8414 116.149 5.8414C116.426 14.5876 133.146 12.2553 136.309 11.3078C144.108 9.01918 147.271 17.3572 148.19 23.946C149.268 31.5989 148.102 39.5579 143.919 45.4032C139.735 51.2486 136.63 52.6917 134.356 49.7763C132.082 46.8609 127.753 43.5519 116.703 41.7736C105.654 39.9952 100.581 45.272 100.581 45.272C100.581 43.2896 102.68 31.1907 102.797 30.4473C98.7886 37.5361 95.8836 45.1943 94.182 53.1582C92.9721 59.4117 92.8118 66.0733 95.0712 71.9187Z" fill="#3A3838"/>
<path d="M95.0712 71.9187C102.928 92.0641 122.49 86.2187 131.222 80.5629C139.954 74.907 144.341 60.3884 150.522 50.4615C158.612 37.5317 158.35 24.8352 154.05 15.4768C154.341 40.3888 137.009 67.9538 126.353 73.0266C116.354 77.8078 98.3365 76.2189 94.2112 53.1728C92.9722 59.4117 92.8118 66.0734 95.0712 71.9187Z" fill="#333333"/>
<path d="M122.636 47.5901C118.16 47.8614 113.672 47.8614 109.196 47.5901C109.196 47.5901 110.989 53.5229 116.484 53.0127C117.971 52.9345 119.387 52.3563 120.504 51.372C121.62 50.3877 122.371 49.055 122.636 47.5901Z" fill="white" stroke="#914839" stroke-width="0.68" stroke-linecap="round" stroke-linejoin="round"/>
<path d="M124.502 16.8472C123.598 20.4186 132.592 26.7304 134.837 24.1357C137.082 21.541 125.872 11.4829 124.502 16.8472Z" fill="#333333"/>
<path d="M116.426 15.2874C116.703 17.8529 105.887 20.0103 105.742 18.0716C105.596 16.1328 115.916 10.6519 116.426 15.2874Z" fill="#333333"/>
<path d="M118.248 19.5146C119.298 23.2026 119.968 27.9984 116.426 29.7185C112.884 31.4386 108.088 30.768 107.607 37.7941" stroke="#914839" stroke-width="0.68" stroke-linecap="round" stroke-linejoin="round"/>
<path d="M247.808 259.932C249.835 282.978 249.893 331.213 225.943 343.458C186.483 363.618 178.131 311.491 179.865 259.932H247.808Z" fill="#B25E47"/>
<path d="M165.142 179.306C165.886 209.787 179.034 268.386 179.034 268.386C191.264 269.392 201.716 269.844 210.651 269.844C248.289 269.844 258.755 262.439 258.755 262.439C258.755 262.439 251.132 203.694 240.359 165.181C239.281 161.289 238.158 157.601 237.021 154.205C227.094 124.774 214.558 112.559 200.579 110.051C196.897 109.417 193.138 109.372 189.442 109.92C173.961 112.019 167.154 136.159 165.507 161.391C165.098 167.295 164.996 173.388 165.142 179.306Z" fill="#F9F9F9"/>
<path d="M165.477 161.275C179.632 148.855 196.089 145.43 215.622 152.223C224.406 155.408 232.736 159.725 240.403 165.065C239.324 161.173 238.202 157.485 237.065 154.089C227.138 124.658 214.602 112.442 200.622 109.935C196.941 109.3 193.181 109.256 189.486 109.804C173.932 111.903 167.125 136.013 165.477 161.275Z" fill="#F9F9F9"/>
<path d="M165.143 179.307C165.886 209.787 179.035 268.386 179.035 268.386" stroke="#F9F9F9" stroke-width="0.68" stroke-linecap="round" stroke-linejoin="round"/>
<path d="M25.1601 209.919C25.1601 209.919 20.787 213.126 25.4371 221.901C25.4371 221.901 20.5829 226.376 27.0842 233.884C26.1992 235.617 25.9626 237.609 26.417 239.501C26.8714 241.394 27.9868 243.062 29.5623 244.204C36.1301 249.95 43.1065 255.212 50.4365 259.947C53.8475 262.046 58.5413 265.122 65.9464 270.37C68.8618 272.44 72.2436 274.859 76.1503 277.658C84.8964 284.028 96.2956 292.497 111.31 303.897C172.169 350.047 208.509 356.374 229.645 341.17C246.438 329.1 225.272 274.67 160.449 252.892C127.082 241.668 106.601 235.793 94.0653 232.265C88.978 230.808 85.1879 229.787 82.4037 228.942C78.7012 227.805 76.7042 227.018 75.6109 226.099C71.7043 222.747 69.8967 218.811 68.0017 214.088C66.1067 209.365 61.6462 191.669 60.5383 186.829C59.4305 181.99 51.0487 179.191 52.4481 206.552C52.4481 206.552 28.469 198.738 24.1251 197.616C19.7812 196.494 18.0611 206.012 25.1601 209.919Z" fill="#B25E47"/>
<path d="M65.9459 270.369C68.8613 272.439 72.2432 274.859 76.1498 277.658C81.6307 271.142 93.2923 254.714 94.0357 232.28C88.9484 230.822 85.1583 229.802 82.3742 228.956C81.6307 240.283 74.9837 260.166 65.9459 270.369Z" fill="#25CED1"/>
<path d="M84.1242 263.095C78.0299 263.095 73.0894 258.155 73.0894 252.06C73.0894 245.966 78.0299 241.026 84.1242 241.026C90.2185 241.026 95.1589 245.966 95.1589 252.06C95.1589 258.155 90.2185 263.095 84.1242 263.095Z" fill="#F9F9F9" stroke="#683F1D" stroke-width="0.9" stroke-linecap="round" stroke-linejoin="round"/>
<path d="M67.9436 214.102C66.0632 209.365 61.5881 191.683 60.4802 186.843C59.3724 182.004 50.9906 179.205 52.39 206.566C52.39 206.566 28.4109 198.753 24.067 197.63C19.7231 196.508 18.0613 206.012 25.1603 209.919C25.1603 209.919 20.7872 213.126 25.4373 221.901C25.4373 221.901 20.5831 226.376 27.0844 233.883C26.1994 235.616 25.9628 237.609 26.4172 239.501C26.8716 241.393 27.987 243.061 29.5625 244.204" stroke="#914839" stroke-width="0.68" stroke-linecap="round" stroke-linejoin="round"/>
<path d="M25.1599 209.919C29.533 211.93 38.4249 215.589 38.4249 215.589" stroke="#914839" stroke-width="0.68" stroke-linecap="round" stroke-linejoin="round"/>
<path d="M25.4374 221.901C28.0904 223.636 34.2856 226.74 34.2856 226.74" stroke="#914839" stroke-width="0.68" stroke-linecap="round" stroke-linejoin="round"/>
<path d="M27.084 233.883C28.3534 234.619 29.6792 235.253 31.049 235.778" stroke="#914839" stroke-width="0.68" stroke-linecap="round" stroke-linejoin="round"/>
<path d="M52.3898 206.566C56.4568 207.761 59.6783 208.971 59.6783 208.971" stroke="#914839" stroke-width="0.68" stroke-linecap="round" stroke-linejoin="round"/>
</svg>
