<svg xmlns="http://www.w3.org/2000/svg" width="54" height="54" viewBox="0 0 54 54"><g id="Message" transform="translate(0 0.639)"><circle id="Oval" cx="27" cy="27" r="27" transform="translate(0 -0.639)" fill="#f5dbb7"></circle><path id="Shape" d="M11.951,23.4l-.251,0a11.646,11.646,0,0,1-6.5-1.972l-2.76,1.656c-1.009.606-1.662.161-1.458-1l.751-4.26A11.7,11.7,0,0,1,19.238,2.751,12.234,12.234,0,0,0,11.951,23.4Z" transform="translate(9.573 12.942)" fill="#a25139" opacity="0.366"></path><path id="Shape-2" data-name="Shape" d="M0,12a12,12,0,1,1,22.226,6.284l.787,4.465c.2,1.13-.438,1.572-1.425.98L18.67,21.977A12,12,0,0,1,0,12Z" transform="translate(17 15.361)" fill="#a25139"></path></g></svg>