<?xml version="1.0" encoding="UTF-8"?>
<svg xmlns="http://www.w3.org/2000/svg" xmlns:xlink="http://www.w3.org/1999/xlink" width="300px" height="18px" viewBox="0 0 300 18" version="1.1">
<g id="surface1">
<path style=" stroke:none;fill-rule:nonzero;fill:rgb(100%,42.745098%,0%);fill-opacity:1;" d="M 206.953125 0.511719 C 207.585938 0.441406 208.222656 0.410156 208.863281 0.414062 C 209.367188 0.257812 209.894531 0.199219 210.417969 0.238281 C 210.9375 0.277344 211.457031 0.296875 211.976562 0.296875 C 211.96875 0.390625 211.921875 0.476562 211.847656 0.53125 C 211.757812 0.625 211.710938 0.753906 211.722656 0.886719 C 214.316406 0.964844 216.914062 0.945312 219.507812 0.828125 C 222.101562 0.710938 224.609375 0.613281 227.035156 0.535156 L 226.777344 0.417969 C 228.492188 0.734375 230.25 0.734375 231.96875 0.417969 C 234.359375 -0.140625 236.839844 -0.140625 239.234375 0.417969 C 240.445312 0.257812 241.570312 0.140625 242.609375 0.0625 C 243.667969 -0.015625 244.730469 0.144531 245.726562 0.535156 C 247.464844 0.140625 249.246094 -0.0195312 251.027344 0.0625 C 252.84375 0.140625 254.875 0.179688 257.125 0.179688 C 256.605469 0.257812 256.261719 0.316406 256.085938 0.355469 L 255.308594 0.535156 C 256.160156 0.78125 257.054688 0.78125 257.902344 0.535156 C 258.570312 0.261719 259.269531 0.101562 259.980469 0.0585938 C 260.5 0.136719 260.976562 0.21875 261.410156 0.296875 C 262.050781 0.390625 262.703125 0.433594 263.351562 0.417969 C 264.636719 0.171875 265.941406 0.0546875 267.246094 0.0625 C 268.628906 0.0625 270.097656 0.140625 271.652344 0.300781 C 274.074219 0.378906 276.539062 0.398438 279.050781 0.359375 C 281.558594 0.320312 284.023438 0.222656 286.445312 0.0625 C 286.445312 0.140625 286.53125 0.179688 286.707031 0.179688 L 287.222656 0.179688 C 288.28125 0.644531 289.363281 1.042969 290.464844 1.363281 C 291.6875 1.726562 292.863281 2.246094 293.964844 2.90625 C 294.4375 3.113281 294.875 3.390625 295.265625 3.734375 C 296.066406 3.964844 296.789062 4.4375 297.339844 5.101562 C 297.65625 5.558594 297.917969 6.054688 298.117188 6.582031 C 298.464844 7.054688 298.03125 7.492188 296.820312 7.886719 C 295.957031 8.28125 295.695312 8.71875 296.042969 9.191406 C 296.210938 9.5625 296.300781 9.96875 296.304688 10.378906 C 296.304688 10.773438 296.648438 11.167969 297.339844 11.5625 C 297.859375 12.273438 297.773438 12.828125 297.082031 13.222656 L 295.523438 13.933594 C 294.3125 13.855469 293.1875 13.796875 292.148438 13.757812 C 291.191406 13.722656 290.238281 13.625 289.296875 13.460938 C 288.910156 13.378906 288.515625 13.359375 288.128906 13.402344 C 287.738281 13.445312 287.34375 13.421875 286.960938 13.34375 C 285.054688 13.183594 283.195312 13.066406 281.378906 12.988281 C 279.5625 12.910156 277.707031 12.792969 275.8125 12.632812 C 274.429688 12.554688 273.214844 12.515625 272.179688 12.515625 C 271.136719 12.515625 270.097656 12.433594 269.066406 12.277344 C 265.777344 12.277344 262.535156 12.238281 259.335938 12.160156 C 256.132812 12.082031 252.890625 11.964844 249.601562 11.804688 L 233.90625 11.570312 C 228.628906 11.492188 223.222656 11.453125 217.6875 11.453125 L 215.21875 11.453125 C 214.441406 11.453125 213.621094 11.492188 212.753906 11.570312 L 210.160156 11.570312 C 209.296875 11.570312 208.429688 11.53125 207.566406 11.453125 C 205.316406 11.371094 203.113281 11.3125 200.949219 11.273438 C 198.789062 11.230469 196.582031 11.25 194.332031 11.332031 L 187.457031 11.332031 C 185.292969 11.332031 183.003906 11.371094 180.582031 11.449219 C 176.773438 11.527344 173.097656 11.605469 169.550781 11.6875 C 166.007812 11.765625 162.417969 11.804688 158.785156 11.804688 C 156.363281 11.882812 153.894531 11.921875 151.386719 11.921875 C 148.878906 11.921875 146.414062 11.960938 143.992188 12.039062 C 142.78125 12.117188 141.570312 12.175781 140.359375 12.214844 C 139.148438 12.257812 137.847656 12.277344 136.464844 12.273438 C 132.484375 12.433594 128.378906 12.570312 124.140625 12.691406 C 119.902344 12.808594 115.792969 12.949219 111.816406 13.105469 C 109.910156 13.183594 108.09375 13.222656 106.363281 13.222656 C 104.632812 13.222656 102.816406 13.304688 100.914062 13.464844 C 97.28125 13.699219 93.5625 13.917969 89.757812 14.117188 C 85.953125 14.316406 82.0625 14.535156 78.082031 14.769531 C 77.042969 14.847656 75.921875 14.90625 74.707031 14.949219 C 73.578125 14.980469 72.449219 15.082031 71.332031 15.246094 C 69.082031 15.40625 66.789062 15.542969 64.453125 15.664062 C 62.121094 15.78125 59.742188 15.960938 57.316406 16.195312 C 55.242188 16.433594 53.253906 16.570312 51.351562 16.613281 C 49.445312 16.652344 47.457031 16.671875 45.382812 16.671875 C 44.515625 16.59375 43.695312 16.535156 42.917969 16.492188 C 42.082031 16.445312 41.257812 16.304688 40.449219 16.078125 C 39.855469 15.898438 39.246094 15.761719 38.632812 15.660156 C 37.941406 15.542969 37.164062 15.402344 36.296875 15.246094 C 33.875 15.5625 31.195312 15.859375 28.253906 16.136719 C 25.3125 16.410156 22.457031 16.785156 19.691406 17.261719 C 18.492188 17.488281 17.277344 17.648438 16.058594 17.734375 C 12.046875 18.324219 7.960938 17.921875 4.121094 16.550781 C 2.738281 16.148438 1.960938 15.628906 1.785156 14.996094 C 1.613281 14.363281 2.132812 13.773438 3.34375 13.21875 C 3.34375 12.984375 3.6875 12.867188 4.378906 12.867188 C 5.609375 12.8125 6.828125 12.613281 8.015625 12.273438 C 9.203125 11.925781 10.421875 11.6875 11.648438 11.558594 C 14.246094 11.324219 16.839844 10.96875 19.433594 10.496094 C 20.820312 10.335938 22.203125 10.199219 23.589844 10.078125 C 24.972656 9.960938 26.441406 9.820312 27.996094 9.664062 C 31.457031 9.347656 34.828125 9.03125 38.113281 8.714844 C 41.398438 8.394531 44.773438 8.117188 48.234375 7.882812 C 56.1875 7.171875 64.058594 6.578125 71.847656 6.101562 C 74.097656 5.941406 76.261719 5.785156 78.335938 5.625 C 80.414062 5.46875 82.402344 5.308594 84.304688 5.152344 C 86.378906 4.992188 88.5 4.835938 90.660156 4.675781 C 92.824219 4.519531 95.027344 4.398438 97.277344 4.320312 L 98.964844 4.320312 C 99.535156 4.324219 100.105469 4.246094 100.652344 4.082031 C 102.558594 3.925781 104.375 3.824219 106.105469 3.785156 C 107.835938 3.746094 109.652344 3.6875 111.554688 3.609375 C 112.5 3.449219 113.464844 3.449219 114.410156 3.609375 C 114.84375 3.636719 115.28125 3.597656 115.707031 3.492188 C 116.667969 3.164062 117.683594 3.042969 118.6875 3.136719 C 119.859375 3.214844 121.03125 3.175781 122.191406 3.019531 C 123.578125 3.019531 124.613281 3.058594 125.304688 3.136719 C 125.382812 3.136719 125.460938 3.140625 125.539062 3.152344 C 125.667969 3.085938 125.808594 3.042969 125.953125 3.019531 C 126.171875 2.996094 126.386719 2.957031 126.601562 2.898438 C 127.816406 2.582031 129.09375 2.707031 130.234375 3.253906 C 130.578125 3.175781 131.011719 3.097656 131.53125 3.019531 L 133.089844 2.78125 C 133.433594 2.78125 133.867188 2.800781 134.386719 2.839844 C 134.90625 2.878906 135.425781 2.859375 135.941406 2.78125 C 138.367188 2.703125 140.789062 2.683594 143.210938 2.722656 C 145.636719 2.761719 148.0625 2.664062 150.476562 2.425781 C 151.035156 2.34375 151.601562 2.304688 152.164062 2.308594 L 153.851562 2.308594 C 154.1875 2.160156 154.53125 2.042969 154.886719 1.964844 L 155.925781 1.726562 C 156.714844 1.871094 157.492188 2.070312 158.257812 2.320312 C 158.644531 1.996094 159.085938 1.753906 159.554688 1.605469 C 160.144531 1.414062 160.757812 1.332031 161.371094 1.371094 C 162.070312 1.351562 162.769531 1.429688 163.449219 1.605469 C 164.363281 1.957031 165.339844 2.078125 166.304688 1.964844 C 167.859375 1.886719 169.460938 1.828125 171.101562 1.785156 C 172.746094 1.746094 174.261719 1.683594 175.644531 1.601562 C 176.507812 1.601562 177.417969 1.582031 178.367188 1.542969 C 179.320312 1.503906 180.316406 1.484375 181.351562 1.484375 C 181.179688 1.40625 181.351562 1.167969 181.871094 0.773438 L 185.761719 0.773438 C 186.109375 0.773438 186.238281 0.890625 186.152344 1.125 C 186.066406 1.363281 186.453125 1.363281 187.320312 1.125 C 187.921875 1.046875 188.535156 1.046875 189.136719 1.125 C 191.378906 1.367188 193.632812 1.40625 195.882812 1.242188 C 198.730469 0.839844 201.621094 0.921875 204.441406 1.480469 C 204.890625 1.351562 205.328125 1.171875 205.738281 0.949219 C 206.085938 0.75 206.429688 0.574219 206.777344 0.414062 C 206.839844 0.4375 206.894531 0.46875 206.949219 0.507812 Z M 206.953125 0.511719 "/>
</g>
</svg>
