<svg xmlns="http://www.w3.org/2000/svg" width="464" height="251" viewBox="0 0 464 251" fill="none"><path fill-rule="evenodd" clip-rule="evenodd" d="M257.819 214.967H259.403C259.403 215.097 259.405 215.188 259.411 215.236C259.424 215.952 259.472 216.417 259.564 216.625C259.66 216.848 259.827 217.013 260.065 217.124C260.304 217.233 260.668 217.313 261.157 217.361C261.791 217.42 262.999 217.45 264.779 217.45C266.456 217.45 267.7 217.361 268.503 217.181C269.287 217.007 269.677 216.405 269.677 215.371C269.68 214.775 269.596 214.334 269.427 214.052C269.265 213.786 268.972 213.612 268.541 213.533C268.069 213.449 267.28 213.405 266.176 213.401C265.944 213.401 264.623 213.401 262.216 213.401C260.775 213.401 259.748 213.215 259.123 212.845C258.583 212.527 258.221 212.113 258.041 211.6C257.875 211.12 257.791 210.579 257.791 209.976C257.791 208.877 258.099 208.08 258.713 207.584C259.103 207.266 259.531 207.052 260.004 206.939C261.16 206.664 262.867 206.526 265.117 206.526C266.809 206.526 268.097 206.652 268.98 206.903C269.395 207.016 269.757 207.21 270.079 207.486C270.397 207.761 270.617 208.064 270.736 208.4C270.88 208.801 270.956 209.394 270.969 210.184H269.339C269.339 210.089 269.339 210.025 269.339 209.994C269.333 209.397 269.268 208.997 269.143 208.792C268.913 208.416 268.344 208.163 267.429 208.031C266.816 207.948 266.015 207.905 265.029 207.905C263.067 207.905 261.635 208.009 260.739 208.22C260.165 208.352 259.787 208.63 259.611 209.061C259.511 209.3 259.457 209.609 259.457 209.985C259.457 210.541 259.527 210.942 259.671 211.193C259.911 211.606 260.76 211.853 262.216 211.94C262.617 211.961 264.417 211.98 267.617 211.99C268.788 211.997 269.615 212.151 270.091 212.449C270.927 212.971 271.345 213.893 271.345 215.226C271.345 216.117 271.192 216.821 270.889 217.335C270.577 217.843 270.119 218.185 269.509 218.365C268.78 218.585 267.939 218.716 266.98 218.76C265.884 218.812 264.739 218.84 263.552 218.84C262.213 218.84 261.247 218.803 260.649 218.732C259.981 218.647 259.453 218.509 259.068 218.309C258.683 218.115 258.384 217.836 258.176 217.479C257.932 217.065 257.808 216.457 257.808 215.658C257.809 215.545 257.812 215.312 257.819 214.967V214.967ZM290.759 206.526C293.176 206.526 294.849 206.633 295.773 206.847C296.449 207.009 296.965 207.366 297.324 207.924C297.761 208.618 297.977 210.221 297.977 212.737C297.979 214.261 297.899 215.463 297.736 216.347C297.517 217.567 296.844 218.297 295.721 218.543C294.807 218.741 293.449 218.84 291.644 218.84C290.599 218.84 289.479 218.824 288.287 218.793C287.096 218.765 286.32 218.735 285.961 218.705C285.353 218.647 284.873 218.545 284.519 218.408C284.168 218.271 283.855 218.056 283.58 217.762C283.256 217.422 283.041 217.023 282.935 216.564C282.753 215.805 282.665 214.514 282.665 212.692C282.665 210.706 282.8 209.306 283.069 208.49C283.391 207.52 284.129 206.951 285.283 206.777C286.363 206.609 288.188 206.526 290.759 206.526V206.526ZM289.611 207.994C288.008 207.994 286.8 208.061 285.98 208.199C285.316 208.309 284.901 208.55 284.727 208.926C284.464 209.51 284.332 210.719 284.332 212.548C284.332 214.044 284.387 215.139 284.493 215.839C284.583 216.405 284.817 216.781 285.2 216.958C285.571 217.133 286.264 217.242 287.28 217.29C288.492 217.344 289.573 217.371 290.521 217.371C292.537 217.371 293.98 217.29 294.859 217.129C295.232 217.062 295.513 216.931 295.712 216.735C295.908 216.536 296.043 216.255 296.116 215.881C296.253 215.141 296.32 214.073 296.32 212.683C296.321 212.08 296.303 211.437 296.265 210.756C296.232 210.073 296.189 209.612 296.14 209.364C296.021 208.697 295.559 208.3 294.752 208.175C294.175 208.083 293.528 208.034 292.816 208.021C291.887 208.002 290.815 207.994 289.611 207.994V207.994ZM309.653 206.562H311.284V217.358H320.943V218.793H309.653V206.562ZM331.896 206.562H333.527V212.576C333.527 214.349 333.544 215.42 333.58 215.784C333.645 216.465 333.916 216.888 334.393 217.048C335.015 217.257 336.468 217.361 338.748 217.361C340.936 217.361 342.44 217.297 343.263 217.167C343.976 217.049 344.397 216.762 344.535 216.294C344.627 215.961 344.678 215.288 344.697 214.279C344.698 214.167 344.701 213.597 344.707 212.576V206.562H346.337V212.576C346.325 214.207 346.293 215.33 346.248 215.952C346.181 216.706 345.964 217.297 345.596 217.729C345.231 218.157 344.703 218.439 344.015 218.569C343.431 218.683 342.663 218.753 341.712 218.775L339.135 218.831C336.973 218.8 335.611 218.763 335.048 218.715C334.44 218.652 333.963 218.557 333.62 218.422C333.279 218.288 332.981 218.083 332.736 217.808C332.339 217.359 332.097 216.815 332.02 216.169C331.951 215.536 331.907 214.337 331.895 212.576L331.896 206.562ZM357.227 206.562H371.123V207.997H365.003V218.793H363.373V207.997H357.227V206.562ZM382.128 206.562H383.757V218.793H382.128V206.562ZM403.528 206.526C405.948 206.526 407.62 206.633 408.544 206.847C409.221 207.009 409.736 207.366 410.095 207.924C410.532 208.618 410.748 210.221 410.748 212.737C410.749 214.261 410.669 215.463 410.508 216.347C410.288 217.567 409.615 218.297 408.492 218.543C407.577 218.741 406.22 218.84 404.415 218.84C403.369 218.84 402.249 218.824 401.057 218.793C399.868 218.765 399.091 218.735 398.732 218.705C398.125 218.647 397.644 218.545 397.289 218.408C396.937 218.271 396.625 218.056 396.351 217.762C396.027 217.422 395.812 217.023 395.705 216.564C395.525 215.805 395.436 214.514 395.436 212.692C395.437 210.706 395.571 209.306 395.839 208.49C396.161 207.52 396.901 206.951 398.053 206.777C399.135 206.609 400.959 206.526 403.528 206.526ZM402.383 207.994C400.78 207.994 399.571 208.061 398.751 208.199C398.088 208.309 397.672 208.55 397.497 208.926C397.234 209.51 397.102 210.719 397.102 212.548C397.102 214.044 397.157 215.139 397.265 215.839C397.355 216.405 397.589 216.781 397.971 216.958C398.341 217.133 399.036 217.242 400.051 217.29C401.261 217.344 402.345 217.371 403.293 217.371C405.309 217.371 406.752 217.29 407.629 217.129C408.003 217.062 408.284 216.931 408.483 216.735C408.679 216.536 408.813 216.255 408.887 215.881C409.024 215.141 409.091 214.073 409.091 212.683C409.092 212.08 409.072 211.437 409.036 210.756C409.002 210.073 408.96 209.612 408.911 209.364C408.792 208.697 408.329 208.3 407.523 208.175C406.945 208.083 406.299 208.034 405.587 208.021C404.657 208.002 403.587 207.994 402.383 207.994V207.994ZM422.424 206.562H425.14L435.857 217.288H436.235V206.562H437.864V218.793H435.104L424.412 208.094H424.055V218.793H422.424V206.562ZM449.449 214.967H451.035C451.035 215.097 451.036 215.188 451.043 215.236C451.056 215.952 451.104 216.417 451.195 216.625C451.291 216.848 451.457 217.013 451.696 217.124C451.936 217.233 452.299 217.313 452.789 217.361C453.423 217.42 454.629 217.45 456.409 217.45C458.087 217.45 459.331 217.361 460.135 217.181C460.917 217.007 461.309 216.405 461.309 215.371C461.309 214.775 461.227 214.334 461.059 214.052C460.897 213.786 460.602 213.612 460.172 213.533C459.701 213.449 458.912 213.405 457.808 213.401C457.574 213.401 456.253 213.401 453.847 213.401C452.407 213.401 451.379 213.215 450.755 212.845C450.215 212.527 449.853 212.113 449.672 211.6C449.505 211.12 449.421 210.579 449.421 209.976C449.421 208.877 449.729 208.08 450.345 207.584C450.735 207.266 451.161 207.052 451.636 206.939C452.793 206.664 454.499 206.526 456.749 206.526C458.441 206.526 459.728 206.652 460.612 206.903C461.025 207.016 461.389 207.21 461.711 207.486C462.028 207.761 462.248 208.064 462.368 208.4C462.512 208.801 462.586 209.394 462.6 210.184H460.969C460.969 210.089 460.969 210.025 460.969 209.994C460.964 209.397 460.9 208.997 460.774 208.792C460.544 208.416 459.976 208.163 459.061 208.031C458.447 207.948 457.645 207.905 456.66 207.905C454.699 207.905 453.265 208.009 452.369 208.22C451.796 208.352 451.417 208.63 451.241 209.061C451.141 209.3 451.088 209.609 451.088 209.985C451.088 210.541 451.158 210.942 451.302 211.193C451.541 211.606 452.391 211.853 453.847 211.94C454.248 211.961 456.048 211.98 459.248 211.99C460.42 211.997 461.245 212.151 461.723 212.449C462.557 212.971 462.976 213.893 462.976 215.226C462.976 216.117 462.823 216.821 462.52 217.335C462.209 217.843 461.749 218.185 461.141 218.365C460.41 218.585 459.569 218.716 458.612 218.76C457.515 218.812 456.369 218.84 455.184 218.84C453.844 218.84 452.877 218.803 452.281 218.732C451.612 218.647 451.084 218.509 450.7 218.309C450.314 218.115 450.015 217.836 449.807 217.479C449.563 217.065 449.44 216.457 449.44 215.658C449.441 215.545 449.443 215.312 449.449 214.967" fill="#25CED1"></path><path fill-rule="evenodd" clip-rule="evenodd" d="M160.927 214.083H246.923V211.473H160.927V214.083" fill="#25CED1"></path><path fill-rule="evenodd" clip-rule="evenodd" d="M160.628 175.612H163.509L171.228 183.282L178.697 175.612H181.671L172.291 185.061V191.596H170.16V185.061L160.628 175.612ZM192.479 175.564C195.212 175.564 197.139 175.652 198.257 175.828C199.377 176.002 200.196 176.344 200.712 176.85C201.04 177.17 201.284 177.554 201.448 177.994C201.612 178.433 201.744 179.053 201.835 179.849C201.951 180.856 202.011 182.13 202.011 183.67C202.011 185.636 201.919 187.126 201.735 188.134C201.552 189.145 201.236 189.889 200.78 190.357C200.312 190.857 199.541 191.196 198.469 191.38C197.395 191.564 195.636 191.656 193.193 191.656C191.991 191.656 190.66 191.636 189.192 191.596C187.731 191.56 186.767 191.52 186.307 191.48C185.512 191.404 184.884 191.272 184.42 191.092C183.96 190.912 183.553 190.633 183.193 190.249C182.717 189.749 182.397 189.049 182.237 188.142C182.079 187.236 181.999 185.704 181.999 183.55C181.999 181.008 182.175 179.197 182.525 178.13C182.947 176.862 183.913 176.12 185.42 175.892C186.799 175.68 189.153 175.572 192.479 175.564ZM191.252 177.482C189.017 177.482 187.377 177.57 186.331 177.75C185.724 177.854 185.284 178.026 185.012 178.273C184.744 178.517 184.556 178.921 184.444 179.473C184.264 180.364 184.176 181.668 184.176 183.386C184.177 185.153 184.224 186.44 184.324 187.246C184.42 188.054 184.596 188.598 184.856 188.869C185.06 189.097 185.351 189.261 185.736 189.361C186.115 189.465 186.723 189.541 187.551 189.597C188.917 189.689 190.504 189.737 192.315 189.737C194.893 189.737 196.763 189.633 197.935 189.421C198.857 189.265 199.405 188.722 199.577 187.79C199.757 186.792 199.844 185.433 199.844 183.714C199.845 181.616 199.764 180.133 199.608 179.273C199.453 178.402 198.849 177.882 197.793 177.718C197.179 177.622 196.484 177.562 195.712 177.534C194.936 177.506 193.449 177.49 191.252 177.482V177.482ZM204.324 175.612H206.456V183.47C206.456 185.788 206.479 187.188 206.527 187.662C206.587 188.274 206.763 188.714 207.051 188.985C207.341 189.261 207.821 189.441 208.493 189.525C209.601 189.657 211.195 189.725 213.281 189.725C216.14 189.725 218.105 189.641 219.181 189.469C219.824 189.365 220.272 189.169 220.536 188.873C220.796 188.582 220.948 188.106 220.988 187.438C221.024 186.84 221.051 185.516 221.068 183.47V175.612H223.197V183.47C223.183 185.6 223.143 187.072 223.081 187.882C222.943 189.273 222.431 190.241 221.547 190.788C221 191.116 220.336 191.324 219.556 191.408C218.777 191.496 216.851 191.572 213.785 191.644C211.091 191.604 209.48 191.572 208.949 191.544C208.417 191.516 207.837 191.436 207.207 191.305C206.151 191.076 205.38 190.485 204.888 189.525C204.652 189.054 204.504 188.494 204.448 187.842C204.389 187.192 204.348 185.732 204.324 183.47V175.612ZM225.832 191.596V175.612H235.796C238.497 175.644 240.22 175.708 240.972 175.812C242.291 175.984 243.203 176.574 243.709 177.59C244.047 178.27 244.213 179.217 244.213 180.436C244.213 181.356 244.161 182.06 244.061 182.538C243.961 183.018 243.781 183.402 243.523 183.69C243.111 184.153 242.463 184.477 241.58 184.665C242.267 184.781 242.815 185.045 243.217 185.46C243.523 185.788 243.717 186.18 243.805 186.632C243.889 187.082 243.933 187.982 243.933 189.325V191.596H241.803V190.061C241.803 188.758 241.775 187.858 241.719 187.36C241.564 186.344 240.992 185.748 240 185.576C239.609 185.525 239.261 185.488 238.953 185.476C238.641 185.464 237.591 185.457 235.796 185.448H227.961V191.596H225.832ZM227.961 183.573H235.796C237.871 183.573 239.201 183.546 239.789 183.485C240.372 183.426 240.848 183.282 241.215 183.046C241.763 182.686 242.035 181.808 242.035 180.4C242.035 179.193 241.783 178.406 241.276 178.05C240.948 177.814 240.432 177.662 239.736 177.59C239.037 177.522 237.723 177.486 235.796 177.486H227.961V183.573ZM252.611 191.596V175.612H268.279V177.486H254.741V182.366H267.703V184.241H254.741V189.721H268.291V191.596H252.611ZM270.208 175.612H274.469L283.147 189.161L291.684 175.612H295.968V191.596H293.837V177.59H292.947L284.025 191.596H282.291L273.275 177.59H272.339V191.596H270.208V175.612ZM298.753 191.596V175.612H308.869C311.524 175.668 313.127 175.728 313.669 175.8C314.179 175.868 314.645 176.052 315.069 176.344C315.497 176.636 315.812 177.002 316.024 177.438C316.368 178.142 316.54 179.181 316.54 180.552C316.54 181.63 316.448 182.478 316.264 183.098C316.08 183.721 315.78 184.209 315.356 184.569C314.929 184.937 314.481 185.185 314.017 185.312C313.551 185.44 312.831 185.521 311.856 185.552C311.504 185.56 310.508 185.569 308.869 185.576H300.884V191.596H298.753ZM300.884 183.702H308.869C310.821 183.693 312.035 183.661 312.511 183.609C312.987 183.554 313.391 183.394 313.717 183.126C313.957 182.926 314.125 182.642 314.221 182.278C314.313 181.914 314.361 181.364 314.361 180.624C314.361 179.805 314.321 179.221 314.237 178.873C314.157 178.526 313.993 178.258 313.753 178.069C313.443 177.838 313.047 177.69 312.575 177.634C312.104 177.574 310.868 177.526 308.869 177.486H300.884V183.702ZM318.447 175.612H320.576V189.721H333.199V191.596H318.447V175.612ZM345.056 175.564C347.791 175.564 349.717 175.652 350.836 175.828C351.956 176.002 352.775 176.344 353.291 176.85C353.619 177.17 353.861 177.554 354.025 177.994C354.189 178.433 354.321 179.053 354.413 179.849C354.529 180.856 354.589 182.13 354.589 183.67C354.591 185.636 354.497 187.126 354.313 188.134C354.129 189.145 353.815 189.889 353.359 190.357C352.891 190.857 352.119 191.196 351.048 191.38C349.973 191.564 348.213 191.656 345.772 191.656C344.569 191.656 343.237 191.636 341.771 191.596C340.308 191.56 339.345 191.52 338.885 191.48C338.091 191.404 337.463 191.272 336.999 191.092C336.539 190.912 336.132 190.633 335.772 190.249C335.296 189.749 334.976 189.049 334.816 188.142C334.656 187.236 334.576 185.704 334.576 183.55C334.577 181.008 334.752 179.197 335.104 178.13C335.524 176.862 336.491 176.12 337.999 175.892C339.377 175.68 341.731 175.572 345.056 175.564V175.564ZM343.829 177.482C341.596 177.482 339.956 177.57 338.909 177.75C338.301 177.854 337.861 178.026 337.591 178.273C337.323 178.517 337.135 178.921 337.023 179.473C336.843 180.364 336.755 181.668 336.755 183.386C336.755 185.153 336.803 186.44 336.903 187.246C336.999 188.054 337.175 188.598 337.435 188.869C337.639 189.097 337.929 189.261 338.313 189.361C338.693 189.465 339.301 189.541 340.128 189.597C341.496 189.689 343.081 189.737 344.892 189.737C347.471 189.737 349.341 189.633 350.512 189.421C351.436 189.265 351.984 188.722 352.156 187.79C352.335 186.792 352.423 185.433 352.423 183.714C352.424 181.616 352.343 180.133 352.187 179.273C352.032 178.402 351.428 177.882 350.372 177.718C349.757 177.622 349.061 177.562 348.289 177.534C347.515 177.506 346.028 177.49 343.829 177.482V177.482ZM354.877 175.612H357.759L365.477 183.282L372.947 175.612H375.92L366.54 185.061V191.596H364.409V185.061L354.877 175.612ZM377.183 175.612H381.444L390.121 189.161L398.659 175.612H402.943V191.596H400.813V177.59H399.921L391 191.596H389.265L380.248 177.59H379.313V191.596H377.183V175.612ZM405.728 191.596V175.612H421.396V177.486H407.859V182.366H420.821V184.241H407.859V189.721H421.408V191.596H405.728ZM423.327 175.612H426.875L440.881 189.629H441.372V175.612H443.503V191.596H439.897L425.924 177.614H425.456V191.596H423.327V175.612ZM445.1 175.612H463.263V177.486H455.265V191.596H453.135V177.486H445.1V175.612" fill="#25CED1"></path><path fill-rule="evenodd" clip-rule="evenodd" d="M116.965 221.671L104.297 115.169L101.431 91.064L91.6265 104.401L81.8252 91.064L78.9585 115.169L66.2905 221.671H66.9145L79.0892 236.055L91.6265 250.867L104.168 236.055L116.343 221.671H116.965" fill="#25CED1"></path><path fill-rule="evenodd" clip-rule="evenodd" d="M68.532 118.744L72.4133 86.1201L73.724 75.0935L58.308 48.3935L30.3933 0.0414784H0L27.9146 48.3935L68.532 118.744" fill="#25CED1"></path><path fill-rule="evenodd" clip-rule="evenodd" d="M109.531 75.0935L110.843 86.1201L114.724 118.744L155.34 48.3935L183.256 0.0414784H152.863L124.948 48.3935L109.531 75.0935Z" fill="#25CED1"></path><path fill-rule="evenodd" clip-rule="evenodd" d="M91.6268 66.5254C102.892 66.5254 112.027 57.3907 112.027 46.1267C112.027 34.8614 102.892 25.7281 91.6268 25.7281C80.3642 25.7267 71.2295 34.8614 71.2295 46.1267C71.2295 57.3907 80.3628 66.5254 91.6268 66.5254" fill="#25CED1"></path><path fill-rule="evenodd" clip-rule="evenodd" d="M361.974 71.1667H419.85C424.83 71.1667 429.761 72.1121 434.073 74.7001C434.534 74.9734 434.985 75.2667 435.421 75.5801C433.774 70.5214 430.84 66.0854 426.453 62.2721C409.393 47.5361 383.152 46.3747 361.974 46.3747C358.55 46.3734 355.336 45.5534 352.572 43.4787C349.98 41.5347 348.937 38.8787 348.937 35.6734C348.937 32.4534 350.07 29.8494 352.606 27.8414C355.332 25.6814 358.514 24.7947 361.974 24.7947H456.242V6.96091e-05H361.974C351.729 6.96091e-05 342.137 2.64273 334.113 9.1934C325.909 15.9881 321.988 24.8734 321.988 35.4934C321.988 46.1641 325.86 55.1387 334.109 61.9694C342.137 68.5241 351.729 71.1667 361.974 71.1667" fill="#25CED1"></path><path fill-rule="evenodd" clip-rule="evenodd" d="M419.633 101.372H198.907V126.166H419.633C430.984 126.166 441.585 123.214 450.384 115.883C459.332 108.231 463.393 98.2402 463.393 86.5389C463.393 74.7949 459.305 64.7749 450.405 57.0349C441.664 49.4855 431.093 46.3749 419.632 46.3749L398.512 46.3735C410.675 49.6922 419.836 51.9029 428.757 59.6082C436.439 66.2855 440.188 74.7975 440.543 84.9455L440.577 86.0002L440.572 86.4295L440.569 86.4882C440.424 91.4148 438.063 95.0069 433.985 97.6909C429.64 100.347 424.713 101.372 419.633 101.372Z" fill="#25CED1"></path><path fill-rule="evenodd" clip-rule="evenodd" d="M308.499 49.7882H199.047V74.5815H308.499V49.7882Z" fill="#25CED1"></path><path fill-rule="evenodd" clip-rule="evenodd" d="M308.496 -0.000229158H200.749C200.132 -0.000229158 199.517 -0.000227856 198.907 0.00110548V24.6451C206.5 24.4291 214.344 24.7944 222.137 24.7944H308.496V-0.000229158Z" fill="#25CED1"></path></svg>